<svg xmlns="http://www.w3.org/2000/svg" xmlns:xlink="http://www.w3.org/1999/xlink" width="93.75" height="24" viewBox="0 0 93.75 24"><defs><style>.a{fill:url(#a);}.b{fill:#084e78;}</style><linearGradient id="a" y1="0.5" x2="1" y2="0.5" gradientUnits="objectBoundingBox"><stop offset="0" stop-color="#084e78"/><stop offset="1" stop-color="#166094"/></linearGradient></defs><path class="a" d="M1,1.06v24H25.026v-24Zm3.4,5.8h7.565V8.138H4.4Zm7.166,5.507v1.276H4.8V12.369Zm.443,6.888H4.356V17.983H12.01Zm9.936-3.382c0,2.124-1.79,3.382-4.5,3.382h-4.11V18h4.144c1.879,0,3.049-.832,3.049-2.213v-.036c0-1.346-1.134-2.125-3.3-2.125H13.335v-1.24h3.648c1.685,0,2.854-.761,2.854-2.213V10.14c0-1.222-.975-2.019-2.747-2.019H13.335V6.863h3.879a4.56,4.56,0,0,1,3.243,1.1,2.75,2.75,0,0,1,.8,1.983v.034a2.993,2.993,0,0,1-1.968,2.869c1.471.442,2.659,1.292,2.659,2.992Z" transform="translate(-1 -1.06)"/><path class="b" d="M932.41,228.527V219.2h6.846v1.295h-5.461v2.683h4.886v1.295h-4.886v2.76h5.525v1.295Z" transform="translate(-901.113 -211.863)"/><path class="b" d="M938,224.75h6.472v.921h-5.461v3.057H943.9v.921h-4.885v3.133h5.525v.921H938Z" transform="translate(-906.515 -217.227)"/><path class="b" d="M1224.74,228.526V219.2h3.3a4.671,4.671,0,1,1,0,9.327Zm3.3-1.307a3.36,3.36,0,1,0,0-6.713h-1.911v6.714Z" transform="translate(-1183.622 -211.863)"/><path class="b" d="M1230.28,224.75h3.108a4.462,4.462,0,0,1,4.758,4.451v.026a4.482,4.482,0,0,1-4.758,4.477h-3.108Zm1.011.934v7.086h2.1a3.466,3.466,0,0,0,3.709-3.518v-.026a3.485,3.485,0,0,0-3.709-3.543Z" transform="translate(-1188.975 -217.227)"/><path class="b" d="M1559.328,228.668c-2.411,0-3.908-1.562-3.908-4.077V219.2h1.384v5.329c0,1.8.93,2.83,2.55,2.83s2.512-.983,2.512-2.768V219.2h1.385v5.316C1563.25,227.116,1561.784,228.668,1559.328,228.668Z" transform="translate(-1503.19 -211.864)"/><path class="b" d="M1561,229.956V224.75h1.011v5.142c0,1.931,1.036,3.018,2.737,3.018,1.651,0,2.7-1,2.7-2.955V224.75h1.011v5.129c0,2.609-1.5,3.965-3.735,3.965C1562.507,233.844,1561,232.488,1561,229.956Z" transform="translate(-1508.582 -217.227)"/><path class="b" d="M1885.68,228.526V219.2h4a3.454,3.454,0,0,1,2.471.846,2.18,2.18,0,0,1,.632,1.567,2.289,2.289,0,0,1-1.137,2.064,2.274,2.274,0,0,1,1.636,2.2c0,1.647-1.316,2.655-3.436,2.655Zm4.19-1.28c1.26,0,2.013-.528,2.013-1.412,0-1.14-1.192-1.374-2.192-1.374h-2.64v2.786Zm-.358-4.055c1.172,0,1.873-.528,1.873-1.412,0-.834-.655-1.3-1.8-1.3h-2.538v2.709Z" transform="translate(-1822.352 -211.863)"/><path class="b" d="M1891.23,224.75h3.811a3.289,3.289,0,0,1,2.341.793,1.991,1.991,0,0,1,.576,1.433V227a2.162,2.162,0,0,1-1.42,2.072c1.062.319,1.919.934,1.919,2.162v.026c0,1.535-1.292,2.443-3.249,2.443h-3.978Zm5.7,2.367c0-.882-.7-1.458-1.983-1.458h-2.724v3.083h2.647c1.215,0,2.059-.55,2.059-1.6Zm-1.88,2.52h-2.827V232.8h3.006c1.355,0,2.2-.6,2.2-1.6v-.026c0-.973-.819-1.536-2.379-1.536Z" transform="translate(-1827.715 -217.227)"/><path class="b" d="M2180.088,226.69l-1.049-2.366h-4.631l-1.062,2.366H2171.9l4.249-9.39h1.188l4.25,9.39Zm-1.612-3.661-1.746-3.908-1.757,3.908Z" transform="translate(-2098.99 -210.027)"/><path class="b" d="M2184.58,222.85h.947l4.08,9.017h-1.087l-1.049-2.366H2182.6l-1.061,2.366H2180.5Zm2.493,5.73-2.033-4.553-2.047,4.553Z" transform="translate(-2107.301 -215.39)"/><path class="b" d="M2513.041,224.274a4.662,4.662,0,0,1-4.74-4.792,4.744,4.744,0,0,1,4.766-4.843,4.662,4.662,0,0,1,4.74,4.792A4.744,4.744,0,0,1,2513.041,224.274Zm0-8.327a3.514,3.514,0,1,0,3.343,3.535A3.329,3.329,0,0,0,2513.041,215.948Z" transform="translate(-2424.056 -207.457)"/><path class="b" d="M2513.84,224.846v-.026a4.566,4.566,0,1,1,9.132-.026v.026a4.566,4.566,0,1,1-9.132.026Zm8.083,0v-.026a3.559,3.559,0,0,0-3.53-3.7,3.516,3.516,0,0,0-3.5,3.672v.026a3.559,3.559,0,0,0,3.53,3.7A3.517,3.517,0,0,0,2521.924,224.846Z" transform="translate(-2429.41 -212.82)"/></svg>