<svg xmlns="http://www.w3.org/2000/svg" width="300" height="300" viewBox="0 0 300 300">
  <g id="EDUBAO_App_Illustrations_Guide.ToDo.Gift" data-name="EDUBAO_App Illustrations_Guide.ToDo.Gift" transform="translate(-0.1 -0.54)">
    <g id="Rectangle_594" data-name="Rectangle 594" transform="translate(0.1 0.54)">
      <rect id="Rechteck_1559" data-name="Rechteck 1559" width="300" height="300" fill="none"/>
    </g>
    <path id="Pfad_63594" data-name="Pfad 63594" d="M161.358,22.519h0a12.3,12.3,0,0,0,15.853,2.792h0a12.28,12.28,0,0,1,17.925,6.515h0a12.265,12.265,0,0,0,13.931,8.047h0A12.3,12.3,0,0,1,223.69,52.138h0A12.3,12.3,0,0,0,234.033,64.4h0a12.265,12.265,0,0,1,9.533,16.514h0a12.31,12.31,0,0,0,5.48,15.163h0a12.28,12.28,0,0,1,3.318,18.78h0a12.265,12.265,0,0,0,0,16.093h0a12.3,12.3,0,0,1-3.318,18.765h0a12.28,12.28,0,0,0-5.51,15.117h0A12.3,12.3,0,0,1,234,181.35h0a12.265,12.265,0,0,0-10.344,12.325h0a12.3,12.3,0,0,1-14.622,12.265h0a12.265,12.265,0,0,0-13.932,8.047h0a12.28,12.28,0,0,1-17.925,6.515h0a12.28,12.28,0,0,0-15.853,2.807h0a12.3,12.3,0,0,1-19.081,0h0a12.28,12.28,0,0,0-15.853-2.807h0a12.28,12.28,0,0,1-17.925-6.515h0a12.265,12.265,0,0,0-13.932-8.047h0a12.3,12.3,0,0,1-14.592-12.28h0A12.265,12.265,0,0,0,69.6,181.335h0a12.3,12.3,0,0,1-9.533-16.514h0A12.28,12.28,0,0,0,54.56,149.7h0a12.3,12.3,0,0,1-3.318-18.8h0a12.265,12.265,0,0,0,0-16.093h0A12.28,12.28,0,0,1,54.56,96.079h0a12.31,12.31,0,0,0,5.51-15.163h0A12.265,12.265,0,0,1,69.6,64.4h0a12.3,12.3,0,0,0,10.344-12.34h0A12.3,12.3,0,0,1,94.568,39.8h0A12.265,12.265,0,0,0,108.5,31.751h0a12.28,12.28,0,0,1,17.925-6.515h0a12.3,12.3,0,0,0,15.853-2.717h0a12.28,12.28,0,0,1,19.081,0Z" transform="translate(24.13 8.737)" fill="#7bcbf7"/>
    <path id="Pfad_63595" data-name="Pfad 63595" d="M143.069,43.181a2.177,2.177,0,0,0,.135,3.288c1.186.961,3.2,1.2,3.888.465a4.654,4.654,0,0,0-.15-4.414C146.221,41.83,144.165,42.175,143.069,43.181Z" transform="translate(71.318 20.861)" fill="#11537c"/>
    <path id="Pfad_63596" data-name="Pfad 63596" d="M146.168,33.3a2.582,2.582,0,0,0-2.717,4.264,3.453,3.453,0,0,0,3.558.345C147.954,37.079,147.384,33.927,146.168,33.3Z" transform="translate(71.462 16.335)" fill="#11537c"/>
    <path id="Pfad_63597" data-name="Pfad 63597" d="M142.335,88.27a2.087,2.087,0,0,0-.18,3c1.186,1.231,3.573,1.5,4.249.616a4.5,4.5,0,0,0-.6-3.993C145.2,87.174,143.4,87.385,142.335,88.27Z" transform="translate(70.926 43.568)" fill="#11537c"/>
    <path id="Pfad_63598" data-name="Pfad 63598" d="M97.845,42.3a2.072,2.072,0,0,0-.225,3c1.156,1.171,3.573,1.5,4.279.691a5,5,0,0,0-.12-4.068C101.148,41.081,99.016,41.321,97.845,42.3Z" transform="translate(48.61 20.485)" fill="#11537c"/>
    <path id="Pfad_63599" data-name="Pfad 63599" d="M142.337,97.13a2.657,2.657,0,0,0-.075,3.783,3.3,3.3,0,0,0,3.543.33c.856-.676.585-3.288-.45-4.339a2.387,2.387,0,0,0-3.017.225Z" transform="translate(70.879 48.085)" fill="#11537c"/>
    <path id="Pfad_63600" data-name="Pfad 63600" d="M100.977,81.953c.706-.465.646-1.877-.12-3A2.192,2.192,0,0,0,97.6,78.14a2.522,2.522,0,0,0-.856,3,3.258,3.258,0,0,0,4.234.811Z" transform="translate(48.346 38.686)" fill="#11537c"/>
    <path id="Pfad_63601" data-name="Pfad 63601" d="M137.941,46.065a3,3,0,0,0-.3-3.5,3,3,0,0,0-3.828.676,2.432,2.432,0,0,0,.345,3,2.6,2.6,0,0,0,3.783-.18Z" transform="translate(66.838 20.86)" fill="#11537c"/>
    <path id="Pfad_63602" data-name="Pfad 63602" d="M146.475,82.66c.646-.841.105-2.762-1.051-3.768a2.132,2.132,0,0,0-3,.375,2.477,2.477,0,0,0,.075,3.393,3.273,3.273,0,0,0,3.978,0Z" transform="translate(71.019 39.045)" fill="#11537c"/>
    <path id="Pfad_63603" data-name="Pfad 63603" d="M51.836,77.74a2.3,2.3,0,0,0,0,3,3.513,3.513,0,0,0,4.023.21c.736-.6.42-2.357-.616-3.438a2.312,2.312,0,0,0-3.408.225Z" transform="translate(25.652 38.26)" fill="#11537c"/>
    <path id="Pfad_63604" data-name="Pfad 63604" d="M135.59,51.094a3,3,0,0,0-2.162,3.273,2.012,2.012,0,0,0,1.832,1.907c1.366.15,1.967-.886,2.432-1.907a2.582,2.582,0,0,0,.2-2.6A2.342,2.342,0,0,0,135.59,51.094Z" transform="translate(66.817 25.303)" fill="#11537c"/>
    <path id="Pfad_63605" data-name="Pfad 63605" d="M97.1,87.381a2.027,2.027,0,0,0-.225,3,3.783,3.783,0,0,0,3.963.841c.841-.465.721-2.852-.21-3.948A2.867,2.867,0,0,0,97.1,87.381Z" transform="translate(48.227 43.197)" fill="#11537c"/>
    <path id="Pfad_63606" data-name="Pfad 63606" d="M98.281,33.02a2.462,2.462,0,0,0,0,3.708,3.618,3.618,0,0,0,3.543.315c.9-.646.6-3.213-.5-4.249a2.327,2.327,0,0,0-3.048.225Z" transform="translate(48.79 15.935)" fill="#11537c"/>
    <path id="Pfad_63607" data-name="Pfad 63607" d="M69.871,113.621a3.183,3.183,0,0,0-.525,3.888,2.492,2.492,0,0,0,3.408,0,2.537,2.537,0,0,0,.57-3.393,2.882,2.882,0,0,0-3.453-.5Z" transform="translate(34.49 56.499)" fill="#11537c"/>
    <path id="Pfad_63608" data-name="Pfad 63608" d="M161.695,52.051a3,3,0,0,0-.48,3.858,2.792,2.792,0,0,0,3.093.24,2.642,2.642,0,0,0,.435-3.768A2.537,2.537,0,0,0,161.695,52.051Z" transform="translate(80.51 25.638)" fill="#11537c"/>
    <path id="Pfad_63609" data-name="Pfad 63609" d="M154.384,101.379a2.567,2.567,0,0,0,.24-3.723,2.3,2.3,0,0,0-3-.465,3,3,0,0,0-.615,3.768,2.372,2.372,0,0,0,3.378.42Z" transform="translate(75.436 48.264)" fill="#11537c"/>
    <path id="Pfad_63610" data-name="Pfad 63610" d="M51.634,86.729a1.982,1.982,0,0,0-.225,2.537,3.558,3.558,0,0,0,4.233.826c.736-.51.6-2.282-.255-3.408a2.642,2.642,0,0,0-3.753.045Z" transform="translate(25.539 42.798)" fill="#11537c"/>
    <path id="Pfad_63611" data-name="Pfad 63611" d="M161.473,43.255a2.837,2.837,0,0,0,.18,3.783,2.657,2.657,0,0,0,3.393-.405,2.612,2.612,0,0,0-.15-3.393,2.717,2.717,0,0,0-3.423.015Z" transform="translate(80.567 21.103)" fill="#11537c"/>
    <path id="Pfad_63612" data-name="Pfad 63612" d="M52.822,32.33a2.552,2.552,0,0,0-.27,3,3.273,3.273,0,0,0,3.858.6c.751-.721.405-3-.616-3.9a2.372,2.372,0,0,0-2.972.3Z" transform="translate(26.108 15.589)" fill="#11537c"/>
    <path id="Pfad_63613" data-name="Pfad 63613" d="M60.373,132.03a2.537,2.537,0,0,0-.18,3.723,2.417,2.417,0,0,0,3,0,2.642,2.642,0,0,0,.12-3.738,2.207,2.207,0,0,0-2.942.015Z" transform="translate(29.756 65.623)" fill="#11537c"/>
    <path id="Pfad_63614" data-name="Pfad 63614" d="M98.35,100.687a2.492,2.492,0,0,0,2.207-.51,3.093,3.093,0,0,0,.24-2.777A2.177,2.177,0,0,0,97.1,96.288a2.477,2.477,0,0,0-.736,2.612,2.162,2.162,0,0,0,1.982,1.786Z" transform="translate(48.196 47.665)" fill="#11537c"/>
    <path id="Pfad_63615" data-name="Pfad 63615" d="M97.688,51.286a2.627,2.627,0,0,0,0,3.468,2.882,2.882,0,0,0,3.483.45c.856-.856.856-3.768,0-4.5A3.228,3.228,0,0,0,97.688,51.286Z" transform="translate(48.587 25.007)" fill="#11537c"/>
    <path id="Pfad_63616" data-name="Pfad 63616" d="M143.218,51.875a2.537,2.537,0,0,0-.5,3.363,2.9,2.9,0,0,0,3.708.916,4.5,4.5,0,0,0,.225-4.384C146.1,51,144.223,51.065,143.218,51.875Z" transform="translate(71.274 25.408)" fill="#11537c"/>
    <path id="Pfad_63617" data-name="Pfad 63617" d="M132.657,98.5a2.417,2.417,0,0,0,1.5,3c1.021.36,2-.255,2.417-1.636a12.116,12.116,0,0,0,.45-2.312,3.652,3.652,0,0,0-.33-.961,4.5,4.5,0,0,0-1.276-.33,2.882,2.882,0,0,0-2.762,2.237Z" transform="translate(66.387 47.979)" fill="#11537c"/>
    <path id="Pfad_63618" data-name="Pfad 63618" d="M98.34,6.219a2.582,2.582,0,0,0,.525,3.408,2.237,2.237,0,0,0,3,0c.916-1.1,1.126-3.363.36-3.933a3.333,3.333,0,0,0-3.888.525Z" transform="translate(49.031 2.383)" fill="#11537c"/>
    <path id="Pfad_63619" data-name="Pfad 63619" d="M56.289,44.961a3.573,3.573,0,0,0-.135-3.933,3.363,3.363,0,0,0-3.858.706,2.012,2.012,0,0,0,.12,2.567A3.573,3.573,0,0,0,56.289,44.961Z" transform="translate(25.959 20.132)" fill="#11537c"/>
    <path id="Pfad_63620" data-name="Pfad 63620" d="M136.606,91.6a2.7,2.7,0,0,0,.285-3.468,2.6,2.6,0,0,0-3.423-.135,2.417,2.417,0,0,0-.27,3.378A2.567,2.567,0,0,0,136.606,91.6Z" transform="translate(66.431 43.545)" fill="#11537c"/>
    <path id="Pfad_63621" data-name="Pfad 63621" d="M146.675,19.423a2.192,2.192,0,0,0,.51-3.258,2.372,2.372,0,0,0-3.3-.57,2.837,2.837,0,0,0-.18,3.783,2.267,2.267,0,0,0,2.972.045Z" transform="translate(71.66 7.329)" fill="#11537c"/>
    <path id="Pfad_63622" data-name="Pfad 63622" d="M54.566,126.173a1.381,1.381,0,0,0,.886-1.5,2.882,2.882,0,0,0-2.117-2.327,2.507,2.507,0,0,0-2.222.51,2.072,2.072,0,0,0,.27,3.258,3.333,3.333,0,0,0,3.183.06Z" transform="translate(25.235 61.016)" fill="#11537c"/>
    <path id="Pfad_63623" data-name="Pfad 63623" d="M116.378,42.309a3,3,0,0,0-.33,3.5,2.439,2.439,0,1,0,3.723-3.153,2.507,2.507,0,0,0-3.393-.345Z" transform="translate(57.91 20.683)" fill="#11537c"/>
    <path id="Pfad_63624" data-name="Pfad 63624" d="M100.84,63.768a2.327,2.327,0,0,0,.2-3.378,2.372,2.372,0,0,0-3.393-.18,3,3,0,0,0-.24,3.513,2.507,2.507,0,0,0,3.438.045Z" transform="translate(48.543 29.594)" fill="#11537c"/>
    <path id="Pfad_63625" data-name="Pfad 63625" d="M54.882,107.873a2.177,2.177,0,0,0,0-3,2.342,2.342,0,0,0-3.363-.24,2.7,2.7,0,0,0-.12,3.453A2.552,2.552,0,0,0,54.882,107.873Z" transform="translate(25.429 51.873)" fill="#11537c"/>
    <path id="Pfad_63626" data-name="Pfad 63626" d="M116.369,51.271a3,3,0,0,0-.315,3.843,2.462,2.462,0,0,0,3.318-3.633,2.432,2.432,0,0,0-3-.21Z" transform="translate(57.844 25.217)" fill="#11537c"/>
    <path id="Pfad_63627" data-name="Pfad 63627" d="M110.075,63.813a2.417,2.417,0,0,0-3.558-3.273,2.642,2.642,0,0,0,.135,3.483,2.387,2.387,0,0,0,3.423-.21Z" transform="translate(53.044 29.683)" fill="#11537c"/>
    <path id="Pfad_63628" data-name="Pfad 63628" d="M134.508,33.537a3.108,3.108,0,0,0,0,3.888,3,3,0,0,0,3.483.255c.811-.585.706-2.147-.225-3.408S135.394,32.7,134.508,33.537Z" transform="translate(67.028 16.304)" fill="#11537c"/>
    <path id="Pfad_63629" data-name="Pfad 63629" d="M100.655,72.817A2.4,2.4,0,1,0,97.487,69.2a2.9,2.9,0,0,0-.24,3.483,2.507,2.507,0,0,0,3.408.135Z" transform="translate(48.458 34.116)" fill="#11537c"/>
    <path id="Pfad_63630" data-name="Pfad 63630" d="M146.584,28.412a2.192,2.192,0,0,0,.36-3.273,2.342,2.342,0,0,0-3.3-.48,2.837,2.837,0,0,0,0,3.783A2.372,2.372,0,0,0,146.584,28.412Z" transform="translate(71.586 11.851)" fill="#11537c"/>
    <path id="Pfad_63631" data-name="Pfad 63631" d="M152.975,15.8a2.642,2.642,0,0,0-.27,3.783,2.447,2.447,0,0,0,3.408-.21,2,2,0,0,0,.18-2.927,2.327,2.327,0,0,0-3.318-.646Z" transform="translate(76.154 7.434)" fill="#11537c"/>
    <path id="Pfad_63632" data-name="Pfad 63632" d="M63.755,108.416a2.267,2.267,0,0,0,.165-3.333,2.237,2.237,0,0,0-3.318-.315,2.837,2.837,0,0,0-.2,3.468,2.342,2.342,0,0,0,3.348.18Z" transform="translate(29.978 51.946)" fill="#11537c"/>
    <path id="Pfad_63633" data-name="Pfad 63633" d="M116.778,15.172A3,3,0,0,0,116.673,19a3,3,0,0,0,3.828-.525,2.267,2.267,0,0,0-.36-3,2.492,2.492,0,0,0-3.363-.3Z" transform="translate(58.111 7.076)" fill="#11537c"/>
    <path id="Pfad_63634" data-name="Pfad 63634" d="M110.459,27.786a2.237,2.237,0,0,0,.33-3.363,2.357,2.357,0,0,0-3.393-.39,2.732,2.732,0,0,0,0,3.858,2.162,2.162,0,0,0,3.063-.105Z" transform="translate(53.381 11.501)" fill="#11537c"/>
    <path id="Pfad_63635" data-name="Pfad 63635" d="M92.4,45.169a2.267,2.267,0,0,0,0-3,2.657,2.657,0,0,0-3.468-.18,2.327,2.327,0,0,0-.315,3,2.462,2.462,0,0,0,3.783.18Z" transform="translate(44.163 20.495)" fill="#11537c"/>
    <path id="Pfad_63636" data-name="Pfad 63636" d="M37.7,62.051a1.711,1.711,0,0,0,.36-2.492,2.807,2.807,0,0,0-4.188-.09,1.907,1.907,0,0,0,0,2.567A2.777,2.777,0,0,0,37.7,62.051Z" transform="translate(16.681 29.089)" fill="#11537c"/>
    <path id="Pfad_63637" data-name="Pfad 63637" d="M84.244,17.341a1.5,1.5,0,0,0,0-2.117,2.7,2.7,0,0,0-4.113-.21,2.087,2.087,0,0,0,0,2.927,3,3,0,0,0,4.113-.6Z" transform="translate(39.814 6.829)" fill="#11537c"/>
    <path id="Pfad_63638" data-name="Pfad 63638" d="M117.048,5.991a3.453,3.453,0,0,0-.165,3.963,2.627,2.627,0,0,0,3.093,0,2.7,2.7,0,0,0,.15-3.828,2.552,2.552,0,0,0-3.078-.135Z" transform="translate(58.262 2.506)" fill="#11537c"/>
    <path id="Pfad_63639" data-name="Pfad 63639" d="M107.649,15.014a2.717,2.717,0,0,0-.12,3.8,2.342,2.342,0,0,0,3.333-.33,2.207,2.207,0,0,0-.24-3.318,2.162,2.162,0,0,0-2.972-.15Z" transform="translate(53.489 6.994)" fill="#11537c"/>
    <path id="Pfad_63640" data-name="Pfad 63640" d="M101.407,27.587a2.222,2.222,0,0,0,.255-3.288,2.282,2.282,0,0,0-3.288-.405,2.807,2.807,0,0,0,0,3.783,2.417,2.417,0,0,0,3.033-.09Z" transform="translate(48.892 11.445)" fill="#11537c"/>
    <path id="Pfad_63641" data-name="Pfad 63641" d="M89.327,32.716a2.867,2.867,0,0,0,0,3.843,3,3,0,0,0,3.5,0c.751-.676.5-2.252-.54-3.393A2.207,2.207,0,0,0,89.327,32.716Z" transform="translate(44.353 15.939)" fill="#11537c"/>
    <path id="Pfad_63642" data-name="Pfad 63642" d="M101.587,18.5a2.237,2.237,0,0,0,.225-3.3,2.327,2.327,0,0,0-3.318-.285,2.852,2.852,0,0,0,.105,3.8,2.357,2.357,0,0,0,2.987-.21Z" transform="translate(48.982 6.919)" fill="#11537c"/>
    <path id="Pfad_63643" data-name="Pfad 63643" d="M55.576,62.758a2.237,2.237,0,0,0,0-3.363,2.372,2.372,0,0,0-3-.15,2.837,2.837,0,0,0-.435,3.5,2.4,2.4,0,0,0,3.438.015Z" transform="translate(25.876 29.193)" fill="#11537c"/>
    <path id="Pfad_63644" data-name="Pfad 63644" d="M37.736,71.037a1.666,1.666,0,0,0,0-2.507,3,3,0,0,0-3.828-.616,2.477,2.477,0,0,0,.12,3.348,2.447,2.447,0,0,0,3.708-.225Z" transform="translate(16.649 33.554)" fill="#11537c"/>
    <path id="Pfad_63645" data-name="Pfad 63645" d="M83.787,24.054a3,3,0,0,0-3.858-.33,2.117,2.117,0,0,0,0,3,2.777,2.777,0,0,0,4.143-.15,1.666,1.666,0,0,0-.285-2.522Z" transform="translate(39.7 11.345)" fill="#11537c"/>
    <path id="Pfad_63646" data-name="Pfad 63646" d="M74.509,32.678a2.537,2.537,0,0,0-3-.435,3.378,3.378,0,0,0-.465,3.918,2.342,2.342,0,0,0,3,.3,2.657,2.657,0,0,0,.465-3.783Z" transform="translate(35.347 15.737)" fill="#11537c"/>
    <path id="Pfad_63647" data-name="Pfad 63647" d="M128.014,24.254a2.837,2.837,0,0,0-3.408.961c-.12.105,0,.721.15,1.336a2.4,2.4,0,0,0,1.967,1.741,2.657,2.657,0,0,0,2.807-1.231,1.411,1.411,0,0,0,.225-.856,2.327,2.327,0,0,0-1.741-1.952Z" transform="translate(62.383 11.775)" fill="#11537c"/>
    <path id="Pfad_63648" data-name="Pfad 63648" d="M116.437,33.231a3.453,3.453,0,0,0,0,3.948,2.462,2.462,0,0,0,3,.135,2.672,2.672,0,0,0,.42-3.768,2.567,2.567,0,0,0-3.423-.315Z" transform="translate(58.002 16.13)" fill="#11537c"/>
    <path id="Pfad_63649" data-name="Pfad 63649" d="M78.788,69.228a2.777,2.777,0,0,0,.6,3,2.477,2.477,0,0,0,3.723-.5,1.681,1.681,0,0,0-.18-2.4C81.506,68.027,79.554,68.012,78.788,69.228Z" transform="translate(39.339 33.981)" fill="#11537c"/>
    <path id="Pfad_63650" data-name="Pfad 63650" d="M73.429,81.617a2.822,2.822,0,0,0,.2-3.858,2.552,2.552,0,0,0-3-.3,3.6,3.6,0,0,0-.615,3.993,2.537,2.537,0,0,0,3.423.165Z" transform="translate(34.866 38.377)" fill="#11537c"/>
    <path id="Pfad_63651" data-name="Pfad 63651" d="M24.275,122.273a2.852,2.852,0,0,0-.435,3.438,2.627,2.627,0,0,0,3.768-.12,2.672,2.672,0,0,0-.39-3.738,2.162,2.162,0,0,0-2.942.42Z" transform="translate(11.705 60.607)" fill="#11537c"/>
    <path id="Pfad_63652" data-name="Pfad 63652" d="M135.061,6.5a3,3,0,0,0,0,3.9,2.1,2.1,0,0,0,3-.51c1.021-1.2,1.276-2.777.555-3.453a3,3,0,0,0-3.558.06Z" transform="translate(67.286 2.677)" fill="#11537c"/>
    <path id="Pfad_63653" data-name="Pfad 63653" d="M127.438,19.28a8.677,8.677,0,0,0,1.832-.781c.8-.916.871-1.681.33-2.342a2.7,2.7,0,0,0-2.912-1.036,2.447,2.447,0,0,0-1.877,2.777,2.177,2.177,0,0,0,2.627,1.381Z" transform="translate(62.494 7.261)" fill="#11537c"/>
    <path id="Pfad_63654" data-name="Pfad 63654" d="M120.217,24.618A2.882,2.882,0,0,0,116.4,24.3a3,3,0,0,0,.315,3.843,2.672,2.672,0,0,0,3.393-.57,2.177,2.177,0,0,0,.105-2.957Z" transform="translate(58.02 11.622)" fill="#11537c"/>
    <path id="Pfad_63655" data-name="Pfad 63655" d="M89.1,50.965a2.657,2.657,0,0,0-.255,3.753,1.816,1.816,0,0,0,2.537.165c1.381-1.126,1.922-3.243,1.126-4.128A2.642,2.642,0,0,0,89.1,50.965Z" transform="translate(44.155 24.907)" fill="#11537c"/>
    <path id="Pfad_63656" data-name="Pfad 63656" d="M79.188,60.279a1.907,1.907,0,0,0,.225,2.9,2.912,2.912,0,0,0,4.143-.976,1.5,1.5,0,0,0-.465-2.087A2.912,2.912,0,0,0,79.188,60.279Z" transform="translate(39.36 29.524)" fill="#11537c"/>
    <path id="Pfad_63657" data-name="Pfad 63657" d="M70.518,68.529a3,3,0,0,0-.135,3.933,2.552,2.552,0,0,0,3.738-.6,2.3,2.3,0,0,0-.105-3A2.867,2.867,0,0,0,70.518,68.529Z" transform="translate(34.894 33.855)" fill="#11537c"/>
    <path id="Pfad_63658" data-name="Pfad 63658" d="M155.554,64.418a2.027,2.027,0,0,0-.255-3,2.387,2.387,0,0,0-3.423-.2,2.627,2.627,0,0,0-.105,3.468,2.537,2.537,0,0,0,3.783-.27Z" transform="translate(75.721 30.099)" fill="#11537c"/>
    <path id="Pfad_63659" data-name="Pfad 63659" d="M142.748,70.012a3,3,0,0,0-.2,3.543,2.492,2.492,0,0,0,3.453-.135,2.372,2.372,0,0,0-3.258-3.408Z" transform="translate(71.159 34.579)" fill="#11537c"/>
    <path id="Pfad_63660" data-name="Pfad 63660" d="M133.57,78.929a3.438,3.438,0,0,0-.18,3.588c.661.976,2.807.931,3.888-.075.691-.646.525-1.952-.39-3S134.306,78.043,133.57,78.929Z" transform="translate(66.6 39.038)" fill="#11537c"/>
    <path id="Pfad_63661" data-name="Pfad 63661" d="M109.231,109.053a2.087,2.087,0,0,0,.135-3,2.417,2.417,0,0,0-3.333-.6,2.612,2.612,0,0,0-.5,3.393,2.387,2.387,0,0,0,3.693.21Z" transform="translate(52.642 52.375)" fill="#11537c"/>
    <path id="Pfad_63662" data-name="Pfad 63662" d="M50.754,158.9a2.4,2.4,0,0,0-.375,3.393,2.687,2.687,0,0,0,3.408,0,2.012,2.012,0,0,0,.27-2.882,2.312,2.312,0,0,0-3.3-.51Z" transform="translate(24.934 79.136)" fill="#11537c"/>
    <path id="Pfad_63663" data-name="Pfad 63663" d="M155.188,56a2.462,2.462,0,0,0,.09-3.768,2.117,2.117,0,0,0-3-.12,2.837,2.837,0,0,0-.09,3.9,2.087,2.087,0,0,0,3-.015Z" transform="translate(75.863 25.564)" fill="#11537c"/>
    <path id="Pfad_63664" data-name="Pfad 63664" d="M142.983,60.979a2.852,2.852,0,0,0-.36,3.468,2.522,2.522,0,0,0,3.393.24,2.252,2.252,0,0,0,.3-3.333,2.327,2.327,0,0,0-3.333-.375Z" transform="translate(71.224 30.026)" fill="#11537c"/>
    <path id="Pfad_63665" data-name="Pfad 63665" d="M109.168,100.487a2.837,2.837,0,0,0,0-3.858,2.192,2.192,0,0,0-3,0,2.822,2.822,0,0,0-.12,3.858A2.327,2.327,0,0,0,109.168,100.487Z" transform="translate(52.751 47.865)" fill="#11537c"/>
    <path id="Pfad_63666" data-name="Pfad 63666" d="M100.179,108.849a2.192,2.192,0,0,0,.15-3,2.342,2.342,0,0,0-3.288-.57,2.717,2.717,0,0,0-.585,3.378,2.552,2.552,0,0,0,3.723.2Z" transform="translate(48.123 52.279)" fill="#11537c"/>
    <path id="Pfad_63667" data-name="Pfad 63667" d="M54.284,152.841a2.222,2.222,0,0,0-.435-3,2.312,2.312,0,0,0-3.318.3,2.582,2.582,0,0,0,0,3,2.642,2.642,0,0,0,3.753-.3Z" transform="translate(25.037 74.551)" fill="#11537c"/>
    <path id="Pfad_63668" data-name="Pfad 63668" d="M41.642,158.934a2.852,2.852,0,0,0,0,3.8c.8.631,1.907.405,2.882-.6s1.276-2.432.45-3.3A2.387,2.387,0,0,0,41.642,158.934Z" transform="translate(20.459 79.026)" fill="#11537c"/>
    <path id="Pfad_63669" data-name="Pfad 63669" d="M161.828,33.918a3.288,3.288,0,0,0-.3,3.9,2.342,2.342,0,0,0,3.348.135,2.552,2.552,0,0,0,.315-3.408A2.627,2.627,0,0,0,161.828,33.918Z" transform="translate(80.662 16.554)" fill="#11537c"/>
    <path id="Pfad_63670" data-name="Pfad 63670" d="M124.175,69.944a2.627,2.627,0,0,0,.36,3,2.507,2.507,0,0,0,3.723-.285,1.651,1.651,0,0,0,.09-2.477A3,3,0,0,0,124.175,69.944Z" transform="translate(62.034 34.422)" fill="#11537c"/>
    <path id="Pfad_63671" data-name="Pfad 63671" d="M115.7,78.373a3.5,3.5,0,0,0-.345,3.978,2.447,2.447,0,0,0,3.438,0,2.7,2.7,0,0,0,0-3.843A2.552,2.552,0,0,0,115.7,78.373Z" transform="translate(57.538 38.784)" fill="#11537c"/>
    <path id="Pfad_63672" data-name="Pfad 63672" d="M154.672,109.6a2,2,0,0,0-.3-3,2.462,2.462,0,0,0-3.423,0,2.4,2.4,0,0,0,.315,3.408A2.462,2.462,0,0,0,154.672,109.6Z" transform="translate(75.328 52.815)" fill="#11537c"/>
    <path id="Pfad_63673" data-name="Pfad 63673" d="M105.629,132.783a2.582,2.582,0,0,0-.105,3.813,2.342,2.342,0,0,0,3-.165,2.657,2.657,0,0,0,0-3.5,2.252,2.252,0,0,0-2.9-.15Z" transform="translate(52.447 66.056)" fill="#11537c"/>
    <path id="Pfad_63674" data-name="Pfad 63674" d="M114.956,114.664a3,3,0,0,0,0,3.873,2.507,2.507,0,0,0,3.468-3.5,2.612,2.612,0,0,0-3.468-.375Z" transform="translate(57.216 56.957)" fill="#11537c"/>
    <path id="Pfad_63675" data-name="Pfad 63675" d="M145.138,145.819a3.2,3.2,0,0,0-1.186-3.723,2.042,2.042,0,0,0-2.567.39,2.867,2.867,0,0,0,0,3.468,2.807,2.807,0,0,0,3.753-.135Z" transform="translate(70.525 70.809)" fill="#11537c"/>
    <path id="Pfad_63676" data-name="Pfad 63676" d="M161.246,61.574a2.447,2.447,0,0,0-.105,3.393,2.852,2.852,0,0,0,3.8-.5,2.207,2.207,0,0,0-.3-3,2.462,2.462,0,0,0-3.393.105Z" transform="translate(80.403 30.226)" fill="#11537c"/>
    <path id="Pfad_63677" data-name="Pfad 63677" d="M152.021,69.956a2.762,2.762,0,0,0-.375,3.8,2.117,2.117,0,0,0,3,.24,2.222,2.222,0,0,0,.736-3.243A2.492,2.492,0,0,0,152.021,69.956Z" transform="translate(75.666 34.62)" fill="#11537c"/>
    <path id="Pfad_63678" data-name="Pfad 63678" d="M100.434,126.577a1.937,1.937,0,0,0-.525-2.522,2.357,2.357,0,0,0-3.663-.135,2.072,2.072,0,0,0-.105,2.552C97.206,127.583,99.668,127.688,100.434,126.577Z" transform="translate(47.944 61.438)" fill="#11537c"/>
    <path id="Pfad_63679" data-name="Pfad 63679" d="M161.588,25.211a3,3,0,0,0,.285,3.528,2.462,2.462,0,0,0,3.408-.27,2.252,2.252,0,0,0,.165-3A2.852,2.852,0,0,0,161.588,25.211Z" transform="translate(80.722 12.049)" fill="#11537c"/>
    <path id="Pfad_63680" data-name="Pfad 63680" d="M155.514,37.761a2.372,2.372,0,0,0,0-3.708,1.982,1.982,0,0,0-3-.135,3.092,3.092,0,0,0,0,3.9,2.072,2.072,0,0,0,3-.06Z" transform="translate(76.047 16.418)" fill="#11537c"/>
    <path id="Pfad_63681" data-name="Pfad 63681" d="M115.556,69.573a3.333,3.333,0,0,0-.075,3.573,2.417,2.417,0,0,0,3.408,0,2.387,2.387,0,0,0,.51-3.363,2.792,2.792,0,0,0-3.843-.21Z" transform="translate(57.592 34.268)" fill="#11537c"/>
    <path id="Pfad_63682" data-name="Pfad 63682" d="M23.548,167.351a2.687,2.687,0,0,0-.706,3.348,2.477,2.477,0,0,0,3.708.285,2.4,2.4,0,0,0,.255-3.363,2.132,2.132,0,0,0-3.258-.27Z" transform="translate(11.246 83.295)" fill="#11537c"/>
    <path id="Pfad_63683" data-name="Pfad 63683" d="M69.809,122.731a3.168,3.168,0,0,0-.646,3.888,2.507,2.507,0,0,0,3.453,0,2.447,2.447,0,0,0,.18-3.438,2.207,2.207,0,0,0-2.987-.45Z" transform="translate(34.417 61.051)" fill="#11537c"/>
    <path id="Pfad_63684" data-name="Pfad 63684" d="M91.294,90.649a2.492,2.492,0,0,0,.15-3.468,2.852,2.852,0,0,0-3.5.12,2.4,2.4,0,0,0,0,3,2.462,2.462,0,0,0,3.348.345Z" transform="translate(43.768 43.156)" fill="#11537c"/>
    <path id="Pfad_63685" data-name="Pfad 63685" d="M109.62,73.052a2.312,2.312,0,0,0-.105-3.708,2.147,2.147,0,0,0-3,0,2.882,2.882,0,0,0,.12,3.888,2.147,2.147,0,0,0,2.987-.18Z" transform="translate(52.989 34.181)" fill="#11537c"/>
    <path id="Pfad_63686" data-name="Pfad 63686" d="M23.754,158.149a3,3,0,0,0-.57,3.453,2.372,2.372,0,0,0,3.333.375,2.612,2.612,0,0,0,.646-3.378,2.582,2.582,0,0,0-3.408-.45Z" transform="translate(11.415 78.776)" fill="#11537c"/>
    <path id="Pfad_63687" data-name="Pfad 63687" d="M116.1,60.419a3,3,0,0,0-.57,3.5,3,3,0,0,0,3.918,0,2.177,2.177,0,0,0,.105-3,2.687,2.687,0,0,0-3.453-.5Z" transform="translate(57.694 29.805)" fill="#11537c"/>
    <path id="Pfad_63688" data-name="Pfad 63688" d="M155.933,28.347a2,2,0,0,0,.225-3,2.522,2.522,0,0,0-3.378-.646,2.6,2.6,0,0,0-.21,3.783,2.282,2.282,0,0,0,3.363-.135Z" transform="translate(76.064 11.915)" fill="#11537c"/>
    <path id="Pfad_63689" data-name="Pfad 63689" d="M52.5,50.345a2.612,2.612,0,0,0,0,3.453,2.567,2.567,0,0,0,3.078.27,3.753,3.753,0,0,0,.405-3.993,3.138,3.138,0,0,0-3.483.27Z" transform="translate(25.937 24.626)" fill="#11537c"/>
    <path id="Pfad_63690" data-name="Pfad 63690" d="M50.75,131.976a1.862,1.862,0,0,0,.12,2.552,2.837,2.837,0,0,0,3.828.525c.826-.585.736-1.847-.225-2.867a2.432,2.432,0,0,0-3.723-.21Z" transform="translate(25.163 65.496)" fill="#11537c"/>
    <path id="Pfad_63691" data-name="Pfad 63691" d="M46.473,80.729a1.892,1.892,0,0,0,0-2.912,2.447,2.447,0,0,0-3.378-.525,3,3,0,0,0,0,3.558,2.537,2.537,0,0,0,3.378-.12Z" transform="translate(21.258 38.243)" fill="#11537c"/>
    <path id="Pfad_63692" data-name="Pfad 63692" d="M62.623,171.707a2.357,2.357,0,0,0,0-3.378,2.042,2.042,0,0,0-3,0,2.282,2.282,0,1,0,3,3.438Z" transform="translate(29.443 83.773)" fill="#11537c"/>
    <path id="Pfad_63693" data-name="Pfad 63693" d="M71.119,41.617a2.717,2.717,0,0,0-.105,3.408,2.312,2.312,0,0,0,3.258-.135,2.447,2.447,0,0,0-.225-3.348A2.222,2.222,0,0,0,71.119,41.617Z" transform="translate(35.269 20.294)" fill="#11537c"/>
    <path id="Pfad_63694" data-name="Pfad 63694" d="M64.672,63.049a2.417,2.417,0,0,0,0-3.408,2.222,2.222,0,0,0-3.333,0,2.882,2.882,0,0,0,0,3.513,2.282,2.282,0,0,0,3.333-.105Z" transform="translate(30.396 29.247)" fill="#11537c"/>
    <path id="Pfad_63695" data-name="Pfad 63695" d="M52.211,71.972a2.417,2.417,0,0,0,3.408-.36,2.147,2.147,0,0,0-.12-3,2.252,2.252,0,0,0-3.288-.12A2.717,2.717,0,0,0,52.211,71.972Z" transform="translate(25.803 33.73)" fill="#11537c"/>
    <path id="Pfad_63696" data-name="Pfad 63696" d="M68.953,159.074a2.7,2.7,0,0,0,0,3.813,2.162,2.162,0,0,0,3-.375,2.357,2.357,0,0,0,.105-3.363A2.552,2.552,0,0,0,68.953,159.074Z" transform="translate(34.117 79.217)" fill="#11537c"/>
    <path id="Pfad_63697" data-name="Pfad 63697" d="M95.917,150.947a2.447,2.447,0,0,0-.09,3.078,2.762,2.762,0,0,0,3.5-.09,2.117,2.117,0,0,0-.39-3.288,2.267,2.267,0,0,0-3.018.3Z" transform="translate(47.731 75.019)" fill="#11537c"/>
    <path id="Pfad_63698" data-name="Pfad 63698" d="M108.373,145.614a2.672,2.672,0,0,0,.09-3.468,2.072,2.072,0,0,0-3-.33,2.612,2.612,0,0,0-.225,3.783,2.552,2.552,0,0,0,3.138.015Z" transform="translate(52.345 70.564)" fill="#11537c"/>
    <path id="Pfad_63699" data-name="Pfad 63699" d="M71.556,14.238a3,3,0,0,0-.2,3.843,2.867,2.867,0,0,0,3.8-.39,2.1,2.1,0,0,0-.24-3,2.537,2.537,0,0,0-3.363-.45Z" transform="translate(35.417 6.644)" fill="#11537c"/>
    <path id="Pfad_63700" data-name="Pfad 63700" d="M65.134,26.943a2.372,2.372,0,0,0,0-3.663,2.087,2.087,0,0,0-2.927,0,2.807,2.807,0,0,0,0,3.8,2.132,2.132,0,0,0,2.927-.135Z" transform="translate(30.76 11.098)" fill="#11537c"/>
    <path id="Pfad_63701" data-name="Pfad 63701" d="M127.209,124.753a3,3,0,0,0-3.873-.781c-.691.555-.39,2.342.57,3.453a1.967,1.967,0,0,0,3-.12A1.817,1.817,0,0,0,127.209,124.753Z" transform="translate(61.582 61.671)" fill="#11537c"/>
    <path id="Pfad_63702" data-name="Pfad 63702" d="M145.437,109.771a2.312,2.312,0,0,0-.075-3.348,2.372,2.372,0,0,0-3.363,0,2.627,2.627,0,0,0,0,3.408,2.792,2.792,0,0,0,3.438-.06Z" transform="translate(70.811 52.723)" fill="#11537c"/>
    <path id="Pfad_63703" data-name="Pfad 63703" d="M95.871,159.96a2.342,2.342,0,0,0-.27,3,2.642,2.642,0,0,0,3.393.075,1.967,1.967,0,0,0,.18-2.9,2.207,2.207,0,0,0-3.3-.18Z" transform="translate(47.657 79.578)" fill="#11537c"/>
    <path id="Pfad_63704" data-name="Pfad 63704" d="M108.484,154.059a2.027,2.027,0,0,0-.15-2.9,2.3,2.3,0,1,0-3.168,3.3,2.372,2.372,0,0,0,3.318-.405Z" transform="translate(52.233 75.104)" fill="#11537c"/>
    <path id="Pfad_63705" data-name="Pfad 63705" d="M131.939,143.289a2.417,2.417,0,0,0,.465,2.747,2.342,2.342,0,0,0,2.117.57,1.411,1.411,0,0,0,1.126-1.366,13.8,13.8,0,0,0,0-2.837,1.321,1.321,0,0,0-1.051-.751A2.627,2.627,0,0,0,131.939,143.289Z" transform="translate(65.964 70.727)" fill="#11537c"/>
    <path id="Pfad_63706" data-name="Pfad 63706" d="M68.882,168.146a2.642,2.642,0,0,0-.345,3.8,2.417,2.417,0,0,0,3-.09,2.237,2.237,0,0,0,.225-3.363A2.057,2.057,0,0,0,68.882,168.146Z" transform="translate(33.978 83.791)" fill="#11537c"/>
    <path id="Pfad_63707" data-name="Pfad 63707" d="M123.579,115a3,3,0,0,0,.345,3.438,2.162,2.162,0,0,0,3-.165,1.952,1.952,0,0,0,.48-2.837A2.807,2.807,0,0,0,123.579,115Z" transform="translate(61.699 57.089)" fill="#11537c"/>
    <path id="Pfad_63708" data-name="Pfad 63708" d="M71.292,23.33a3,3,0,0,0,0,3.843,2.492,2.492,0,0,0,3.378-.3,2.147,2.147,0,0,0,.42-2.927,3,3,0,0,0-3.8-.616Z" transform="translate(35.336 11.213)" fill="#11537c"/>
    <path id="Pfad_63709" data-name="Pfad 63709" d="M154.584,92.046A2.4,2.4,0,0,0,154.9,88.7a2.252,2.252,0,0,0-3.318-.3,2.9,2.9,0,0,0,0,3.828,2.117,2.117,0,0,0,3-.18Z" transform="translate(75.566 43.741)" fill="#11537c"/>
    <path id="Pfad_63710" data-name="Pfad 63710" d="M63.964,90.453a2.477,2.477,0,0,0,.45-3.408,2.117,2.117,0,0,0-3-.54,2.852,2.852,0,0,0-.465,3.948,2.222,2.222,0,0,0,3.017,0Z" transform="translate(30.204 42.887)" fill="#11537c"/>
    <path id="Pfad_63711" data-name="Pfad 63711" d="M55.2,98.938a3.6,3.6,0,0,0-.24-3.573,2.612,2.612,0,0,0-3.423.315,2.777,2.777,0,0,0,.27,3.468,2.462,2.462,0,0,0,3.393-.21Z" transform="translate(25.542 47.282)" fill="#11537c"/>
    <path id="Pfad_63712" data-name="Pfad 63712" d="M33.238,113.028c-1.036.736-.931,2.462.225,3.738a2.027,2.027,0,0,0,2.912,0,2.1,2.1,0,0,0,.6-2.882,2.9,2.9,0,0,0-3.738-.856Z" transform="translate(16.252 56.207)" fill="#11537c"/>
    <path id="Pfad_63713" data-name="Pfad 63713" d="M32.351,167.306a3.363,3.363,0,0,0,.27,4.324c.841.766,1.786.435,2.582-.225a2.177,2.177,0,0,0,.51-3.3,2.582,2.582,0,0,0-3.363-.8Z" transform="translate(15.834 83.43)" fill="#11537c"/>
    <path id="Pfad_63714" data-name="Pfad 63714" d="M78,123.242c-.631.736-.135,2.912.886,3.828.721.631,2.087.27,2.9-.766a1.922,1.922,0,0,0-.345-2.882,2.657,2.657,0,0,0-3.438-.18Z" transform="translate(38.908 61.23)" fill="#11537c"/>
    <path id="Pfad_63715" data-name="Pfad 63715" d="M88.093,114.243a3.123,3.123,0,0,0-.555,3.888c.6.811,1.8.721,3-.225s1.5-2.222.585-3.243a2.192,2.192,0,0,0-3.032-.42Z" transform="translate(43.606 56.778)" fill="#11537c"/>
    <path id="Pfad_63716" data-name="Pfad 63716" d="M42.556,113.61a3,3,0,0,0,0,3.873c.826.661,2.207.2,3.243-1.1a1.907,1.907,0,0,0-.27-2.882,2.3,2.3,0,0,0-2.972.105Z" transform="translate(20.926 56.374)" fill="#11537c"/>
    <path id="Pfad_63717" data-name="Pfad 63717" d="M33.054,122.164c-.931.691-.781,2.447.33,3.888a1.922,1.922,0,0,0,2.9-.21,2.042,2.042,0,0,0,.165-3,2.657,2.657,0,0,0-3.393-.676Z" transform="translate(16.212 60.792)" fill="#11537c"/>
    <path id="Pfad_63718" data-name="Pfad 63718" d="M17.751,143.964a2.882,2.882,0,0,0-.105-3.843,1.967,1.967,0,0,0-2.582,0,2.792,2.792,0,0,0-.345,3.813,2.357,2.357,0,0,0,3.033.03Z" transform="translate(7.029 69.721)" fill="#11537c"/>
    <path id="Pfad_63719" data-name="Pfad 63719" d="M78.479,113.925a2.537,2.537,0,0,0,0,3.408,2.012,2.012,0,0,0,2.867.5c1.306-.871,1.741-2.282.991-3.168A3,3,0,0,0,78.479,113.925Z" transform="translate(38.957 56.63)" fill="#11537c"/>
    <path id="Pfad_63720" data-name="Pfad 63720" d="M109.073,91.42a2.492,2.492,0,0,0,.48-3.663,2.3,2.3,0,0,0-3-.375,3,3,0,0,0-.465,3.783A2.132,2.132,0,0,0,109.073,91.42Z" transform="translate(52.89 43.331)" fill="#11537c"/>
    <path id="Pfad_63721" data-name="Pfad 63721" d="M63.8,99.611a3,3,0,0,0,.105-3.858,2.312,2.312,0,0,0-2.537-.345,3,3,0,0,0-.48,4.158,2.237,2.237,0,0,0,2.912.045Z" transform="translate(30.157 47.435)" fill="#11537c"/>
    <path id="Pfad_63722" data-name="Pfad 63722" d="M109.921,55.152a2.642,2.642,0,0,0,.09-3.828,2.1,2.1,0,0,0-3-.075,3,3,0,0,0-.09,3.918,2.072,2.072,0,0,0,3-.015Z" transform="translate(53.199 25.119)" fill="#11537c"/>
    <path id="Pfad_63723" data-name="Pfad 63723" d="M64.225,72.387a2.417,2.417,0,0,0,.18-3.738,2.132,2.132,0,0,0-3-.285,2.867,2.867,0,0,0-.18,3.873,2.1,2.1,0,0,0,3,.15Z" transform="translate(30.303 33.75)" fill="#11537c"/>
    <path id="Pfad_63724" data-name="Pfad 63724" d="M54.507,117.123a2.057,2.057,0,0,0,.435-2.912,2.3,2.3,0,0,0-3.288-.691,2.582,2.582,0,0,0-.54,3.378A2.522,2.522,0,0,0,54.507,117.123Z" transform="translate(25.369 56.42)" fill="#11537c"/>
    <path id="Pfad_63725" data-name="Pfad 63725" d="M109.3,82.387a2.477,2.477,0,0,0,.255-3.738,2.117,2.117,0,0,0-3-.375,3.273,3.273,0,0,0-.285,3.918,2.147,2.147,0,0,0,3.033.2Z" transform="translate(52.953 38.732)" fill="#11537c"/>
    <path id="Pfad_63726" data-name="Pfad 63726" d="M91.959,81.563c.766-.616.646-1.922-.24-2.912s-2.522-1.411-3.333-.57a3,3,0,0,0,0,3.873,3.108,3.108,0,0,0,3.573-.39Z" transform="translate(43.898 38.641)" fill="#11537c"/>
    <path id="Pfad_63727" data-name="Pfad 63727" d="M87.344,98.258a2.087,2.087,0,0,0,1.5,2.222,1.726,1.726,0,0,0,1.831-.255,5.029,5.029,0,0,0,1.036-3.963,1.036,1.036,0,0,0-1.066-.766,3,3,0,0,0-3.3,2.762Z" transform="translate(43.724 47.587)" fill="#11537c"/>
    <path id="Pfad_63728" data-name="Pfad 63728" d="M63.323,126.646a2.387,2.387,0,0,0,.345-3.318,2.177,2.177,0,0,0-2.882-.706,3.138,3.138,0,0,0-.781,3.753,2.357,2.357,0,0,0,3.318.27Z" transform="translate(29.869 61.054)" fill="#11537c"/>
    <path id="Pfad_63729" data-name="Pfad 63729" d="M118.443,87.592a2.252,2.252,0,0,0-3,.12,2.657,2.657,0,0,0,0,3.438,2.342,2.342,0,0,0,3.348-.24,2.312,2.312,0,0,0-.345-3.318Z" transform="translate(57.497 43.375)" fill="#11537c"/>
    <path id="Pfad_63730" data-name="Pfad 63730" d="M134.35,69.508a3.333,3.333,0,0,0-.465,4.309c.811.856,1.771.465,2.6-.09a2.162,2.162,0,0,0,.8-3.258A2.387,2.387,0,0,0,134.35,69.508Z" transform="translate(66.766 34.482)" fill="#11537c"/>
    <path id="Pfad_63731" data-name="Pfad 63731" d="M64.2,81.487a2.462,2.462,0,0,0,0-3.723,1.982,1.982,0,0,0-2.552-.45,3.123,3.123,0,0,0-.45,4.173A2.252,2.252,0,0,0,64.2,81.487Z" transform="translate(30.325 38.341)" fill="#11537c"/>
    <path id="Pfad_63732" data-name="Pfad 63732" d="M44.527,171.021a1.741,1.741,0,0,0,.525-2.462,2.567,2.567,0,0,0-3.678-.706,3,3,0,0,0-.225,3.468C41.885,172.192,43.326,172.057,44.527,171.021Z" transform="translate(20.352 83.619)" fill="#11537c"/>
    <path id="Pfad_63733" data-name="Pfad 63733" d="M100.067,114.881a2.237,2.237,0,0,0-3.333-.39,2.747,2.747,0,0,0-.27,3.468,2.612,2.612,0,0,0,3.453-.105,2.072,2.072,0,0,0,.15-2.972Z" transform="translate(48.055 56.83)" fill="#11537c"/>
    <path id="Pfad_63734" data-name="Pfad 63734" d="M124.554,61.066a1.892,1.892,0,0,0-.255,2.567,2.792,2.792,0,0,0,3.873.165,1.862,1.862,0,0,0,.646-2.477,3,3,0,0,0-4.264-.255Z" transform="translate(62.059 29.953)" fill="#11537c"/>
    <path id="Pfad_63735" data-name="Pfad 63735" d="M95.99,132.811a3.123,3.123,0,0,0-.36,1.111,2.732,2.732,0,0,0,4.173,2.072,1.621,1.621,0,0,0,.646-1.126,2.837,2.837,0,0,0-1.681-2.627A2.432,2.432,0,0,0,95.99,132.811Z" transform="translate(47.883 65.908)" fill="#11537c"/>
    <path id="Pfad_63736" data-name="Pfad 63736" d="M123.382,106.766a1.651,1.651,0,0,0,.315,2.177,2.717,2.717,0,0,0,3.843-.225,1.787,1.787,0,0,0,0-2.552,2.912,2.912,0,0,0-4.158.6Z" transform="translate(61.656 52.635)" fill="#11537c"/>
    <path id="Pfad_63737" data-name="Pfad 63737" d="M153.465,155.076a2,2,0,0,0,.255-2.927,2.522,2.522,0,0,0-3.408-.315,2.417,2.417,0,0,0-.21,3A2.387,2.387,0,0,0,153.465,155.076Z" transform="translate(74.974 75.574)" fill="#11537c"/>
    <path id="Pfad_63738" data-name="Pfad 63738" d="M114.843,123.741a3.093,3.093,0,0,0-.21,3.858,2.372,2.372,0,0,0,3.318-.36,2.282,2.282,0,0,0-.165-3.333A2.132,2.132,0,0,0,114.843,123.741Z" transform="translate(57.119 61.497)" fill="#11537c"/>
    <path id="Pfad_63739" data-name="Pfad 63739" d="M160.224,115.58a3.228,3.228,0,0,0-.255,3.558,2.4,2.4,0,0,0,3.618-3.108,2.432,2.432,0,0,0-3.363-.45Z" transform="translate(79.924 57.422)" fill="#11537c"/>
    <path id="Pfad_63740" data-name="Pfad 63740" d="M141.908,136.575a2.612,2.612,0,0,0,3.468,0c.57-.661.255-2.072-.646-3a2.342,2.342,0,0,0-3.393,0,2.072,2.072,0,0,0,.57,3Z" transform="translate(70.587 66.317)" fill="#11537c"/>
    <path id="Pfad_63741" data-name="Pfad 63741" d="M114.239,160.09a2.672,2.672,0,0,0-.18,3.423,2.162,2.162,0,0,0,3-.075,2.252,2.252,0,0,0,.18-3.318A2.222,2.222,0,0,0,114.239,160.09Z" transform="translate(56.852 79.687)" fill="#11537c"/>
    <path id="Pfad_63742" data-name="Pfad 63742" d="M152.379,46.849a2.147,2.147,0,0,0,3.288-.345,2.192,2.192,0,0,0-.165-3.333,2.237,2.237,0,0,0-3-.21A3,3,0,0,0,152.379,46.849Z" transform="translate(75.999 21.022)" fill="#11537c"/>
    <path id="Pfad_63743" data-name="Pfad 63743" d="M108.774,37.6a2.507,2.507,0,0,0,2.327-2.522,2.672,2.672,0,0,0-1.862-2.492,1.832,1.832,0,0,0-2.042.661,2.7,2.7,0,0,0-.51,2.342C106.852,36.868,107.678,37.754,108.774,37.6Z" transform="translate(53.385 16.02)" fill="#11537c"/>
    <path id="Pfad_63744" data-name="Pfad 63744" d="M50.786,140.873a2.777,2.777,0,0,0,.2,3.5,2.612,2.612,0,0,0,3.093,0,2.687,2.687,0,0,0-.3-3.8A2.177,2.177,0,0,0,50.786,140.873Z" transform="translate(25.141 69.96)" fill="#11537c"/>
    <path id="Pfad_63745" data-name="Pfad 63745" d="M41.511,150.379a2.117,2.117,0,0,0,.315,3,1.907,1.907,0,0,0,2.882-.45c.916-1.381.991-2.867.165-3.453A2.792,2.792,0,0,0,41.511,150.379Z" transform="translate(20.515 74.537)" fill="#11537c"/>
    <path id="Pfad_63746" data-name="Pfad 63746" d="M32.347,158.454a3.108,3.108,0,0,0,.555,3.873,1.982,1.982,0,0,0,2.582-.33,2.387,2.387,0,0,0,.33-3.393,2.627,2.627,0,0,0-3.468-.15Z" transform="translate(15.943 78.861)" fill="#11537c"/>
    <path id="Pfad_63747" data-name="Pfad 63747" d="M59.321,177.393a2.447,2.447,0,0,0-.09,3.438,2.387,2.387,0,0,0,3.393-.21,2.447,2.447,0,0,0-.3-3.408,2.252,2.252,0,0,0-3,.18Z" transform="translate(29.307 88.31)" fill="#11537c"/>
    <path id="Pfad_63748" data-name="Pfad 63748" d="M43.725,59.581a2.012,2.012,0,1,0,2.9,2.657,2.1,2.1,0,0,0,.405-2.912,2.222,2.222,0,0,0-3.3.255Z" transform="translate(21.439 29.156)" fill="#11537c"/>
    <path id="Pfad_63749" data-name="Pfad 63749" d="M41.077,176.9a2.717,2.717,0,0,0,.24,3.438,2.132,2.132,0,0,0,3,0,2.342,2.342,0,0,0-3.2-3.423Z" transform="translate(20.288 88.088)" fill="#11537c"/>
    <path id="Pfad_63750" data-name="Pfad 63750" d="M87.717,123.3a3,3,0,0,0-.54,3.453c.631,1.066,2.447,1.006,3.708-.2a1.651,1.651,0,0,0,.12-2.492,2.417,2.417,0,0,0-3.288-.766Z" transform="translate(43.486 61.355)" fill="#11537c"/>
    <path id="Pfad_63751" data-name="Pfad 63751" d="M62.972,153.56a2.177,2.177,0,0,0,.27-3,2.387,2.387,0,0,0-3.333-.615,2.747,2.747,0,0,0-.315,3.438A2.417,2.417,0,0,0,62.972,153.56Z" transform="translate(29.589 74.673)" fill="#11537c"/>
    <path id="Pfad_63752" data-name="Pfad 63752" d="M35.276,180.561a2.477,2.477,0,0,0-1.006-4.173,2.057,2.057,0,0,0-2.237.15,1.591,1.591,0,0,0-.285,2.147,8.061,8.061,0,0,0,1.306,1.952,1.621,1.621,0,0,0,2.222-.075Z" transform="translate(15.716 88.011)" fill="#11537c"/>
    <path id="Pfad_63753" data-name="Pfad 63753" d="M87.17,135.593a2.237,2.237,0,0,0,3,.5,2.372,2.372,0,0,0,.48-3.378,2.522,2.522,0,0,0-3.438-.2,2.492,2.492,0,0,0-.045,3.078Z" transform="translate(43.387 65.858)" fill="#11537c"/>
    <path id="Pfad_63754" data-name="Pfad 63754" d="M109.01,118.019a2.312,2.312,0,0,0-.285-3.333,2.162,2.162,0,0,0-3-.135,3,3,0,0,0,0,3.843,2.162,2.162,0,0,0,3.288-.375Z" transform="translate(52.593 56.875)" fill="#11537c"/>
    <path id="Pfad_63755" data-name="Pfad 63755" d="M71.324,50.409a2.732,2.732,0,0,0-.33,3.843,2.351,2.351,0,0,0,3-3.618,1.982,1.982,0,0,0-2.672-.225Z" transform="translate(35.214 24.788)" fill="#11537c"/>
    <path id="Pfad_63756" data-name="Pfad 63756" d="M64.381,54.394a2.792,2.792,0,0,0,.465-3.828,2.147,2.147,0,0,0-2.912-.3,3,3,0,0,0,0,4.188A1.877,1.877,0,0,0,64.381,54.394Z" transform="translate(30.567 24.706)" fill="#11537c"/>
    <path id="Pfad_63757" data-name="Pfad 63757" d="M46.267,68.284a2.192,2.192,0,0,0-3,.09,3.153,3.153,0,0,0,.285,3.843c.766.57,2.432,0,3.258-1.111a1.967,1.967,0,0,0-.54-2.822Z" transform="translate(21.374 33.68)" fill="#11537c"/>
    <path id="Pfad_63758" data-name="Pfad 63758" d="M153.465,146.389a2.417,2.417,0,0,0,.3-3.333,2.177,2.177,0,0,0-2.912-.465,2.582,2.582,0,0,0-.691,3.333,2.357,2.357,0,0,0,3.3.465Z" transform="translate(75.049 71.02)" fill="#11537c"/>
    <path id="Pfad_63759" data-name="Pfad 63759" d="M144.584,154.834a1.982,1.982,0,0,0,0-3,2.237,2.237,0,0,0-3.333-.075,2.282,2.282,0,0,0-.135,3A2.792,2.792,0,0,0,144.584,154.834Z" transform="translate(70.433 75.441)" fill="#11537c"/>
    <path id="Pfad_63760" data-name="Pfad 63760" d="M63.2,144.775a3,3,0,0,0-.39-3.888,2.042,2.042,0,0,0-2.612.135,2.4,2.4,0,1,0,3,3.753Z" transform="translate(29.673 70.142)" fill="#11537c"/>
    <path id="Pfad_63761" data-name="Pfad 63761" d="M46.219,89.421a2.192,2.192,0,0,0-.15-3,2.717,2.717,0,0,0-3.438.165,2.357,2.357,0,0,0,.255,3,2.237,2.237,0,0,0,3.333-.165Z" transform="translate(21.106 42.778)" fill="#11537c"/>
    <path id="Pfad_63762" data-name="Pfad 63762" d="M70.682,59.652a3,3,0,0,0-.315,3.468,2.822,2.822,0,0,0,3.768-.285,1.907,1.907,0,0,0-.09-2.867A2.477,2.477,0,0,0,70.682,59.652Z" transform="translate(35.015 29.371)" fill="#11537c"/>
    <path id="Pfad_63763" data-name="Pfad 63763" d="M86.725,142.463a2.342,2.342,0,0,0,.42,2.612c.736.826,2.522.931,2.9.135a5,5,0,0,0,.375-3.633,1.366,1.366,0,0,0-1.066-.706,2.7,2.7,0,0,0-2.627,1.591Z" transform="translate(43.307 70.337)" fill="#11537c"/>
    <path id="Pfad_63764" data-name="Pfad 63764" d="M62.2,41.223a3,3,0,0,0-.345,3.858,2.192,2.192,0,0,0,3,0,2.357,2.357,0,0,0,.3-3.363,2.192,2.192,0,0,0-2.957-.5Z" transform="translate(30.679 20.208)" fill="#11537c"/>
    <path id="Pfad_63765" data-name="Pfad 63765" d="M127.319,82.342a1.892,1.892,0,0,0,1.156-1.907,2.252,2.252,0,0,0-1.877-1.892,2.372,2.372,0,0,0-2.627.42,2.9,2.9,0,0,0-.255.435,2.477,2.477,0,0,0,1.006,2.507A2,2,0,0,0,127.319,82.342Z" transform="translate(61.937 38.987)" fill="#11537c"/>
    <path id="Pfad_63766" data-name="Pfad 63766" d="M160.042,124.666a3,3,0,0,0,0,3.843,2.357,2.357,0,0,0,3-.435,2.147,2.147,0,0,0-.105-3.288A2.087,2.087,0,0,0,160.042,124.666Z" transform="translate(79.821 61.952)" fill="#11537c"/>
    <path id="Pfad_63767" data-name="Pfad 63767" d="M80.708,171.856a1.982,1.982,0,0,0,.135-3c-1.051-1.081-2.687-1.366-3.408-.586a3.723,3.723,0,0,0,.33,4.008C78.366,173.057,79.777,172.832,80.708,171.856Z" transform="translate(38.545 83.85)" fill="#11537c"/>
    <path id="Pfad_63768" data-name="Pfad 63768" d="M45.839,125.521a1.756,1.756,0,0,0-.255-2.552,2.462,2.462,0,0,0-3.393-.39,3,3,0,0,0,.255,3.9A2.792,2.792,0,0,0,45.839,125.521Z" transform="translate(20.796 60.917)" fill="#11537c"/>
    <path id="Pfad_63769" data-name="Pfad 63769" d="M88.612,60.86a3.933,3.933,0,0,0-.5,1.306,1.771,1.771,0,0,0,2,2.012,6.575,6.575,0,0,0,1.4-.585c.961-.961,1.426-1.711,1.141-2.792a1.651,1.651,0,0,0-1.261-1.231,2.357,2.357,0,0,0-2.777,1.291Z" transform="translate(44.108 29.544)" fill="#11537c"/>
    <path id="Pfad_63770" data-name="Pfad 63770" d="M88.868,68.878a3.3,3.3,0,0,0-.345,3.918c.585.9,2.147.676,3.273-.48a1.922,1.922,0,0,0,0-2.912A2.252,2.252,0,0,0,88.868,68.878Z" transform="translate(44.077 34.091)" fill="#11537c"/>
    <path id="Pfad_63771" data-name="Pfad 63771" d="M107.062,45.963a2.177,2.177,0,0,0,3.288-.225,2.342,2.342,0,0,0,0-3.363,2.237,2.237,0,0,0-3-.285,3.108,3.108,0,0,0-.285,3.873Z" transform="translate(53.34 20.601)" fill="#11537c"/>
    <path id="Pfad_63772" data-name="Pfad 63772" d="M14.65,162.173a2.312,2.312,0,0,0,3-.51,2.282,2.282,0,0,0-.285-3.378,2.147,2.147,0,0,0-3,0,3,3,0,0,0,.285,3.888Z" transform="translate(6.858 78.761)" fill="#11537c"/>
    <path id="Pfad_63773" data-name="Pfad 63773" d="M86.534,177.6a2.267,2.267,0,0,0,0,3.333,1.892,1.892,0,0,0,2.552.345,2.237,2.237,0,0,0,.36-3.318A2.342,2.342,0,0,0,86.534,177.6Z" transform="translate(42.958 88.572)" fill="#11537c"/>
    <path id="Pfad_63774" data-name="Pfad 63774" d="M41.805,131.768a2.567,2.567,0,0,0,.5,3.408,2.162,2.162,0,0,0,3-.345,2.327,2.327,0,0,0,0-3,2.582,2.582,0,0,0-3.5-.06Z" transform="translate(20.686 65.449)" fill="#11537c"/>
    <path id="Pfad_63775" data-name="Pfad 63775" d="M132.7,136.721a2.267,2.267,0,0,0,3-.105,2.462,2.462,0,0,0-.21-3.393,2.537,2.537,0,0,0-3,.135,2.387,2.387,0,0,0,.21,3.363Z" transform="translate(66.06 66.291)" fill="#11537c"/>
    <path id="Pfad_63776" data-name="Pfad 63776" d="M132.961,124.324a2.312,2.312,0,1,0,3.513,2.792c.646-.946.27-1.817-1.006-3A2.012,2.012,0,0,0,132.961,124.324Z" transform="translate(66.143 61.769)" fill="#11537c"/>
    <path id="Pfad_63777" data-name="Pfad 63777" d="M145.462,127.547c.736-.886.345-1.771-.315-2.552a2.177,2.177,0,1,0-3.573,2.462A3,3,0,0,0,145.462,127.547Z" transform="translate(70.666 61.834)" fill="#11537c"/>
    <path id="Pfad_63778" data-name="Pfad 63778" d="M145.236,115.723a2.237,2.237,0,0,0-3-.555,2.732,2.732,0,0,0-.63,3.408,2.522,2.522,0,0,0,3.408.12,2.087,2.087,0,0,0,.225-2.972Z" transform="translate(70.757 57.279)" fill="#11537c"/>
    <path id="Pfad_63779" data-name="Pfad 63779" d="M82.3,107.878a1.787,1.787,0,0,0,0-2.492,3,3,0,0,0-4.188.315,2.027,2.027,0,0,0,.36,2.522A3,3,0,0,0,82.3,107.878Z" transform="translate(38.961 52.199)" fill="#11537c"/>
    <path id="Pfad_63780" data-name="Pfad 63780" d="M110.661,5.962a1.952,1.952,0,0,0-2.567-.225,3.078,3.078,0,0,0-.225,4.188,2.057,2.057,0,0,0,2.9-.285,2.417,2.417,0,0,0-.105-3.678Z" transform="translate(53.659 2.415)" fill="#11537c"/>
    <path id="Pfad_63781" data-name="Pfad 63781" d="M92.767,27.071a2.012,2.012,0,0,0-.27-3,2.312,2.312,0,0,0-3-.435,3,3,0,0,0,.3,3.9A2.222,2.222,0,0,0,92.767,27.071Z" transform="translate(44.516 11.391)" fill="#11537c"/>
    <path id="Pfad_63782" data-name="Pfad 63782" d="M83.4,35.767a1.832,1.832,0,0,0,0-2.462,2.672,2.672,0,0,0-3.768-.255,1.5,1.5,0,0,0,0,2.117,2.627,2.627,0,0,0,3.768.6Z" transform="translate(39.648 15.965)" fill="#11537c"/>
    <path id="Pfad_63783" data-name="Pfad 63783" d="M17.783,152.571a2.282,2.282,0,0,0-.33-3.318,2.327,2.327,0,0,0-3,0,3,3,0,0,0,.33,3.828A2.417,2.417,0,0,0,17.783,152.571Z" transform="translate(6.923 74.266)" fill="#11537c"/>
    <path id="Pfad_63784" data-name="Pfad 63784" d="M42.151,140.742a2.417,2.417,0,0,0-.36,3.348,2.1,2.1,0,0,0,2.522.676c.931-.39,1.5-3.273.856-4.279C44.794,139.856,43.052,139.962,42.151,140.742Z" transform="translate(20.64 69.941)" fill="#11537c"/>
    <path id="Pfad_63785" data-name="Pfad 63785" d="M36.946,107.059a1.786,1.786,0,0,0,0-2.522,3,3,0,0,0-3.858.105,1.982,1.982,0,0,0,0,2.567,2.792,2.792,0,0,0,3.858-.15Z" transform="translate(16.298 51.801)" fill="#11537c"/>
    <path id="Pfad_63786" data-name="Pfad 63786" d="M42.951,104.775a2.252,2.252,0,0,0-.691,2.912,2.057,2.057,0,0,0,2.927.3c1.306-1.081,1.681-3,.766-3.693a2.447,2.447,0,0,0-3,.48Z" transform="translate(20.997 51.849)" fill="#11537c"/>
    <path id="Pfad_63787" data-name="Pfad 63787" d="M137.876,15.639a2,2,0,0,0-2.6-.36c-1.2.931-1.306,3.543-.3,4.279a2.387,2.387,0,0,0,3-.631,2.087,2.087,0,0,0-.105-3.288Z" transform="translate(67.263 7.225)" fill="#11537c"/>
    <path id="Pfad_63788" data-name="Pfad 63788" d="M78.3,96.618a1.847,1.847,0,0,0,.676,2.417c1.336.916,2.687.871,3.243-.165a2,2,0,0,0-.135-2.567A2.837,2.837,0,0,0,78.3,96.618Z" transform="translate(39.094 47.71)" fill="#11537c"/>
    <path id="Pfad_63789" data-name="Pfad 63789" d="M60.608,113.639a3,3,0,0,0-.09,3.918,2.222,2.222,0,0,0,3-.135,2.417,2.417,0,0,0,0-3.438A2.147,2.147,0,0,0,60.608,113.639Z" transform="translate(29.941 56.481)" fill="#11537c"/>
    <path id="Pfad_63790" data-name="Pfad 63790" d="M170.444,34.437a1.291,1.291,0,0,0-.721,1.5,2.9,2.9,0,0,0,4.143,1.621,1.756,1.756,0,0,0,.405-2.462A3.138,3.138,0,0,0,170.444,34.437Z" transform="translate(85.001 16.8)" fill="#11537c"/>
    <path id="Pfad_63791" data-name="Pfad 63791" d="M87.846,106.03a3.405,3.405,0,0,0-.27.375,1.922,1.922,0,0,0,.18,2.567,1.982,1.982,0,0,0,2.912-.15c1.2-1.2,1.5-3,.5-3.783S88.882,104.829,87.846,106.03Z" transform="translate(43.642 52.2)" fill="#11537c"/>
    <path id="Pfad_63792" data-name="Pfad 63792" d="M133.834,61.781a4.2,4.2,0,0,0-.465,1.321,1.666,1.666,0,0,0,.691,1.666,1.741,1.741,0,0,0,1.786.225,8.785,8.785,0,0,0,1.036-.631,2.642,2.642,0,0,0,.9-2.717,1.741,1.741,0,0,0-1.726-1.336,2.342,2.342,0,0,0-2.222,1.471Z" transform="translate(66.786 29.959)" fill="#11537c"/>
    <path id="Pfad_63793" data-name="Pfad 63793" d="M73.03,86.739a1.862,1.862,0,0,0-2.582.09,2.537,2.537,0,0,0-.36,3.423,2.432,2.432,0,0,0,3.393-.2,2.267,2.267,0,0,0-.45-3.318Z" transform="translate(34.829 42.967)" fill="#11537c"/>
    <path id="Pfad_63794" data-name="Pfad 63794" d="M82.579,81.092a1.771,1.771,0,0,0,.09-2.537,2.867,2.867,0,0,0-3.813-.54c-.721.616-.525,1.937.42,3a2.1,2.1,0,0,0,3.3.075Z" transform="translate(39.257 38.586)" fill="#11537c"/>
    <path id="Pfad_63795" data-name="Pfad 63795" d="M124.692,34.028a1.606,1.606,0,0,0,.285,2.117,2.717,2.717,0,0,0,3.738.5,1.741,1.741,0,0,0,.105-2.477,2.822,2.822,0,0,0-4.128-.135Z" transform="translate(62.313 16.368)" fill="#11537c"/>
    <path id="Pfad_63796" data-name="Pfad 63796" d="M137.877,28.1a2.462,2.462,0,0,0-3.243-3.6,3.483,3.483,0,0,0,.27,3.963C135.505,29.163,136.932,29,137.877,28.1Z" transform="translate(67.187 11.821)" fill="#11537c"/>
    <path id="Pfad_63797" data-name="Pfad 63797" d="M151,133.528a2.642,2.642,0,0,0-.33,3.753,1.952,1.952,0,0,0,2.567.285,2.477,2.477,0,0,0,.706-3.648,2.237,2.237,0,0,0-2.942-.39Z" transform="translate(75.155 66.467)" fill="#11537c"/>
    <path id="Pfad_63798" data-name="Pfad 63798" d="M107.478,163.681a2.357,2.357,0,0,0,.676-3.273,2.192,2.192,0,0,0-2.867-.721,2.777,2.777,0,0,0-.33,3.768A1.816,1.816,0,0,0,107.478,163.681Z" transform="translate(52.264 79.639)" fill="#11537c"/>
    <path id="Pfad_63799" data-name="Pfad 63799" d="M123.059,160.135a2.837,2.837,0,0,0,0,3.483,1.937,1.937,0,0,0,2.567,0,2.312,2.312,0,0,0,.45-3.333,2.627,2.627,0,0,0-3.017-.15Z" transform="translate(61.333 79.792)" fill="#11537c"/>
    <path id="Pfad_63800" data-name="Pfad 63800" d="M114.146,169.169a2.642,2.642,0,0,0-.375,3.468,2.237,2.237,0,0,0,3-.09,2.132,2.132,0,0,0-.09-3.333,1.786,1.786,0,0,0-2.537-.045Z" transform="translate(56.735 84.27)" fill="#11537c"/>
    <path id="Pfad_63801" data-name="Pfad 63801" d="M107.366,181.722a2.4,2.4,0,0,0,.405-3.348,2,2,0,0,0-2.9-.255,2.462,2.462,0,0,0-.5,3.348,2.327,2.327,0,0,0,2.987.255Z" transform="translate(52.045 88.756)" fill="#11537c"/>
    <path id="Pfad_63802" data-name="Pfad 63802" d="M154.043,115.632a2.357,2.357,0,0,0-3-.285,3,3,0,0,0,0,3.828,2.132,2.132,0,0,0,2.912-.21,2.312,2.312,0,0,0,.09-3.333Z" transform="translate(75.312 57.34)" fill="#11537c"/>
    <path id="Pfad_63803" data-name="Pfad 63803" d="M43.637,50.613a2.207,2.207,0,0,0,0,3,1.982,1.982,0,0,0,3-.285c.991-1.246,1.2-2.852.45-3.468a2.672,2.672,0,0,0-3.453.751Z" transform="translate(21.527 24.553)" fill="#11537c"/>
    <path id="Pfad_63804" data-name="Pfad 63804" d="M90.051,14.5a3,3,0,0,0-.48,3.9,2.342,2.342,0,0,0,3-.285,2.057,2.057,0,0,0,.405-3,2.282,2.282,0,0,0-2.927-.615Z" transform="translate(44.59 6.851)" fill="#11537c"/>
    <path id="Pfad_63805" data-name="Pfad 63805" d="M88.831,6.548a3,3,0,0,0-.48,3.9,2.327,2.327,0,0,0,3-.3,2.042,2.042,0,0,0,.405-3,2.282,2.282,0,0,0-2.927-.6Z" transform="translate(43.979 2.865)" fill="#11537c"/>
    <path id="Pfad_63806" data-name="Pfad 63806" d="M46.945,44.322a2,2,0,0,0,.165-2.912,2.672,2.672,0,0,0-3.423-.24,2.207,2.207,0,0,0-.12,3,2.507,2.507,0,0,0,3.378.15Z" transform="translate(21.521 20.11)" fill="#11537c"/>
    <path id="Pfad_63807" data-name="Pfad 63807" d="M153.871,128.012a2.342,2.342,0,0,0-.18-3.363,1.937,1.937,0,0,0-2.582-.2,2.867,2.867,0,0,0-.2,3.828A2.162,2.162,0,0,0,153.871,128.012Z" transform="translate(75.273 61.909)" fill="#11537c"/>
    <path id="Pfad_63808" data-name="Pfad 63808" d="M99.33,145.307c1.006-.751.856-2.567-.39-3.843a1.832,1.832,0,0,0-2.492,0,2.612,2.612,0,0,0-.21,3.783A2.7,2.7,0,0,0,99.33,145.307Z" transform="translate(47.831 70.391)" fill="#11537c"/>
    <path id="Pfad_63809" data-name="Pfad 63809" d="M77.722,159.263a3,3,0,0,0,.405,3.843,2.1,2.1,0,0,0,2.567-.405,2.252,2.252,0,0,0,.105-3.348A2.612,2.612,0,0,0,77.722,159.263Z" transform="translate(38.649 79.329)" fill="#11537c"/>
    <path id="Pfad_63810" data-name="Pfad 63810" d="M108.829,127.12a2.327,2.327,0,0,0-.36-3.363,2.087,2.087,0,0,0-2.582-.21,3,3,0,0,0-.39,3.858,2.267,2.267,0,0,0,3.333-.285Z" transform="translate(52.565 61.48)" fill="#11537c"/>
    <path id="Pfad_63811" data-name="Pfad 63811" d="M151.707,79.182a3.228,3.228,0,0,0,0,3.888,2.1,2.1,0,0,0,3,0,2.417,2.417,0,0,0,0-3.693,2.087,2.087,0,0,0-3-.2Z" transform="translate(75.665 39.145)" fill="#11537c"/>
    <path id="Pfad_63812" data-name="Pfad 63812" d="M132.424,108.412a1.711,1.711,0,0,0,1.186,1.832,2.252,2.252,0,0,0,2.792-1.126,2.657,2.657,0,0,0,0-3.2,3.243,3.243,0,0,0-1.2-.33A3.363,3.363,0,0,0,132.424,108.412Z" transform="translate(66.32 52.655)" fill="#11537c"/>
    <path id="Pfad_63813" data-name="Pfad 63813" d="M64.962,36.179a2.522,2.522,0,0,0,0-3.723,2.012,2.012,0,0,0-2.9-.225,3.333,3.333,0,0,0-.09,3.888A2.117,2.117,0,0,0,64.962,36.179Z" transform="translate(30.722 15.628)" fill="#11537c"/>
    <path id="Pfad_63814" data-name="Pfad 63814" d="M159.979,133.815a2.252,2.252,0,0,0,0,3.348,2.057,2.057,0,0,0,3-.21,2.087,2.087,0,0,0,0-3,2.132,2.132,0,0,0-3-.135Z" transform="translate(79.764 66.525)" fill="#11537c"/>
    <path id="Pfad_63815" data-name="Pfad 63815" d="M123.746,97.256a1.5,1.5,0,0,0,0,2.117,2.7,2.7,0,0,0,3.348.811,2.252,2.252,0,0,0,.5-2.927,2.792,2.792,0,0,0-3.843,0Z" transform="translate(61.757 48.094)" fill="#11537c"/>
    <path id="Pfad_63816" data-name="Pfad 63816" d="M62.759,162.541a2.342,2.342,0,0,0-.075-3.333,2.132,2.132,0,0,0-2.912-.15,2.852,2.852,0,0,0,0,3.8,2.222,2.222,0,0,0,2.987-.315Z" transform="translate(29.547 79.203)" fill="#11537c"/>
    <path id="Pfad_63817" data-name="Pfad 63817" d="M89.644,171.878a1.771,1.771,0,0,0,.585-2.492,2.387,2.387,0,0,0-3.363-.63,2.567,2.567,0,0,0-.616,3C86.806,172.794,88.277,172.824,89.644,171.878Z" transform="translate(43.061 84.098)" fill="#11537c"/>
    <path id="Pfad_63818" data-name="Pfad 63818" d="M37.127,77.5a2.807,2.807,0,0,0-3.423-.435c-.826.616-.585,2.192.525,3.273a1.952,1.952,0,0,0,2.9.09,2,2,0,0,0,0-2.927Z" transform="translate(16.597 38.158)" fill="#11537c"/>
    <path id="Pfad_63819" data-name="Pfad 63819" d="M87.073,151.076a2.087,2.087,0,0,0-.225,3,1.937,1.937,0,0,0,2.582.27c1.141-1.006,1.5-3,.631-3.843S88,150.145,87.073,151.076Z" transform="translate(43.214 74.95)" fill="#11537c"/>
    <path id="Pfad_63820" data-name="Pfad 63820" d="M80.219,181.283a2.252,2.252,0,0,0,.45-3.288,2.567,2.567,0,0,0-3.348-.6c-1.156,1.006-.3,1.967.27,2.867a5.03,5.03,0,0,0,.916,1.036,1.351,1.351,0,0,0,1.711-.015Z" transform="translate(38.419 88.459)" fill="#11537c"/>
    <path id="Pfad_63821" data-name="Pfad 63821" d="M52.8,186.012a1.861,1.861,0,0,0-2.552-.075,2.552,2.552,0,0,0-.225,3.408,2.4,2.4,0,0,0,3.378,0,2.3,2.3,0,0,0-.6-3.333Z" transform="translate(24.749 92.693)" fill="#11537c"/>
    <path id="Pfad_63822" data-name="Pfad 63822" d="M42.479,96.332a2.1,2.1,0,0,0,.736,2.882,1.756,1.756,0,0,0,2.7-.931,10.958,10.958,0,0,0,.5-2.312,3.081,3.081,0,0,0-.3-.856,3.6,3.6,0,0,0-.871-.315A3,3,0,0,0,42.479,96.332Z" transform="translate(21.094 47.246)" fill="#11537c"/>
    <path id="Pfad_63823" data-name="Pfad 63823" d="M124.405,43.2a1.5,1.5,0,0,0-.285.871c0,.991,1.276,1.756,2.9,1.756a1.711,1.711,0,0,0,1.892-1.651,4.942,4.942,0,0,0-.225-.9,3.243,3.243,0,0,0-4.279-.075Z" transform="translate(62.164 20.996)" fill="#11537c"/>
    <path id="Pfad_63824" data-name="Pfad 63824" d="M69.853,105.243c-.811.826-.976,2.492-.33,3a3,3,0,0,0,3.9-.435,1.862,1.862,0,0,0-.165-2.567,2.357,2.357,0,0,0-3.408,0Z" transform="translate(34.598 52.116)" fill="#11537c"/>
    <path id="Pfad_63825" data-name="Pfad 63825" d="M114.759,133.062a2.132,2.132,0,0,0,0,3.288,2.087,2.087,0,0,0,3-.24,2.057,2.057,0,0,0,0-3,1.982,1.982,0,0,0-3-.045Z" transform="translate(57.083 66.092)" fill="#11537c"/>
    <path id="Pfad_63826" data-name="Pfad 63826" d="M128.275,54.5a1.862,1.862,0,0,0,.435-2.192c-.48-1.006-1.862-1.246-3.408-.631a5.57,5.57,0,0,0-.811.5,1.741,1.741,0,0,0,.255,2.522A2.852,2.852,0,0,0,128.275,54.5Z" transform="translate(62.137 25.466)" fill="#11537c"/>
    <path id="Pfad_63827" data-name="Pfad 63827" d="M62.356,189.66a2.552,2.552,0,0,0-.09-3,2.057,2.057,0,0,0-2.912-.3,2.612,2.612,0,0,0-.39,3.408A2.477,2.477,0,0,0,62.356,189.66Z" transform="translate(29.274 92.903)" fill="#11537c"/>
    <path id="Pfad_63828" data-name="Pfad 63828" d="M133.508,115.154c-1.216,1.171-1.5,3-.616,3.843a2.312,2.312,0,0,0,3-.465,2.042,2.042,0,0,0,.12-3.258,1.771,1.771,0,0,0-2.507-.12Z" transform="translate(66.302 57.217)" fill="#11537c"/>
    <path id="Pfad_63829" data-name="Pfad 63829" d="M126.539,142.466a2.777,2.777,0,0,0-3.483-.12c-.691.51-.555,1.5.345,2.462s2.192,1.411,2.867.721a2.522,2.522,0,0,0,.27-3.062Z" transform="translate(61.411 70.8)" fill="#11537c"/>
    <path id="Pfad_63830" data-name="Pfad 63830" d="M69.445,132.3a2.162,2.162,0,1,0,3.153,2.912,2.072,2.072,0,0,0-.21-3,1.952,1.952,0,0,0-2.942.09Z" transform="translate(34.376 65.684)" fill="#11537c"/>
    <path id="Pfad_63831" data-name="Pfad 63831" d="M115.424,105.895c-.916.736-1.336,2.3-.781,3a3.093,3.093,0,0,0,3.513.315,2.162,2.162,0,0,0,.676-3,2.432,2.432,0,0,0-3.408-.315Z" transform="translate(57.288 52.53)" fill="#11537c"/>
    <path id="Pfad_63832" data-name="Pfad 63832" d="M132.256,151.979a1.982,1.982,0,0,0-.15,3,1.816,1.816,0,0,0,2.567.18,2.792,2.792,0,0,0,.51-3.813C134.613,150.673,133.247,151,132.256,151.979Z" transform="translate(65.857 75.413)" fill="#11537c"/>
    <path id="Pfad_63833" data-name="Pfad 63833" d="M122.813,169.095c-.8.631-.676,2.837.375,3.828a1.741,1.741,0,0,0,2.492-.21,1.952,1.952,0,0,0,.465-2.867,2.7,2.7,0,0,0-3.333-.751Z" transform="translate(61.249 84.344)" fill="#11537c"/>
    <path id="Pfad_63834" data-name="Pfad 63834" d="M53.462,171.258c.781-.345,1.336-.991,1.051-1.831a2.642,2.642,0,0,0-2.507-1.756,4.709,4.709,0,0,0-.916.075,1.877,1.877,0,0,0-.916,3.123,2.882,2.882,0,0,0,3.288.39Z" transform="translate(24.838 83.772)" fill="#11537c"/>
    <path id="Pfad_63835" data-name="Pfad 63835" d="M88.336,190.858a3,3,0,0,0,.856-.345c.871-1.006.315-2.087,0-3.108a1.4,1.4,0,0,0-2.177-.9,2.057,2.057,0,0,0-1.231,2.657A2.237,2.237,0,0,0,88.336,190.858Z" transform="translate(42.882 93.086)" fill="#11537c"/>
    <path id="Pfad_63836" data-name="Pfad 63836" d="M50.044,177.087a1.892,1.892,0,0,0,.15,2.567,2.447,2.447,0,0,0,3.738.27,1.5,1.5,0,0,0,0-2.147,2.6,2.6,0,0,0-3.888-.691Z" transform="translate(24.818 88.196)" fill="#11537c"/>
    <path id="Pfad_63837" data-name="Pfad 63837" d="M169.541,44.341a.9.9,0,0,0,0,1.291,3.918,3.918,0,0,0,3.948.871,1.681,1.681,0,0,0,.631-2.4,3.378,3.378,0,0,0-4.579.24Z" transform="translate(84.794 21.443)" fill="#11537c"/>
    <path id="Pfad_63838" data-name="Pfad 63838" d="M87.176,159.8a2.6,2.6,0,0,0-.6,3.378,1.982,1.982,0,0,0,3,0,2.237,2.237,0,0,0,.585-3.288,1.937,1.937,0,0,0-2.987-.09Z" transform="translate(43.156 79.497)" fill="#11537c"/>
    <path id="Pfad_63839" data-name="Pfad 63839" d="M68.547,177.659a2.057,2.057,0,0,0-.2,2.912,2.312,2.312,0,0,0,3.333-.2,1.937,1.937,0,0,0-.24-2.867,1.967,1.967,0,0,0-2.9.15Z" transform="translate(33.953 88.42)" fill="#11537c"/>
    <path id="Pfad_63840" data-name="Pfad 63840" d="M81.733,134.993a1.982,1.982,0,0,0-.6-2.507,2.567,2.567,0,0,0-3.408,0,1.7,1.7,0,0,0-.165,1.276,4.383,4.383,0,0,0,.811,1.156c.345.285.706.6,1.081.856a1.5,1.5,0,0,0,2.282-.781Z" transform="translate(38.797 65.812)" fill="#11537c"/>
    <path id="Pfad_63841" data-name="Pfad 63841" d="M81.08,144.649a2.432,2.432,0,0,0,.165-3,2.777,2.777,0,0,0-3.5,0c-.646.525-.45,1.591.435,2.477C79.293,145.1,80.4,145.355,81.08,144.649Z" transform="translate(38.729 70.418)" fill="#11537c"/>
    <path id="Pfad_63842" data-name="Pfad 63842" d="M80.144,186.727a2.567,2.567,0,0,0-3-.09c-.721.616-.51,1.786.525,2.852.691.721,1.5,1.216,2.447.585A2.4,2.4,0,0,0,80.144,186.727Z" transform="translate(38.403 93.058)" fill="#11537c"/>
    <path id="Pfad_63843" data-name="Pfad 63843" d="M69.4,141.536a1.907,1.907,0,0,0-.45,2.522,2.492,2.492,0,0,0,3.438,0,1.771,1.771,0,0,0,0-2.552,1.907,1.907,0,0,0-2.987.03Z" transform="translate(34.363 70.303)" fill="#11537c"/>
    <path id="Pfad_63844" data-name="Pfad 63844" d="M115.389,97.088a2.1,2.1,0,0,0-.105,3,2.312,2.312,0,0,0,3.363-.3,2.237,2.237,0,0,0-.345-3,1.982,1.982,0,0,0-2.912.3Z" transform="translate(57.444 47.991)" fill="#11537c"/>
    <path id="Pfad_63845" data-name="Pfad 63845" d="M70.147,96.275a2.042,2.042,0,0,0-.09,2.9,2.327,2.327,0,0,0,3.318-.3A2.147,2.147,0,0,0,73,95.96a1.892,1.892,0,0,0-2.852.315Z" transform="translate(34.785 47.573)" fill="#11537c"/>
    <path id="Pfad_63846" data-name="Pfad 63846" d="M122.854,133.493a.946.946,0,0,0,0,1.141,10.375,10.375,0,0,0,1.636,1.711,1.5,1.5,0,0,0,1.756.18,1.952,1.952,0,0,0-.631-3.6,2.537,2.537,0,0,0-2.762.57Z" transform="translate(61.433 66.262)" fill="#11537c"/>
    <path id="Pfad_63847" data-name="Pfad 63847" d="M95.329,178.014a1.681,1.681,0,0,0,0,2.147,2.342,2.342,0,0,0,3.618.6,1.5,1.5,0,0,0,0-2.162C98.032,177.413,96.155,177.053,95.329,178.014Z" transform="translate(47.538 88.681)" fill="#11537c"/>
    <path id="Pfad_63848" data-name="Pfad 63848" d="M132.566,160.726c-1.156,1.066-1.5,2.462-.661,3.258a2.417,2.417,0,0,0,3.468-3.123,1.786,1.786,0,0,0-2.807-.135Z" transform="translate(65.833 79.982)" fill="#11537c"/>
    <path id="Pfad_63849" data-name="Pfad 63849" d="M135.194,172.3a1.5,1.5,0,0,0,.165-2.087,2.207,2.207,0,0,0-3.273-.345c-.871.8-1.036,2.342-.315,2.912a2.822,2.822,0,0,0,3.423-.48Z" transform="translate(65.772 84.589)" fill="#11537c"/>
    <path id="Pfad_63850" data-name="Pfad 63850" d="M107.658,172.571a2.267,2.267,0,0,0,.2-3.3,1.756,1.756,0,0,0-2.492-.345,2.462,2.462,0,0,0-.691,3.618A2.357,2.357,0,0,0,107.658,172.571Z" transform="translate(52.158 84.215)" fill="#11537c"/>
    <path id="Pfad_63851" data-name="Pfad 63851" d="M79.249,51.356a1.862,1.862,0,0,0-.285,1.741,2.582,2.582,0,0,0,3.2,1.066,2,2,0,0,0,1.261-2.222,1.636,1.636,0,0,0-.721-1.081,3.168,3.168,0,0,0-3.453.5Z" transform="translate(39.479 25.071)" fill="#11537c"/>
    <path id="Pfad_63852" data-name="Pfad 63852" d="M33.837,95.231a1.621,1.621,0,0,0-.661,2.4,3.138,3.138,0,0,0,2.072,1.1,1.5,1.5,0,0,0,1.636-.691,2.327,2.327,0,0,0,0-2.342,2.582,2.582,0,0,0-3.048-.465Z" transform="translate(16.434 47.311)" fill="#11537c"/>
    <path id="Pfad_63853" data-name="Pfad 63853" d="M128.958,9.393a1.907,1.907,0,0,0,.465-2.507,2.6,2.6,0,0,0-3.783.105,1.606,1.606,0,0,0-.5,2.087C125.746,10.144,127.667,10.249,128.958,9.393Z" transform="translate(62.58 2.797)" fill="#11537c"/>
    <path id="Pfad_63854" data-name="Pfad 63854" d="M37.394,52.863a2.087,2.087,0,0,0,.165-2.582,2.462,2.462,0,0,0-3.8,1.066,1.786,1.786,0,0,0,.255,1.306A2.552,2.552,0,0,0,37.394,52.863Z" transform="translate(16.856 24.676)" fill="#11537c"/>
    <path id="Pfad_63855" data-name="Pfad 63855" d="M35.624,135.188a1.876,1.876,0,0,0,1.006-1.5,2.087,2.087,0,0,0-1.246-2.312,2.327,2.327,0,0,0-2.642.075c-.345.285-.706.676-.465,1.2s.555,1.1.721,1.411a10.135,10.135,0,0,0,.9.811C34.423,135.233,34.9,135.579,35.624,135.188Z" transform="translate(16.089 65.392)" fill="#11537c"/>
    <path id="Pfad_63856" data-name="Pfad 63856" d="M24.2,131.612a2.072,2.072,0,0,0-.225,3,2.462,2.462,0,0,0,3.408-.255,2.087,2.087,0,0,0-.285-3,1.892,1.892,0,0,0-2.9.255Z" transform="translate(11.694 65.29)" fill="#11537c"/>
    <path id="Pfad_63857" data-name="Pfad 63857" d="M32.617,140.7a1.33,1.33,0,0,0,0,2.072c.946,1.291,2.387,1.771,3.2,1.156a2.417,2.417,0,0,0,.285-3,2.627,2.627,0,0,0-3.483-.225Z" transform="translate(16.048 69.973)" fill="#11537c"/>
    <path id="Pfad_63858" data-name="Pfad 63858" d="M68.948,150.823a1.5,1.5,0,0,0-.3,2.087,2.657,2.657,0,0,0,3.738,0,1.7,1.7,0,0,0-.15-2.462,2.222,2.222,0,0,0-3.288.375Z" transform="translate(34.212 74.858)" fill="#11537c"/>
    <path id="Pfad_63859" data-name="Pfad 63859" d="M99.205,171.685A1.5,1.5,0,0,0,99.6,170a2.687,2.687,0,0,0-4.053-.826,1.5,1.5,0,0,0-.135,2.132,2.672,2.672,0,0,0,3.8.375Z" transform="translate(47.581 84.231)" fill="#11537c"/>
    <path id="Pfad_63860" data-name="Pfad 63860" d="M27.088,143.23a1.7,1.7,0,0,0,0-2.492,1.892,1.892,0,0,0-2.882-.09c-.8.676-1.081,1.952-.57,2.492A2.717,2.717,0,0,0,27.088,143.23Z" transform="translate(11.669 69.915)" fill="#11537c"/>
    <path id="Pfad_63861" data-name="Pfad 63861" d="M117.507,145.016a1.907,1.907,0,0,0-.15-2.867,2,2,0,0,0-2.882.39,1.666,1.666,0,0,0,0,2.477A2.162,2.162,0,0,0,117.507,145.016Z" transform="translate(57.052 70.756)" fill="#11537c"/>
    <path id="Pfad_63862" data-name="Pfad 63862" d="M122.962,151.541a1.606,1.606,0,0,0,0,2.177,2.312,2.312,0,0,0,3,.661,2.252,2.252,0,0,0,.555-3,2.807,2.807,0,0,0-3.558.165Z" transform="translate(61.37 75.326)" fill="#11537c"/>
    <path id="Pfad_63863" data-name="Pfad 63863" d="M77.442,150.983a1.5,1.5,0,0,0,.42,2.072,2.117,2.117,0,0,0,3.273,0c.54-.781.871-1.681.135-2.492A2.777,2.777,0,0,0,77.442,150.983Z" transform="translate(38.643 74.908)" fill="#11537c"/>
    <path id="Pfad_63864" data-name="Pfad 63864" d="M114.314,151.519a1.636,1.636,0,0,0-.21,2.462,2.567,2.567,0,0,0,3.423,0,1.787,1.787,0,0,0,.12-2.537,2.252,2.252,0,0,0-3.333.075Z" transform="translate(56.912 75.288)" fill="#11537c"/>
    <path id="Pfad_63865" data-name="Pfad 63865" d="M78.181,88.214a2.777,2.777,0,0,0,3.693,1.922,1.5,1.5,0,0,0,.631-2.057,2.732,2.732,0,0,0-4.053-.751C78.361,87.643,78.151,87.944,78.181,88.214Z" transform="translate(39.136 43.204)" fill="#11537c"/>
    <path id="Pfad_63866" data-name="Pfad 63866" d="M23.959,149.631c-.811.646-1.156,1.952-.676,2.507a2.867,2.867,0,0,0,3.6.165c.931-.886.9-1.666.405-2.357a2.237,2.237,0,0,0-3.333-.315Z" transform="translate(11.51 74.428)" fill="#11537c"/>
    <path id="Pfad_63867" data-name="Pfad 63867" d="M35.928,152.339a2,2,0,0,0,0-2.6,2.747,2.747,0,0,0-3.8.345,1.591,1.591,0,0,0,.405,2.117,2.3,2.3,0,0,0,3.393.135Z" transform="translate(15.935 74.483)" fill="#11537c"/>
    <path id="Pfad_63868" data-name="Pfad 63868" d="M141.229,160.975a1.907,1.907,0,0,0-.345,2.552,2.372,2.372,0,0,0,3.348.15,2.012,2.012,0,0,0-.105-2.9,1.982,1.982,0,0,0-2.9.2Z" transform="translate(70.395 80.048)" fill="#11537c"/>
    <path id="Pfad_63869" data-name="Pfad 63869" d="M114.041,178.362a1.832,1.832,0,0,0-.255,2.837,1.952,1.952,0,0,0,2.9,0,1.831,1.831,0,0,0,.2-2.537,1.877,1.877,0,0,0-2.837-.3Z" transform="translate(56.705 88.873)" fill="#11537c"/>
    <path id="Pfad_63870" data-name="Pfad 63870" d="M123.573,88.362c0,.315-.2.646-.105.886a3,3,0,0,0,3.393,1.816,1.5,1.5,0,0,0,1.186-1.726,1.636,1.636,0,0,0-1.5-1.5C125.495,87.551,124.414,87.356,123.573,88.362Z" transform="translate(61.825 43.641)" fill="#11537c"/>
    <path id="Pfad_63871" data-name="Pfad 63871" d="M71.549,189.167a1.726,1.726,0,0,0-.24-2.477,2.072,2.072,0,0,0-3,.3,1.4,1.4,0,0,0-.18,2.072,2.4,2.4,0,0,0,3.423.105Z" transform="translate(33.908 93.05)" fill="#11537c"/>
    <path id="Pfad_63872" data-name="Pfad 63872" d="M33.484,88.409c1.036,1.2,2.492,1.5,3.258.6a1.621,1.621,0,0,0,0-2.162,2.447,2.447,0,0,0-3.318-.48C32.7,87,33,87.794,33.484,88.409Z" transform="translate(16.487 42.798)" fill="#11537c"/>
    <path id="Pfad_63873" data-name="Pfad 63873" d="M79.012,42.876a1.336,1.336,0,0,0,.105.9,2.537,2.537,0,0,0,4.008.315c0-.3.27-.616.21-.886a2.072,2.072,0,0,0-2.087-1.591C80.213,41.539,79.282,41.75,79.012,42.876Z" transform="translate(39.536 20.581)" fill="#11537c"/>
    <path id="Pfad_63874" data-name="Pfad 63874" d="M133.306,65.076l76.158,21.843a3.708,3.708,0,0,1,1.336,6.41l-29.139,24.29L95.64,92.924l32.066-26.647A6.155,6.155,0,0,1,133.306,65.076Z" transform="translate(47.888 32.234)" fill="#fff"/>
    <path id="Pfad_63875" data-name="Pfad 63875" d="M182.165,119.643a1.35,1.35,0,0,1-.42,0L95.739,94.888a1.518,1.518,0,0,1-.555-2.627L127.22,65.6a7.611,7.611,0,0,1,7-1.5l76.158,21.918a5.194,5.194,0,0,1,1.892,9.007l-29.139,24.26A1.5,1.5,0,0,1,182.165,119.643ZM99.3,92.786l82.568,23.66,28.524-23.735a2.207,2.207,0,0,0-.8-3.813l-76.2-21.8h0a4.639,4.639,0,0,0-4.248.9Z" transform="translate(47.384 31.711)" fill="#11537c"/>
    <path id="Pfad_63876" data-name="Pfad 63876" d="M96.884,65.078,20.726,86.936a3.708,3.708,0,0,0-1.351,6.41l29.154,24.275,86.006-24.7L102.513,66.279A6.155,6.155,0,0,0,96.884,65.078Z" transform="translate(8.994 32.232)" fill="#fff"/>
    <path id="Pfad_63877" data-name="Pfad 63877" d="M49.035,119.63a1.5,1.5,0,0,1-.961-.345L18.92,94.995a5.194,5.194,0,0,1,1.907-9.007L96.97,64.16a7.641,7.641,0,0,1,7.086,1.426L136,92.278a1.522,1.522,0,0,1-.54,2.627L49.44,119.57A1.261,1.261,0,0,1,49.035,119.63ZM99.086,66.862a4.593,4.593,0,0,0-1.276.18h0L21.652,88.885a2.225,2.225,0,0,0-.766,3.813L49.41,116.433l82.568-23.66-29.92-24.83a4.639,4.639,0,0,0-2.972-1.081Zm-1.7-1.276Z" transform="translate(8.487 31.724)" fill="#11537c"/>
    <path id="Pfad_63878" data-name="Pfad 63878" d="M207.677,107.581,124,83.561a.54.54,0,0,0-.375,0l-83.694,24.02a.676.676,0,0,0,0,1.291l83.694,24.02a.54.54,0,0,0,.375,0l83.679-24.02a.676.676,0,0,0,0-1.291Z" transform="translate(19.725 41.597)" fill="#11537c"/>
    <path id="Pfad_63879" data-name="Pfad 63879" d="M124.308,134.856a2.613,2.613,0,0,1-.585,0l-83.694-24.02a2.177,2.177,0,0,1,0-4.188l83.679-24.02a2.177,2.177,0,0,1,1.2,0l83.694,24.02h0a2.177,2.177,0,0,1,0,4.188l-83.754,23.945a2.625,2.625,0,0,1-.54.075ZM43.616,108.75l80.692,23.1,80.707-23.1L124.308,85.616Zm164.16.8Z" transform="translate(19.22 41.103)" fill="#11537c"/>
    <rect id="Rechteck_1560" data-name="Rechteck 1560" width="3.002" height="85.706" transform="translate(142.027 174.489)" fill="#4f388e"/>
    <path id="Pfad_63880" data-name="Pfad 63880" d="M129.078,161.571s11.049-27.383,0-53.789c-9.007-21.483-3.363-43.626-.946-51.132a1.5,1.5,0,0,0-1.832-1.892l-54.9,15.4a5.179,5.179,0,0,0-3.513,3.273,75.692,75.692,0,0,0,1.006,51.222c9.338,24.68,5.359,43.746,3.348,50.487A1.5,1.5,0,0,0,74.088,177Z" transform="translate(31.984 27.149)" fill="#fff"/>
    <path id="Pfad_63881" data-name="Pfad 63881" d="M74.191,179.114a3,3,0,0,1-2.882-3.843c2.042-6.861,5.81-25.4-3.318-49.541A77.074,77.074,0,0,1,66.97,73.457a6.816,6.816,0,0,1,4.5-4.218L126.4,53.82a3.008,3.008,0,0,1,3.708,3.8c-2.627,8.152-7.791,29.349.886,50.081,11.169,26.677.465,53.8,0,54.945a1.5,1.5,0,0,1-.991.886L75.061,179.009A3,3,0,0,1,74.191,179.114ZM127.214,56.7l-54.9,15.463a3.738,3.738,0,0,0-2.507,2.327,73.936,73.936,0,0,0,1.006,50.216c9.428,24.966,5.51,44.287,3.378,51.432l54.255-15.283c1.5-4.339,9.488-28.734-.24-51.988C119.138,87.178,124.5,65.17,127.214,56.7Zm2.372,105.372Z" transform="translate(31.477 26.646)" fill="#11537c"/>
    <path id="Pfad_63882" data-name="Pfad 63882" d="M137.7,162.24s11.064-27.383,0-53.8c-8.917-21.3-3.753-42.11-1.5-49.346A1.5,1.5,0,0,0,134.37,57.2L79.094,72.781A5.224,5.224,0,0,0,75.822,75.5c-2.852,5.645-8.827,22.428,1.7,49.886,9.488,24.71,3.978,43.971,1.246,51.042a1.5,1.5,0,0,0,1.816,1.967Z" transform="translate(35.805 28.372)" fill="#fff"/>
    <path id="Pfad_63883" data-name="Pfad 63883" d="M80.663,180.383a3,3,0,0,1-2.792-4.083c2.717-6.951,8.017-25.731-1.246-49.871C65.951,98.58,71.911,81.391,74.974,75.386a6.771,6.771,0,0,1,4.218-3.543L134.543,56.26a2.994,2.994,0,0,1,3.693,3.8c-2.462,7.656-7.251,27.683,1.381,48.31,11.169,26.662.48,53.789,0,54.93a1.5,1.5,0,0,1-.991.886L81.579,180.278A3.124,3.124,0,0,1,80.663,180.383Zm54.69-121.24L80,74.726a3.783,3.783,0,0,0-2.342,1.952c-2.882,5.735-8.482,21.948,1.771,48.67,9.638,25.131,4.068,44.767,1.246,52.048l56.387-15.9c1.5-4.339,9.488-28.719-.24-51.973-9.022-21.558-4.038-42.41-1.471-50.382Zm2.852,103.585Z" transform="translate(35.302 27.869)" fill="#11537c"/>
    <path id="Pfad_63884" data-name="Pfad 63884" d="M143.819,165.127a5.224,5.224,0,0,0,3.573-3.438c2.417-7.506,8.032-29.649-.946-51.042s-3.8-42.155-1.5-49.391A1.5,1.5,0,0,0,143.1,59.35L86.531,75.233a5.224,5.224,0,0,0-3.123,2.4c-2.822,4.909-8.377,19.726,2.852,49.9,9.188,24.71,2.552,44.257-.691,51.432a1.5,1.5,0,0,0,1.786,2.057Z" transform="translate(39.808 29.448)" fill="#fff"/>
    <path id="Pfad_63885" data-name="Pfad 63885" d="M87.434,183.111a3,3,0,0,1-2.732-4.234c3.2-7.071,9.638-26.152.646-50.307-11.409-30.685-5.72-46-2.732-51.177a6.68,6.68,0,0,1,4.008-3.108L143.2,58.358a3,3,0,0,1,3.678,3.8c-2.447,7.671-7.191,27.713,1.5,48.355,9.007,21.648,3.708,43.671.991,52.138a6.726,6.726,0,0,1-4.594,4.5h0L88.244,182.991A3.139,3.139,0,0,1,87.434,183.111ZM144.015,61.255,87.434,77.2a3.693,3.693,0,0,0-2.192,1.7c-2.762,4.8-8.017,19.126,3,48.625,9.368,25.191,2.612,45.157-.721,52.543l56.462-15.9a3.783,3.783,0,0,0,2.552-2.462c2.612-8.152,7.761-29.334-.9-50.051-9.113-21.528-4.158-42.41-1.621-50.4Zm.3,104.4Z" transform="translate(39.311 28.924)" fill="#11537c"/>
    <path id="Pfad_63886" data-name="Pfad 63886" d="M124.356,124.635,38.35,100V212.052a7.776,7.776,0,0,0,5.63,7.506l78.245,22.428a7.686,7.686,0,0,0,4.279,0l78.245-22.429a7.776,7.776,0,0,0,5.63-7.506V100Z" transform="translate(19.172 49.853)" fill="#fff"/>
    <path id="Pfad_63887" data-name="Pfad 63887" d="M124.857,244.23a9.278,9.278,0,0,1-2.552-.36L44.061,221.441a9.323,9.323,0,0,1-6.711-8.917V100.5a1.5,1.5,0,0,1,1.907-1.441l85.571,24.545L210.4,99.06a1.5,1.5,0,0,1,1.922,1.441V212.554a9.323,9.323,0,0,1-6.726,8.917l-78.169,22.4A9.293,9.293,0,0,1,124.857,244.23Zm-84.5-141.762V212.524a6.29,6.29,0,0,0,4.5,6L123.1,240.957a6.14,6.14,0,0,0,3.453,0L204.8,218.529a6.305,6.305,0,0,0,4.5-6V102.468l-84.069,24.11a1.5,1.5,0,0,1-.826,0Z" transform="translate(18.671 49.352)" fill="#11537c"/>
    <path id="Pfad_63888" data-name="Pfad 63888" d="M96.352,124.635,94.22,241.927a7.686,7.686,0,0,0,4.279,0L176.743,219.5a7.776,7.776,0,0,0,5.63-7.506V100Z" transform="translate(47.177 49.853)" fill="#11537c"/>
    <path id="Pfad_63889" data-name="Pfad 63889" d="M96.853,244.25a9.277,9.277,0,0,1-2.552-.36,1.5,1.5,0,0,1-1.081-1.5L95.352,125.1a1.5,1.5,0,0,1,1.1-1.411L182.454,99.02a1.5,1.5,0,0,1,1.922,1.441V212.514a9.323,9.323,0,0,1-6.726,8.917L99.421,243.89A9.292,9.292,0,0,1,96.853,244.25Zm-.616-3a6.184,6.184,0,0,0,2.342-.21l78.245-22.429a6.305,6.305,0,0,0,4.5-6V102.488L98.34,126.3Z" transform="translate(46.675 49.332)" fill="#11537c"/>
    <path id="Pfad_63890" data-name="Pfad 63890" d="M45.712,100l86.006,24.665-21.408,42.98a7.011,7.011,0,0,1-8.227,3.618L26.811,149.691a4.5,4.5,0,0,1-2.747-6.155Z" transform="translate(11.81 49.853)" fill="#fff"/>
    <path id="Pfad_63891" data-name="Pfad 63891" d="M104.548,173.576a9.113,9.113,0,0,1-2.357-.33L26.919,151.658a6,6,0,0,1-3.723-8.347L44.843,99.775a1.5,1.5,0,0,1,1.8-.751l86.021,24.665a1.544,1.544,0,0,1,.961,2.117l-21.438,43.025A8.557,8.557,0,0,1,104.548,173.576ZM47.02,102.282,26,144.647a2.912,2.912,0,0,0,1.7,4.113l75.272,21.588a5.555,5.555,0,0,0,6.485-2.852L130.1,126.047Z" transform="translate(11.283 49.328)" fill="#11537c"/>
    <path id="Pfad_63892" data-name="Pfad 63892" d="M181.661,100,95.64,124.665l21.423,43.01a7.011,7.011,0,0,0,8.227,3.618l75.272-21.573a4.5,4.5,0,0,0,2.747-6.23Z" transform="translate(47.888 49.853)" fill="#fff"/>
    <path id="Pfad_63893" data-name="Pfad 63893" d="M123.846,173.571a8.557,8.557,0,0,1-7.656-4.744l-21.393-43a1.544,1.544,0,0,1,.961-2.117l85.976-24.7a1.5,1.5,0,0,1,1.756.781l21.648,43.536a5.84,5.84,0,0,1,.12,5.029,5.915,5.915,0,0,1-3.783,3.318L126.2,173.27A9.112,9.112,0,0,1,123.846,173.571ZM98.28,126.041l20.612,41.389a5.525,5.525,0,0,0,6.47,2.852L200.65,148.7a2.912,2.912,0,0,0,1.8-4.113l-21.092-42.365Z" transform="translate(47.395 49.333)" fill="#11537c"/>
    <path id="Pfad_63894" data-name="Pfad 63894" d="M37.37,62.635A28.719,28.719,0,0,0,42.819,50.4a29.124,29.124,0,0,0,12.175,5.4A37.741,37.741,0,0,0,49.62,68.04a34.393,34.393,0,0,0-12.25-5.4Z" transform="translate(18.681 24.992)" fill="#fff"/>
    <path id="Pfad_63895" data-name="Pfad 63895" d="M50.123,70.03a1.5,1.5,0,0,1-.9-.3,33.387,33.387,0,0,0-11.635-5.119,1.524,1.524,0,0,1-.856-2.477,27.278,27.278,0,0,0,5.089-11.469,1.5,1.5,0,0,1,2.417-.946,27.308,27.308,0,0,0,11.469,5.089,1.5,1.5,0,0,1,1.021,2.357,36.39,36.39,0,0,0-5.134,11.695,1.5,1.5,0,0,1-1.5,1.186ZM40.44,62.224a36.465,36.465,0,0,1,8.767,3.9,40.609,40.609,0,0,1,3.828-8.782,30.79,30.79,0,0,1-8.8-3.933,30.685,30.685,0,0,1-3.8,8.812Z" transform="translate(18.179 24.487)" fill="#11537c"/>
    <path id="Pfad_63896" data-name="Pfad 63896" d="M148.775,57.715A28.809,28.809,0,0,1,143.4,45.48a28.914,28.914,0,0,1-12.25,5.389A37.966,37.966,0,0,1,136.539,63.1a34.393,34.393,0,0,1,12.235-5.389Z" transform="translate(65.687 22.526)" fill="#fff"/>
    <path id="Pfad_63897" data-name="Pfad 63897" d="M137.042,65.12a1.486,1.486,0,0,1-1.471-1.186,36.615,36.615,0,0,0-5.149-11.695,1.534,1.534,0,0,1,1.036-2.387,27.532,27.532,0,0,0,11.514-5.074,1.52,1.52,0,0,1,2.432.946,27.623,27.623,0,0,0,5.029,11.56,1.524,1.524,0,0,1-.856,2.477,33.7,33.7,0,0,0-11.65,5.029,1.5,1.5,0,0,1-.886.33ZM134.13,52.434a40.609,40.609,0,0,1,3.828,8.782,36.465,36.465,0,0,1,8.767-3.9,30.685,30.685,0,0,1-3.8-8.812A30.79,30.79,0,0,1,134.13,52.434Z" transform="translate(65.184 22.012)" fill="#11537c"/>
    <path id="Pfad_63898" data-name="Pfad 63898" d="M94.84,41.988A28.629,28.629,0,0,0,104.3,32.53a28.989,28.989,0,0,0,9.458,9.458,38.132,38.132,0,0,0-9.458,9.458A34.423,34.423,0,0,0,94.84,41.988Z" transform="translate(47.487 16.035)" fill="#fff"/>
    <path id="Pfad_63899" data-name="Pfad 63899" d="M104.794,53.458h0a1.5,1.5,0,0,1-1.246-.706,33.417,33.417,0,0,0-9.007-9.007,1.495,1.495,0,0,1,.105-2.582,27.353,27.353,0,0,0,8.857-8.917,1.5,1.5,0,0,1,2.582,0,27.5,27.5,0,0,0,8.9,9.007,1.5,1.5,0,0,1,.105,2.552,36.81,36.81,0,0,0-9.007,9.007A1.5,1.5,0,0,1,104.794,53.458ZM98.054,42.574a36.856,36.856,0,0,1,6.771,6.816,40.309,40.309,0,0,1,6.756-6.8,30.94,30.94,0,0,1-6.786-6.846,30.28,30.28,0,0,1-6.741,6.831Z" transform="translate(46.991 15.524)" fill="#11537c"/>
    <path id="Pfad_63900" data-name="Pfad 63900" d="M56.84,35.588C65.037,27.106,68.069,14,68.069,14s9.8,8.857,21.528,11.214A69.057,69.057,0,0,0,78.383,46.757,62.482,62.482,0,0,0,56.84,35.588Z" transform="translate(28.44 6.747)" fill="#fff"/>
    <path id="Pfad_63901" data-name="Pfad 63901" d="M78.907,48.815a1.5,1.5,0,0,1-.976-.36A61.551,61.551,0,0,0,56.914,37.541a1.55,1.55,0,0,1-.691-2.552c7.806-8.062,10.809-20.7,10.839-20.837a1.5,1.5,0,0,1,2.552-.706c.09.09,9.653,8.617,20.822,10.854a1.5,1.5,0,0,1,.871,2.417A67.961,67.961,0,0,0,80.363,47.734a1.407,1.407,0,0,1-1.456,1.081ZM60.067,35.3a64.313,64.313,0,0,1,18.015,9.473,71.084,71.084,0,0,1,9.383-18.1,54.044,54.044,0,0,1-18.1-9.5,53.729,53.729,0,0,1-9.293,18.165Z" transform="translate(27.916 6.235)" fill="#11537c"/>
    <path id="Pfad_63902" data-name="Pfad 63902" d="M116.13,23.806C127.359,20.2,136.172,10.1,136.172,10.1s4.5,12.445,13.706,20.057a68.712,68.712,0,0,0-20.042,13.706A62.421,62.421,0,0,0,116.13,23.806Z" transform="translate(58.159 4.792)" fill="#fff"/>
    <path id="Pfad_63903" data-name="Pfad 63903" d="M130.34,45.864h-.3a1.5,1.5,0,0,1-1.1-.931A61.551,61.551,0,0,0,115.6,25.418a1.5,1.5,0,0,1,.57-2.522c10.779-3.438,19.291-13.181,19.381-13.286a1.5,1.5,0,0,1,2.537.48c0,.12,4.5,12.16,13.256,19.411a1.5,1.5,0,0,1-.375,2.537A67.556,67.556,0,0,0,131.451,45.4,1.5,1.5,0,0,1,130.34,45.864ZM119.381,24.847A64.839,64.839,0,0,1,130.85,41.721a71.445,71.445,0,0,1,16.8-11.545,53.88,53.88,0,0,1-11.484-16.9,53.789,53.789,0,0,1-16.724,11.635Z" transform="translate(57.655 4.291)" fill="#11537c"/>
    <path id="Pfad_63904" data-name="Pfad 63904" d="M169.681,74.433a1.5,1.5,0,0,1-1.5-1.5c0-3.483,1.862-10.238,9.233-10.869,6.44-.555,6.5-7.506,6.5-7.851a1.5,1.5,0,0,1,1.5-1.5h0a1.5,1.5,0,0,1,1.5,1.5c0,3.483-1.862,10.238-9.248,10.869-6.485.57-6.5,7.506-6.485,7.851a1.5,1.5,0,0,1-1.5,1.5Z" transform="translate(84.248 26.15)" fill="#11537c"/>
    <path id="Pfad_63905" data-name="Pfad 63905" d="M44.489,57.79a1.5,1.5,0,0,1-1.291-.721A11.5,11.5,0,0,1,42,48.6a13.919,13.919,0,0,1,.405-1.5l-.811-.345c-5.419-2.087-5.374-8.737-4.594-12.01.105-.48.24-.946.39-1.426l-.841-.36c-1.051-.39-7.131-3.078-4.5-12.01.135-.45.27-.9.435-1.336-.33-.12-.646-.255-.961-.405a12.22,12.22,0,0,1-6.62-7.236,1.5,1.5,0,0,1,2.867-.886,9.353,9.353,0,0,0,5.029,5.4l.856.36a22.068,22.068,0,0,1,1.937-3.123,12.19,12.19,0,0,1,6-4.909c2.867-.856,6.605.345,7.611,3.468a6,6,0,0,1-2.372,6.485,11.409,11.409,0,0,1-6,1.922,21.017,21.017,0,0,1-5.555-.225c-.165.45-.315.9-.435,1.351-1.952,6.921,2.522,8.422,2.717,8.422l.21.075c.255.12.525.24.811.345a24.021,24.021,0,0,1,1.982-3.153,12.19,12.19,0,0,1,6-4.909c2.867-.841,6.605.345,7.611,3.483a6,6,0,0,1-2.372,6.47,11.394,11.394,0,0,1-6,1.937,20.837,20.837,0,0,1-5.615-.255,10.359,10.359,0,0,0-.36,1.291c0,.09-1.5,6.831,2.747,8.5l.931.33a25.01,25.01,0,0,1,1.952-3.108,12.235,12.235,0,0,1,6-4.894c2.867-.856,6.605.345,7.611,3.468a6,6,0,0,1-2.372,6.47,11.349,11.349,0,0,1-6,1.937A20.672,20.672,0,0,1,45.1,47.9a12.551,12.551,0,0,0-.39,1.366,8.467,8.467,0,0,0,.841,6.245,1.513,1.513,0,0,1-1.066,2.282Zm2.147-12.731a17.279,17.279,0,0,0,3.963.2A8.227,8.227,0,0,0,54.983,43.9,3.123,3.123,0,0,0,56.3,40.751a3.258,3.258,0,0,0-3.9-1.5,9.518,9.518,0,0,0-4.5,3.8A20.926,20.926,0,0,0,46.636,45.059ZM41.592,31.4a19.186,19.186,0,0,0,4.068.075,8.332,8.332,0,0,0,4.4-1.336,3.138,3.138,0,0,0,1.321-3.153,3.273,3.273,0,0,0-3.918-1.5,9.728,9.728,0,0,0-4.5,3.783A25.162,25.162,0,0,0,41.592,31.4ZM36.608,17.6a18.886,18.886,0,0,0,4.038.075,8.227,8.227,0,0,0,4.384-1.336,3.153,3.153,0,0,0,1.321-3.153,3.228,3.228,0,0,0-3.9-1.5,9.488,9.488,0,0,0-4.5,3.783A17.879,17.879,0,0,0,36.593,17.6Z" transform="translate(12.403 4.016)" fill="#11537c"/>
    <path id="Pfad_63906" data-name="Pfad 63906" d="M38.854,164.045a1.5,1.5,0,0,1-1.066-2.567l21.273-21.273a1.5,1.5,0,1,1,2.117,2.132L39.92,163.6A1.5,1.5,0,0,1,38.854,164.045Z" transform="translate(18.668 69.787)" fill="#11537c"/>
    <path id="Pfad_63907" data-name="Pfad 63907" d="M38.854,185.9a1.5,1.5,0,0,1-1.066-2.567l39.573-39.618a1.5,1.5,0,1,1,2.132,2.117L39.92,185.453a1.5,1.5,0,0,1-1.066.45Z" transform="translate(18.668 71.544)" fill="#11537c"/>
    <path id="Pfad_63908" data-name="Pfad 63908" d="M84.207,148.885a1.494,1.494,0,0,1-1.051-2.552l17.61-17.625a1.5,1.5,0,0,1,2.132,2.117l-17.625,17.67A1.5,1.5,0,0,1,84.207,148.885Z" transform="translate(41.412 64.02)" fill="#11537c"/>
    <path id="Pfad_63909" data-name="Pfad 63909" d="M44.974,198.611a1.5,1.5,0,0,1-1.066-2.567l48.97-48.9a1.5,1.5,0,1,1,2.132,2.117L46.04,198.19A1.5,1.5,0,0,1,44.974,198.611Z" transform="translate(21.736 73.263)" fill="#11537c"/>
    <path id="Pfad_63910" data-name="Pfad 63910" d="M57.187,205.243a1.494,1.494,0,0,1-1.051-2.552L114.414,144.4a1.507,1.507,0,0,1,2.132,2.132L58.253,204.807A1.5,1.5,0,0,1,57.187,205.243Z" transform="translate(27.868 71.886)" fill="#11537c"/>
    <path id="Pfad_63911" data-name="Pfad 63911" d="M69.424,202.617a1.5,1.5,0,0,1-1.066-2.567l39.933-39.9a1.507,1.507,0,0,1,2.132,2.132l-39.933,39.9A1.5,1.5,0,0,1,69.424,202.617Z" transform="translate(33.991 79.78)" fill="#11537c"/>
    <path id="Pfad_63912" data-name="Pfad 63912" d="M81.637,200a1.494,1.494,0,0,1-1.051-2.552l21.573-21.588a1.507,1.507,0,0,1,2.132,2.132L82.7,199.562A1.5,1.5,0,0,1,81.637,200Z" transform="translate(40.124 87.655)" fill="#11537c"/>
  </g>
</svg>
