<svg xmlns="http://www.w3.org/2000/svg" xmlns:xlink="http://www.w3.org/1999/xlink" width="24" height="24.558" viewBox="0 0 24 24.558"><defs><style>.a{fill:#1e3056;}.b{clip-path:url(#a);}</style><clipPath id="a"><path class="a" d="M25.721,12.047H14.279v4.744h6.586c-.614,3.014-3.181,4.744-6.586,4.744a7.256,7.256,0,1,1,0-14.512A7.1,7.1,0,0,1,18.8,8.642L22.372,5.07a12.271,12.271,0,1,0-8.093,21.488C20.419,26.558,26,22.093,26,14.279A10.187,10.187,0,0,0,25.721,12.047Z" transform="translate(-2 -2)"/></clipPath></defs><g class="b"><path class="a" d="M0,25.512V11l9.488,7.256Z" transform="translate(-1.116 -5.977)"/></g><g class="b"><path class="a" d="M0,6.14,9.488,13.4l3.907-3.4,13.4-2.177V0H0Z" transform="translate(-1.116 -1.116)"/></g><g class="b"><path class="a" d="M0,20.651,16.744,7.814l4.409.558L26.791,0V26.791H0Z" transform="translate(-1.116 -1.116)"/></g><g class="b"><path class="a" d="M32.535,31.651l-17.3-13.4L13,16.581,32.535,11Z" transform="translate(-6.86 -5.977)"/></g></svg>