<?xml version="1.0" encoding="utf-8"?>
<!-- Generator: Adobe Illustrator 24.0.1, SVG Export Plug-In . SVG Version: 6.00 Build 0)  -->
<svg version="1.1" id="Layer_1" xmlns="http://www.w3.org/2000/svg" xmlns:xlink="http://www.w3.org/1999/xlink" x="0px" y="0px"
	 viewBox="0 0 1928 703" style="enable-background:new 0 0 1928 703;" xml:space="preserve">
<style type="text/css">
	.st0{fill:#11537C;}
	.st1{fill:#FFFFFF;}
	.st2{fill:#D7EFFF;}
	.st3{fill:#FF8880;}
</style>
<g>
	<g>
		<g>
			<path class="st0" d="M1219.2,44.8L1219.2,44.8c1,0,1.8,0.8,1.8,1.8l7,194.5h-17.7l7-194.5C1217.4,45.6,1218.2,44.8,1219.2,44.8z"
				/>
		</g>
		<g>
			<path class="st0" d="M1228,242h-17.7c-0.3,0-0.5-0.1-0.7-0.3c-0.2-0.2-0.3-0.5-0.3-0.7l7-194.5c0.1-1.5,1.3-2.7,2.8-2.7
				c1.5,0,2.8,1.2,2.8,2.7l7,194.5c0,0.3-0.1,0.5-0.3,0.7C1228.5,241.9,1228.3,242,1228,242z M1211.4,240h15.6l-7-193.4
				c0-0.4-0.4-0.8-0.8-0.8c-0.4,0-0.8,0.4-0.8,0.8L1211.4,240z"/>
		</g>
	</g>
	<g>
		<g>
			<polygon class="st0" points="1206.8,313.5 1231.5,313.5 1238.6,706 1199.7,706 			"/>
		</g>
		<g>
			<path class="st0" d="M1238.6,707h-38.9c-0.3,0-0.5-0.1-0.7-0.3c-0.2-0.2-0.3-0.5-0.3-0.7l7.1-392.5c0-0.5,0.5-1,1-1h24.8
				c0.5,0,1,0.4,1,1l7.1,392.5c0,0.3-0.1,0.5-0.3,0.7C1239.1,706.9,1238.9,707,1238.6,707z M1200.7,705h36.9l-7-390.5h-22.8
				L1200.7,705z"/>
		</g>
	</g>
	<g>
		<g>
			<circle class="st0" cx="1220.9" cy="281.7" r="47.7"/>
		</g>
		<g>
			<path class="st0" d="M1220.9,330.4c-26.9,0-48.7-21.9-48.7-48.7s21.9-48.7,48.7-48.7s48.7,21.9,48.7,48.7
				S1247.8,330.4,1220.9,330.4z M1220.9,234.9c-25.8,0-46.7,21-46.7,46.7c0,25.8,21,46.7,46.7,46.7c25.8,0,46.7-21,46.7-46.7
				C1267.7,255.9,1246.7,234.9,1220.9,234.9z"/>
		</g>
	</g>
	<g>
		<g>
			<polygon class="st0" points="1231.1,187.9 1207.3,187.9 1210.3,197.9 1210.3,235.1 1228,235.1 1228,198.1 			"/>
		</g>
		<g>
			<path class="st0" d="M1228,236.1h-17.7c-0.6,0-1-0.4-1-1v-37.1l-3-9.8c-0.1-0.3,0-0.6,0.2-0.9c0.2-0.3,0.5-0.4,0.8-0.4h23.8
				c0.3,0,0.6,0.2,0.8,0.4c0.2,0.3,0.2,0.6,0.2,0.9l-3,10v36.9C1229,235.7,1228.6,236.1,1228,236.1z M1211.3,234.1h15.7v-36
				c0-0.1,0-0.2,0-0.3l2.7-8.9h-21.1l2.7,8.7c0,0.1,0,0.2,0,0.3V234.1z"/>
		</g>
	</g>
	<g>
		<g>
			<path class="st1" d="M1258.7,300.4h-75.5c-0.8,0-1.5-0.7-1.5-1.5s0.7-1.5,1.5-1.5h75.5c0.8,0,1.5,0.7,1.5,1.5
				S1259.5,300.4,1258.7,300.4z"/>
		</g>
	</g>
	<g>
		<g>
			<path class="st1" d="M1261.2,288.8h-80.6c-0.8,0-1.5-0.7-1.5-1.5s0.7-1.5,1.5-1.5h80.6c0.8,0,1.5,0.7,1.5,1.5
				S1262.1,288.8,1261.2,288.8z"/>
		</g>
	</g>
	<g>
		<g>
			<path class="st1" d="M1262.9,277.3H1179c-0.8,0-1.5-0.7-1.5-1.5s0.7-1.5,1.5-1.5h83.9c0.8,0,1.5,0.7,1.5,1.5
				S1263.7,277.3,1262.9,277.3z"/>
		</g>
	</g>
</g>
<g>
	<g>
		<g>
			<g>
				<path class="st0" d="M1363.9,424.3c0.5,0.6,4.5-1.2,8.2,12.1c0,0,1.2,2.9,4.7,4.5c0,0,4.5,0.8,2.3,8.4c0,0-0.8,2.6-0.8,3.9
					s1.4,4.3,1.4,4.3h-2c0,0-1.3-2-1.4-2.9c-0.1-0.9,0.3-1.6-0.1-2.3c-0.3-0.7-0.7-0.4-1.2-1.2c-0.5-0.8-0.7,2.8-0.6,4s1,2.7,1,2.7
					h-2.1c0,0-1.5-2-1.6-2.7s0.2-2.4,0-2.9c-0.2-0.4-2.1-0.1-2.1-3.2c-0.2-1.3-2-1.7-2-1.7l-2.3,1.2v3.9c0,0,0.8,0.9,1,1.4
					c0.2,0.5-0.2,1.8-0.6,1.9c-0.4,0.1-2.2,0.1-2.2-1.9c0-2,0-6.1,0-6.1s-0.3-1.7,1.1-2c0,0-2.6-5.1,0.6-7.7c0,0,0.6-1,0-3.5
					c0,0-0.6-1-0.5,1.8c0.1,0.5-2.2,1.7-2.3-1.2c-0.2-2.8,0-4.2,0-4.2s-0.2-0.8-0.6-1.3s0.3-2.7,0-3.1c-0.3-0.4-1.6-2-1.3-2.2
					c0.3-0.3,1.5,0.8,1.8,1s0.8,0.3,0.6-0.3c-0.2-0.6-0.9-1.9-0.6-2.1S1363.4,423.7,1363.9,424.3z"/>
			</g>
		</g>
		<g>
			<g>
				<path class="st0" d="M1368.1,444.7c0,0-0.1,3.3,0,3.9c0.1,0.6,0.7,0.9,1,1.4c0.3,0.5-0.2,1.9-0.6,1.9c-0.4,0-2.2,0.1-2.2-1.9
					s0-6.1,0-6.1"/>
			</g>
		</g>
	</g>
	<g>
		<g>
			<g>
				<path class="st0" d="M1432.6,424.3c-0.5,0.6-4.5-1.2-8.2,12.1c0,0-1.2,2.9-4.7,4.5c0,0-4.5,0.8-2.3,8.4c0,0,0.8,2.6,0.8,3.9
					s-1.4,4.3-1.4,4.3h2c0,0,1.3-2,1.4-2.9c0.1-0.9-0.3-1.6,0.1-2.3c0.3-0.7,0.7-0.4,1.2-1.2c0.5-0.8,0.7,2.8,0.6,4
					c-0.1,1.2-1,2.7-1,2.7h2.1c0,0,1.5-2,1.6-2.7s-0.2-2.4,0-2.9c0.2-0.4,2.1-0.1,2.1-3.2c0.2-1.3,2-1.7,2-1.7l2.3,1.2v3.9
					c0,0-0.8,0.9-1,1.4c-0.2,0.5,0.2,1.8,0.6,1.9s2.2,0.1,2.2-1.9c0-2,0-6.1,0-6.1s0.3-1.7-1.1-2c0,0,2.6-5.1-0.6-7.7
					c0,0-0.6-1,0-3.5c0,0,0.6-1,0.5,1.8c-0.1,0.5,2.2,1.7,2.3-1.2c0.2-2.8,0-4.2,0-4.2s0.2-0.8,0.6-1.3s-0.3-2.7,0-3.1
					s1.6-2,1.3-2.2c-0.3-0.3-1.5,0.8-1.8,1c-0.3,0.2-0.8,0.3-0.6-0.3c0.2-0.6,0.9-1.9,0.6-2.1C1434,422.7,1433.1,423.7,1432.6,424.3
					z"/>
			</g>
		</g>
		<g>
			<g>
				<path class="st0" d="M1428.4,444.7c0,0,0.1,3.3,0,3.9c-0.1,0.6-0.7,0.9-1,1.4s0.2,1.9,0.6,1.9s2.2,0.1,2.2-1.9s0-6.1,0-6.1"/>
			</g>
		</g>
	</g>
	<g>
		<g>
			<rect x="1360.5" y="467.1" class="st0" width="74.6" height="18.6"/>
		</g>
	</g>
	<g>
		<g>
			<path class="st0" d="M1515.6,489.3v-2.2c0-0.7-0.6-1.3-1.3-1.3l0,0c-0.7,0-1.3-0.6-1.3-1.3v-10.1h-0.1l3-4.5
				c0.6-0.9,0-2.1-1.1-2.1h-76.5c-0.9,0-1.6-0.9-1.3-1.8l1.2-3.5c0.3-0.9-0.3-1.8-1.3-1.8h-0.6c-0.7,0-1.3-0.6-1.3-1.3v-1.1
				c0-0.7-0.6-1.3-1.3-1.3h-72c-0.7,0-1.3,0.6-1.3,1.3v1.1c0,0.7-0.6,1.3-1.3,1.3h-1.1c-0.9,0-1.6,0.9-1.3,1.8l1.2,3.5
				c0.3,0.9-0.3,1.8-1.3,1.8h-76.4c-1.1,0-1.7,1.2-1.1,2.1l2.8,4.1c0.2,0.2,0.2,0.5,0.2,0.8v9.7c0,0.7-0.6,1.3-1.3,1.3h-0.2
				c-0.7,0-1.3,0.6-1.3,1.3v2.2c0,0.7-0.6,1.3-1.3,1.3h-4.2c-1.2,0-1.8,1.5-0.9,2.3l6.1,5.8c0.3,0.3,0.4,0.6,0.4,1v14.9v3
				c0,0.7,0.6,1.3,1.3,1.3h1.8c0.7,0,1.3,0.6,1.3,1.3v87.5c0,0.7-0.6,1.3-1.3,1.3h-1.8c-0.7,0-1.3,0.6-1.3,1.3v1.7
				c0,0.7,0.6,1.3,1.3,1.3h19.7c0.7,0,1.3-0.6,1.3-1.3v-1.7c0-0.7-0.6-1.3-1.3-1.3h-1.8c-0.7,0-1.3-0.6-1.3-1.3v-87.5
				c0-0.7,0.6-1.3,1.3-1.3h1.8c0.7,0,1.3-0.6,1.3-1.3v-1.7c0-0.7,0.6-1.3,1.3-1.3h17.8c0.7,0,1.3,0.6,1.3,1.3v1.7
				c0,0.7,0.6,1.3,1.3,1.3h1.8c0.7,0,1.3,0.6,1.3,1.3v87.5c0,0.7-0.6,1.3-1.3,1.3h-1.8c-0.7,0-1.3,0.6-1.3,1.3v1.7
				c0,0.7,0.6,1.3,1.3,1.3h19.7c0.7,0,1.3-0.6,1.3-1.3v-1.7c0-0.7-0.6-1.3-1.3-1.3h-1.8c-0.7,0-1.3-0.6-1.3-1.3v-87.5
				c0-0.7,0.6-1.3,1.3-1.3h1.8c0.7,0,1.3-0.6,1.3-1.3v-1.7c0-0.7,0.6-1.3,1.3-1.3h17.8c0.7,0,1.3,0.6,1.3,1.3v1.7
				c0,0.7,0.6,1.3,1.3,1.3h1.8c0.7,0,1.3,0.6,1.3,1.3v87.5c0,0.7-0.6,1.3-1.3,1.3h-1.8c-0.7,0-1.3,0.6-1.3,1.3v1.7
				c0,0.7,0.6,1.3,1.3,1.3h19.7c0.7,0,1.3-0.6,1.3-1.3v-1.7c0-0.7-0.6-1.3-1.3-1.3h-1.8c-0.7,0-1.3-0.6-1.3-1.3v-87.5
				c0-0.7,0.6-1.3,1.3-1.3h1.8c0.7,0,1.3-0.6,1.3-1.3v-1.7c0-0.7,0.6-1.3,1.3-1.3h17.8c0.7,0,1.3,0.6,1.3,1.3v1.7
				c0,0.7,0.6,1.3,1.3,1.3h1.8c0.7,0,1.3,0.6,1.3,1.3v87.5c0,0.7-0.6,1.3-1.3,1.3h-1.8c-0.7,0-1.3,0.6-1.3,1.3v1.7
				c0,0.7,0.6,1.3,1.3,1.3h19.7c0.7,0,1.3-0.6,1.3-1.3v-1.7c0-0.7-0.6-1.3-1.3-1.3h-1.8c-0.7,0-1.3-0.6-1.3-1.3v-87.5
				c0-0.7,0.6-1.3,1.3-1.3h1.8c0.7,0,1.3-0.6,1.3-1.3v-1.7c0-0.7,0.6-1.3,1.3-1.3h17.8c0.7,0,1.3,0.6,1.3,1.3v1.7
				c0,0.7,0.6,1.3,1.3,1.3h1.8c0.7,0,1.3,0.6,1.3,1.3v87.5c0,0.7-0.6,1.3-1.3,1.3h-1.8c-0.7,0-1.3,0.6-1.3,1.3v1.7
				c0,0.7,0.6,1.3,1.3,1.3h19.7c0.7,0,1.3-0.6,1.3-1.3v-1.7c0-0.7-0.6-1.3-1.3-1.3h-1.8c-0.7,0-1.3-0.6-1.3-1.3v-87.5
				c0-0.7,0.6-1.3,1.3-1.3h1.8c0.7,0,1.3-0.6,1.3-1.3v-1.7c0-0.7,0.6-1.3,1.3-1.3h17.8c0.7,0,1.3,0.6,1.3,1.3v1.7
				c0,0.7,0.6,1.3,1.3,1.3h1.8c0.7,0,1.3,0.6,1.3,1.3v87.5c0,0.7-0.6,1.3-1.3,1.3h-1.8c-0.7,0-1.3,0.6-1.3,1.3v1.7
				c0,0.7,0.6,1.3,1.3,1.3h19.7c0.7,0,1.3-0.6,1.3-1.3v-1.7c0-0.7-0.6-1.3-1.3-1.3h-1.8c-0.7,0-1.3-0.6-1.3-1.3v-87.5
				c0-0.7,0.6-1.3,1.3-1.3h1.8c0.7,0,1.3-0.6,1.3-1.3v-3v-14.9c0-0.4,0.1-0.7,0.4-0.9l5.8-5.8c0.8-0.8,0.2-2.3-1-2.3h-3.9
				C1516.2,490.6,1515.6,490,1515.6,489.3z"/>
		</g>
	</g>
	<g>
		<g>
			<rect x="1396.6" y="409.5" class="st0" width="1.5" height="47.1"/>
		</g>
	</g>
	<g>
		<g>
			<circle class="st0" cx="1397.4" cy="404.4" r="5.3"/>
		</g>
	</g>
	<g>
		<g>
			<path class="st0" d="M1404.2,389.6c-2,1.1-3.6,2.4-4.9,3.5l0,0c-0.7,0.6-0.8,0-0.8,0s0,0-0.1-1.3s-1.2-1.3-1.2-1.3
				c-1.6,0-1.3,2-1.4,2.6c-0.1,0.4-0.3,0.3-0.4,0.1c-0.1-0.1-0.1-0.1-0.2-0.2c0,0,0,0,0,0v0c-1.2-1.1-2.9-2.5-4.9-3.5
				c0,0-1.7-1.1-1.5-0.2c0,0,0.5,6.6,6.3,10c0,0,0.4,0,0.3,1.5h1.9h1.9c-0.2-1.5,0.3-1.5,0.3-1.5c5.8-3.4,6.3-10,6.3-10
				C1405.9,388.5,1404.2,389.6,1404.2,389.6z"/>
		</g>
	</g>
	<g>
		<g>
			<path class="st0" d="M1383.9,457.8c0,0-0.8-6-2.1-11s-0.8-7.7,0.5-10.1c0,0,1-2.5,1-7.2s0.1-6.9,0.6-7c0.5-0.1,0.8,1.1,1,1.7
				s1.4,0.8,1.6,0.1c0.1-0.7,0.3-2,0.7-2.1s0.4,1.8,0.5,2.4c0.1,0.6,0.8,0.1,1,4.9c0.2,4.8-0.6,5.3,0.3,6.8c0.9,1.5,3.1,4.1,3.6,4.1
				c0.6,0,0.1-4.1-0.7-7.6c-0.8-3.4-0.5-7.8,0.1-8.6c0.6-0.8,3.9-5.7,3.9-5.7s1.2-1.3,2.2-1s0.9,1.8,0.4,2.2
				c-0.5,0.4-2.5,3.2-2.5,3.2s0.2,2.1,0.9,1.9c0.7-0.2,0-0.3,0.1-1.5c0.1-1.2-0.1-4.7,3.2-4.9c3.3-0.2,2.5,2.9,2.5,2.9
				s-1.1,2.7-1.2,3.4c0,0.7,0.9,0.5,1.2,1c0.4,0.5,1.2,1,1.3-0.3c0.1-1.2,0.1-2.6,1.2-2.9c1-0.3,1.9,0.6,2,1.8s0.7-1.1,0.7-1.1
				s-0.2-3,0.4-3.1s0.7,0.7,1,1.4s1.4,0.8,1.7,0s0.4-2,0.8-1.9c0.4,0.1,0.5,1.2,0.5,2.7c0,1.4,0,0.6,0,0.6s0.6,0.6,0.5,2.8
				c0,0-0.1,1,0,1.5c0.1,0.5,0.3,1.2,0,3c-0.3,1.8,0,2.5,0.1,3.6c0.1,1,2.5,4.9,2.3,9.3c-0.1,4.5,0.3,9.9-0.7,14.1L1383.9,457.8z"/>
		</g>
	</g>
	<g>
		<g>
			<path class="st1" d="M1507,501.5h-219.2c-0.6,0-1-0.4-1-1c0-0.6,0.4-1,1-1H1507c0.6,0,1,0.4,1,1
				C1508,501,1507.5,501.5,1507,501.5z"/>
		</g>
	</g>
	<g>
		<g>
			<path class="st1" d="M1507,489.5h-219.2c-0.6,0-1-0.4-1-1c0-0.6,0.4-1,1-1H1507c0.6,0,1,0.4,1,1
				C1508,489,1507.5,489.5,1507,489.5z"/>
		</g>
	</g>
	<g>
		<g>
			<path class="st1" d="M1507,477.4h-219.2c-0.6,0-1-0.4-1-1c0-0.6,0.4-1,1-1H1507c0.6,0,1,0.4,1,1
				C1508,477,1507.5,477.4,1507,477.4z"/>
		</g>
	</g>
</g>
<g>
	<g>
		<g>
			<path class="st1" d="M841.5,190l10.7,0.1c0,0,3,0.1,5.6-1.3c0.6-0.3,0.7-1.2,0.3-1.7c-0.9-1-2.7-2.2-5.9-2.3
				c-5.1-0.1-10.9-0.2-10.9-0.2S839.6,187.3,841.5,190z"/>
		</g>
		<g>
			<path class="st0" d="M852.5,191.6c-0.2,0-0.3,0-0.3,0l-11.5-0.1l-0.4-0.6c-2.4-3.5-0.3-6.9-0.2-7.1l0.4-0.7l0.8,0
				c0.1,0,5.8,0.1,10.9,0.2c3.7,0.1,5.8,1.6,6.9,2.8c0.5,0.6,0.8,1.4,0.6,2.2c-0.1,0.8-0.6,1.5-1.3,1.9
				C856.1,191.5,853.4,191.6,852.5,191.6z M842.4,188.5l9.9,0.1c0.1,0,2.3,0.1,4.3-0.8c-0.8-0.7-2.2-1.4-4.4-1.4
				c-3.8-0.1-8-0.2-9.9-0.2C842.1,186.7,842,187.6,842.4,188.5z"/>
		</g>
	</g>
	<g>
		<g>
			<path class="st1" d="M831,181.1l10.7,0.1c0,0,3,0.1,5.6-1.3c0.6-0.3,0.7-1.2,0.3-1.7c-0.9-1-2.7-2.2-5.9-2.3
				c-5.1-0.1-10.9-0.2-10.9-0.2S829.1,178.4,831,181.1z"/>
		</g>
		<g>
			<path class="st0" d="M842,182.7c-0.2,0-0.3,0-0.3,0l-11.5-0.1l-0.4-0.6c-2.4-3.5-0.3-6.9-0.2-7.1l0.4-0.7l0.8,0
				c0.1,0,5.8,0.1,10.9,0.2c3.7,0.1,5.8,1.6,6.9,2.8c0.5,0.6,0.8,1.4,0.7,2.2c-0.1,0.8-0.6,1.5-1.3,1.9
				C845.6,182.6,842.9,182.7,842,182.7z M831.9,179.6l9.9,0.1c0.1,0,2.3,0.1,4.3-0.8c-0.8-0.7-2.2-1.4-4.4-1.4
				c-3.8-0.1-8-0.2-9.9-0.2C831.6,177.8,831.5,178.7,831.9,179.6z"/>
		</g>
	</g>
	<g>
		<g>
			<path class="st1" d="M870,192.6l-17.1,1c0,0-3.1,1.7-5.7,4.4c-0.7,0.7-0.7,1.7,0,2.4c1.7,1.7,5,5,7.3,4.5l17.2-1.4
				c0,0,1.4,0,1.9-1.5c0.6-1.8,0.6-4.8-1.5-8.3C871.7,193,870.9,192.6,870,192.6z"/>
		</g>
		<g>
			<path class="st0" d="M853.9,206.5c-2.6,0-5.4-2.5-7.9-5c-1.2-1.3-1.2-3.3,0-4.5c2.8-2.8,5.9-4.5,6.1-4.6l0.3-0.2l17.5-1.1
				c1.4-0.1,2.8,0.6,3.5,1.9c1.9,3.3,2.5,6.9,1.6,9.6c-0.7,1.9-2.3,2.5-3.3,2.5l-17,1.4C854.4,206.4,854.2,206.5,853.9,206.5z
				 M853.3,195.1c-0.8,0.5-3.1,1.9-5.1,3.9c-0.1,0.1-0.1,0.2,0,0.3c3.8,3.8,5.4,4.2,5.9,4.1l0.2,0l17.3-1.4c0.1,0,0.4-0.1,0.5-0.5
				c0.5-1.4,0.4-4-1.3-7c-0.1-0.2-0.4-0.4-0.7-0.4L853.3,195.1z"/>
		</g>
	</g>
	<g>
		<g>
			<path class="st1" d="M846.4,282.7l15-0.4c0,0,4.2-0.3,7.8,1.6c0.9,0.4,1.1,1.6,0.4,2.3c-1.2,1.4-3.6,3.2-8.1,3.4
				c-7.2,0.4-15.2,0.6-15.2,0.6S843.9,286.6,846.4,282.7z"/>
		</g>
		<g>
			<path class="st0" d="M845.5,291.8l-0.5-0.7c-0.1-0.2-3-4.6,0.1-9.2l0.4-0.7l15.8-0.4c0.1,0,4.6-0.3,8.5,1.8
				c0.8,0.4,1.4,1.2,1.6,2.1c0.2,0.9-0.1,1.9-0.7,2.5c-1.5,1.7-4.3,3.7-9.2,3.9c-7.1,0.4-15.1,0.6-15.2,0.6L845.5,291.8z
				 M847.3,284.2c-0.9,1.9-0.5,3.6-0.1,4.5c2.3-0.1,8.6-0.3,14.2-0.6c3.9-0.2,6-1.7,7.1-2.9c-3.2-1.7-7-1.4-7-1.4L847.3,284.2z"/>
		</g>
	</g>
	<g>
		<g>
			<path class="st1" d="M832,295.4l15-0.4c0,0,4.2-0.3,7.8,1.6c0.9,0.4,1.1,1.6,0.4,2.3c-1.2,1.4-3.6,3.2-8.1,3.4
				c-7.2,0.4-15.2,0.6-15.2,0.6S829.5,299.3,832,295.4z"/>
		</g>
		<g>
			<path class="st0" d="M831.4,304l-0.3-0.5c-0.1-0.2-2.8-4.3,0.1-8.7l0.3-0.4L847,294c0.1,0,4.5-0.3,8.3,1.7c0.7,0.4,1.2,1,1.3,1.8
				c0.1,0.8-0.1,1.5-0.6,2.1c-1.4,1.6-4.1,3.5-8.8,3.8c-7.1,0.4-15.1,0.6-15.2,0.6L831.4,304z M832.6,296.4
				c-1.3,2.4-0.5,4.6-0.1,5.5c2-0.1,8.6-0.3,14.6-0.6c4-0.2,6.3-1.8,7.4-3.1c0.1-0.2,0.1-0.3,0.1-0.4c0-0.1-0.1-0.3-0.3-0.4
				c-3.3-1.7-7.2-1.5-7.3-1.5L832.6,296.4z"/>
		</g>
	</g>
	<g>
		<g>
			<path class="st1" d="M886.1,278.2l-23.9-0.9c0,0-4.3-2.3-8.1-5.9c-0.9-0.9-1-2.4-0.1-3.4c2.3-2.5,6.9-6.6,10.1-6l22.3,0.3
				c1.4,0,3,0.8,3.9,2.7c1.1,2.4,1.6,6.8-1.2,11.7C888.4,277.6,887.3,278.2,886.1,278.2z"/>
		</g>
		<g>
			<path class="st0" d="M886.3,279.7c-0.1,0-0.1,0-0.2,0l-24.3-1l-0.3-0.2c-0.2-0.1-4.6-2.4-8.5-6.2c-1.5-1.5-1.6-3.9-0.1-5.5
				c3.1-3.3,7.6-7.1,11.3-6.5l22.1,0.3c2.3,0,4.2,1.3,5.2,3.5c0.6,1.4,2.5,6.4-1.2,13C889.5,278.8,888,279.7,886.3,279.7z
				 M862.6,275.8l23.6,0.9c0.6,0,1.2-0.3,1.5-0.8c2.4-4.3,2.1-8.1,1.1-10.3c-0.7-1.5-1.9-1.8-2.5-1.8l-22.5-0.3
				c-1.8-0.3-5.1,1.8-8.7,5.6c-0.3,0.3-0.3,0.9,0,1.2C858.1,273.1,861.6,275.2,862.6,275.8z"/>
		</g>
	</g>
	<g>
		<g>
			<path class="st1" d="M874.7,209.4l-51.1-42.3c0,0-10.8-9.9-22.8-7.3c-2,0.4-3,2.7-1.9,4.5l27.7,45.1"/>
		</g>
		<g>
			<path class="st0" d="M873.8,210.6l-51.1-42.3c-0.2-0.1-10.4-9.4-21.5-6.9c-0.5,0.1-0.9,0.4-1.1,0.9c-0.2,0.4-0.2,0.9,0.1,1.3
				l27.7,45.1l-2.6,1.6l-27.7-45.1c-0.8-1.2-0.9-2.7-0.3-4.1c0.6-1.3,1.8-2.3,3.2-2.7c12.6-2.8,23.7,7.2,24.1,7.6l51,42.2
				L873.8,210.6z"/>
		</g>
	</g>
	<g>
		<g>
			<path class="st1" d="M767,208.1c0.5,0.9,1.5,1.5,2.6,1.5l164.5-0.3c0,0,41.6,0.2,47,26.7c0.4,2.1-0.7,4.3-2.7,5
				c-6.4,2.4-25.3,6.7-79.7,8.4c-0.7,0-1.4,0.3-1.9,0.7l-65.5,57.6c0,0-15.9,14.4-29.5,12.1c-2.1-0.3-3.2-2.8-2-4.6l38.8-59.9
				c1.3-1.9-0.1-4.5-2.4-4.6l-51.3-1.7c0,0-31.3-2-45-13.6c-2.3-2-3.7-4.9-3.7-7.9l-0.9-44.7c-0.1-4.3,3.2-7.8,7.5-8l0,0
				c2.9-0.1,5.7,1.4,7.2,3.9L767,208.1z"/>
		</g>
		<g>
			<path class="st0" d="M804.6,321.6c-1.1,0-2.1-0.1-3.2-0.3c-1.5-0.2-2.8-1.2-3.4-2.6c-0.6-1.4-0.5-3,0.3-4.3l38.8-59.9
				c0.4-0.6,0.2-1.2,0.1-1.5c-0.1-0.2-0.5-0.8-1.3-0.8l-51.3-1.7c-1.3-0.1-32-2.1-46-13.9c-2.6-2.2-4.2-5.5-4.3-9l-0.9-44.7
				c-0.1-5.1,3.8-9.3,9-9.6c3.5-0.2,6.8,1.6,8.5,4.6l17.3,29.3c0.3,0.4,0.7,0.7,1.3,0.7c0,0,0,0,0,0l164.5-0.3
				c0.4,0,10.8,0.1,21.9,3.5c15,4.6,24.2,13,26.6,24.4c0.6,2.9-1,5.7-3.7,6.7c-6.5,2.5-25.5,6.8-80.2,8.5c-0.3,0-0.7,0.1-0.9,0.4
				l-65.5,57.6C831.6,309.4,817.9,321.6,804.6,321.6z M743,176.4c-0.1,0-0.2,0-0.3,0c-3.5,0.2-6.2,3-6.1,6.5l0.9,44.7
				c0.1,2.6,1.2,5.1,3.2,6.8c13.2,11.1,43.9,13.2,44.2,13.2l51.2,1.7c1.6,0.1,3.1,1,3.8,2.4c0.8,1.5,0.7,3.1-0.2,4.5l-38.8,59.9
				c-0.3,0.4-0.3,0.9-0.1,1.4c0.2,0.5,0.6,0.8,1.1,0.9c12.8,2.1,28.1-11.6,28.3-11.8l65.5-57.7c0.8-0.7,1.8-1.1,2.8-1.1
				c54.3-1.7,72.9-5.9,79.2-8.3c1.3-0.5,2.1-1.9,1.8-3.3c-5.1-25-45.1-25.5-45.5-25.5L769.6,211c0,0,0,0,0,0c-1.6,0-3-0.8-3.9-2.2
				l-17.3-29.3C747.3,177.6,745.2,176.4,743,176.4z"/>
		</g>
	</g>
	<g>
		<g>
			<circle class="st0" cx="767.6" cy="228.7" r="2.2"/>
		</g>
		<g>
			<path class="st0" d="M767.6,232.4c-0.5,0-0.9-0.1-1.4-0.3c-0.9-0.4-1.6-1.1-2-2c-0.8-1.9,0.1-4.1,2-4.9c1.9-0.8,4.1,0.1,4.9,2
				l0,0c0.4,0.9,0.4,1.9,0,2.8c-0.4,0.9-1.1,1.6-2,2C768.6,232.3,768.1,232.4,767.6,232.4z M767.6,228c-0.1,0-0.2,0-0.3,0.1
				c-0.4,0.1-0.5,0.6-0.4,0.9c0.1,0.2,0.3,0.3,0.4,0.4c0.1,0,0.3,0.1,0.5,0c0.2-0.1,0.3-0.3,0.4-0.4c0-0.1,0.1-0.3,0-0.5
				C768.1,228.1,767.9,228,767.6,228z"/>
		</g>
	</g>
	<g>
		<g>
			<circle class="st0" cx="780.4" cy="228.8" r="2.2"/>
		</g>
		<g>
			<path class="st0" d="M780.4,232.5c-0.5,0-0.9-0.1-1.4-0.3c-0.9-0.4-1.6-1.1-2-2c-0.8-1.9,0.1-4.1,2-4.9c0.9-0.4,1.9-0.4,2.8,0
				c0.9,0.4,1.6,1.1,2,2l0,0c0.4,0.9,0.4,1.9,0,2.8c-0.4,0.9-1.1,1.6-2,2C781.4,232.4,780.9,232.5,780.4,232.5z M780.4,228.1
				c-0.1,0-0.2,0-0.3,0.1c-0.4,0.1-0.5,0.6-0.4,0.9c0.1,0.2,0.3,0.3,0.4,0.4c0.1,0,0.3,0.1,0.5,0c0.2-0.1,0.3-0.3,0.4-0.4
				c0-0.1,0.1-0.3,0-0.5l0,0c-0.1-0.2-0.3-0.3-0.4-0.4C780.6,228.1,780.5,228.1,780.4,228.1z"/>
		</g>
	</g>
	<g>
		<g>
			<circle class="st0" cx="793.4" cy="228.6" r="2.2"/>
		</g>
		<g>
			<path class="st0" d="M793.4,232.3c-0.5,0-0.9-0.1-1.4-0.3c-0.9-0.4-1.6-1.1-2-2c-0.4-0.9-0.4-1.9,0-2.8c0.4-0.9,1.1-1.6,2-2
				c1.9-0.8,4.1,0.1,4.9,2c0,0,0,0,0,0c0.8,1.9-0.1,4.1-2,4.9C794.4,232.2,793.9,232.3,793.4,232.3z M793.4,227.9
				c-0.1,0-0.2,0-0.3,0.1c-0.2,0.1-0.3,0.3-0.4,0.4c0,0.1-0.1,0.3,0,0.5c0.1,0.2,0.3,0.3,0.4,0.4s0.3,0.1,0.5,0
				c0.4-0.1,0.5-0.6,0.4-0.9l0,0C793.9,228,793.7,227.9,793.4,227.9z"/>
		</g>
	</g>
	<g>
		<g>
			<circle class="st0" cx="806.3" cy="228.3" r="2.2"/>
		</g>
		<g>
			<path class="st0" d="M806.3,232.1c-0.5,0-0.9-0.1-1.4-0.3c-0.9-0.4-1.6-1.1-2-2c-0.4-0.9-0.4-1.9,0-2.8c0.4-0.9,1.1-1.6,2-2
				c1.9-0.8,4.1,0.1,4.9,2c0,0,0,0,0,0c0.8,1.9-0.1,4.1-2,4.9C807.3,232,806.8,232.1,806.3,232.1z M806.3,227.7
				c-0.1,0-0.2,0-0.3,0.1c-0.2,0.1-0.3,0.3-0.4,0.4c0,0.1-0.1,0.3,0,0.5c0.1,0.2,0.3,0.3,0.4,0.4c0.1,0,0.3,0.1,0.5,0
				c0.4-0.1,0.5-0.6,0.4-0.9l0,0C806.9,227.8,806.6,227.7,806.3,227.7z"/>
		</g>
	</g>
	<g>
		<g>
			<circle class="st0" cx="819.3" cy="228.2" r="2.2"/>
		</g>
		<g>
			<path class="st0" d="M819.3,231.9c-0.5,0-0.9-0.1-1.4-0.3c-0.9-0.4-1.6-1.1-2-2c-0.4-0.9-0.4-1.9,0-2.8c0.4-0.9,1.1-1.6,2-2
				c1.9-0.8,4.1,0.1,4.9,2l0,0c0.8,1.9-0.1,4.1-2,4.9C820.3,231.8,819.8,231.9,819.3,231.9z M819.3,227.5c-0.1,0-0.2,0-0.3,0.1
				c-0.2,0.1-0.3,0.3-0.4,0.4c0,0.1-0.1,0.3,0,0.5c0.1,0.2,0.3,0.3,0.4,0.4c0.1,0,0.3,0.1,0.5,0c0.4-0.1,0.5-0.6,0.4-0.9
				C819.8,227.6,819.6,227.5,819.3,227.5z"/>
		</g>
	</g>
	<g>
		<g>
			<circle class="st0" cx="832.3" cy="227.9" r="2.2"/>
		</g>
		<g>
			<path class="st0" d="M832.3,231.7c-1.4,0-2.8-0.8-3.4-2.3c-0.4-0.9-0.4-1.9,0-2.8c0.4-0.9,1.1-1.6,2-2c0.9-0.4,1.9-0.4,2.8,0
				c0.9,0.4,1.6,1.1,2,2c0.4,0.9,0.4,1.9,0,2.8c-0.4,0.9-1.1,1.6-2,2C833.2,231.6,832.8,231.7,832.3,231.7z M832.3,227.3
				c-0.1,0-0.2,0-0.3,0.1c-0.2,0.1-0.3,0.3-0.4,0.4c0,0.1-0.1,0.3,0,0.5c0.1,0.4,0.6,0.5,0.9,0.4c0.2-0.1,0.3-0.3,0.4-0.4
				s0.1-0.3,0-0.5l0,0c-0.1-0.2-0.3-0.3-0.4-0.4C832.5,227.3,832.4,227.3,832.3,227.3z"/>
		</g>
	</g>
	<g>
		<g>
			<circle class="st0" cx="858.2" cy="227.6" r="2.2"/>
		</g>
		<g>
			<path class="st0" d="M858.2,231.3c-0.5,0-0.9-0.1-1.4-0.3c-0.9-0.4-1.6-1.1-2-2c-0.8-1.9,0.1-4.1,2-4.9c1.9-0.8,4.1,0.1,4.9,2
				l0,0c0.4,0.9,0.4,1.9,0,2.8c-0.4,0.9-1.1,1.6-2,2C859.2,231.2,858.7,231.3,858.2,231.3z M858.2,226.9c-0.1,0-0.2,0-0.3,0.1
				c-0.4,0.1-0.5,0.6-0.4,0.9c0.1,0.2,0.3,0.3,0.4,0.4c0.1,0,0.3,0.1,0.5,0c0.2-0.1,0.3-0.3,0.4-0.4c0-0.1,0.1-0.3,0-0.5
				C858.7,227,858.5,226.9,858.2,226.9z"/>
		</g>
	</g>
	<g>
		<g>
			<circle class="st0" cx="871.2" cy="227.4" r="2.2"/>
		</g>
		<g>
			<path class="st0" d="M871.2,231.1c-0.5,0-0.9-0.1-1.4-0.3c-0.9-0.4-1.6-1.1-2-2c-0.8-1.9,0.1-4.1,2-4.9c1.9-0.8,4.1,0.1,4.9,2
				l0,0c0.8,1.9-0.1,4.1-2,4.9C872.1,231,871.6,231.1,871.2,231.1z M871.1,226.7c-0.1,0-0.2,0-0.3,0.1c-0.4,0.1-0.5,0.6-0.4,0.9
				c0.1,0.2,0.3,0.3,0.4,0.4c0.1,0,0.3,0.1,0.5,0c0.4-0.1,0.5-0.6,0.4-0.9C871.7,226.8,871.4,226.7,871.1,226.7z"/>
		</g>
	</g>
	<g>
		<g>
			<circle class="st0" cx="884.1" cy="227.2" r="2.2"/>
		</g>
		<g>
			<path class="st0" d="M884.1,230.9c-0.5,0-0.9-0.1-1.4-0.3c-0.9-0.4-1.6-1.1-2-2c-0.8-1.9,0.1-4.1,2-4.9s4.1,0.1,4.9,2l0,0
				c0.4,0.9,0.4,1.9,0,2.8c-0.4,0.9-1.1,1.6-2,2C885.1,230.8,884.6,230.9,884.1,230.9z M884.1,226.5c-0.1,0-0.2,0-0.3,0.1
				c-0.4,0.1-0.5,0.6-0.4,0.9c0.1,0.2,0.3,0.3,0.4,0.4c0.1,0,0.3,0.1,0.5,0c0.2-0.1,0.3-0.3,0.4-0.4c0-0.1,0.1-0.3,0-0.5
				C884.6,226.7,884.4,226.5,884.1,226.5z"/>
		</g>
	</g>
	<g>
		<g>
			<circle class="st0" cx="897.1" cy="226.9" r="2.2"/>
		</g>
		<g>
			<path class="st0" d="M897.1,230.6c-0.5,0-0.9-0.1-1.4-0.3c-0.9-0.4-1.6-1.1-2-2c-0.4-0.9-0.4-1.9,0-2.8c0.4-0.9,1.1-1.6,2-2
				c1.9-0.8,4.1,0.1,4.9,2c0.8,1.9-0.1,4.1-2,4.9C898.1,230.5,897.6,230.6,897.1,230.6z M897.1,226.2c-0.1,0-0.2,0-0.3,0.1
				c-0.2,0.1-0.3,0.3-0.4,0.4c0,0.1-0.1,0.3,0,0.5c0.1,0.2,0.3,0.3,0.4,0.4c0.1,0,0.3,0.1,0.5,0c0.4-0.1,0.5-0.6,0.4-0.9
				C897.6,226.4,897.3,226.2,897.1,226.2z"/>
		</g>
	</g>
	<g>
		<g>
			<circle class="st0" cx="923" cy="226.6" r="2.2"/>
		</g>
		<g>
			<path class="st0" d="M923,230.3c-1.4,0-2.8-0.8-3.4-2.3c-0.8-1.9,0.1-4.1,2-4.9c0.9-0.4,1.9-0.4,2.8,0c0.9,0.4,1.6,1.1,2,2l0,0
				c0.8,1.9-0.1,4.1-2,4.9C924,230.2,923.5,230.3,923,230.3z M923,225.9c-0.1,0-0.2,0-0.3,0.1c-0.4,0.1-0.5,0.6-0.4,0.9
				c0.1,0.4,0.6,0.5,0.9,0.4c0.4-0.1,0.5-0.6,0.4-0.9l0,0c-0.1-0.2-0.3-0.3-0.4-0.4C923.2,225.9,923.1,225.9,923,225.9z"/>
		</g>
	</g>
	<g>
		<g>
			<circle class="st0" cx="935.9" cy="226.4" r="2.2"/>
		</g>
		<g>
			<path class="st0" d="M935.9,230.1c-1.4,0-2.8-0.8-3.4-2.3c-0.4-0.9-0.4-1.9,0-2.8c0.4-0.9,1.1-1.6,2-2c0.9-0.4,1.9-0.4,2.8,0
				c0.9,0.4,1.6,1.1,2,2l0,0c0.8,1.9-0.1,4.1-2,4.9C936.9,230,936.4,230.1,935.9,230.1z M935.9,225.7c-0.1,0-0.2,0-0.3,0.1
				c-0.2,0.1-0.3,0.3-0.4,0.4c0,0.1-0.1,0.3,0,0.5c0.1,0.4,0.6,0.5,0.9,0.4c0.4-0.1,0.5-0.6,0.4-0.9l0,0c-0.1-0.2-0.3-0.3-0.4-0.4
				C936.1,225.7,936,225.7,935.9,225.7z"/>
		</g>
	</g>
	<g>
		<g>
			<path class="st0" d="M886.8,265.3c0.4,0.3,2,1.3,1.7,5.1c-0.1,1.3-0.7,3.4-1.7,4.6c-0.5,0.6-1.5,0.5-1.9-0.2
				c-0.5-0.9-0.9-2.4-0.8-4.5c0.1-2.3,1.3-4.5,2.4-5.1C886.6,265.2,886.7,265.2,886.8,265.3z"/>
		</g>
	</g>
	<g>
		<g>
			<path class="st0" d="M950.3,230.7l-1.2,0.1c-1.6,0.1-3-1.1-3.1-2.7l-0.3-4.2c-0.1-1.6,1.1-3,2.7-3.1l1.2-0.1
				c1.6-0.1,3,1.1,3.1,2.7l0.3,4.2C953.1,229.2,951.9,230.6,950.3,230.7z"/>
		</g>
		<g>
			<path class="st0" d="M948.9,232.3c-2.3,0-4.3-1.8-4.4-4.1l-0.3-4.2c-0.1-1.2,0.3-2.3,1.1-3.2c0.8-0.9,1.9-1.4,3-1.5l1.2-0.1
				c2.4-0.1,4.6,1.7,4.7,4.1l0.3,4.2c0.1,1.2-0.3,2.3-1.1,3.2c-0.8,0.9-1.9,1.4-3,1.5l0,0l-1.2,0.1
				C949.1,232.3,949,232.3,948.9,232.3z M950.3,230.7L950.3,230.7L950.3,230.7z M949.8,222.2C949.8,222.2,949.8,222.2,949.8,222.2
				l-1.3,0.1c-0.4,0-0.7,0.2-1,0.5c-0.3,0.3-0.4,0.7-0.4,1l0.3,4.2c0.1,0.8,0.7,1.4,1.5,1.3l1.2-0.1c0.4,0,0.7-0.2,1-0.5
				c0.3-0.3,0.4-0.7,0.4-1l-0.3-4.2C951.2,222.7,950.6,222.2,949.8,222.2z"/>
		</g>
	</g>
	<g>
		<g>
			<path class="st0" d="M960.5,230l-1.2,0.1c-1.6,0.1-3-1.1-3.1-2.7l-0.3-4.2c-0.1-1.6,1.1-3,2.7-3.1l1.2-0.1c1.6-0.1,3,1.1,3.1,2.7
				l0.3,4.2C963.3,228.5,962.1,229.9,960.5,230z"/>
		</g>
		<g>
			<path class="st0" d="M959,231.6c-2.3,0-4.3-1.8-4.4-4.1l-0.3-4.2c-0.1-1.2,0.3-2.3,1.1-3.2c0.8-0.9,1.9-1.4,3-1.5l1.2-0.1
				c1.2-0.1,2.3,0.3,3.2,1.1c0.9,0.8,1.4,1.9,1.5,3l0.3,4.2c0.2,2.4-1.7,4.6-4.1,4.7c0,0,0,0,0,0l-1.2,0.1
				C959.2,231.6,959.1,231.6,959,231.6z M960.5,230L960.5,230L960.5,230z M960,221.5C960,221.5,959.9,221.5,960,221.5l-1.3,0.1
				c-0.4,0-0.7,0.2-1,0.5c-0.3,0.3-0.4,0.7-0.4,1l0.3,4.2c0.1,0.8,0.7,1.4,1.5,1.3l1.2-0.1c0.8-0.1,1.4-0.7,1.3-1.5l-0.3-4.2
				c0-0.4-0.2-0.7-0.5-1C960.7,221.6,960.3,221.5,960,221.5z"/>
		</g>
	</g>
	<g>
		<g>
			<path class="st0" d="M969.8,219.3l-0.8,0.1c-1.8,0.1-3.1,1.7-3,3.4l0.2,3.6c0.1,1.8,1.7,3.1,3.4,3l8.8-0.6
				C976,224.5,972.6,221.4,969.8,219.3z"/>
		</g>
		<g>
			<path class="st0" d="M969.5,230.9c-2.5,0-4.5-1.9-4.7-4.4l-0.2-3.6c-0.1-1.3,0.3-2.5,1.2-3.4c0.8-1,2-1.5,3.2-1.6l0.8-0.1
				c0.4,0,0.7,0.1,1,0.3c2.7,2,6.5,5.3,9.1,10c0.3,0.5,0.3,1,0,1.5c-0.2,0.5-0.7,0.8-1.2,0.8l-8.8,0.6
				C969.7,230.9,969.6,230.9,969.5,230.9z M969.3,220.9l-0.2,0c-0.5,0-0.9,0.2-1.2,0.6c-0.3,0.3-0.5,0.8-0.4,1.2l0.2,3.6
				c0.1,0.9,0.9,1.6,1.8,1.6l6.2-0.4C973.8,224.6,971.3,222.4,969.3,220.9z"/>
		</g>
	</g>
	<g>
		<g>
			<path class="st0" d="M846.3,252.9c-0.8,0-1.5-0.6-1.5-1.4c0-0.8,0.6-1.5,1.4-1.6l52.3-2.1c0.8,0,1.5,0.6,1.6,1.4
				c0,0.8-0.6,1.5-1.4,1.6L846.3,252.9C846.4,252.9,846.3,252.9,846.3,252.9z"/>
		</g>
	</g>
	<g>
		<g>
			<line class="st1" x1="815.2" y1="257.2" x2="821.5" y2="250.4"/>
		</g>
		<g>
			
				<rect x="813.7" y="252.3" transform="matrix(0.6789 -0.7342 0.7342 0.6789 76.4439 682.3375)" class="st0" width="9.3" height="3"/>
		</g>
	</g>
	<g>
		<g>
			<line class="st1" x1="935.3" y1="254.3" x2="942.3" y2="246.8"/>
		</g>
		<g>
			
				<rect x="933.6" y="249.1" transform="matrix(0.6786 -0.7346 0.7346 0.6786 117.721 770.1231)" class="st0" width="10.3" height="3"/>
		</g>
	</g>
	<g>
		<g>
			<circle class="st1" cx="815.2" cy="257.2" r="6.2"/>
		</g>
		<g>
			<path class="st0" d="M815.2,264.9c-0.7,0-1.3-0.1-2-0.3c-2-0.5-3.6-1.8-4.7-3.6c-1-1.8-1.3-3.8-0.8-5.8c1.1-4.1,5.3-6.5,9.4-5.4
				c4.1,1.1,6.5,5.3,5.4,9.4l0,0c-0.5,2-1.8,3.6-3.6,4.7C817.8,264.5,816.5,264.9,815.2,264.9z M815.2,252.5c-2.1,0-4,1.4-4.5,3.5
				c-0.3,1.2-0.2,2.5,0.5,3.5c0.6,1.1,1.6,1.9,2.8,2.2c1.2,0.3,2.5,0.2,3.5-0.5c1.1-0.6,1.9-1.6,2.2-2.8l0,0
				c0.7-2.5-0.8-5.1-3.3-5.7C816,252.6,815.6,252.5,815.2,252.5z"/>
		</g>
	</g>
	<g>
		<g>
			<circle class="st1" cx="815.2" cy="257.2" r="1.8"/>
		</g>
		<g>
			<path class="st0" d="M815.2,260.5c-0.3,0-0.6,0-0.9-0.1c-0.8-0.2-1.5-0.8-2-1.5c-0.4-0.8-0.6-1.6-0.3-2.5c0.2-0.8,0.8-1.5,1.5-2
				c0.8-0.4,1.6-0.6,2.5-0.3c1.7,0.5,2.8,2.3,2.3,4c-0.2,0.8-0.8,1.5-1.5,2C816.3,260.3,815.8,260.5,815.2,260.5z M815.2,256.9
				c-0.1,0-0.1,0-0.1,0c0,0-0.1,0.1-0.1,0.2c0,0.1,0,0.2,0,0.2c0,0,0.1,0.1,0.2,0.1c0.1,0,0.2,0,0.2,0c0,0,0.1-0.1,0.1-0.2
				C815.5,257.1,815.4,257,815.2,256.9C815.2,256.9,815.2,256.9,815.2,256.9z"/>
		</g>
	</g>
	<g>
		<g>
			<line class="st1" x1="802.5" y1="256.7" x2="808.8" y2="249.9"/>
		</g>
		<g>
			<rect x="801" y="251.8" transform="matrix(0.6789 -0.7342 0.7342 0.6789 72.7475 672.884)" class="st0" width="9.3" height="3"/>
		</g>
	</g>
	<g>
		<g>
			<circle class="st1" cx="802.5" cy="256.7" r="6.2"/>
		</g>
		<g>
			<path class="st0" d="M802.5,264.4c-0.7,0-1.3-0.1-2-0.3c-2-0.5-3.6-1.8-4.7-3.6c-1-1.8-1.3-3.8-0.8-5.8c0.5-2,1.8-3.6,3.6-4.7
				c1.8-1,3.8-1.3,5.8-0.8c2,0.5,3.6,1.8,4.7,3.6c1,1.8,1.3,3.8,0.8,5.8c-0.5,2-1.8,3.6-3.6,4.7C805.2,264,803.9,264.4,802.5,264.4z
				 M802.5,252c-0.8,0-1.6,0.2-2.3,0.6c-1.1,0.6-1.9,1.6-2.2,2.8c-0.3,1.2-0.2,2.5,0.5,3.5s1.6,1.9,2.8,2.2c1.2,0.3,2.5,0.2,3.5-0.5
				c1.1-0.6,1.9-1.6,2.2-2.8c0.3-1.2,0.2-2.5-0.5-3.5c-0.6-1.1-1.6-1.9-2.8-2.2C803.3,252.1,802.9,252,802.5,252z"/>
		</g>
	</g>
	<g>
		<g>
			<circle class="st1" cx="802.5" cy="256.7" r="1.8"/>
		</g>
		<g>
			<path class="st0" d="M802.5,260c-0.3,0-0.6,0-0.8-0.1c-1.7-0.5-2.8-2.3-2.3-4c0.5-1.7,2.3-2.8,4-2.3c1.7,0.5,2.8,2.3,2.3,4l0,0
				C805.3,259,804,260,802.5,260z M802.5,256.4c-0.1,0-0.2,0.1-0.3,0.2c0,0.1,0,0.3,0.2,0.3c0.1,0,0.3,0,0.3-0.2
				C802.8,256.6,802.7,256.5,802.5,256.4C802.6,256.4,802.6,256.4,802.5,256.4z"/>
		</g>
	</g>
	<g>
		<g>
			<circle class="st1" cx="935.3" cy="254.3" r="6.2"/>
		</g>
		<g>
			<path class="st0" d="M935.3,262c-0.7,0-1.3-0.1-2-0.3c-2-0.5-3.6-1.8-4.7-3.6c-1-1.8-1.3-3.8-0.8-5.8c1.1-4.1,5.3-6.5,9.4-5.4
				c4.1,1.1,6.5,5.3,5.4,9.4l0,0c-0.5,2-1.8,3.6-3.6,4.7C937.9,261.7,936.6,262,935.3,262z M935.3,249.7c-2.1,0-4,1.4-4.5,3.5
				c-0.3,1.2-0.2,2.5,0.5,3.5c0.6,1.1,1.6,1.9,2.8,2.2c1.2,0.3,2.5,0.2,3.5-0.5c1.1-0.6,1.9-1.6,2.2-2.8l0,0
				c0.7-2.5-0.8-5.1-3.3-5.7C936.1,249.7,935.7,249.7,935.3,249.7z"/>
		</g>
	</g>
	<g>
		<g>
			<circle class="st1" cx="935.3" cy="254.3" r="1.8"/>
		</g>
		<g>
			<path class="st0" d="M935.3,257.6c-0.3,0-0.6,0-0.9-0.1c-0.8-0.2-1.5-0.8-2-1.5c-0.4-0.8-0.6-1.6-0.3-2.5c0.5-1.7,2.3-2.8,4-2.3
				c1.7,0.5,2.8,2.3,2.3,4l0,0c-0.2,0.8-0.8,1.5-1.5,2C936.4,257.5,935.9,257.6,935.3,257.6z M935.3,254.1c-0.1,0-0.2,0.1-0.3,0.2
				c0,0.1,0,0.2,0,0.2c0,0,0.1,0.1,0.2,0.1c0.1,0,0.2,0,0.2,0c0,0,0.1-0.1,0.1-0.2C935.6,254.3,935.5,254.1,935.3,254.1
				C935.3,254.1,935.3,254.1,935.3,254.1z"/>
		</g>
	</g>
	<g>
		<g>
			<line class="st1" x1="922.9" y1="255.2" x2="929.9" y2="247.7"/>
		</g>
		<g>
			
				<rect x="921.3" y="249.9" transform="matrix(0.6786 -0.7346 0.7346 0.6786 113.1079 761.3448)" class="st0" width="10.3" height="3"/>
		</g>
	</g>
	<g>
		<g>
			<circle class="st1" cx="922.9" cy="255.2" r="6.2"/>
		</g>
		<g>
			<path class="st0" d="M922.9,262.9c-0.7,0-1.3-0.1-2-0.3c-4.1-1.1-6.5-5.3-5.4-9.4c1.1-4.1,5.3-6.5,9.4-5.4
				c4.1,1.1,6.5,5.3,5.4,9.4l0,0C929.4,260.6,926.3,262.9,922.9,262.9z M922.9,250.5c-2.1,0-4,1.4-4.5,3.5c-0.7,2.5,0.8,5.1,3.3,5.7
				c2.5,0.7,5.1-0.8,5.7-3.3l0,0c0.7-2.5-0.8-5.1-3.3-5.7C923.8,250.6,923.3,250.5,922.9,250.5z"/>
		</g>
	</g>
	<g>
		<g>
			<circle class="st1" cx="922.9" cy="255.2" r="1.8"/>
		</g>
		<g>
			<path class="st0" d="M923,258.5c-0.3,0-0.6,0-0.9-0.1c-0.8-0.2-1.5-0.8-2-1.5c-0.4-0.8-0.6-1.6-0.3-2.5c0.2-0.8,0.8-1.5,1.5-2
				c0.8-0.4,1.6-0.6,2.5-0.3c0.8,0.2,1.5,0.8,2,1.5c0.4,0.8,0.6,1.6,0.3,2.5c-0.2,0.8-0.8,1.5-1.5,2
				C924.1,258.3,923.5,258.5,923,258.5z M922.9,255c-0.1,0-0.1,0-0.1,0c0,0-0.1,0.1-0.1,0.2c0,0.1,0,0.2,0,0.2c0,0,0.1,0.1,0.2,0.1
				c0.1,0,0.2,0,0.2,0c0,0,0.1-0.1,0.1-0.2c0-0.1,0-0.2,0-0.2C923.1,255,923.1,255,922.9,255C923,255,923,255,922.9,255z"/>
		</g>
	</g>
</g>
<g>
	<g>
		<g>
			<rect x="1091.3" y="386.6" class="st0" width="29" height="186.5"/>
		</g>
	</g>
	<g>
		<g>
			<path class="st0" d="M1091.2,566.4h30.5c3.3,0,6,2.7,6,6v14.1h-42.4v-14.1C1085.2,569.1,1087.9,566.4,1091.2,566.4z"/>
		</g>
	</g>
	<g>
		<g>
			<path class="st0" d="M1091.2,398.9h30.5c3.3,0,6-2.7,6-6v-14.1h-42.4v14.1C1085.2,396.2,1087.9,398.9,1091.2,398.9z"/>
		</g>
	</g>
	<g>
		<g>
			<g>
				<path class="st0" d="M1099.4,307.2c-0.5-1.1-0.9-2.2-1.6-3.1c-0.7-0.8-1.6-1.4-2.5-1.9c-2.4-1.4-4.8-2.9-7.4-3.9
					c-5.5-2.2-11.7-2.4-17-4.9c-0.5,0.2-0.7,0.3-1.2,0.5c-0.2,0.9,0.1,2.1,0.6,2.8c0.5,0.7,1.3,1.3,2,1.9c0.9,0.8,1.7,1.7,2.4,2.6
					c0.2,0.2,0.3,0.5,0.2,0.7c-0.1,0.3-0.5,0.3-0.8,0.5c-0.4,0.3-0.4,0.8-0.3,1.2c0.2,0.4,0.5,0.7,0.9,1c2.2,1.8,4.8,3.1,7.6,3.7
					c-0.5,0.7-1,1.8-0.3,2.3c0.2,0.1,0.4,0.2,0.7,0.2c3,0.6,5.9,1.9,8.4,3.6c0.2,0.1,0.3,0.2,0.5,0.2s0.4-0.2,0.3-0.4
					c-0.6,0.5-0.9,1.3-0.6,2c4.2,2,6.6,6.5,8.2,11c-1.7,6-6,10.8-7.5,16.8c-0.1,0.5,0.2,0.9,0.7,1.1l4,1c0.5,3.2-7.7,21.5-8.5,23.1
					c-0.4,0.7,0,1.6,0.8,1.8c2.8,0.8,5.5,1.7,8.4,2.5c11.6,3.3,24.6,1.2,34.6-5.4c0.4-0.3,0.7-0.8,0.6-1.3
					c-0.6-4.1-11.1-18.6-12.8-22.8c1.5-0.4,2.9-1.4,3.8-2.8c0.2-0.3,0.2-0.7,0-1c-1-1.4-2.3-2.6-3.5-3.8c-2.1-2.3-3.7-5-4.5-8
					c0.9-2.4,2-5,3.4-7.2s3.3-4,5.7-4.9c0.6-0.2,1.3-0.4,1.8-0.7s1-0.9,1-1.6c-1-0.3-2-0.7-3.1-1c3-1.4,6-2.6,8.8-4.3
					c0.2-0.1,0.4-0.2,0.5-0.4c0.3-0.4,0.1-1-0.2-1.3s-0.8-0.5-1.3-0.6c1.8-0.7,3.5-1.6,5-2.9c0.8-0.6,1.6-1.6,1.2-2.5
					c-0.6-0.1-1.1-0.4-1.6-0.7c3-1.6,4.8-5,4.6-8.4c-1.3-0.1-2.6,0.4-3.9,0.9c-4.6,1.8-9.2,3.6-13.8,5.3c-2.2,0.8-4.3,1.7-6.1,3.1
					c-3.5,2.8-5,7.5-6.3,11.8c-0.5,0.2-1.3-0.3-1.5-0.8c-0.2-0.6-0.1-1.2,0-1.7c2.5-2,3.2-6.2,1.4-8.8c-0.8-1.1-2-2-3.4-2.3
					s-2.9,0.2-3.8,1.3c-0.6,0.7-0.8,1.5-1,2.4c-0.5,2.1-0.5,4.3,0.5,6.2c0.6,1.2,1.6,2.5,1,3.7
					C1103.6,313.3,1100.1,308.8,1099.4,307.2z"/>
			</g>
		</g>
		<g>
			<g>
				<path class="st0" d="M1101,291.8c0,0,3.1-0.6,4.5,0.9c0.5,0.5,0.9,0.9,1.1,1.2c0.3,0.3,0.8,0.4,1.1,0.1l1.6-1.4
					c0,0,1.3-1.3,4.7-0.7c0,0,2.2,0.4-1.8,2.1c-1.2,0.5-2.1,1.4-2.6,2.5c-0.5,1.1-0.8,2.5-0.7,4.6l-3.2,0.1c0,0,1.2-3.5-1.7-6.2
					C1101,292.4,1098.6,292.4,1101,291.8z"/>
			</g>
		</g>
		<g>
			<g>
				<circle class="st0" cx="1116.5" cy="276" r="4.4"/>
			</g>
		</g>
		<g>
			<g>
				<rect x="1115.8" y="278.2" class="st0" width="1.6" height="28.6"/>
			</g>
		</g>
		<g>
			<g>
				<path class="st0" d="M1116.9,265.2c-0.1-0.4-0.6-0.4-0.7,0l-1.1,3.2c0,0-1.2,2.9,1.5,3c2.5,0.1,1.3-3,1.3-3L1116.9,265.2z"/>
			</g>
		</g>
		<g>
			<g>
				<rect x="1101.9" y="372.3" class="st0" width="10.3" height="8.2"/>
			</g>
		</g>
	</g>
	<g>
		<g>
			<path class="st0" d="M1107.7,581c-29.7,0-53.7,7.1-53.7,15.8h107.5C1161.4,588,1137.4,581,1107.7,581z"/>
		</g>
	</g>
	<g>
		<g>
			<rect x="1059" y="594.6" class="st0" width="96.6" height="59.5"/>
		</g>
	</g>
	<g>
		<g>
			<path class="st1" d="M1073,606.4h-4.2c-2,0-3.7,1.6-3.7,3.7v40.1c0,0.2,0.1,0.3,0.3,0.3h11c0.2,0,0.3-0.1,0.3-0.3V610
				C1076.6,608,1075,606.4,1073,606.4z"/>
		</g>
	</g>
	<g>
		<g>
			<path class="st1" d="M1145.7,606.4h-4.2c-2,0-3.7,1.6-3.7,3.7v40.1c0,0.2,0.1,0.3,0.3,0.3h11c0.2,0,0.3-0.1,0.3-0.3V610
				C1149.4,608,1147.8,606.4,1145.7,606.4z"/>
		</g>
	</g>
	<g>
		<g>
			<path class="st1" d="M1127.5,606.4h-4.2c-2,0-3.7,1.6-3.7,3.7v40.1c0,0.2,0.1,0.3,0.3,0.3h11c0.2,0,0.3-0.1,0.3-0.3V610
				C1131.2,608,1129.6,606.4,1127.5,606.4z"/>
		</g>
	</g>
	<g>
		<g>
			<path class="st1" d="M1109.3,606.4h-4.2c-2,0-3.7,1.6-3.7,3.7v40.1c0,0.2,0.1,0.3,0.3,0.3h11c0.2,0,0.3-0.1,0.3-0.3V610
				C1113,608,1111.4,606.4,1109.3,606.4z"/>
		</g>
	</g>
	<g>
		<g>
			<path class="st1" d="M1091.2,606.4h-4.2c-2,0-3.7,1.6-3.7,3.7v40.1c0,0.2,0.1,0.3,0.3,0.3h11c0.2,0,0.3-0.1,0.3-0.3V610
				C1094.8,608,1093.2,606.4,1091.2,606.4z"/>
		</g>
	</g>
	<g>
		<g>
			<g>
				<path class="st1" d="M1105.9,564.7c-0.6,0-1-0.4-1-1V401.6c0-0.6,0.4-1,1-1c0.6,0,1,0.4,1,1v162.1
					C1106.9,564.3,1106.4,564.7,1105.9,564.7z"/>
			</g>
		</g>
		<g>
			<g>
				<path class="st1" d="M1097.9,564.7c-0.6,0-1-0.4-1-1V401.6c0-0.6,0.4-1,1-1s1,0.4,1,1v162.1
					C1098.9,564.3,1098.4,564.7,1097.9,564.7z"/>
			</g>
		</g>
		<g>
			<g>
				<path class="st1" d="M1113.9,564.7c-0.6,0-1-0.4-1-1V401.6c0-0.6,0.4-1,1-1s1,0.4,1,1v162.1
					C1114.9,564.3,1114.4,564.7,1113.9,564.7z"/>
			</g>
		</g>
	</g>
</g>
<g>
	<g>
		<g>
			<path class="st0" d="M360.9,573.9c1.8-6.9,3.7-13.9,5.5-20.8c0.5-2.1,1.4-4.5,2.6-3.9c0.9,0.4,1.3,2.5,1.6,4.2
				c1.2,7.9,2.4,15.8,3.6,23.7c0.6,3.9,0.2,8.8-1.1,12.1c-1.2,3.1-3.4,3.8-5.4,4.3c-2.6,0.7-5.5,1.1-7.4-2.4
				C358.2,587,359.5,579.3,360.9,573.9z"/>
		</g>
	</g>
	<g>
		<g>
			<rect x="364.5" y="585.6" class="st0" width="3" height="20.3"/>
		</g>
	</g>
	<g>
		<g>
			<path class="st0" d="M384,573.9c1.8-6.9,3.7-13.9,5.5-20.8c0.5-2.1,1.4-4.5,2.6-3.9c0.9,0.4,1.3,2.5,1.6,4.2
				c1.2,7.9,2.4,15.8,3.6,23.7c0.6,3.9,0.2,8.8-1.1,12.1c-1.2,3.1-3.4,3.8-5.4,4.3c-2.6,0.7-5.5,1.1-7.4-2.4
				C381.2,587,382.6,579.3,384,573.9z"/>
		</g>
	</g>
	<g>
		<g>
			<rect x="387.6" y="585.6" class="st0" width="3" height="20.3"/>
		</g>
	</g>
	<g>
		<g>
			<path class="st0" d="M407,573.9c1.8-6.9,3.7-13.9,5.5-20.8c0.5-2.1,1.4-4.5,2.6-3.9c0.9,0.4,1.3,2.5,1.6,4.2
				c1.2,7.9,2.4,15.8,3.6,23.7c0.6,3.9,0.2,8.8-1.1,12.1c-1.2,3.1-3.4,3.8-5.4,4.3c-2.6,0.7-5.5,1.1-7.4-2.4
				C404.3,587,405.6,579.3,407,573.9z"/>
		</g>
	</g>
	<g>
		<g>
			<rect x="410.7" y="585.6" class="st0" width="3" height="20.3"/>
		</g>
	</g>
</g>
<g>
	<g>
		<g>
			<path class="st0" d="M1536.8,572.9c1.8-6.9,3.7-13.9,5.5-20.8c0.5-2.1,1.4-4.5,2.6-3.9c0.9,0.4,1.3,2.5,1.6,4.2
				c1.2,7.9,2.4,15.8,3.6,23.7c0.6,3.9,0.2,8.8-1.1,12.1c-1.2,3.1-3.4,3.8-5.4,4.3c-2.6,0.7-5.5,1.1-7.4-2.4
				C1534,586,1535.4,578.3,1536.8,572.9z"/>
		</g>
	</g>
	<g>
		<g>
			<rect x="1540.4" y="584.6" class="st0" width="3" height="20.3"/>
		</g>
	</g>
	<g>
		<g>
			<path class="st0" d="M1559.8,572.9c1.8-6.9,3.7-13.9,5.5-20.8c0.5-2.1,1.4-4.5,2.6-3.9c0.9,0.4,1.3,2.5,1.6,4.2
				c1.2,7.9,2.4,15.8,3.6,23.7c0.6,3.9,0.2,8.8-1.1,12.1c-1.2,3.1-3.4,3.8-5.4,4.3c-2.6,0.7-5.5,1.1-7.4-2.4
				C1557.1,586,1558.4,578.3,1559.8,572.9z"/>
		</g>
	</g>
	<g>
		<g>
			<rect x="1563.5" y="584.6" class="st0" width="3" height="20.3"/>
		</g>
	</g>
	<g>
		<g>
			<path class="st0" d="M1582.9,572.9c1.8-6.9,3.7-13.9,5.5-20.8c0.5-2.1,1.4-4.5,2.6-3.9c0.9,0.4,1.3,2.5,1.6,4.2
				c1.2,7.9,2.4,15.8,3.6,23.7c0.6,3.9,0.2,8.8-1.1,12.1c-1.2,3.1-3.4,3.8-5.4,4.3c-2.6,0.7-5.5,1.1-7.4-2.4
				C1580.2,586,1581.5,578.3,1582.9,572.9z"/>
		</g>
	</g>
	<g>
		<g>
			<rect x="1586.5" y="584.6" class="st0" width="3" height="20.3"/>
		</g>
	</g>
</g>
<g>
	<g>
		<g>
			<path class="st0" d="M535.4,452.7h72.5c3.1,0,5.6,2.5,5.6,5.6v144c0,3.1-2.5,5.6-5.6,5.6h-72.5c-3.1,0-5.6-2.5-5.6-5.6v-144
				C529.8,455.2,532.3,452.7,535.4,452.7z"/>
		</g>
		<g>
			<path class="st0" d="M607.9,609.5h-72.5c-3.9,0-7.1-3.2-7.1-7.1v-144c0-3.9,3.2-7.1,7.1-7.1h72.5c3.9,0,7.1,3.2,7.1,7.1v144
				C615.1,606.3,611.9,609.5,607.9,609.5z M535.4,454.2c-2.3,0-4.1,1.8-4.1,4.1v144c0,2.3,1.8,4.1,4.1,4.1h72.5
				c2.3,0,4.1-1.8,4.1-4.1v-144c0-2.3-1.8-4.1-4.1-4.1H535.4z"/>
		</g>
	</g>
	<g>
		<g>
			<g>
				<path class="st1" d="M544.5,528.3h-6c-0.6,0-1-0.4-1-1v-10.5c0-0.6,0.4-1,1-1h6c0.6,0,1,0.4,1,1v10.5
					C545.5,527.9,545,528.3,544.5,528.3z"/>
			</g>
		</g>
		<g>
			<g>
				<path class="st1" d="M559.8,528.3h-6c-0.6,0-1-0.4-1-1v-10.5c0-0.6,0.4-1,1-1h6c0.6,0,1,0.4,1,1v10.5
					C560.8,527.9,560.3,528.3,559.8,528.3z"/>
			</g>
		</g>
		<g>
			<g>
				<path class="st1" d="M575.1,528.3h-6c-0.6,0-1-0.4-1-1v-10.5c0-0.6,0.4-1,1-1h6c0.6,0,1,0.4,1,1v10.5
					C576.1,527.9,575.7,528.3,575.1,528.3z"/>
			</g>
		</g>
		<g>
			<g>
				<path class="st1" d="M590.5,528.3h-6c-0.6,0-1-0.4-1-1v-10.5c0-0.6,0.4-1,1-1h6c0.6,0,1,0.4,1,1v10.5
					C591.5,527.9,591,528.3,590.5,528.3z"/>
			</g>
		</g>
		<g>
			<g>
				<path class="st1" d="M605.8,528.3h-6c-0.6,0-1-0.4-1-1v-10.5c0-0.6,0.4-1,1-1h6c0.6,0,1,0.4,1,1v10.5
					C606.8,527.9,606.3,528.3,605.8,528.3z"/>
			</g>
		</g>
	</g>
	<g>
		<g>
			<g>
				<path class="st1" d="M544.5,546.2h-6c-0.6,0-1-0.4-1-1v-10.5c0-0.6,0.4-1,1-1h6c0.6,0,1,0.4,1,1v10.5
					C545.5,545.7,545,546.2,544.5,546.2z"/>
			</g>
		</g>
		<g>
			<g>
				<path class="st1" d="M559.8,546.2h-6c-0.6,0-1-0.4-1-1v-10.5c0-0.6,0.4-1,1-1h6c0.6,0,1,0.4,1,1v10.5
					C560.8,545.7,560.3,546.2,559.8,546.2z"/>
			</g>
		</g>
		<g>
			<g>
				<path class="st1" d="M575.1,546.2h-6c-0.6,0-1-0.4-1-1v-10.5c0-0.6,0.4-1,1-1h6c0.6,0,1,0.4,1,1v10.5
					C576.1,545.7,575.7,546.2,575.1,546.2z"/>
			</g>
		</g>
		<g>
			<g>
				<path class="st1" d="M590.5,546.2h-6c-0.6,0-1-0.4-1-1v-10.5c0-0.6,0.4-1,1-1h6c0.6,0,1,0.4,1,1v10.5
					C591.5,545.7,591,546.2,590.5,546.2z"/>
			</g>
		</g>
		<g>
			<g>
				<path class="st1" d="M605.8,546.2h-6c-0.6,0-1-0.4-1-1v-10.5c0-0.6,0.4-1,1-1h6c0.6,0,1,0.4,1,1v10.5
					C606.8,545.7,606.3,546.2,605.8,546.2z"/>
			</g>
		</g>
	</g>
	<g>
		<g>
			<g>
				<path class="st1" d="M544.5,564h-6c-0.6,0-1-0.4-1-1v-10.5c0-0.6,0.4-1,1-1h6c0.6,0,1,0.4,1,1V563
					C545.5,563.6,545,564,544.5,564z"/>
			</g>
		</g>
		<g>
			<g>
				<path class="st1" d="M559.8,564h-6c-0.6,0-1-0.4-1-1v-10.5c0-0.6,0.4-1,1-1h6c0.6,0,1,0.4,1,1V563
					C560.8,563.6,560.3,564,559.8,564z"/>
			</g>
		</g>
		<g>
			<g>
				<path class="st1" d="M575.1,564h-6c-0.6,0-1-0.4-1-1v-10.5c0-0.6,0.4-1,1-1h6c0.6,0,1,0.4,1,1V563
					C576.1,563.6,575.7,564,575.1,564z"/>
			</g>
		</g>
		<g>
			<g>
				<path class="st1" d="M590.5,564h-6c-0.6,0-1-0.4-1-1v-10.5c0-0.6,0.4-1,1-1h6c0.6,0,1,0.4,1,1V563
					C591.5,563.6,591,564,590.5,564z"/>
			</g>
		</g>
		<g>
			<g>
				<path class="st1" d="M605.8,564h-6c-0.6,0-1-0.4-1-1v-10.5c0-0.6,0.4-1,1-1h6c0.6,0,1,0.4,1,1V563
					C606.8,563.6,606.3,564,605.8,564z"/>
			</g>
		</g>
	</g>
	<g>
		<g>
			<g>
				<path class="st1" d="M544.5,474.7h-6c-0.6,0-1-0.4-1-1v-10.5c0-0.6,0.4-1,1-1h6c0.6,0,1,0.4,1,1v10.5
					C545.5,474.2,545,474.7,544.5,474.7z"/>
			</g>
		</g>
		<g>
			<g>
				<path class="st1" d="M559.8,474.7h-6c-0.6,0-1-0.4-1-1v-10.5c0-0.6,0.4-1,1-1h6c0.6,0,1,0.4,1,1v10.5
					C560.8,474.2,560.3,474.7,559.8,474.7z"/>
			</g>
		</g>
		<g>
			<g>
				<path class="st1" d="M575.1,474.7h-6c-0.6,0-1-0.4-1-1v-10.5c0-0.6,0.4-1,1-1h6c0.6,0,1,0.4,1,1v10.5
					C576.1,474.2,575.7,474.7,575.1,474.7z"/>
			</g>
		</g>
		<g>
			<g>
				<path class="st1" d="M590.5,474.7h-6c-0.6,0-1-0.4-1-1v-10.5c0-0.6,0.4-1,1-1h6c0.6,0,1,0.4,1,1v10.5
					C591.5,474.2,591,474.7,590.5,474.7z"/>
			</g>
		</g>
		<g>
			<g>
				<path class="st1" d="M605.8,474.7h-6c-0.6,0-1-0.4-1-1v-10.5c0-0.6,0.4-1,1-1h6c0.6,0,1,0.4,1,1v10.5
					C606.8,474.2,606.3,474.7,605.8,474.7z"/>
			</g>
		</g>
	</g>
	<g>
		<g>
			<g>
				<path class="st1" d="M544.5,492.6h-6c-0.6,0-1-0.4-1-1V481c0-0.6,0.4-1,1-1h6c0.6,0,1,0.4,1,1v10.5
					C545.5,492.1,545,492.6,544.5,492.6z"/>
			</g>
		</g>
		<g>
			<g>
				<path class="st1" d="M559.8,492.6h-6c-0.6,0-1-0.4-1-1V481c0-0.6,0.4-1,1-1h6c0.6,0,1,0.4,1,1v10.5
					C560.8,492.1,560.3,492.6,559.8,492.6z"/>
			</g>
		</g>
		<g>
			<g>
				<path class="st1" d="M575.1,492.6h-6c-0.6,0-1-0.4-1-1V481c0-0.6,0.4-1,1-1h6c0.6,0,1,0.4,1,1v10.5
					C576.1,492.1,575.7,492.6,575.1,492.6z"/>
			</g>
		</g>
		<g>
			<g>
				<path class="st1" d="M590.5,492.6h-6c-0.6,0-1-0.4-1-1V481c0-0.6,0.4-1,1-1h6c0.6,0,1,0.4,1,1v10.5
					C591.5,492.1,591,492.6,590.5,492.6z"/>
			</g>
		</g>
		<g>
			<g>
				<path class="st1" d="M605.8,492.6h-6c-0.6,0-1-0.4-1-1V481c0-0.6,0.4-1,1-1h6c0.6,0,1,0.4,1,1v10.5
					C606.8,492.1,606.3,492.6,605.8,492.6z"/>
			</g>
		</g>
	</g>
	<g>
		<g>
			<g>
				<path class="st1" d="M544.5,510.4h-6c-0.6,0-1-0.4-1-1v-10.5c0-0.6,0.4-1,1-1h6c0.6,0,1,0.4,1,1v10.5
					C545.5,510,545,510.4,544.5,510.4z"/>
			</g>
		</g>
		<g>
			<g>
				<path class="st1" d="M559.8,510.4h-6c-0.6,0-1-0.4-1-1v-10.5c0-0.6,0.4-1,1-1h6c0.6,0,1,0.4,1,1v10.5
					C560.8,510,560.3,510.4,559.8,510.4z"/>
			</g>
		</g>
		<g>
			<g>
				<path class="st1" d="M575.1,510.4h-6c-0.6,0-1-0.4-1-1v-10.5c0-0.6,0.4-1,1-1h6c0.6,0,1,0.4,1,1v10.5
					C576.1,510,575.7,510.4,575.1,510.4z"/>
			</g>
		</g>
		<g>
			<g>
				<path class="st1" d="M590.5,510.4h-6c-0.6,0-1-0.4-1-1v-10.5c0-0.6,0.4-1,1-1h6c0.6,0,1,0.4,1,1v10.5
					C591.5,510,591,510.4,590.5,510.4z"/>
			</g>
		</g>
		<g>
			<g>
				<path class="st1" d="M605.8,510.4h-6c-0.6,0-1-0.4-1-1v-10.5c0-0.6,0.4-1,1-1h6c0.6,0,1,0.4,1,1v10.5
					C606.8,510,606.3,510.4,605.8,510.4z"/>
			</g>
		</g>
	</g>
	<g>
		<g>
			<g>
				<path class="st1" d="M544.5,581.9h-6c-0.6,0-1-0.4-1-1v-10.5c0-0.6,0.4-1,1-1h6c0.6,0,1,0.4,1,1v10.5
					C545.5,581.4,545,581.9,544.5,581.9z"/>
			</g>
		</g>
		<g>
			<g>
				<path class="st1" d="M559.8,581.9h-6c-0.6,0-1-0.4-1-1v-10.5c0-0.6,0.4-1,1-1h6c0.6,0,1,0.4,1,1v10.5
					C560.8,581.4,560.3,581.9,559.8,581.9z"/>
			</g>
		</g>
		<g>
			<g>
				<path class="st1" d="M575.1,581.9h-6c-0.6,0-1-0.4-1-1v-10.5c0-0.6,0.4-1,1-1h6c0.6,0,1,0.4,1,1v10.5
					C576.1,581.4,575.7,581.9,575.1,581.9z"/>
			</g>
		</g>
		<g>
			<g>
				<path class="st1" d="M590.5,581.9h-6c-0.6,0-1-0.4-1-1v-10.5c0-0.6,0.4-1,1-1h6c0.6,0,1,0.4,1,1v10.5
					C591.5,581.4,591,581.9,590.5,581.9z"/>
			</g>
		</g>
		<g>
			<g>
				<path class="st1" d="M605.8,581.9h-6c-0.6,0-1-0.4-1-1v-10.5c0-0.6,0.4-1,1-1h6c0.6,0,1,0.4,1,1v10.5
					C606.8,581.4,606.3,581.9,605.8,581.9z"/>
			</g>
		</g>
	</g>
	<g>
		<g>
			<g>
				<path class="st1" d="M544.5,599.8h-6c-0.6,0-1-0.4-1-1v-10.5c0-0.6,0.4-1,1-1h6c0.6,0,1,0.4,1,1v10.5
					C545.5,599.3,545,599.8,544.5,599.8z"/>
			</g>
		</g>
		<g>
			<g>
				<path class="st1" d="M559.8,599.8h-6c-0.6,0-1-0.4-1-1v-10.5c0-0.6,0.4-1,1-1h6c0.6,0,1,0.4,1,1v10.5
					C560.8,599.3,560.3,599.8,559.8,599.8z"/>
			</g>
		</g>
		<g>
			<g>
				<path class="st1" d="M575.1,608h-6c-0.6,0-1-0.4-1-1v-18.7c0-0.6,0.4-1,1-1h6c0.6,0,1,0.4,1,1V607
					C576.1,607.5,575.7,608,575.1,608z"/>
			</g>
		</g>
		<g>
			<g>
				<path class="st1" d="M590.5,599.8h-6c-0.6,0-1-0.4-1-1v-10.5c0-0.6,0.4-1,1-1h6c0.6,0,1,0.4,1,1v10.5
					C591.5,599.3,591,599.8,590.5,599.8z"/>
			</g>
		</g>
		<g>
			<g>
				<path class="st1" d="M605.8,599.8h-6c-0.6,0-1-0.4-1-1v-10.5c0-0.6,0.4-1,1-1h6c0.6,0,1,0.4,1,1v10.5
					C606.8,599.3,606.3,599.8,605.8,599.8z"/>
			</g>
		</g>
	</g>
	<g>
		<g>
			<rect x="503.1" y="590" class="st1" width="83.7" height="42.1"/>
		</g>
		<g>
			<path class="st0" d="M586.9,633.7h-83.8c-0.8,0-1.5-0.7-1.5-1.5V590c0-0.8,0.7-1.5,1.5-1.5h83.8c0.8,0,1.5,0.7,1.5,1.5v42.1
				C588.4,633,587.7,633.7,586.9,633.7z M504.6,630.6h80.7v-39.1h-80.7V630.6z"/>
		</g>
	</g>
	<g>
		<g>
			<path class="st0" d="M514.3,569.4h61.4c1.3,0,2.5,0.8,3,1.9l8.2,19.1h-83.7l8.2-19.1C511.8,570.2,513,569.4,514.3,569.4z"/>
		</g>
		<g>
			<path class="st0" d="M586.9,592h-83.8c-0.5,0-1-0.3-1.3-0.7c-0.3-0.4-0.3-1-0.1-1.4l8.2-19.1c0.7-1.7,2.4-2.9,4.3-2.9h61.4
				c1.9,0,3.6,1.1,4.3,2.9l8.2,19.1c0.2,0.5,0.2,1-0.1,1.4C587.9,591.7,587.4,592,586.9,592z M505.4,589h79.2l-7.3-17
				c-0.3-0.6-0.9-1-1.6-1h-61.4c-0.7,0-1.3,0.4-1.6,1L505.4,589z"/>
		</g>
	</g>
	<g>
		<g>
			<g>
				<path class="st0" d="M517.3,625.2h-6c-0.6,0-1-0.4-1-1v-8.6c0-0.6,0.4-1,1-1h6c0.6,0,1,0.4,1,1v8.6
					C518.3,624.8,517.9,625.2,517.3,625.2z"/>
			</g>
		</g>
		<g>
			<g>
				<path class="st0" d="M532.7,625.2h-6c-0.6,0-1-0.4-1-1v-8.6c0-0.6,0.4-1,1-1h6c0.6,0,1,0.4,1,1v8.6
					C533.7,624.8,533.2,625.2,532.7,625.2z"/>
			</g>
		</g>
		<g>
			<g>
				<path class="st0" d="M548,632.1h-6c-0.6,0-1-0.4-1-1v-12.5c0-2.2,1.8-4,4-4l0,0c2.2,0,4,1.8,4,4v12.5
					C549,631.7,548.5,632.1,548,632.1z"/>
			</g>
		</g>
		<g>
			<g>
				<path class="st0" d="M563.3,625.2h-6c-0.6,0-1-0.4-1-1v-8.6c0-0.6,0.4-1,1-1h6c0.6,0,1,0.4,1,1v8.6
					C564.3,624.8,563.9,625.2,563.3,625.2z"/>
			</g>
		</g>
		<g>
			<g>
				<path class="st0" d="M578.7,625.2h-6c-0.6,0-1-0.4-1-1v-8.6c0-0.6,0.4-1,1-1h6c0.6,0,1,0.4,1,1v8.6
					C579.7,624.8,579.2,625.2,578.7,625.2z"/>
			</g>
		</g>
	</g>
	<g>
		<g>
			<g>
				<path class="st0" d="M517.3,607.7h-6c-0.6,0-1-0.4-1-1v-8.6c0-0.6,0.4-1,1-1h6c0.6,0,1,0.4,1,1v8.6
					C518.3,607.3,517.9,607.7,517.3,607.7z"/>
			</g>
		</g>
		<g>
			<g>
				<path class="st0" d="M532.7,607.7h-6c-0.6,0-1-0.4-1-1v-8.6c0-0.6,0.4-1,1-1h6c0.6,0,1,0.4,1,1v8.6
					C533.7,607.3,533.2,607.7,532.7,607.7z"/>
			</g>
		</g>
		<g>
			<g>
				<path class="st0" d="M548,607.7h-6c-0.6,0-1-0.4-1-1v-8.6c0-0.6,0.4-1,1-1h6c0.6,0,1,0.4,1,1v8.6
					C549,607.3,548.5,607.7,548,607.7z"/>
			</g>
		</g>
		<g>
			<g>
				<path class="st0" d="M563.3,607.7h-6c-0.6,0-1-0.4-1-1v-8.6c0-0.6,0.4-1,1-1h6c0.6,0,1,0.4,1,1v8.6
					C564.3,607.3,563.9,607.7,563.3,607.7z"/>
			</g>
		</g>
		<g>
			<g>
				<path class="st0" d="M578.7,607.7h-6c-0.6,0-1-0.4-1-1v-8.6c0-0.6,0.4-1,1-1h6c0.6,0,1,0.4,1,1v8.6
					C579.7,607.3,579.2,607.7,578.7,607.7z"/>
			</g>
		</g>
	</g>
	<g>
		<g>
			<g>
				<rect x="441.2" y="579.1" class="st1" width="53.3" height="42.1"/>
			</g>
			<g>
				<path class="st0" d="M494.5,622.7h-53.3c-0.8,0-1.5-0.7-1.5-1.5v-42.1c0-0.8,0.7-1.5,1.5-1.5h53.3c0.8,0,1.5,0.7,1.5,1.5v42.1
					C496,622,495.4,622.7,494.5,622.7z M442.7,619.7H493v-39.1h-50.3V619.7z"/>
			</g>
		</g>
		<g>
			<g>
				<path class="st0" d="M449.3,558.4h37c1.4,0,2.6,0.9,3,2.3l5.1,18.8h-53.3l5.1-18.8C446.7,559.4,447.9,558.4,449.3,558.4z"/>
			</g>
			<g>
				<path class="st0" d="M494.5,581h-53.3c-0.5,0-0.9-0.2-1.2-0.6c-0.3-0.4-0.4-0.9-0.3-1.3l5.1-18.8c0.5-2,2.4-3.4,4.5-3.4h37
					c2.1,0,3.9,1.4,4.5,3.4l5.1,18.8c0.1,0.5,0,0.9-0.3,1.3C495.4,580.8,495,581,494.5,581z M443.2,578h49.4l-4.6-16.9
					c-0.2-0.7-0.8-1.2-1.6-1.2h-37c-0.7,0-1.4,0.5-1.6,1.2L443.2,578z"/>
			</g>
		</g>
		<g>
			<g>
				<g>
					<path class="st0" d="M455.5,614.3h-6c-0.6,0-1-0.4-1-1v-8.6c0-0.6,0.4-1,1-1h6c0.6,0,1,0.4,1,1v8.6
						C456.5,613.8,456.1,614.3,455.5,614.3z"/>
				</g>
			</g>
			<g>
				<g>
					<path class="st0" d="M470.9,621.2h-6c-0.6,0-1-0.4-1-1v-12.5c0-2.2,1.8-4,4-4l0,0c2.2,0,4,1.8,4,4v12.5
						C471.9,620.7,471.4,621.2,470.9,621.2z"/>
				</g>
			</g>
			<g>
				<g>
					<path class="st0" d="M486.2,614.3h-6c-0.6,0-1-0.4-1-1v-8.6c0-0.6,0.4-1,1-1h6c0.6,0,1,0.4,1,1v8.6
						C487.2,613.8,486.7,614.3,486.2,614.3z"/>
				</g>
			</g>
		</g>
		<g>
			<g>
				<g>
					<path class="st0" d="M455.5,596.8h-6c-0.6,0-1-0.4-1-1v-8.6c0-0.6,0.4-1,1-1h6c0.6,0,1,0.4,1,1v8.6
						C456.5,596.3,456.1,596.8,455.5,596.8z"/>
				</g>
			</g>
			<g>
				<g>
					<path class="st0" d="M470.9,596.8h-6c-0.6,0-1-0.4-1-1v-8.6c0-0.6,0.4-1,1-1h6c0.6,0,1,0.4,1,1v8.6
						C471.9,596.3,471.4,596.8,470.9,596.8z"/>
				</g>
			</g>
			<g>
				<g>
					<path class="st0" d="M486.2,596.8h-6c-0.6,0-1-0.4-1-1v-8.6c0-0.6,0.4-1,1-1h6c0.6,0,1,0.4,1,1v8.6
						C487.2,596.3,486.7,596.8,486.2,596.8z"/>
				</g>
			</g>
		</g>
	</g>
</g>
</svg>
