<svg xmlns="http://www.w3.org/2000/svg" width="24" height="25" viewBox="0 0 24 25">
  <g id="Gruppe_110" data-name="Gruppe 110" transform="translate(-74.339 -269)">
    <g id="Rechteck_43" data-name="Rechteck 43" transform="translate(74.339 273)" fill="none" stroke="#10527a" stroke-linejoin="round" stroke-width="2">
      <rect width="24" height="21" rx="3" stroke="none"/>
      <rect x="1" y="1" width="22" height="19" rx="2" fill="none"/>
    </g>
    <g id="Rechteck_55" data-name="Rechteck 55" transform="translate(79.324 281.409)" fill="#0d507a" stroke="#10527a" stroke-width="0.5">
      <rect width="1.521" height="1.521" rx="0.761" stroke="none"/>
      <rect x="0.25" y="0.25" width="1.021" height="1.021" rx="0.511" fill="none"/>
    </g>
    <g id="Rechteck_60" data-name="Rechteck 60" transform="translate(79.324 284.451)" fill="#0d507a" stroke="#10527a" stroke-width="0.5">
      <rect width="1.521" height="1.521" rx="0.761" stroke="none"/>
      <rect x="0.25" y="0.25" width="1.021" height="1.021" rx="0.511" fill="none"/>
    </g>
    <g id="Rechteck_65" data-name="Rechteck 65" transform="translate(79.324 287.494)" fill="#0d507a" stroke="#10527a" stroke-width="0.5">
      <rect width="1.521" height="1.521" rx="0.761" stroke="none"/>
      <rect x="0.25" y="0.25" width="1.021" height="1.021" rx="0.511" fill="none"/>
    </g>
    <g id="Rechteck_47" data-name="Rechteck 47" transform="translate(82.366 278.366)" fill="#0d507a" stroke="#10527a" stroke-width="0.5">
      <rect width="1.521" height="1.521" rx="0.761" stroke="none"/>
      <rect x="0.25" y="0.25" width="1.021" height="1.021" rx="0.511" fill="none"/>
    </g>
    <g id="Rechteck_54" data-name="Rechteck 54" transform="translate(82.366 281.409)" fill="#0d507a" stroke="#10527a" stroke-width="0.5">
      <rect width="1.521" height="1.521" rx="0.761" stroke="none"/>
      <rect x="0.25" y="0.25" width="1.021" height="1.021" rx="0.511" fill="none"/>
    </g>
    <g id="Rechteck_59" data-name="Rechteck 59" transform="translate(82.366 284.451)" fill="#0d507a" stroke="#10527a" stroke-width="0.5">
      <rect width="1.521" height="1.521" rx="0.761" stroke="none"/>
      <rect x="0.25" y="0.25" width="1.021" height="1.021" rx="0.511" fill="none"/>
    </g>
    <g id="Rechteck_64" data-name="Rechteck 64" transform="translate(82.366 287.494)" fill="#0d507a" stroke="#10527a" stroke-width="0.5">
      <rect width="1.521" height="1.521" rx="0.761" stroke="none"/>
      <rect x="0.25" y="0.25" width="1.021" height="1.021" rx="0.511" fill="none"/>
    </g>
    <g id="Rechteck_48" data-name="Rechteck 48" transform="translate(85.409 278.366)" fill="#0d507a" stroke="#10527a" stroke-width="0.5">
      <rect width="1.521" height="1.521" rx="0.761" stroke="none"/>
      <rect x="0.25" y="0.25" width="1.021" height="1.021" rx="0.511" fill="none"/>
    </g>
    <g id="Rechteck_53" data-name="Rechteck 53" transform="translate(85.409 281.409)" fill="#0d507a" stroke="#10527a" stroke-width="0.5">
      <rect width="1.521" height="1.521" rx="0.761" stroke="none"/>
      <rect x="0.25" y="0.25" width="1.021" height="1.021" rx="0.511" fill="none"/>
    </g>
    <g id="Rechteck_58" data-name="Rechteck 58" transform="translate(85.409 284.451)" fill="#0d507a" stroke="#10527a" stroke-width="0.5">
      <rect width="1.521" height="1.521" rx="0.761" stroke="none"/>
      <rect x="0.25" y="0.25" width="1.021" height="1.021" rx="0.511" fill="none"/>
    </g>
    <g id="Rechteck_63" data-name="Rechteck 63" transform="translate(85.409 287.494)" fill="#0d507a" stroke="#10527a" stroke-width="0.5">
      <rect width="1.521" height="1.521" rx="0.761" stroke="none"/>
      <rect x="0.25" y="0.25" width="1.021" height="1.021" rx="0.511" fill="none"/>
    </g>
    <g id="Rechteck_49" data-name="Rechteck 49" transform="translate(88.451 278.366)" fill="#0d507a" stroke="#10527a" stroke-width="0.5">
      <rect width="1.521" height="1.521" rx="0.761" stroke="none"/>
      <rect x="0.25" y="0.25" width="1.021" height="1.021" rx="0.511" fill="none"/>
    </g>
    <g id="Rechteck_51" data-name="Rechteck 51" transform="translate(88.451 281.409)" fill="#0d507a" stroke="#10527a" stroke-width="0.5">
      <rect width="1.521" height="1.521" rx="0.761" stroke="none"/>
      <rect x="0.25" y="0.25" width="1.021" height="1.021" rx="0.511" fill="none"/>
    </g>
    <g id="Rechteck_56" data-name="Rechteck 56" transform="translate(88.451 284.451)" fill="#0d507a" stroke="#10527a" stroke-width="0.5">
      <rect width="1.521" height="1.521" rx="0.761" stroke="none"/>
      <rect x="0.25" y="0.25" width="1.021" height="1.021" rx="0.511" fill="none"/>
    </g>
    <g id="Rechteck_61" data-name="Rechteck 61" transform="translate(88.451 287.494)" fill="#0d507a" stroke="#10527a" stroke-width="0.5">
      <rect width="1.521" height="1.521" rx="0.761" stroke="none"/>
      <rect x="0.25" y="0.25" width="1.021" height="1.021" rx="0.511" fill="none"/>
    </g>
    <g id="Rechteck_50" data-name="Rechteck 50" transform="translate(91.494 278.366)" fill="#0d507a" stroke="#10527a" stroke-width="0.5">
      <rect width="1.521" height="1.521" rx="0.761" stroke="none"/>
      <rect x="0.25" y="0.25" width="1.021" height="1.021" rx="0.511" fill="none"/>
    </g>
    <g id="Rechteck_52" data-name="Rechteck 52" transform="translate(91.494 281.409)" fill="#0d507a" stroke="#10527a" stroke-width="0.5">
      <rect width="1.521" height="1.521" rx="0.761" stroke="none"/>
      <rect x="0.25" y="0.25" width="1.021" height="1.021" rx="0.511" fill="none"/>
    </g>
    <g id="Rechteck_57" data-name="Rechteck 57" transform="translate(91.494 284.451)" fill="#0d507a" stroke="#10527a" stroke-width="0.5">
      <rect width="1.521" height="1.521" rx="0.761" stroke="none"/>
      <rect x="0.25" y="0.25" width="1.021" height="1.021" rx="0.511" fill="none"/>
    </g>
    <g id="Rechteck_45" data-name="Rechteck 45" transform="translate(89.339 269)" fill="#0d507a" stroke="#10527a" stroke-width="1">
      <rect width="3" height="6" rx="1" stroke="none"/>
      <rect x="0.5" y="0.5" width="2" height="5" rx="0.5" fill="none"/>
    </g>
    <g id="Rechteck_252" data-name="Rechteck 252" transform="translate(80.339 269)" fill="#0d507a" stroke="#10527a" stroke-width="1">
      <rect width="3" height="6" rx="1" stroke="none"/>
      <rect x="0.5" y="0.5" width="2" height="5" rx="0.5" fill="none"/>
    </g>
  </g>
</svg>
