<?xml version="1.0" encoding="utf-8"?>
<!-- Generator: Adobe Illustrator 24.0.1, SVG Export Plug-In . SVG Version: 6.00 Build 0)  -->
<svg version="1.1" id="Layer_1" xmlns="http://www.w3.org/2000/svg" xmlns:xlink="http://www.w3.org/1999/xlink" x="0px" y="0px"
	 viewBox="0 0 230 230" style="enable-background:new 0 0 230 230;" xml:space="preserve">
<style type="text/css">
	.st0{fill:#FFFFFF;}
	.st1{fill:#0D507A;}
	.st2{fill:#0A557E;}
	.st3{fill:none;}
	.st4{fill:#231F20;}
	.st5{fill:#F69570;}
	.st6{fill:#F48980;}
	.st7{fill:#08507B;}
	.st8{fill:#F7F9FC;}
	.st9{clip-path:url(#SVGID_4_);}
	.st10{fill:#0E547D;}
	.st11{clip-path:url(#SVGID_6_);}
	.st12{fill:#81C9EF;}
	.st13{fill:#11537C;}
	.st14{fill:#FFFFFF;stroke:#0A557E;stroke-width:1.778;stroke-linecap:round;stroke-linejoin:round;stroke-miterlimit:10;}
	.st15{fill:none;stroke:#CAE2F8;stroke-width:1.778;stroke-linecap:round;stroke-linejoin:round;stroke-miterlimit:10;}
	.st16{fill:#D0C2EF;}
	.st17{fill:#874ACE;}
	.st18{fill:#C5C6E3;}
	.st19{fill:#4F388D;}
	.st20{fill:none;stroke:#0D507A;stroke-width:3.1011;stroke-linecap:round;stroke-linejoin:round;stroke-miterlimit:10;}
	.st21{fill:#E8318D;}
	.st22{fill:none;stroke:#E8318D;stroke-linecap:round;stroke-linejoin:round;stroke-miterlimit:10;}
</style>
<g>
	<path class="st3" d="M115,207c-50.8,0-92-41.2-92-92s41.2-92,92-92s92,41.2,92,92S165.8,207,115,207"/>
	<g>
		<g>
			<path class="st0" d="M153,179.7H77c-5.4,0-9.8-4.4-9.8-9.8V55.3c0-5.4,4.4-9.8,9.8-9.8H153c5.4,0,9.8,4.4,9.8,9.8v114.5
				C162.8,175.3,158.4,179.7,153,179.7z"/>
			<path class="st1" d="M153,181.2H77c-6.3,0-11.4-5.1-11.4-11.4V55.3C65.6,49.1,70.7,44,77,44H153c6.3,0,11.4,5.1,11.4,11.4v114.5
				C164.4,176.1,159.3,181.2,153,181.2z M77,47.1c-4.5,0-8.2,3.7-8.2,8.2v114.5c0,4.5,3.7,8.2,8.2,8.2H153c4.5,0,8.3-3.7,8.3-8.2
				V55.3c0-4.5-3.7-8.2-8.3-8.2H77z"/>
		</g>
		<g>
			<path class="st1" d="M154,75.6H77.3c-0.9,0-1.6-0.7-1.6-1.6s0.7-1.6,1.6-1.6H154c0.9,0,1.6,0.7,1.6,1.6S154.8,75.6,154,75.6z"/>
			<path class="st1" d="M154,64.6H77.3c-0.9,0-1.6-0.7-1.6-1.6c0-0.9,0.7-1.6,1.6-1.6H154c0.9,0,1.6,0.7,1.6,1.6
				C155.5,63.9,154.8,64.6,154,64.6z"/>
			<path class="st1" d="M154,152.7H77.3c-0.9,0-1.6-0.7-1.6-1.6c0-0.9,0.7-1.6,1.6-1.6H154c0.9,0,1.6,0.7,1.6,1.6
				C155.5,152,154.8,152.7,154,152.7z"/>
			<path class="st1" d="M154,163.7H77.3c-0.9,0-1.6-0.7-1.6-1.6c0-0.9,0.7-1.6,1.6-1.6H154c0.9,0,1.6,0.7,1.6,1.6
				C155.5,163,154.8,163.7,154,163.7z"/>
			<path class="st1" d="M133.8,97.6H77.1c-0.7,0-1.3-0.7-1.3-1.6s0.6-1.6,1.3-1.6h56.6c0.7,0,1.3,0.7,1.3,1.6S134.5,97.6,133.8,97.6
				z"/>
			<path class="st1" d="M154,86.6H77.3c-0.9,0-1.6-0.7-1.6-1.6s0.7-1.6,1.6-1.6H154c0.9,0,1.6,0.7,1.6,1.6S154.8,86.6,154,86.6z"/>
			<path class="st1" d="M154,108.6H77.3c-0.9,0-1.6-0.7-1.6-1.6s0.7-1.6,1.6-1.6H154c0.9,0,1.6,0.7,1.6,1.6S154.8,108.6,154,108.6z"
				/>
			<path class="st1" d="M154,119.6H77.3c-0.9,0-1.6-0.7-1.6-1.6s0.7-1.6,1.6-1.6H154c0.9,0,1.6,0.7,1.6,1.6S154.8,119.6,154,119.6z"
				/>
			<path class="st1" d="M154,130.6H77.3c-0.9,0-1.6-0.7-1.6-1.6c0-0.9,0.7-1.6,1.6-1.6H154c0.9,0,1.6,0.7,1.6,1.6
				C155.5,130,154.8,130.6,154,130.6z"/>
			<path class="st1" d="M154,141.6H77.3c-0.9,0-1.6-0.7-1.6-1.6c0-0.9,0.7-1.6,1.6-1.6H154c0.9,0,1.6,0.7,1.6,1.6
				C155.5,141,154.8,141.6,154,141.6z"/>
		</g>
	</g>
	<g>
		<g>
			<g>
				<g>
					
						<rect x="163.6" y="139.2" transform="matrix(0.7071 0.7071 -0.7071 0.7071 153.3214 -85.2641)" class="st0" width="32" height="6.6"/>
					<path class="st1" d="M188.6,157.4c-0.3,0-0.7-0.1-0.9-0.4L165,134.4c-0.5-0.5-0.5-1.4,0-1.9l4.7-4.7c0.5-0.5,1.4-0.5,1.9,0
						l22.6,22.6c0.2,0.2,0.4,0.6,0.4,0.9c0,0.4-0.1,0.7-0.4,0.9l-4.7,4.7C189.2,157.3,188.9,157.4,188.6,157.4z M167.8,133.5
						l20.8,20.8l2.8-2.8l-20.8-20.8L167.8,133.5z"/>
				</g>
				<g>
					<path class="st1" d="M206.9,185.2L188,166.3c-2.7-2.7-2.7-7,0-9.6l5.5-5.5c2.7-2.7,7-2.7,9.6,0l18.9,18.9
						c3.9,3.9,3.9,10.3,0,14.2l-0.9,0.9C217.2,189.1,210.9,189.1,206.9,185.2z"/>
					<g>
						<path class="st0" d="M214.1,189.7c-3,0-6-1.1-8.2-3.4c0,0,0,0,0,0l-18.9-18.9c-1.6-1.6-2.4-3.7-2.4-5.9c0-2.2,0.9-4.3,2.4-5.9
							l5.5-5.5c3.3-3.3,8.6-3.3,11.8,0l18.9,18.9c4.5,4.5,4.5,11.9,0,16.4l-0.9,0.9C220,188.5,217,189.7,214.1,189.7z M208,184.1
							c3.3,3.3,8.7,3.3,12,0l0.9-0.9c3.3-3.3,3.3-8.7,0-12L202,152.3c-1-1-2.3-1.5-3.7-1.5c-1.4,0-2.7,0.5-3.7,1.5l-5.5,5.5
							c-1,1-1.5,2.3-1.5,3.7c0,1.4,0.5,2.7,1.5,3.7L208,184.1L208,184.1z"/>
						<path class="st1" d="M198.3,147.6c2.1,0,4.3,0.8,5.9,2.4l18.9,18.9c4.5,4.5,4.5,11.9,0,16.4l-0.9,0.9
							c-2.3,2.3-5.2,3.4-8.2,3.4c-3,0-6-1.1-8.2-3.4c0,0,0,0,0,0l-18.9-18.9c-1.6-1.6-2.4-3.7-2.4-5.9c0-2.2,0.9-4.3,2.4-5.9
							l5.5-5.5C194,148.4,196.2,147.6,198.3,147.6 M208,184.1L208,184.1c1.7,1.7,3.8,2.5,6,2.5c2.2,0,4.4-0.8,6-2.5l0.9-0.9
							c3.3-3.3,3.3-8.7,0-12L202,152.3c-1-1-2.3-1.5-3.7-1.5c-1.4,0-2.7,0.5-3.7,1.5l-5.5,5.5c-1,1-1.5,2.3-1.5,3.7
							c0,1.4,0.5,2.7,1.5,3.7L208,184.1 M198.3,144.5C198.3,144.5,198.3,144.5,198.3,144.5c-3.1,0-5.9,1.2-8.1,3.3l-5.5,5.5
							c-2.2,2.2-3.4,5-3.4,8.1s1.2,5.9,3.4,8.1l18.9,18.9c2.8,2.8,6.5,4.3,10.4,4.3c3.9,0,7.6-1.5,10.4-4.3l0.9-0.9
							c2.8-2.8,4.3-6.5,4.3-10.4c0-3.9-1.5-7.6-4.3-10.4l-18.9-18.9C204.2,145.7,201.4,144.5,198.3,144.5L198.3,144.5z M210.2,181.9
							L210.2,181.9L191.3,163c-0.4-0.4-0.6-0.9-0.6-1.5c0-0.6,0.2-1.1,0.6-1.5l5.5-5.5c0.4-0.4,0.9-0.6,1.5-0.6
							c0.6,0,1.1,0.2,1.5,0.6l18.9,18.9c2.1,2.1,2.1,5.5,0,7.7l-0.9,0.9c-1,1-2.4,1.6-3.8,1.6S211.2,182.9,210.2,181.9L210.2,181.9
							L210.2,181.9L210.2,181.9z"/>
					</g>
				</g>
			</g>
			<g>
				<path class="st1" d="M153.2,81.6c-18.4,0-33.4,14.9-33.4,33.4s14.9,33.4,33.4,33.4s33.4-14.9,33.4-33.4S171.6,81.6,153.2,81.6z
					 M153.2,139.5c-13.5,0-24.5-10.9-24.5-24.5s10.9-24.5,24.5-24.5c13.5,0,24.5,10.9,24.5,24.5S166.7,139.5,153.2,139.5z"/>
				<g>
					<path class="st0" d="M153.2,149.9c-19.3,0-34.9-15.7-34.9-34.9s15.7-34.9,34.9-34.9c19.3,0,34.9,15.7,34.9,34.9
						S172.5,149.9,153.2,149.9z M153.2,83.2c-17.6,0-31.8,14.3-31.8,31.8c0,17.6,14.3,31.8,31.8,31.8S185,132.6,185,115
						C185,97.5,170.7,83.2,153.2,83.2z M153.2,141c-14.3,0-26-11.7-26-26c0-14.3,11.7-26,26-26c14.3,0,26,11.7,26,26
						C179.2,129.3,167.5,141,153.2,141z M153.2,92.1c-12.6,0-22.9,10.3-22.9,22.9c0,12.6,10.3,22.9,22.9,22.9
						c12.6,0,22.9-10.3,22.9-22.9C176.1,102.4,165.8,92.1,153.2,92.1z"/>
					<path class="st1" d="M153.2,80.1c19.3,0,34.9,15.7,34.9,34.9s-15.7,34.9-34.9,34.9c-19.3,0-34.9-15.7-34.9-34.9
						S133.9,80.1,153.2,80.1 M153.2,146.8c17.6,0,31.8-14.3,31.8-31.8c0-17.6-14.3-31.8-31.8-31.8s-31.8,14.3-31.8,31.8
						C121.4,132.6,135.6,146.8,153.2,146.8 M153.2,89c14.3,0,26,11.7,26,26c0,14.3-11.7,26-26,26c-14.3,0-26-11.7-26-26
						C127.2,100.7,138.8,89,153.2,89 M153.2,137.9c12.6,0,22.9-10.3,22.9-22.9c0-12.6-10.3-22.9-22.9-22.9
						c-12.6,0-22.9,10.3-22.9,22.9C130.3,127.6,140.6,137.9,153.2,137.9 M153.2,77c-21,0-38,17.1-38,38c0,21,17.1,38,38,38
						c21,0,38-17.1,38-38C191.2,94,174.2,77,153.2,77L153.2,77z M153.2,134.8c-10.9,0-19.8-8.9-19.8-19.8c0-10.9,8.9-19.8,19.8-19.8
						c10.9,0,19.8,8.9,19.8,19.8C173,125.9,164.1,134.8,153.2,134.8L153.2,134.8z"/>
				</g>
				<g>
					<path class="st0" d="M153.2,149.9c-19.3,0-34.9-15.7-34.9-34.9s15.7-34.9,34.9-34.9c19.3,0,34.9,15.7,34.9,34.9
						S172.5,149.9,153.2,149.9z M153.2,83.2c-17.6,0-31.8,14.3-31.8,31.8c0,17.6,14.3,31.8,31.8,31.8S185,132.6,185,115
						C185,97.5,170.7,83.2,153.2,83.2z M153.2,141c-14.3,0-26-11.7-26-26c0-14.3,11.7-26,26-26c14.3,0,26,11.7,26,26
						C179.2,129.3,167.5,141,153.2,141z M153.2,92.1c-12.6,0-22.9,10.3-22.9,22.9c0,12.6,10.3,22.9,22.9,22.9
						c12.6,0,22.9-10.3,22.9-22.9C176.1,102.4,165.8,92.1,153.2,92.1z"/>
					<path class="st1" d="M153.2,80.1c19.3,0,34.9,15.7,34.9,34.9s-15.7,34.9-34.9,34.9c-19.3,0-34.9-15.7-34.9-34.9
						S133.9,80.1,153.2,80.1 M153.2,146.8c17.6,0,31.8-14.3,31.8-31.8c0-17.6-14.3-31.8-31.8-31.8s-31.8,14.3-31.8,31.8
						C121.4,132.6,135.6,146.8,153.2,146.8 M153.2,89c14.3,0,26,11.7,26,26c0,14.3-11.7,26-26,26c-14.3,0-26-11.7-26-26
						C127.2,100.7,138.8,89,153.2,89 M153.2,137.9c12.6,0,22.9-10.3,22.9-22.9c0-12.6-10.3-22.9-22.9-22.9
						c-12.6,0-22.9,10.3-22.9,22.9C130.3,127.6,140.6,137.9,153.2,137.9 M153.2,77c-21,0-38,17.1-38,38c0,21,17.1,38,38,38
						c21,0,38-17.1,38-38C191.2,94,174.2,77,153.2,77L153.2,77z M153.2,134.8c-10.9,0-19.8-8.9-19.8-19.8c0-10.9,8.9-19.8,19.8-19.8
						c10.9,0,19.8,8.9,19.8,19.8C173,125.9,164.1,134.8,153.2,134.8L153.2,134.8z"/>
				</g>
			</g>
		</g>
		<path class="st1" d="M168.1,116.6c-0.9,0-1.6-0.7-1.6-1.6c0-7.3-6-13.3-13.3-13.3c-1.1,0-2.2,0.1-3.3,0.4
			c-0.8,0.2-1.7-0.3-1.9-1.1c-0.2-0.8,0.3-1.7,1.1-1.9c1.3-0.3,2.7-0.5,4-0.5c9.1,0,16.4,7.4,16.4,16.4
			C169.6,115.9,168.9,116.6,168.1,116.6z"/>
	</g>
</g>
</svg>
