<?xml version="1.0" encoding="utf-8"?>
<!-- Generator: Adobe Illustrator 24.0.1, SVG Export Plug-In . SVG Version: 6.00 Build 0)  -->
<svg version="1.1" id="Layer_1" xmlns="http://www.w3.org/2000/svg" xmlns:xlink="http://www.w3.org/1999/xlink" x="0px" y="0px"
	 viewBox="0 0 230 230" style="enable-background:new 0 0 230 230;" xml:space="preserve">
<style type="text/css">
	.st0{fill:#FFFFFF;}
	.st1{fill:#0D507A;}
	.st2{fill:#0A557E;}
	.st3{fill:none;}
	.st4{fill:#231F20;}
	.st5{fill:#F69570;}
	.st6{fill:#F48980;}
	.st7{fill:#08507B;}
	.st8{fill:#F7F9FC;}
	.st9{clip-path:url(#SVGID_4_);}
	.st10{fill:#0E547D;}
	.st11{clip-path:url(#SVGID_6_);}
	.st12{fill:#81C9EF;}
	.st13{fill:#11537C;}
	.st14{fill:#FFFFFF;stroke:#0A557E;stroke-width:1.778;stroke-linecap:round;stroke-linejoin:round;stroke-miterlimit:10;}
	.st15{fill:none;stroke:#CAE2F8;stroke-width:1.778;stroke-linecap:round;stroke-linejoin:round;stroke-miterlimit:10;}
	.st16{fill:#D0C2EF;}
	.st17{fill:#874ACE;}
	.st18{fill:#C5C6E3;}
	.st19{fill:#4F388D;}
	.st20{fill:none;stroke:#0D507A;stroke-width:3.1011;stroke-linecap:round;stroke-linejoin:round;stroke-miterlimit:10;}
	.st21{fill:#E8318D;}
	.st22{fill:none;stroke:#E8318D;stroke-linecap:round;stroke-linejoin:round;stroke-miterlimit:10;}
</style>
<g>
	<path class="st3" d="M153.1,198.7c-46.2,21-100.8,0.6-121.8-45.7S30.7,52.3,76.9,31.3s100.8-0.6,121.8,45.7
		S199.3,177.7,153.1,198.7"/>
	<g>
		<g>
			<path class="st0" d="M137.9,56c-3.6-0.6-7.1,1.8-7.8,5.5c-0.5,3.3-0.5,4.2-0.5,4.5c0,0.3,0,0.5,0.1,0.8l0,0l0,0
				c0.4,2.1,2.1,3.8,4.3,4.2c2.1,0.4,3.6-0.8,4.6-1.4l0.2-0.1c0.1-0.1,0.2-0.1,0.3-0.2c0.6-0.4,1.4-0.9,2.4-1.9l0.2-0.2l0,0
				c0.9-1,1.5-2.1,1.7-3.4C144,60.1,141.6,56.7,137.9,56L137.9,56z"/>
			<path class="st1" d="M136.8,55.9c0.4,0,0.8,0,1.1,0.1c3.6,0.6,6.1,4.1,5.5,7.8c-0.2,1.3-0.8,2.5-1.7,3.4l0,0l-0.2,0.2
				c-0.9,0.9-1.8,1.5-2.4,1.9c-0.1,0.1-0.2,0.1-0.3,0.2l-0.2,0.1c-0.8,0.6-2.1,1.5-3.8,1.5c-0.3,0-0.5,0-0.8-0.1
				c-2.2-0.4-3.9-2.1-4.3-4.2l0,0l0,0c0-0.2-0.1-0.5-0.1-0.8c0-0.3-0.1-1.2,0.5-4.5C130.7,58.2,133.6,55.9,136.8,55.9 M136.8,53.3
				c-4.5,0-8.4,3.2-9.2,7.7c-0.5,3.3-0.6,4.5-0.5,5.1c0,0.3,0.1,0.7,0.1,1l0.1,0.6l0.1,0.1c0.8,2.9,3.3,5.1,6.3,5.7
				c0.4,0.1,0.8,0.1,1.2,0.1c2.5,0,4.3-1.3,5.3-2l0.2-0.1c0,0,0.1-0.1,0.2-0.1c0.7-0.4,1.7-1.1,2.8-2.2l0.2-0.2l0.2-0.2l0.1-0.1
				c1.1-1.3,1.9-2.9,2.2-4.6c0.4-2.4-0.1-4.9-1.6-6.9c-1.4-2-3.6-3.4-6-3.8C137.8,53.4,137.3,53.3,136.8,53.3L136.8,53.3z"/>
		</g>
		<path class="st1" d="M140.9,63.3c0.4-2.2-1.1-4.4-3.4-4.8c-2.2-0.4-4.4,1.1-4.8,3.4c0,0-0.5,3.2-0.5,3.8c0,0,0,0,0,0
			c0,1.3,1,2.5,2.3,2.7c1.1,0.2,2.1-0.6,2.8-1.1c0.5-0.3,1.3-0.8,2.3-1.8c0,0,0,0,0,0C140.3,65,140.7,64.2,140.9,63.3z"/>
	</g>
	<g>
		<path class="st0" d="M163,122.3l-0.8-0.8c-2.2-2.2-5.7-2.2-7.9,0l1.6-1.6c2.4-2.4,2.4-6.2,0-8.6l-0.3-0.3c-2.4-2.4-6.2-2.4-8.6,0
			l0.6-0.6c2.4-2.4,2.4-6.2,0-8.6l-0.3-0.3c-2.4-2.4-6.2-2.4-8.6,0l18.1-18.1c2.3-2.3,2.3-6,0-8.3c-2.3-2.3-6-2.3-8.3,0l-28.3,28.3
			l-13,13V99.1c0-3.6-2.8-6.7-6.4-6.8c-3.7-0.1-6.8,2.9-6.8,6.6l0,25.1v0l0,0c0,3.4-1.3,6.9-4,9.5l-4.9,4.9L69.7,154
			c-0.8,0.8-0.8,2.2,0,3l24.6,24.6c0.8,0.8,2.2,0.8,3,0l9.8-9.8l3.4-2.7l5.3-0.8c0,0,0,0,0-0.1c4.6,0.9,9.6-0.5,13.2-4l18.6-18.6
			l7.4-7.4l8-8C165.2,128,165.2,124.4,163,122.3z"/>
		<g>
			<path class="st0" d="M107.2,116.5l41.4-41.4c2.3-2.3,6-2.3,8.3,0l0,0c2.3,2.3,2.3,6,0,8.3l-37.2,37.2"/>
			<path class="st1" d="M119.6,121.6c-0.3,0-0.5-0.1-0.7-0.3c-0.4-0.4-0.4-1.1,0-1.5l37.2-37.2c1.9-1.9,1.9-4.9,0-6.8
				c-1.9-1.9-4.9-1.9-6.8,0L108,117.2c-0.4,0.4-1.1,0.4-1.5,0s-0.4-1.1,0-1.5l41.4-41.4c2.7-2.7,7-2.7,9.7,0c2.7,2.7,2.7,7,0,9.7
				l-37.2,37.2C120.2,121.5,119.9,121.6,119.6,121.6z"/>
		</g>
		<path class="st1" d="M95.8,183.2c-0.8,0-1.6-0.3-2.2-0.9L69,157.7c-1.2-1.2-1.2-3.2,0-4.5l20.5-20.5c2.3-2.3,3.6-5.5,3.7-8.8
			c0,0,0,0,0-0.1V98.9c0-2.1,0.8-4,2.3-5.4c1.5-1.4,3.5-2.2,5.5-2.1c4.1,0.1,7.4,3.6,7.4,7.9v28.3c0.8,0.6,1.5,1.3,2.2,2
			c5.4,5.4,7.7,13.1,6.3,20.6c-0.1,0.6-0.7,0.9-1.2,0.8c-0.6-0.1-0.9-0.7-0.8-1.2c1.3-6.8-0.8-13.8-5.7-18.7
			c-0.8-0.8-1.6-1.5-2.4-2.1c-0.3-0.2-0.4-0.5-0.4-0.8V99.1c0-3.1-2.4-5.7-5.3-5.8c-1.5,0-2.9,0.5-4,1.6c-1.1,1-1.7,2.5-1.7,4V124
			c0,0,0,0,0,0.1c0,3.9-1.5,7.5-4.3,10.2l-20.5,20.5c-0.4,0.4-0.4,1.1,0,1.6L95,180.8c0.4,0.4,1.1,0.4,1.6,0l9.8-9.8
			c0.4-0.4,1.1-0.4,1.5,0c0.4,0.4,0.4,1.1,0,1.5l-9.8,9.8C97.4,182.9,96.6,183.2,95.8,183.2z"/>
		<g>
			<g>
				<g>
					<path class="st2" d="M65,216.2l-29.1-29.8c-2-2-2-5.3,0.1-7.3l29.1-28.4c2-2,5.3-2,7.3,0.1l29.1,29.8c2,2,2,5.3-0.1,7.3
						l-29.1,28.4C70.3,218.2,67,218.2,65,216.2z"/>
				</g>
				<g>
					<path class="st2" d="M64.3,216.9l-29.1-29.8c-1.2-1.2-1.8-2.8-1.8-4.4c0-1.7,0.7-3.2,1.9-4.4l29.1-28.4
						c2.4-2.4,6.4-2.3,8.8,0.1l29.1,29.8c2.4,2.4,2.3,6.4-0.1,8.8L73,217C70.6,219.4,66.7,219.3,64.3,216.9z M71.7,151.5
						c-1.6-1.6-4.2-1.7-5.8-0.1l-29.1,28.4c-0.8,0.8-1.2,1.8-1.2,2.9c0,1.1,0.4,2.1,1.2,2.9l29.1,29.8c1.6,1.6,4.2,1.7,5.8,0.1
						l29.1-28.4c1.6-1.6,1.7-4.2,0.1-5.8L71.7,151.5z"/>
				</g>
			</g>
			<g>
				<g>
					<g>
						<path class="st0" d="M77.9,176.1l-16.4-16.8c-0.4-0.4-0.4-1.1,0-1.5c0.4-0.4,1.1-0.4,1.5,0l16.4,16.8c0.4,0.4,0.4,1.1,0,1.5
							C79,176.5,78.3,176.5,77.9,176.1z"/>
					</g>
				</g>
				<g>
					<g>
						<path class="st0" d="M68.8,185.2l-16.4-16.8c-0.4-0.4-0.4-1.1,0-1.5c0.4-0.4,1.1-0.4,1.5,0l16.4,16.8c0.4,0.4,0.4,1.1,0,1.5
							C69.9,185.6,69.2,185.6,68.8,185.2z"/>
					</g>
				</g>
				<g>
					<g>
						<path class="st0" d="M59.7,194.3l-16.4-16.8c-0.4-0.4-0.4-1.1,0-1.5s1.1-0.4,1.5,0l16.4,16.8c0.4,0.4,0.4,1.1,0,1.5
							C60.8,194.7,60.1,194.7,59.7,194.3z"/>
					</g>
				</g>
			</g>
		</g>
		<g>
			<path class="st0" d="M115.9,168.2c0,0-5.2-0.1-8.8,3.5"/>
			<path class="st1" d="M107.1,172.7c-0.3,0-0.5-0.1-0.7-0.3c-0.4-0.4-0.4-1.1,0-1.5c3.8-3.8,9.3-3.8,9.5-3.8c0.6,0,1,0.5,1,1.1
				c0,0.6-0.5,1-1.1,1l0,0c-0.1,0-4.8,0-8,3.2C107.7,172.6,107.4,172.7,107.1,172.7z"/>
		</g>
		<path class="st1" d="M123.1,132.2c-0.1,0-0.1,0-0.2,0c-1.4-0.3-2.7-0.9-3.7-2l-0.3-0.3c-2.8-2.8-2.8-7.3,0-10l19.1-19.1
			c1.3-1.3,3.1-2.1,5-2.1c1.9,0,3.7,0.7,5,2.1l0.3,0.3c2.8,2.8,2.8,7.3,0,10l-16.6,16.6c-0.4,0.4-1.1,0.4-1.5,0
			c-0.4-0.4-0.4-1.1,0-1.5l16.6-16.6c2-2,2-5.1,0-7.1l-0.3-0.3c-0.9-0.9-2.2-1.5-3.6-1.5c-1.3,0-2.6,0.5-3.6,1.5l-19.1,19.1
			c-2,2-2,5.1,0,7.1l0.3,0.3c0.7,0.7,1.6,1.2,2.7,1.4c0.6,0.1,0.9,0.6,0.8,1.2C124.1,131.8,123.6,132.2,123.1,132.2z"/>
		<path class="st1" d="M133.4,139c-0.1,0-0.2,0-0.3,0c-1.2-0.3-2.2-1-3.1-1.8l-0.3-0.3c-2.8-2.8-2.8-7.3,0-10l16.6-16.6
			c2.8-2.8,7.3-2.8,10,0l0.3,0.3c2.8,2.8,2.8,7.3,0,10L141,136.2c-0.4,0.4-1.1,0.4-1.5,0c-0.4-0.4-0.4-1.1,0-1.5l15.7-15.7
			c2-2,2-5.1,0-7.1l-0.3-0.3c-2-2-5.1-2-7.1,0l-16.6,16.6c-2,2-2,5.1,0,7.1l0.3,0.3c0.6,0.6,1.4,1.1,2.2,1.3
			c0.5,0.2,0.9,0.7,0.7,1.3C134.3,138.7,133.9,139,133.4,139z"/>
		<g>
			<path class="st0" d="M155,138.1l-26,26c-4.8,4.8-12.2,5.6-17.8,2.3"/>
			<path class="st1" d="M118.6,169.5c-2.7,0-5.4-0.7-7.9-2.1c-0.5-0.3-0.7-0.9-0.4-1.4c0.3-0.5,0.9-0.7,1.4-0.4
				c5.4,3.1,12.2,2.2,16.6-2.2l26-26c0.4-0.4,1.1-0.4,1.5,0c0.4,0.4,0.4,1.1,0,1.5l-26,26C126.7,167.9,122.7,169.5,118.6,169.5z"/>
		</g>
		<path class="st1" d="M141.4,147.6c-0.1,0-0.3,0-0.4-0.1c-0.7-0.3-1.3-0.8-1.8-1.3l-0.8-0.8c-2.6-2.6-2.6-6.8,0-9.3l15.3-15.3
			c2.6-2.6,6.8-2.6,9.3,0l0.8,0.8c2.6,2.6,2.6,6.8,0,9.3l-15.3,15.3c-0.4,0.4-1,0.4-1.4,0c-0.4-0.4-0.4-1,0-1.4l15.3-15.3
			c1.8-1.8,1.8-4.7,0-6.4l-0.8-0.8c-1.8-1.8-4.7-1.8-6.4,0l-15.3,15.3c-1.8,1.8-1.8,4.7,0,6.4l0.8,0.8c0.4,0.4,0.8,0.7,1.3,0.9
			c0.5,0.2,0.7,0.9,0.5,1.4C142.1,147.4,141.8,147.6,141.4,147.6z"/>
	</g>
	<g>
		<g>
			<path class="st0" d="M91.2,54L91.2,54c-0.3,0.2-0.6,0.4-0.8,0.7l-3.6,4.2c-0.9,1-1.2,2.5-1,4c0.2,1.5,1,3,2.2,4l11.5,10.4
				c1.9,1.7,4.4,2,6.2,0.8c0.5-0.4,1-0.8,1.3-1.4l1.6-3c1.1-1.9,0.7-4.5-0.9-6.5l-9.5-11.7C96.2,53.3,93.2,52.6,91.2,54L91.2,54z"/>
			<path class="st1" d="M93.6,53.3c1.6,0,3.3,0.8,4.5,2.3l9.5,11.7c1.6,2,2,4.6,0.9,6.5l-1.6,3c-0.3,0.6-0.7,1.1-1.3,1.4
				c-0.7,0.5-1.5,0.7-2.4,0.7c-1.3,0-2.7-0.5-3.8-1.6L87.9,66.9c-1.2-1.1-1.9-2.5-2.2-4c-0.2-1.5,0.2-2.9,1-4l3.6-4.2
				c0.2-0.3,0.5-0.5,0.8-0.7C91.9,53.5,92.7,53.3,93.6,53.3 M93.6,50.1c-1.5,0-3,0.4-4.2,1.3c-0.5,0.4-1,0.8-1.4,1.3l-3.6,4.2
				c-1.5,1.7-2.1,4.1-1.8,6.5c0.3,2.2,1.5,4.4,3.2,5.9l11.5,10.4c1.7,1.5,3.8,2.4,5.9,2.4c1.5,0,3-0.4,4.2-1.3
				c0.9-0.6,1.7-1.5,2.2-2.5l1.6-3c1.7-3,1.2-7.1-1.2-10l-9.5-11.7C98.7,51.4,96.2,50.1,93.6,50.1L93.6,50.1z"/>
		</g>
		<path class="st1" d="M101.2,75L89.7,64.6c-1-0.9-1.2-2.3-0.5-3.2l3.6-4.2c0.8-0.9,2.2-0.7,3.1,0.4l9.5,11.7
			c0.6,0.8,0.8,1.8,0.4,2.6l-1.6,3C103.6,75.8,102.2,75.9,101.2,75z"/>
	</g>
	<g>
		<g>
			<path class="st0" d="M112.3,45.1L112.3,45.1c-1.3,0.9-1.9,2.5-1.7,4l1.4,9.2c0.2,1.2,0.9,2.3,1.9,2.9c1,0.7,2.3,0.9,3.4,0.5
				l2.2-0.6c0.5-0.1,1-0.4,1.4-0.7c1-0.8,1.7-2,1.7-3.3l0.3-8.9c0-1.2-0.4-2.4-1.3-3.2c-0.9-0.8-2.1-1.3-3.3-1.1l-3.9,0.3
				C113.6,44.3,112.9,44.6,112.3,45.1L112.3,45.1z"/>
			<path class="st1" d="M118.7,43.9c1.1,0,2.1,0.4,2.9,1.2c0.9,0.8,1.4,2,1.3,3.2l-0.3,8.9c0,1.3-0.7,2.5-1.7,3.3
				c-0.4,0.3-0.9,0.5-1.4,0.7l-2.2,0.6c-0.4,0.1-0.7,0.1-1.1,0.1c-0.8,0-1.6-0.2-2.3-0.7c-1-0.7-1.7-1.7-1.9-2.9l-1.4-9.2
				c-0.2-1.6,0.4-3.1,1.7-4c0.6-0.5,1.4-0.7,2.2-0.8l3.9-0.3C118.4,43.9,118.6,43.9,118.7,43.9 M118.7,41c-0.2,0-0.4,0-0.6,0
				l-3.9,0.3c-1.3,0.1-2.6,0.6-3.6,1.4c-2.1,1.6-3.2,4.2-2.8,6.8l1.4,9.2c0.3,2,1.4,3.8,3.1,4.9c1.2,0.8,2.5,1.2,3.9,1.2
				c0.6,0,1.3-0.1,1.9-0.2l2.2-0.6c0.9-0.2,1.7-0.6,2.4-1.1c1.8-1.3,2.8-3.3,2.9-5.5l0.3-8.9c0.1-2-0.7-4-2.2-5.4
				C122.2,41.7,120.5,41,118.7,41L118.7,41z"/>
		</g>
		<path class="st1" d="M114.8,57.8l-1.4-9.2c-0.1-0.8,0.4-1.5,1.2-1.6l3.9-0.3c0.8-0.1,1.5,0.6,1.5,1.4l-0.3,8.9
			c0,0.6-0.4,1.1-1,1.3l-2.2,0.6C115.7,59.2,114.9,58.6,114.8,57.8z"/>
	</g>
</g>
</svg>
