<?xml version="1.0" encoding="utf-8"?>
<!-- Generator: Adobe Illustrator 24.0.1, SVG Export Plug-In . SVG Version: 6.00 Build 0)  -->
<svg version="1.1" id="Layer_1" xmlns="http://www.w3.org/2000/svg" xmlns:xlink="http://www.w3.org/1999/xlink" x="0px" y="0px"
	 viewBox="0 0 230 230" style="enable-background:new 0 0 230 230;" xml:space="preserve">
<style type="text/css">
	.st0{fill:#FFFFFF;}
	.st1{fill:#0D507A;}
	.st2{fill:#0A557E;}
	.st3{fill:none;}
	.st4{fill:#231F20;}
	.st5{fill:#F69570;}
	.st6{fill:#F48980;}
	.st7{fill:#08507B;}
	.st8{fill:#F7F9FC;}
	.st9{clip-path:url(#SVGID_4_);}
	.st10{fill:#0E547D;}
	.st11{clip-path:url(#SVGID_6_);}
	.st12{fill:#81C9EF;}
	.st13{fill:#11537C;}
	.st14{fill:#FFFFFF;stroke:#0A557E;stroke-width:1.778;stroke-linecap:round;stroke-linejoin:round;stroke-miterlimit:10;}
	.st15{fill:none;stroke:#CAE2F8;stroke-width:1.778;stroke-linecap:round;stroke-linejoin:round;stroke-miterlimit:10;}
	.st16{fill:#D0C2EF;}
	.st17{fill:#874ACE;}
	.st18{fill:#C5C6E3;}
	.st19{fill:#4F388D;}
	.st20{fill:none;stroke:#0D507A;stroke-width:3.1011;stroke-linecap:round;stroke-linejoin:round;stroke-miterlimit:10;}
	.st21{fill:#E8318D;}
	.st22{fill:none;stroke:#E8318D;stroke-linecap:round;stroke-linejoin:round;stroke-miterlimit:10;}
</style>
<g>
	<g>
		<circle class="st3" cx="115" cy="115" r="92"/>
	</g>
	<g>
		<g>
			<circle class="st0" cx="115" cy="113.8" r="57.8"/>
			<path class="st2" d="M115,173.2c-32.7,0-59.4-26.6-59.4-59.4S82.3,54.4,115,54.4s59.4,26.6,59.4,59.4S147.7,173.2,115,173.2z
				 M115,57.5c-31,0-56.3,25.2-56.3,56.3S84,170.1,115,170.1s56.3-25.2,56.3-56.3S146,57.5,115,57.5z"/>
		</g>
		<g>
			<path class="st2" d="M158.4,116.5c1.4-1.5,2.8-3.1,4.5-4.2c0.8-0.6,1.8-1.1,2.6-1.8c1.1-0.9,1.9-2.1,2.8-3.3
				c1.2-1.7,2.3-3.4,3.5-5.1c-3.4-16.6-13.9-30.6-28.2-38.7c-1.5,0.6-2.4,2.4-2.6,4.1c-0.3,1.8-0.1,3.7-0.8,5.4
				c-1.3,3.3-5.7,4.8-9,3.5c-1.5-0.6-2.8-1.7-4.2-2.5c-3.3-1.8-7.8-1.7-10.4,1c-1.4,1.4-2,4-1.8,6c0.2,2,0.6,4.2-0.6,5.8
				c-0.7,1.1-2,1.7-3,2.6c-1.3,1.1-2.1,2.7-2.9,4.2c-0.9,1.9-1.9,3.9-2.2,5.9c-0.3,2.1,0,4.4,1.4,6c1.2,1.5,2.3,3.6,3.7,4.9
				c1.4,1.3,3.2,2.2,5.2,2.3c1.5,0.1,2.9-0.3,4.3-0.7c1.3-0.4,2.7-0.8,4-1.1c1.4-0.4,2.8-0.8,4.1-0.4c1.5,0.4,2.9,1.9,2.9,3.5
				c0,1.6-0.7,3-1.2,4.5c-0.7,2.3-0.7,4.7,0,7c0.6,2.2,2.6,3.9,4,5.7c1.5,1.8,2.8,3.8,2.8,6.1c0,1.7,0.4,3.8,0.9,5.4
				c0.5,1.6,1.4,3.2,2.9,4c1.1,0.6,2.5,0.4,3.5-0.2c1.1-0.6,1.8-1.6,2.5-2.6c3.1-4.3,5.6-9.1,7.3-14.1c1-2.8,1.7-5.8,1.1-8.7
				c-0.2-0.7,0.6-1.4,1-2.1C157,118,157.7,117.2,158.4,116.5z"/>
		</g>
		<g>
			<path class="st2" d="M61.7,91.3l0.1,0c-0.3,0.1-0.3,0.7-0.1,1.1c0.6,1.5,0.9,3.2,0.7,4.9c-0.2,2.2-1.1,4.3-1.4,6.5
				c-0.4,2.2-0.1,4.7,1.5,6.2c1.9,1.7,5.3,1.8,6.4,4.1c1.9,0.8,2.5,3.2,4.4,4c1.3,0.5,2.7,0.1,4.1-0.1c1.4-0.2,3.1,0.1,3.6,1.4
				c0.8,0.5,0.6,2.4,0,3.1c-0.6,0.7-1.5,1.2-2,2.1c-0.5,1-0.2,2.2,0.1,3.3c0.3,1.1,0.7,2.2,1.4,3.1c1,1.3,2.6,2,3.4,3.4
				c0.4,0.8,0.5,1.9,1.2,2.5c1.9,1.7,2.5,4.5,1.9,7c-0.6,2.7,0.2,5.1,1.1,7.5c0.6,1.6,1.2,3.3,1.8,4.9c0.6,1.6,2.3,2.8,3.4,4.1
				c0.5,0.6,1.1,1.3,1.8,1.9c1.1,1,2.8,0.2,2.8-1.3c0-1.2-0.3-2.4-0.5-3.6c-0.5-2.1-0.8-4.3,0.3-6.1c0.6-0.9,1.5-1.6,2-2.5
				c0.5-0.8,0.7-1.8,0.5-2.7c-0.2-1.4-1.2-2.7-0.9-4.1c0.6-3.1,2.5-5.7,4.4-8.2c0.8-1,1.5-2,2.3-3c2.1-2.7,4.3-5.7,4.3-9.2
				c0-3.2-1.9-6.4-5-6.9c-1.3-0.2-2.6,0-3.9-0.1c-1.3-0.1-2.7-0.7-3.3-1.8c-1.6-0.9-2.4-2.7-4.1-3.4c-1.9-0.7-4.1,0.1-5.8,1.3
				c-1.7,1.2-3.1,2.7-4.9,3.6c-0.9,0.5-2,0.4-2.9,0l-9.9-4.5c-0.3-0.2-0.7-0.5-0.5-0.8c-0.4-0.8-0.9-1.8-1-2.6
				c-0.1-0.9,0.1-1.9,0.7-2.5c0.5-0.5,1.2-0.7,1.9-0.9c1-0.3,2-0.6,3-0.9c1.3-0.4,2.7-0.8,3.7-1.7c1.9-1.7,2.2-4.9,4.2-6.5
				c1.2-1,2.5-2.2,4-2.6c1.5-0.5,3.1-0.8,4.2-2c2-2.1,1.1-5.8,0.4-8.4c-0.2-0.9-0.1-1.8,0.3-2.6c0.9-1.6,2.2-3.8,4.1-4.1
				c0.6-0.1,1.3-0.3,1.8-0.6c1.7-1.1,1-2.6,0.3-3.7c-0.7-1.1-1.3-2.3-2-3.4c0.3-0.1,0.6-0.4,0.8-0.7c-0.3-1.4,0.2-3.1,1.3-3.9
				c0.4-0.3,0.8-0.5,1.3-0.5c0.8,0,1.5,0.6,2,1.3c0.4,0.7,0.6,1.5,0.9,2.3c0.8,1.9,2.4,3.5,4.6,3.5c0.6,0,1.2-0.1,1.7-0.4
				c2.1-1.3,1.9-3.9,1.7-6.1c-0.2-2,0.1-4.3,1.8-5.2l0.1-0.4C89.1,57.3,70,71.5,61.7,91.3z"/>
		</g>
	</g>
	<g>
		<g>
			<path class="st0" d="M127.7,132h57.8c7,0,12.7,5.7,12.7,12.7v34.7c0,6.8-5.5,12.5-12.3,12.7v15l-12-14.9h-46.3
				c-7,0-12.7-5.7-12.7-12.7v-34.7C115,137.8,120.7,132,127.7,132z"/>
			<path class="st2" d="M186,208.7c-0.5,0-0.9-0.2-1.2-0.6l-11.5-14.4h-45.5c-7.9,0-14.3-6.4-14.3-14.3v-34.7
				c0-7.9,6.4-14.3,14.3-14.3h57.8c7.9,0,14.3,6.4,14.3,14.3v34.7c0,7.2-5.3,13.1-12.3,14.1v13.5c0,0.7-0.4,1.2-1,1.5
				C186.4,208.6,186.2,208.7,186,208.7z M127.7,133.6c-6.2,0-11.2,5-11.2,11.2v34.7c0,6.2,5,11.2,11.2,11.2H174
				c0.5,0,0.9,0.2,1.2,0.6l9.2,11.5v-10.6c0-0.8,0.7-1.5,1.5-1.5c5.9-0.2,10.8-5.2,10.8-11.2v-34.7c0-6.2-5-11.2-11.2-11.2H127.7z"
				/>
		</g>
		<g>
			<g>
				<path class="st2" d="M180.6,155c-2.4,0-3.7-1.5-4.6-2.6c-0.8-1-1.3-1.5-2.2-1.5c-0.9,0-1.4,0.5-2.2,1.5
					c-0.9,1.1-2.2,2.6-4.6,2.6c-2.4,0-3.7-1.5-4.6-2.6c-0.8-1-1.3-1.5-2.2-1.5c-0.9,0-1.4,0.5-2.2,1.5c-0.9,1.1-2.2,2.6-4.6,2.6
					c-2.4,0-3.7-1.5-4.6-2.6c-0.8-1-1.3-1.5-2.2-1.5c-0.9,0-1.4,0.5-2.2,1.5c-0.9,1.1-2.2,2.6-4.6,2.6c-2.4,0-3.7-1.5-4.6-2.6
					c-0.8-1-1.3-1.5-2.2-1.5c-0.9,0-1.6-0.7-1.6-1.6s0.7-1.6,1.6-1.6c2.4,0,3.7,1.5,4.6,2.6c0.8,1,1.3,1.5,2.2,1.5
					c0.9,0,1.4-0.5,2.2-1.5c0.9-1.1,2.2-2.6,4.6-2.6c2.4,0,3.7,1.5,4.6,2.6c0.8,1,1.3,1.5,2.2,1.5c0.9,0,1.4-0.5,2.2-1.5
					c0.9-1.1,2.2-2.6,4.6-2.6c2.4,0,3.7,1.5,4.6,2.6c0.8,1,1.3,1.5,2.2,1.5c0.9,0,1.4-0.5,2.2-1.5c0.9-1.1,2.2-2.6,4.6-2.6
					c2.4,0,3.7,1.5,4.6,2.6c0.8,1,1.3,1.5,2.2,1.5c0.9,0,1.6,0.7,1.6,1.6C182.1,154.3,181.4,155,180.6,155z"/>
			</g>
			<g>
				<path class="st2" d="M180.6,166.8c-2.4,0-3.7-1.5-4.6-2.6c-0.8-1-1.3-1.5-2.2-1.5c-0.9,0-1.4,0.5-2.2,1.5
					c-0.9,1.1-2.2,2.6-4.6,2.6c-2.4,0-3.7-1.5-4.6-2.6c-0.8-1-1.3-1.5-2.2-1.5c-0.9,0-1.4,0.5-2.2,1.5c-0.9,1.1-2.2,2.6-4.6,2.6
					c-2.4,0-3.7-1.5-4.6-2.6c-0.8-1-1.3-1.5-2.2-1.5c-0.9,0-1.4,0.5-2.2,1.5c-0.9,1.1-2.2,2.6-4.6,2.6c-2.4,0-3.7-1.5-4.6-2.6
					c-0.8-1-1.3-1.5-2.2-1.5c-0.9,0-1.6-0.7-1.6-1.6c0-0.9,0.7-1.6,1.6-1.6c2.4,0,3.7,1.5,4.6,2.6c0.8,1,1.3,1.5,2.2,1.5
					c0.9,0,1.4-0.5,2.2-1.5c0.9-1.1,2.2-2.6,4.6-2.6c2.4,0,3.7,1.5,4.6,2.6c0.8,1,1.3,1.5,2.2,1.5c0.9,0,1.4-0.5,2.2-1.5
					c0.9-1.1,2.2-2.6,4.6-2.6c2.4,0,3.7,1.5,4.6,2.6c0.8,1,1.3,1.5,2.2,1.5c0.9,0,1.4-0.5,2.2-1.5c0.9-1.1,2.2-2.6,4.6-2.6
					c2.4,0,3.7,1.5,4.6,2.6c0.8,1,1.3,1.5,2.2,1.5c0.9,0,1.6,0.7,1.6,1.6C182.1,166.1,181.4,166.8,180.6,166.8z"/>
			</g>
			<g>
				<path class="st2" d="M180.6,178.1c-2.4,0-3.7-1.5-4.6-2.6c-0.8-1-1.3-1.5-2.2-1.5c-0.9,0-1.4,0.5-2.2,1.5
					c-0.9,1.1-2.2,2.6-4.6,2.6c-2.4,0-3.7-1.5-4.6-2.6c-0.8-1-1.3-1.5-2.2-1.5c-0.9,0-1.4,0.5-2.2,1.5c-0.9,1.1-2.2,2.6-4.6,2.6
					c-2.4,0-3.7-1.5-4.6-2.6c-0.8-1-1.3-1.5-2.2-1.5c-0.9,0-1.4,0.5-2.2,1.5c-0.9,1.1-2.2,2.6-4.6,2.6c-2.4,0-3.7-1.5-4.6-2.6
					c-0.8-1-1.3-1.5-2.2-1.5c-0.9,0-1.6-0.7-1.6-1.6c0-0.9,0.7-1.6,1.6-1.6c2.4,0,3.7,1.5,4.6,2.6c0.8,1,1.3,1.5,2.2,1.5
					c0.9,0,1.4-0.5,2.2-1.5c0.9-1.1,2.2-2.6,4.6-2.6c2.4,0,3.7,1.5,4.6,2.6c0.8,1,1.3,1.5,2.2,1.5c0.9,0,1.4-0.5,2.2-1.5
					c0.9-1.1,2.2-2.6,4.6-2.6c2.4,0,3.7,1.5,4.6,2.6c0.8,1,1.3,1.5,2.2,1.5c0.9,0,1.4-0.5,2.2-1.5c0.9-1.1,2.2-2.6,4.6-2.6
					c2.4,0,3.7,1.5,4.6,2.6c0.8,1,1.3,1.5,2.2,1.5c0.9,0,1.6,0.7,1.6,1.6S181.4,178.1,180.6,178.1z"/>
			</g>
		</g>
	</g>
</g>
</svg>
