<svg xmlns="http://www.w3.org/2000/svg" width="155.155" height="39.72" viewBox="0 0 155.155 39.72"><defs><style>.a{fill:#0d507a;}</style></defs><path class="a" d="M1,1.06V40.78H40.762V1.06Zm5.628,9.6h12.52v2.11H6.628Zm11.86,9.113v2.111H7.288V19.777Zm.733,11.4H6.554V29.067H19.221Zm16.444-5.6c0,3.516-2.962,5.6-7.451,5.6h-6.8V29.1H28.27c3.11,0,5.046-1.377,5.046-3.662v-.059c0-2.228-1.877-3.516-5.456-3.516H21.414V19.806h6.037c2.788,0,4.723-1.26,4.723-3.663v-.056c0-2.022-1.614-3.342-4.547-3.342H21.414V10.664h6.419A7.546,7.546,0,0,1,33.2,12.481a4.551,4.551,0,0,1,1.32,3.282v.056a4.953,4.953,0,0,1-3.256,4.748c2.434.731,4.4,2.139,4.4,4.952Z" transform="translate(-1 -1.06)"/><path class="a" d="M932.41,234.637V219.2h11.33v2.143H934.7v4.441h8.086v2.143H934.7v4.568h9.144v2.143Z" transform="translate(-880.613 -207.058)"/><path class="a" d="M938,224.75h10.711v1.524h-9.038v5.059h8.085v1.524h-8.085v5.186h9.144v1.525H938Z" transform="translate(-885.892 -212.299)"/><path class="a" d="M1224.74,234.634V219.2h5.453c4.739,0,8.183,3.228,8.183,7.676,0,4.516-3.442,7.76-8.183,7.76Zm5.453-2.163c3.432,0,5.829-2.267,5.829-5.512a5.46,5.46,0,0,0-5.829-5.6h-3.162v11.111Z" transform="translate(-1156.69 -207.058)"/><path class="a" d="M1230.28,224.75h5.144c4.657,0,7.874,3.2,7.874,7.366v.042c0,4.17-3.217,7.409-7.874,7.409h-5.144Zm1.673,1.545v11.728h3.471c3.746,0,6.139-2.54,6.139-5.822v-.042a5.768,5.768,0,0,0-6.139-5.864Z" transform="translate(-1161.921 -212.299)"/><path class="a" d="M1561.888,234.869c-3.99,0-6.468-2.584-6.468-6.747V219.2h2.291v8.819c0,2.977,1.539,4.684,4.22,4.684s4.157-1.626,4.157-4.581V219.2h2.292V228C1568.379,232.3,1565.953,234.869,1561.888,234.869Z" transform="translate(-1468.98 -207.058)"/><path class="a" d="M1561,233.365V224.75h1.673v8.51c0,3.2,1.715,5,4.53,5,2.732,0,4.466-1.651,4.466-4.89V224.75h1.673v8.489c0,4.318-2.477,6.562-6.181,6.562C1563.494,239.8,1561,237.557,1561,233.365Z" transform="translate(-1474.249 -212.299)"/><path class="a" d="M1885.68,234.634V219.2h6.617a5.716,5.716,0,0,1,4.09,1.4,3.6,3.6,0,0,1,1.046,2.593,3.788,3.788,0,0,1-1.882,3.415,3.764,3.764,0,0,1,2.708,3.634c0,2.727-2.179,4.394-5.687,4.394Zm6.935-2.119c2.086,0,3.331-.874,3.331-2.337,0-1.886-1.973-2.273-3.628-2.273h-4.368v4.61Zm-.593-6.71c1.94,0,3.1-.874,3.1-2.337,0-1.379-1.084-2.146-2.972-2.146h-4.2V225.8Z" transform="translate(-1780.874 -207.058)"/><path class="a" d="M1891.23,224.75h6.308a5.443,5.443,0,0,1,3.874,1.312,3.3,3.3,0,0,1,.953,2.371v.042a3.577,3.577,0,0,1-2.35,3.429c1.757.529,3.175,1.545,3.175,3.577v.043c0,2.54-2.138,4.044-5.376,4.044h-6.583Zm9.441,3.917c0-1.46-1.165-2.413-3.281-2.413h-4.509v5.1h4.382c2.011,0,3.408-.91,3.408-2.646Zm-3.112,4.17h-4.678v5.228h4.975c2.243,0,3.641-1,3.641-2.646v-.042c0-1.61-1.355-2.541-3.937-2.541Z" transform="translate(-1786.114 -212.299)"/><path class="a" d="M2185.451,232.84l-1.736-3.916h-7.664l-1.757,3.916H2171.9l7.031-15.54h1.966l7.034,15.54Zm-2.667-6.059-2.89-6.468-2.908,6.468Z" transform="translate(-2051.235 -205.264)"/><path class="a" d="M2187.253,222.85h1.567l6.752,14.924h-1.8l-1.736-3.916h-8.066l-1.756,3.916H2180.5Zm4.125,9.483-3.365-7.536-3.387,7.536Z" transform="translate(-2059.356 -210.505)"/><path class="a" d="M2516.146,230.585a7.715,7.715,0,0,1-7.845-7.93,7.852,7.852,0,0,1,7.887-8.015,7.715,7.715,0,0,1,7.845,7.93A7.852,7.852,0,0,1,2516.146,230.585Zm0-13.781a5.816,5.816,0,1,0,5.533,5.851A5.51,5.51,0,0,0,2516.146,216.8Z" transform="translate(-2368.878 -202.752)"/><path class="a" d="M2513.84,227.9v-.042a7.558,7.558,0,1,1,15.114-.042v.042a7.558,7.558,0,1,1-15.114.042Zm13.378,0v-.042a5.89,5.89,0,0,0-5.843-6.118,5.819,5.819,0,0,0-5.8,6.078v.042a5.89,5.89,0,0,0,5.843,6.118A5.821,5.821,0,0,0,2527.218,227.9Z" transform="translate(-2374.11 -207.993)"/></svg>