<svg xmlns="http://www.w3.org/2000/svg" viewBox="0 0 248.63 215.68"><defs><style>.cls-1{fill:#c8edff;}.cls-2{fill:#fff;}.cls-3{fill:#11537c;}.cls-4{fill:#d0c2ef;}</style></defs><title>Element 1</title><g id="Ebene_2" data-name="Ebene 2"><g id="Layer_1" data-name="Layer 1"><circle class="cls-1" cx="110.39" cy="106.48" r="85.63"/><path class="cls-2" d="M202,150.68a1.89,1.89,0,0,0-2.81.46c-.7,1.12-.7,2.87,0,3.38s3.2.16,3.77-.58S203,151.52,202,150.68Z"/><path class="cls-2" d="M214.73,152a2.24,2.24,0,0,0-3.95-1.9,3,3,0,0,0,.07,3.09C211.66,153.9,214.32,153.09,214.73,152Z"/><path class="cls-2" d="M143.68,156.71a1.82,1.82,0,0,0-2.55.15c-.93,1.14-1,3.23-.09,3.71.71.39,2.73-.17,3.36-.92S144.56,157.53,143.68,156.71Z"/><path class="cls-2" d="M196.11,92.22a1.78,1.78,0,0,0-2.55.11c-.89,1.11-1,3.22-.15,3.75a4.32,4.32,0,0,0,3.48-.53C197.48,94.93,197.05,93.13,196.11,92.22Z"/><path class="cls-2" d="M132.2,158.05a2.31,2.31,0,0,0-3.27.33,2.87,2.87,0,0,0,.09,3.07c.67.67,2.88.17,3.68-.83A2.06,2.06,0,0,0,132.2,158.05Z"/><path class="cls-2" d="M146.7,100.66c.48.54,1.68.35,2.62-.42a1.91,1.91,0,0,0,.34-2.88,2.2,2.2,0,0,0-2.65-.44A2.84,2.84,0,0,0,146.7,100.66Z"/><path class="cls-2" d="M198.55,142.72a2.17,2.17,0,1,0,2-3.82,2.09,2.09,0,0,0-2.56.61A2.23,2.23,0,0,0,198.55,142.72Z"/><path class="cls-2" d="M152.82,159.3c.79.47,2.39-.19,3.13-1.29a1.83,1.83,0,0,0-.63-2.48,2.13,2.13,0,0,0-2.89.41C151.8,157,152,158.83,152.82,159.3Z"/><path class="cls-2" d="M143.28,38.49a2,2,0,0,0-2.62.3,3,3,0,0,0,.24,3.47c.59.57,2.07.12,2.88-.88A2,2,0,0,0,143.28,38.49Z"/><path class="cls-2" d="M190.17,141.67a2.62,2.62,0,0,0-3-1.51,1.72,1.72,0,0,0-1.44,1.76c0,1.2,1,1.61,1.88,1.89s1.62.46,2.25-.1A2,2,0,0,0,190.17,141.67Z"/><path class="cls-2" d="M137.76,98.25a1.74,1.74,0,0,0-2.55.11,3.29,3.29,0,0,0-.31,3.49c.48.68,2.52.32,3.36-.59C138.86,100.62,138.61,99.16,137.76,98.25Z"/><path class="cls-2" d="M208,91.26a2.11,2.11,0,0,0-3.18.33,3.11,3.11,0,0,0,.09,3.08c.64.7,2.82.18,3.6-.87A2,2,0,0,0,208,91.26Z"/><path class="cls-2" d="M99.58,67.14a2.75,2.75,0,0,0-3.39,0,2.15,2.15,0,0,0,.3,2.93,2.17,2.17,0,0,0,3,.14A2.48,2.48,0,0,0,99.58,67.14Z"/><path class="cls-2" d="M193.17,176a2.63,2.63,0,0,0-3.36,0,2.41,2.41,0,0,0,.11,2.68,2.28,2.28,0,0,0,3.28,0A2.16,2.16,0,0,0,193.17,176Z"/><path class="cls-2" d="M130.11,172.76a2.22,2.22,0,0,0,3.22-.17,2,2,0,0,0,.1-2.58,2.53,2.53,0,0,0-3.3-.14A2,2,0,0,0,130.11,172.76Z"/><path class="cls-2" d="M131.64,39.62a1.71,1.71,0,0,0-2.2.06,3.06,3.06,0,0,0-.28,3.72c.51.59,2,.29,2.89-.57A2.28,2.28,0,0,0,131.64,39.62Z"/><path class="cls-2" d="M204.61,174.46a2.47,2.47,0,0,0-3.24.55,2.3,2.3,0,0,0,.7,2.87,2.26,2.26,0,0,0,2.9-.48A2.36,2.36,0,0,0,204.61,174.46Z"/><path class="cls-2" d="M201.89,32.7a2.18,2.18,0,0,0-2.66.08c-.78.85-.81,2.78,0,3.42s2.59,0,3.28-.93A2,2,0,0,0,201.89,32.7Z"/><path class="cls-2" d="M74.46,57.77a2.19,2.19,0,0,0-3.21.23,2.1,2.1,0,0,0,.31,2.58,2.27,2.27,0,0,0,3.23-.28A1.89,1.89,0,0,0,74.46,57.77Z"/><path class="cls-2" d="M122.65,101.12a2.17,2.17,0,0,0,.66,1.84,2.71,2.71,0,0,0,2.42-.07,1.89,1.89,0,0,0,.57-3.29,2.15,2.15,0,0,0-2.32-.36A1.84,1.84,0,0,0,122.65,101.12Z"/><path class="cls-2" d="M184.52,93.46a2.27,2.27,0,0,0-3,.39c-.69.78-.7,2.51,0,3s3.32.34,3.8-.46A2.76,2.76,0,0,0,184.52,93.46Z"/><path class="cls-2" d="M190.67,152.14a2.21,2.21,0,0,0-2.95-.08,2.51,2.51,0,0,0-.4,3.28c.62.62,3,.46,3.79-.25C191.71,154.53,191.46,152.92,190.67,152.14Z"/><path class="cls-2" d="M129.66,146a2.1,2.1,0,0,0-2.47,1.61c-.2.91.43,1.68,1.65,1.91a10,10,0,0,0,2,.14c.24,0,.48-.22.79-.38a3.81,3.81,0,0,0,.15-1.13A2.47,2.47,0,0,0,129.66,146Z"/><path class="cls-2" d="M242.71,87.42a2.22,2.22,0,0,0-2.87.8,2,2,0,0,0,.36,2.57c1,.67,3,.62,3.42-.09A2.87,2.87,0,0,0,242.71,87.42Z"/><path class="cls-2" d="M187.48,37.33c.63.58,2.83.24,3.36-.53s0-2.54-1-3.24a1.75,1.75,0,0,0-2.19.36C186.93,34.9,186.84,36.73,187.48,37.33Z"/><path class="cls-2" d="M139.8,148.28a2.36,2.36,0,0,0,3-.12,2.23,2.23,0,0,0-.24-2.95,2.08,2.08,0,0,0-2.92.12A2.22,2.22,0,0,0,139.8,148.28Z"/><path class="cls-2" d="M234.4,150.23a1.89,1.89,0,0,0,2.85.11,2.06,2.06,0,0,0,.15-2.9,2.48,2.48,0,0,0-3.27.23A1.94,1.94,0,0,0,234.4,150.23Z"/><path class="cls-2" d="M82.39,47.82a1.19,1.19,0,0,0,1.38.6,2.5,2.5,0,0,0,1.78-2.06,2.14,2.14,0,0,0-.67-1.85,1.79,1.79,0,0,0-2.77.57A2.88,2.88,0,0,0,82.39,47.82Z"/><path class="cls-2" d="M198.78,116.14a2.63,2.63,0,0,0-3,.08,2.1,2.1,0,0,0,3.08,2.87A2.16,2.16,0,0,0,198.78,116.14Z"/><path class="cls-2" d="M170.13,97.89a2,2,0,0,0,2.93-.19,2,2,0,0,0-.16-2.93,2.53,2.53,0,0,0-3,.16A2.17,2.17,0,0,0,170.13,97.89Z"/><path class="cls-2" d="M106,45.43a1.88,1.88,0,0,0,2.58-.25,2,2,0,0,0-.13-2.91,2.35,2.35,0,0,0-3,.24A2.21,2.21,0,0,0,106,45.43Z"/><path class="cls-2" d="M187.19,117.47a2.61,2.61,0,0,0-3.33.13,2.13,2.13,0,0,0,3.46,2.47A2.1,2.1,0,0,0,187.19,117.47Z"/><path class="cls-2" d="M171.44,109.7a2.09,2.09,0,0,0,2.44-3.39,2.28,2.28,0,0,0-3,.47A2.08,2.08,0,0,0,171.44,109.7Z"/><path class="cls-2" d="M212.89,138.19a2.68,2.68,0,0,0-3.34.35,2.64,2.64,0,0,0,.13,3c.59.63,1.92.39,2.91-.54S213.7,138.86,212.89,138.19Z"/><path class="cls-2" d="M158.46,99.06a2.08,2.08,0,0,0,2.77-3.1,2.52,2.52,0,0,0-3,.16A2.16,2.16,0,0,0,158.46,99.06Z"/><path class="cls-2" d="M222.79,151.48a1.9,1.9,0,0,0,2.85,0,2,2,0,0,0,.08-2.88,2.48,2.48,0,0,0-3.27.34A2,2,0,0,0,222.79,151.48Z"/><path class="cls-2" d="M238.58,159.13a2.3,2.3,0,0,0-3.28.16,2.13,2.13,0,0,0,.53,2.91,1.73,1.73,0,0,0,2.54-.16A2,2,0,0,0,238.58,159.13Z"/><path class="cls-2" d="M106.86,57a2,2,0,0,0,2.88-.2,2,2,0,0,0-.06-2.88,2.45,2.45,0,0,0-3,.19A2,2,0,0,0,106.86,57Z"/><path class="cls-2" d="M233.82,112.45a2.51,2.51,0,0,0-3.29.32,2.6,2.6,0,0,0,.84,3.23,2,2,0,0,0,2.51-.62A2.15,2.15,0,0,0,233.82,112.45Z"/><path class="cls-2" d="M218.06,104.73a1.94,1.94,0,0,0,2.92-.07,2,2,0,0,0,0-3,2.37,2.37,0,0,0-3.31.44A1.89,1.89,0,0,0,218.06,104.73Z"/><path class="cls-2" d="M192.6,84.05a2,2,0,0,0,2.61-.28,2.31,2.31,0,0,0-.21-3,2,2,0,0,0-2.61,0A2.12,2.12,0,0,0,192.6,84.05Z"/><path class="cls-2" d="M162.24,16.09a1.48,1.48,0,0,0,2.18,0,2.43,2.43,0,0,0-.35-3.6,1.65,1.65,0,0,0-2.21.25A2.42,2.42,0,0,0,162.24,16.09Z"/><path class="cls-2" d="M226.94,69a1.29,1.29,0,0,0,1.81-.24,2.34,2.34,0,0,0-.23-3.56,1.82,1.82,0,0,0-2.53.26A2.65,2.65,0,0,0,226.94,69Z"/><path class="cls-2" d="M245.69,111.4a3,3,0,0,0-3.42.27,2.26,2.26,0,0,0,.25,2.66,2.34,2.34,0,0,0,3.3-.27A2.19,2.19,0,0,0,245.69,111.4Z"/><path class="cls-2" d="M232.62,100.63a2.34,2.34,0,0,0-3.27.28,2,2,0,0,0,.63,2.83,1.91,1.91,0,0,0,2.82-.55A1.85,1.85,0,0,0,232.62,100.63Z"/><path class="cls-2" d="M216.89,93.07a1.92,1.92,0,0,0,2.85-.12,2,2,0,0,0,0-2.87,2.46,2.46,0,0,0-3.26.42A2.09,2.09,0,0,0,216.89,93.07Z"/><path class="cls-2" d="M206.91,79.79a2.51,2.51,0,0,0-3.31.39,2.57,2.57,0,0,0,.34,3c.66.58,2,.2,2.87-.81A1.92,1.92,0,0,0,206.91,79.79Z"/><path class="cls-2" d="M228.61,91.9a2,2,0,0,0,2.86-.15,2,2,0,0,0-.1-2.88,2.45,2.45,0,0,0-3.25.49A2,2,0,0,0,228.61,91.9Z"/><path class="cls-2" d="M164.34,39.42a2,2,0,0,0,2.89-.37,2.06,2.06,0,0,0-.19-2.63,2.44,2.44,0,0,0-3,.07A2.08,2.08,0,0,0,164.34,39.42Z"/><path class="cls-2" d="M150.69,17.47a1.44,1.44,0,0,0,2.16-.24,2.55,2.55,0,0,0,.14-3.35,2.15,2.15,0,0,0-2.91.43A2.11,2.11,0,0,0,150.69,17.47Z"/><path class="cls-2" d="M217.24,69.67a2.55,2.55,0,0,0-.12-3.34,1.81,1.81,0,0,0-2.52.31,2.4,2.4,0,0,0,.56,3.54A1.43,1.43,0,0,0,217.24,69.67Z"/><path class="cls-2" d="M204.66,59.31a2.21,2.21,0,0,0,.06-2.66,2.91,2.91,0,0,0-3.42,0,2,2,0,0,0,0,2.63A2.31,2.31,0,0,0,204.66,59.31Z"/><path class="cls-2" d="M223.6,127.19a2.44,2.44,0,0,0-1.18-2.82c-.1-.09-.62,0-1.12.26a2.08,2.08,0,0,0-1.3,1.89,2.3,2.3,0,0,0,1.34,2.28,1.21,1.21,0,0,0,.77.1A2,2,0,0,0,223.6,127.19Z"/><path class="cls-2" d="M210.51,114.86a3,3,0,0,0-3.4.36,2.12,2.12,0,0,0,.19,2.61,2.29,2.29,0,0,0,3.28,0A2.24,2.24,0,0,0,210.51,114.86Z"/><path class="cls-2" d="M158.45,72.06a2.41,2.41,0,0,0-2.52.83c-.76,1-.43,2.31.8,3.15a1.45,1.45,0,0,0,2.12-.41C159.77,74.28,159.58,72.6,158.45,72.06Z"/><path class="cls-2" d="M143,65.36a2.46,2.46,0,0,0,3.33-.23,2.2,2.2,0,0,0-.06-2.64,3.13,3.13,0,0,0-3.43-.1A2.2,2.2,0,0,0,143,65.36Z"/><path class="cls-2" d="M81.55,9.75c-1.11-.68-2.43-.69-3,0A2.27,2.27,0,0,0,79,13a2.31,2.31,0,0,0,3.18-.73A1.86,1.86,0,0,0,81.55,9.75Z"/><path class="cls-2" d="M247.89,134.68a2.61,2.61,0,0,0-3.35.41,1.82,1.82,0,0,0,.75,2.48c1.13.75,2.52.81,3,.12A2.54,2.54,0,0,0,247.89,134.68Z"/><path class="cls-2" d="M231.7,125.82a8.73,8.73,0,0,0,.85,1.49c.87.58,1.55.57,2.06,0a2.35,2.35,0,0,0,.59-2.6,2.12,2.12,0,0,0-2.59-1.32A1.88,1.88,0,0,0,231.7,125.82Z"/><path class="cls-2" d="M222.17,116.77a2.49,2.49,0,0,0-.13-3.31,2.62,2.62,0,0,0-3.26.67,2.31,2.31,0,0,0,.83,2.86A1.9,1.9,0,0,0,222.17,116.77Z"/><path class="cls-2" d="M183.5,82.24a2.31,2.31,0,0,0-3.26.17,1.56,1.56,0,0,0,.13,2.19c1.1,1.07,3,1.32,3.66.55A2.3,2.3,0,0,0,183.5,82.24Z"/><path class="cls-2" d="M170,71.06a1.66,1.66,0,0,0-2.48.48A2.56,2.56,0,0,0,168.82,75a1.28,1.28,0,0,0,1.74-.62A2.51,2.51,0,0,0,170,71.06Z"/><path class="cls-2" d="M157.85,61.06a2.62,2.62,0,0,0-3.35.29c-.75.88-.31,2.39.9,3.14A2,2,0,0,0,158,64.1,2.48,2.48,0,0,0,157.85,61.06Z"/><path class="cls-2" d="M177.59,168.33a1.75,1.75,0,0,0,2.51-.53,2.06,2.06,0,0,0-.19-3,2.29,2.29,0,0,0-3,.27A2.21,2.21,0,0,0,177.59,168.33Z"/><path class="cls-2" d="M167.15,154.46a2.54,2.54,0,0,0-3.06.2,2.14,2.14,0,0,0,.47,2.94,2,2,0,0,0,2.59-3.14Z"/><path class="cls-2" d="M154.25,144a3,3,0,0,0-3.11.21c-.76.67-.5,2.51.48,3.34.62.53,1.73.24,2.53-.65S155.08,144.58,154.25,144Z"/><path class="cls-2" d="M113,115.63a1.8,1.8,0,0,0,2.55-.18,2.07,2.07,0,0,0,.18-2.92,2.25,2.25,0,0,0-3-.08A2.06,2.06,0,0,0,113,115.63Z"/><path class="cls-2" d="M38.3,49.54a2.07,2.07,0,0,0-2.89,0,2.33,2.33,0,0,0,.34,2.92,1.75,1.75,0,0,0,2.51-.06A2,2,0,0,0,38.3,49.54Z"/><path class="cls-2" d="M188.7,166.8a2.13,2.13,0,0,0,3.25-.31,1.82,1.82,0,0,0-.21-2.58,2.47,2.47,0,0,0-3.36.32A1.81,1.81,0,0,0,188.7,166.8Z"/><path class="cls-2" d="M178.85,153.31a2.47,2.47,0,0,0-3,.05,2.17,2.17,0,0,0,.15,2.94,2,2,0,0,0,2.89-.09A2,2,0,0,0,178.85,153.31Z"/><path class="cls-2" d="M124.22,114.32a2.44,2.44,0,0,0,3.32-.33,1.88,1.88,0,0,0-.24-2.57,2.45,2.45,0,0,0-3.33.29A2,2,0,0,0,124.22,114.32Z"/><path class="cls-2" d="M111.84,104a1.88,1.88,0,0,0,2.56-.18,2,2,0,0,0,.15-2.88,2.36,2.36,0,0,0-3-.16A2.21,2.21,0,0,0,111.84,104Z"/><path class="cls-2" d="M47.82,51.56a1.93,1.93,0,0,0,2.48-.69,2,2,0,0,0-.6-2.82,2.23,2.23,0,0,0-2.61.34A2.28,2.28,0,0,0,47.82,51.56Z"/><path class="cls-2" d="M37,37.85a2.45,2.45,0,0,0-3.26.41c-.46.73-.15,1.66.82,2.4s2.22.85,2.88.05A2.07,2.07,0,0,0,37,37.85Z"/><path class="cls-2" d="M216.57,173.41a2.83,2.83,0,0,0-3.38.15,2,2,0,0,0,.23,2.89,2.2,2.2,0,0,0,3-.08A2.26,2.26,0,0,0,216.57,173.41Z"/><path class="cls-2" d="M164.48,130.65a2.28,2.28,0,0,0-2.56.61c-.79.9-.53,2.23.63,3.17a1.42,1.42,0,0,0,2.13-.17C165.62,133,165.53,131.31,164.48,130.65Z"/><path class="cls-2" d="M152.16,120.82a3.06,3.06,0,0,0-3.45.12,2.11,2.11,0,0,0,.35,3,2.32,2.32,0,0,0,3.3-.4A2.22,2.22,0,0,0,152.16,120.82Z"/><path class="cls-2" d="M119.15,174.25a1.74,1.74,0,0,0,2.5-.57,2.14,2.14,0,0,0-.42-2.94,2.07,2.07,0,0,0-2.89.63A2.14,2.14,0,0,0,119.15,174.25Z"/><path class="cls-2" d="M80.46,116.24a2.23,2.23,0,0,0-3.28.29,2.05,2.05,0,0,0,.45,2.61,2.29,2.29,0,0,0,3-.29A2,2,0,0,0,80.46,116.24Z"/><path class="cls-2" d="M105.28,125.53a2.62,2.62,0,0,0-3.33.35,2,2,0,0,0,.46,2.57,2,2,0,0,0,2.91.05A2.26,2.26,0,0,0,105.28,125.53Z"/><path class="cls-2" d="M71.13,167.53c.86.43,2.45-.29,3.08-1.41A1.78,1.78,0,0,0,73.6,164a2.45,2.45,0,0,0-3,.31A2.42,2.42,0,0,0,71.13,167.53Z"/><path class="cls-2" d="M181,176.9c-1-.69-2.46-.56-2.92.26a2.47,2.47,0,0,0,.81,3.22,1.9,1.9,0,0,0,2.52-.57A2.13,2.13,0,0,0,181,176.9Z"/><path class="cls-2" d="M168.59,166.28a2.4,2.4,0,0,0-3.3.07,1.84,1.84,0,0,0,.09,2.56,1.94,1.94,0,0,0,2.87.3A2.17,2.17,0,0,0,168.59,166.28Z"/><path class="cls-2" d="M88.75,106.79c.83.43,1.55,0,2.11-.72a2,2,0,0,0-.26-3.15,1.79,1.79,0,0,0-2.2.17C87.56,104.12,87.72,106.25,88.75,106.79Z"/><path class="cls-2" d="M227.88,171.9a2.62,2.62,0,0,0-3,.61,2.13,2.13,0,0,0,.6,2.9,1.92,1.92,0,0,0,2.59-.18A2.44,2.44,0,0,0,227.88,171.9Z"/><path class="cls-2" d="M212.26,164.41a2.05,2.05,0,0,0,3.18-.39,1.72,1.72,0,0,0-.18-2.53,2.68,2.68,0,0,0-3.35.39A1.79,1.79,0,0,0,212.26,164.41Z"/><path class="cls-2" d="M163.59,119.38a2.88,2.88,0,0,0-3.08.3,2.08,2.08,0,0,0,.32,2.93,2.06,2.06,0,0,0,2.94.1A2.41,2.41,0,0,0,163.59,119.38Z"/><path class="cls-2" d="M23.26,15.71a2.36,2.36,0,0,0-3-.25,2.14,2.14,0,0,0,.15,3.21,2.07,2.07,0,0,0,2.9-.12A1.86,1.86,0,0,0,23.26,15.71Z"/><path class="cls-2" d="M87.84,68.44c-1-.83-2.71-.91-3.41-.15a2.15,2.15,0,0,0,.36,3,2.12,2.12,0,0,0,3-.2A1.93,1.93,0,0,0,87.84,68.44Z"/><path class="cls-2" d="M133.93,89.8a2.15,2.15,0,0,0,2.95-.27,2.44,2.44,0,0,0-.46-3,2.07,2.07,0,0,0-2.62.3A2.14,2.14,0,0,0,133.93,89.8Z"/><path class="cls-2" d="M159.59,110.68a2,2,0,0,0,3.18-.47,1.87,1.87,0,0,0-.29-2.59,2.49,2.49,0,0,0-3.32.5A1.86,1.86,0,0,0,159.59,110.68Z"/><path class="cls-2" d="M35.11,14.62a2.56,2.56,0,0,0-3-.14,2.06,2.06,0,0,0,0,2.91,2.26,2.26,0,0,0,3,.2A2.25,2.25,0,0,0,35.11,14.62Z"/><path class="cls-2" d="M175.34,118.52a2.57,2.57,0,0,0-3.05-.12c-.73.76-.49,2.5.46,3.35a1.88,1.88,0,0,0,2.58-.22A2.3,2.3,0,0,0,175.34,118.52Z"/><path class="cls-2" d="M224.24,163.35a1.75,1.75,0,0,0,2.55-.11,2.17,2.17,0,0,0,.19-3,2.22,2.22,0,0,0-3.26.21A2,2,0,0,0,224.24,163.35Z"/><path class="cls-2" d="M178.61,35.06a2.28,2.28,0,0,0-3,.43,2.24,2.24,0,0,0,.08,2.67c.76.66,2.89.62,3.48-.06S179.4,35.75,178.61,35.06Z"/><path class="cls-2" d="M73.15,45.54a1.62,1.62,0,0,0-2.17.37,2.44,2.44,0,0,0-.06,3.33c.59.66,1.66.44,2.44-.49A2.1,2.1,0,0,0,73.15,45.54Z"/><path class="cls-2" d="M139.72,30.42a1.64,1.64,0,0,0,2.5-.31c.82-1,.87-2.39.1-3a2.66,2.66,0,0,0-3.06.3C138.58,28.11,138.78,29.45,139.72,30.42Z"/><path class="cls-2" d="M25,65.4a2,2,0,0,0,2.91-.34,1.77,1.77,0,0,0-.26-2.53,2.17,2.17,0,0,0-2.95-.08A2.21,2.21,0,0,0,25,65.4Z"/><path class="cls-2" d="M192.72,57.73a2.35,2.35,0,0,0-2.95.25,2,2,0,0,0,.46,2.83,2.11,2.11,0,0,0,2.85-.55A1.92,1.92,0,0,0,192.72,57.73Z"/><path class="cls-2" d="M165.45,51.14a2.09,2.09,0,0,0,2.92-.36,1.92,1.92,0,0,0-.3-2.87,2.47,2.47,0,0,0-3,.36A2,2,0,0,0,165.45,51.14Z"/><path class="cls-2" d="M152.18,37.88a2.1,2.1,0,0,0,.66,2.89,1.86,1.86,0,0,0,2.57-.42,2,2,0,0,0-.24-2.9A2.35,2.35,0,0,0,152.18,37.88Z"/><path class="cls-2" d="M40.9,73.08a2.32,2.32,0,0,0-3.27.39A1.87,1.87,0,0,0,38.26,76a2,2,0,0,0,2.9-.26A2.18,2.18,0,0,0,40.9,73.08Z"/><path class="cls-2" d="M55.68,106.65a2.11,2.11,0,0,0-2.65.23,2.39,2.39,0,0,0,.43,3,1.84,1.84,0,0,0,2.79-.68A2,2,0,0,0,55.68,106.65Z"/><path class="cls-2" d="M65.84,120.29a2.32,2.32,0,0,0,3-.28,1.79,1.79,0,0,0,0-2.56,2.26,2.26,0,0,0-3.27.2A2.21,2.21,0,0,0,65.84,120.29Z"/><path class="cls-2" d="M228,54a2.66,2.66,0,0,0-3.33.22,2.47,2.47,0,0,0,.74,3.22,1.8,1.8,0,0,0,2.49-.5A2.18,2.18,0,0,0,228,54Z"/><path class="cls-2" d="M212.12,46.25a2.07,2.07,0,0,0,3.15-.43A1.81,1.81,0,0,0,215,43.3a2.44,2.44,0,0,0-3.26.43A1.85,1.85,0,0,0,212.12,46.25Z"/><path class="cls-2" d="M94.29,141.33c.9-1,1-2.67.28-3.41-.56-.53-2.06-.09-2.92.85a1.71,1.71,0,0,0,.41,2.52A1.59,1.59,0,0,0,94.29,141.33Z"/><path class="cls-2" d="M117.67,162.44a2,2,0,0,0,2.86-.42,2,2,0,0,0-.34-2.88,2.29,2.29,0,0,0-2.93.34A2.42,2.42,0,0,0,117.67,162.44Z"/><path class="cls-2" d="M44,108a2,2,0,0,0-2.6.07,2.28,2.28,0,0,0,.29,2.92,1.72,1.72,0,0,0,2.51-.14A1.92,1.92,0,0,0,44,108Z"/><path class="cls-2" d="M54.69,121.63a1.76,1.76,0,0,0,2.48-.43A2,2,0,1,0,54,118.83,2,2,0,0,0,54.69,121.63Z"/><path class="cls-2" d="M71.54,152a2.09,2.09,0,0,0-2.31.69,2,2,0,0,0-.27,1.87,1.21,1.21,0,0,0,1.28.83,11,11,0,0,0,2.44-.29c.26-.06.57-.65.54-1A2.28,2.28,0,0,0,71.54,152Z"/><path class="cls-2" d="M29.21,74.29c-1.1-.9-2.69-.85-3.31.1A2.11,2.11,0,0,0,26.3,77a2,2,0,0,0,2.92-.15A1.8,1.8,0,0,0,29.21,74.29Z"/><path class="cls-2" d="M106.24,136.84a2.57,2.57,0,0,0-2.91.64,1.88,1.88,0,0,0,.43,2.52,1.7,1.7,0,0,0,2.5.12A2.43,2.43,0,0,0,106.24,136.84Z"/><path class="cls-2" d="M216.23,55.11a2.64,2.64,0,0,0-3.3.38,2.18,2.18,0,0,0,.61,2.87,1.86,1.86,0,0,0,2.56.06A2.52,2.52,0,0,0,216.23,55.11Z"/><path class="cls-2" d="M142,171.62a2.07,2.07,0,0,0,2.91-.08,2,2,0,0,0-.09-2.88,2.53,2.53,0,0,0-3.28.45A1.84,1.84,0,0,0,142,171.62Z"/><path class="cls-2" d="M130.06,54.6a2.13,2.13,0,0,0,3,0,1.84,1.84,0,0,0,.17-2.59,2.48,2.48,0,0,0-3.36,0A1.91,1.91,0,0,0,130.06,54.6Z"/><path class="cls-2" d="M117.66,44.4a3.13,3.13,0,0,0,3-.57,2.24,2.24,0,0,0-.62-2.91,2.39,2.39,0,0,0-2.94.59A2.13,2.13,0,0,0,117.66,44.4Z"/><path class="cls-2" d="M94.68,20c-.74-.8-2.21-.53-3.18.59a1.75,1.75,0,0,0,.34,2.5,1.82,1.82,0,0,0,2.54.22A2.52,2.52,0,0,0,94.68,20Z"/><path class="cls-2" d="M24.56,27.22c-.79-.74-2.91-.41-3.69.68-.57.8-.18,1.58.46,2.2a1.87,1.87,0,0,0,2.89.09C25.09,29.22,25.24,27.87,24.56,27.22Z"/><path class="cls-2" d="M88.56,79.4c-.71-.47-2.52.2-3.2,1.16-.47.68,0,1.82,1,2.41a1.67,1.67,0,0,0,2.44-.59C89.4,81.27,89.31,79.9,88.56,79.4Z"/><path class="cls-2" d="M101.62,90.72a2.68,2.68,0,0,0-3.38-.08c-.64.59-.44,1.62.48,2.5,1.07,1,2.08,1.07,2.85.17A1.88,1.88,0,0,0,101.62,90.72Z"/><path class="cls-2" d="M95.48,32a2.56,2.56,0,0,0-3.32.44c-.49.77,0,1.91,1.27,2.67a1.64,1.64,0,0,0,2.45-.54A2,2,0,0,0,95.48,32Z"/><path class="cls-2" d="M82.87,21.16c-.69-.73-2.17-.42-3.3.68A1.67,1.67,0,0,0,80,24.33a1.78,1.78,0,0,0,2.58-.17A2.29,2.29,0,0,0,82.87,21.16Z"/><path class="cls-2" d="M54,3.31a2.49,2.49,0,0,0,3.29-.5A1.69,1.69,0,0,0,57,.6a2.43,2.43,0,0,0-3.32.11A2,2,0,0,0,54,3.31Z"/><path class="cls-2" d="M100.56,78.42c-.63-.68-1.92-.54-2.94.31a1.75,1.75,0,0,0-.13,2.52c.89,1,2.14,1.26,2.83.52A2.6,2.6,0,0,0,100.56,78.42Z"/><path class="cls-2" d="M135.89,113a2.15,2.15,0,0,0,3.2,0,2,2,0,0,0,0-2.56,2.54,2.54,0,0,0-3.3,0A1.87,1.87,0,0,0,135.89,113Z"/><path class="cls-2" d="M118.32,55.84a2.59,2.59,0,0,0,3.33-.32,2,2,0,0,0,0-2.26,2.59,2.59,0,0,0-3.62,0A2,2,0,0,0,118.32,55.84Z"/><path class="cls-2" d="M182.79,108.34a2.29,2.29,0,0,0,3.3-.32,1.81,1.81,0,0,0-.24-2.56,2.6,2.6,0,0,0-3.38.33A1.79,1.79,0,0,0,182.79,108.34Z"/><path class="cls-2" d="M153.51,52.11a2.09,2.09,0,0,0,3.23-.22,1.85,1.85,0,0,0-.07-2.59,2.48,2.48,0,0,0-3.35.24A1.81,1.81,0,0,0,153.51,52.11Z"/><path class="cls-2" d="M94.11,46.47a1.79,1.79,0,0,0,2.55.08,2,2,0,0,0,.26-2.89,2.25,2.25,0,0,0-3-.13A2.17,2.17,0,0,0,94.11,46.47Z"/><path class="cls-2" d="M147.63,111.8a2.13,2.13,0,0,0,3.23-.17,1.84,1.84,0,0,0,0-2.56,2.82,2.82,0,0,0-3.4.16A1.85,1.85,0,0,0,147.63,111.8Z"/><path class="cls-2" d="M145.69,89.05a1.78,1.78,0,0,0,2.48-.52c.88-1,1-2.31.15-2.91a2.64,2.64,0,0,0-3.32.46A2.68,2.68,0,0,0,145.69,89.05Z"/><path class="cls-2" d="M123.18,87.58A1.81,1.81,0,0,0,121.42,89a1.45,1.45,0,0,0,.4,1.53,4.35,4.35,0,0,0,3.48.55.9.9,0,0,0,.56-1A2.59,2.59,0,0,0,123.18,87.58Z"/><path class="cls-2" d="M83.33,59.37a2,2,0,0,0,2.88,0,1.88,1.88,0,0,0,.32-2.54,2.73,2.73,0,0,0-3.31-.29A2.05,2.05,0,0,0,83.33,59.37Z"/><path class="cls-2" d="M140.58,124.57a1.93,1.93,0,0,0-.41-2.55,2.3,2.3,0,0,0-2.95.32,2,2,0,0,0,.54,2.86A2,2,0,0,0,140.58,124.57Z"/><path class="cls-2" d="M166.34,143.37a2.89,2.89,0,0,0-3.75,0c-.64.8-.21,1.57.35,2.22a1.85,1.85,0,0,0,2.87.36A2.06,2.06,0,0,0,166.34,143.37Z"/><path class="cls-2" d="M141.78,53.45a2.13,2.13,0,0,0,3.2-.37,1.72,1.72,0,0,0,.12-2.25,2.69,2.69,0,0,0-3.64.06A1.92,1.92,0,0,0,141.78,53.45Z"/><path class="cls-2" d="M22.92,42a1.5,1.5,0,0,0,2.18.19c1-.86,1.1-2.56.22-3.22a2.55,2.55,0,0,0-3,.18C21.65,39.81,21.91,41,22.92,42Z"/><path class="cls-2" d="M102.73,104.89a2,2,0,0,0,0-2.91,2.35,2.35,0,0,0-3,.14,2.25,2.25,0,0,0,.44,2.95A1.8,1.8,0,0,0,102.73,104.89Z"/><path class="cls-2" d="M176,129.62a1.62,1.62,0,0,0-2.23,0A2.44,2.44,0,0,0,174,133a1.62,1.62,0,0,0,2.21.29A2.57,2.57,0,0,0,176,129.62Z"/><path class="cls-2" d="M79.1,104a2.64,2.64,0,0,0-1-.2,2.38,2.38,0,0,0-1.36,3.81,1.44,1.44,0,0,0,1,.43,2.46,2.46,0,0,0,2.08-1.71A2.1,2.1,0,0,0,79.1,104Z"/><path class="cls-2" d="M117.11,135.31a1.46,1.46,0,0,0-1.84.5,2.35,2.35,0,0,0,.59,3.28,1.55,1.55,0,0,0,2.19-.24A2.52,2.52,0,0,0,117.11,135.31Z"/><path class="cls-2" d="M60.41,179.94a1.73,1.73,0,0,0,2.54-.08,2.19,2.19,0,0,0-.09-3,2.08,2.08,0,0,0-2.64.13A2.05,2.05,0,0,0,60.41,179.94Z"/><path class="cls-2" d="M93.58,126.76a2.66,2.66,0,0,0-3.34.21,2,2,0,0,0,.66,2.82,2,2,0,0,0,2.84-.49A1.86,1.86,0,0,0,93.58,126.76Z"/><path class="cls-2" d="M111.11,184a2.83,2.83,0,0,0-3.09.16,2.09,2.09,0,0,0,3,2.79A2.13,2.13,0,0,0,111.11,184Z"/><path class="cls-2" d="M82.59,163.38a2.25,2.25,0,0,0,.3,3c.62.42,1.8,0,2.52-.87a2,2,0,0,0-.36-2.91A1.81,1.81,0,0,0,82.59,163.38Z"/><path class="cls-2" d="M46.65,131.58a2.31,2.31,0,0,0-3,.21,1.85,1.85,0,0,0,.36,2.52,2,2,0,0,0,2.87-.18A1.94,1.94,0,0,0,46.65,131.58Z"/><path class="cls-2" d="M200.17,163.09a1.87,1.87,0,0,0,.64,2.8,1.9,1.9,0,0,0,2.85-.5,1.92,1.92,0,0,0-.14-2.59A2.62,2.62,0,0,0,200.17,163.09Z"/><path class="cls-2" d="M205.58,104.77a2.15,2.15,0,0,0,2.4,1.72,2.33,2.33,0,0,0,2-1.85,1.59,1.59,0,0,0-.71-1.67,2.33,2.33,0,0,0-2.07-.21C206,103,205.38,103.83,205.58,104.77Z"/><path class="cls-2" d="M61.68,46.93a2.38,2.38,0,0,0-3,.53A2.26,2.26,0,0,0,59,50.12c.81.78,2.43.45,3.24-.65A1.88,1.88,0,0,0,61.68,46.93Z"/><path class="cls-2" d="M48.12,36.45A1.83,1.83,0,0,0,45.6,37a1.64,1.64,0,0,0,.68,2.42c1.28.65,2.56.56,3-.21S49.14,37.09,48.12,36.45Z"/><path class="cls-2" d="M36.1,25.93a2.71,2.71,0,0,0-3.28.88A1.72,1.72,0,0,0,33.37,29c1.08.79,2.38.76,3-.07A2.27,2.27,0,0,0,36.1,25.93Z"/><path class="cls-2" d="M15.87,63.5a2.11,2.11,0,0,0-2.95.28,2.06,2.06,0,0,0,.52,2.89,2.12,2.12,0,0,0,2.9-.61A2,2,0,0,0,15.87,63.5Z"/><path class="cls-2" d="M165.41,25.09a1.92,1.92,0,0,0-2.56,0c-.72.77-.47,2,.58,2.81a1.82,1.82,0,0,0,2.54,0A1.9,1.9,0,0,0,165.41,25.09Z"/><path class="cls-2" d="M13.68,40a2.34,2.34,0,0,0-2.92.57,1.82,1.82,0,0,0,.32,2.53,2,2,0,0,0,2.6-3.1Z"/><path class="cls-2" d="M89.87,91.7a2.58,2.58,0,0,0-3-.11c-.86.65-.61,2.2.55,3.16a1.43,1.43,0,0,0,2.15-.15A2.09,2.09,0,0,0,89.87,91.7Z"/><path class="cls-2" d="M48.46,63A1.85,1.85,0,0,0,51,62.93,2.06,2.06,0,0,0,51.21,60a2.37,2.37,0,0,0-3,.09A2.07,2.07,0,0,0,48.46,63Z"/><path class="cls-2" d="M9.54,31.5A2.14,2.14,0,0,0,13,30.21a1.78,1.78,0,0,0-.37-1.91,1.37,1.37,0,0,0-1.87,0,6.76,6.76,0,0,0-1.54,1.32A1.4,1.4,0,0,0,9.54,31.5Z"/><path class="cls-2" d="M75.37,92.81a1.94,1.94,0,0,0-.12,2.61,2,2,0,0,0,3,.07,2,2,0,1,0-2.83-2.68Z"/><path class="cls-2" d="M101.39,116.79a2,2,0,0,0,2.83-.59,1.88,1.88,0,0,0-.19-2.55,2.61,2.61,0,0,0-3.3.39A1.85,1.85,0,0,0,101.39,116.79Z"/><path class="cls-2" d="M181.31,59.18a2.36,2.36,0,0,0-3.33.12,2,2,0,0,0,3.41,2.17A1.72,1.72,0,0,0,181.31,59.18Z"/><path class="cls-2" d="M176.76,49.68a2.42,2.42,0,0,0,3.34,0,1.86,1.86,0,0,0,0-2.53,2.65,2.65,0,0,0-3.6.4A1.64,1.64,0,0,0,176.76,49.68Z"/><path class="cls-2" d="M154.32,28.59a1.9,1.9,0,0,0-.38-2.51,2.72,2.72,0,0,0-3.27.65c-.41.7.25,2.08,1.29,2.67A1.7,1.7,0,0,0,154.32,28.59Z"/><path class="cls-2" d="M71.79,178.63a2.09,2.09,0,0,0,2.9-.08,1.89,1.89,0,0,0,.09-2.55,2.22,2.22,0,0,0-2.92-.25A2,2,0,0,0,71.79,178.63Z"/><path class="cls-2" d="M59.34,168.37a1.7,1.7,0,0,0,2.52-.32,1.91,1.91,0,0,0-.28-2.86,2,2,0,0,0-2.6.19A2.42,2.42,0,0,0,59.34,168.37Z"/><path class="cls-2" d="M59.93,61.91a2.53,2.53,0,0,0,3.3-.74,1.77,1.77,0,0,0-.39-2.23,2.37,2.37,0,0,0-3.32.3A2.32,2.32,0,0,0,59.93,61.91Z"/><path class="cls-2" d="M128.32,31.43a1.89,1.89,0,0,0,2.55-.43,2.34,2.34,0,0,0-.5-2.94,2,2,0,0,0-2.56.54A1.93,1.93,0,0,0,128.32,31.43Z"/><path class="cls-2" d="M169.36,59.93a2.65,2.65,0,0,0-3,.08c-.7.75-.38,2.39.62,3.22a1.66,1.66,0,0,0,2.46-.39A2.14,2.14,0,0,0,169.36,59.93Z"/><path class="cls-2" d="M65.57,93.6a2,2,0,0,0-2.2.62c-.62.72-.54,2.27.19,2.51a4.36,4.36,0,0,0,3.16-.06,1.16,1.16,0,0,0,.49-1A2.32,2.32,0,0,0,65.57,93.6Z"/><path class="cls-2" d="M191.73,46.07a2.61,2.61,0,0,0-3.35.1,1.9,1.9,0,0,0,.32,2.56,2,2,0,0,0,2.91-.1A1.88,1.88,0,0,0,191.73,46.07Z"/><path class="cls-2" d="M150.2,135a1.65,1.65,0,0,0,1.75.8,2,2,0,0,0,1.44-1.82,2.05,2.05,0,0,0-.64-2.2,2.18,2.18,0,0,0-.4-.18,2.1,2.1,0,0,0-2,1.13A1.71,1.71,0,0,0,150.2,135Z"/><path class="cls-2" d="M99.39,185.2c-1.1-.65-2.76-.43-3.3.45a2.06,2.06,0,0,0,.68,2.5,1.85,1.85,0,0,0,2.81-.43A1.8,1.8,0,0,0,99.39,185.2Z"/><path class="cls-2" d="M27.62,88.77a1.71,1.71,0,0,0,2.55-.19c.82-1,.9-2.45.16-3s-2.58-.15-3.41.71C26.35,86.88,26.69,88.07,27.62,88.77Z"/><path class="cls-2" d="M81.68,36.44A1.51,1.51,0,0,0,83.84,36a2.14,2.14,0,0,0,0-3c-1-.68-2.86-.33-3.32.63A2.42,2.42,0,0,0,81.68,36.44Z"/><path class="cls-2" d="M171,83.28a3.37,3.37,0,0,0-1.17-.3,1.54,1.54,0,0,0-1.52,1.93,6.41,6.41,0,0,0,.64,1.13c.92.73,1.62,1.06,2.51.7a1.43,1.43,0,0,0,.93-1.22A2,2,0,0,0,171,83.28Z"/><path class="cls-2" d="M160.2,84.76a2.87,2.87,0,0,0-3.41.11c-.72.6-.36,1.92.74,2.76a1.69,1.69,0,0,0,2.52-.28A2,2,0,0,0,160.2,84.76Z"/><path class="cls-2" d="M194.29,104.59a1.88,1.88,0,0,0,.53,2.8,2,2,0,0,0,2.88-.41,1.94,1.94,0,0,0-.06-2.57A2.68,2.68,0,0,0,194.29,104.59Z"/><path class="cls-2" d="M30.22,3.31A2,2,0,0,0,31,5.83a2,2,0,0,0,2.87-.59,1.85,1.85,0,0,0-.31-2.57A2.52,2.52,0,0,0,30.22,3.31Z"/><path class="cls-2" d="M19.69,98.64a2,2,0,0,0-2.86.4,1.66,1.66,0,0,0,0,2.24,1.93,1.93,0,0,0,2.88,0A2,2,0,0,0,19.69,98.64Z"/><path class="cls-2" d="M72,34a2.22,2.22,0,0,0-2.87.79,1.87,1.87,0,0,0,.6,2.52,2,2,0,0,0,2.61-.35A2.24,2.24,0,0,0,72,34Z"/><path class="cls-2" d="M81.08,151.6a2,2,0,0,0,.4,2.56,2.14,2.14,0,0,0,2.89-.53,2.23,2.23,0,0,0-.43-2.6A2.08,2.08,0,0,0,81.08,151.6Z"/><path class="cls-2" d="M95.64,150.15a2.43,2.43,0,0,0-3,.1c-.65.81-.16,2.59,1,3.18.87.46,1.58,0,2.47-1.17A1.73,1.73,0,0,0,95.64,150.15Z"/><path class="cls-2" d="M94.58,165.14c.83.54,1.55.11,2.15-.54a2,2,0,0,0,.12-2.9,2,2,0,0,0-2.6.08A2.58,2.58,0,0,0,94.58,165.14Z"/><path class="cls-2" d="M108.62,163.3a2,2,0,0,0,.18-2.6,2.39,2.39,0,0,0-3-.19,2.18,2.18,0,0,0,.26,3A1.79,1.79,0,0,0,108.62,163.3Z"/><path class="cls-2" d="M110,80.63a1.53,1.53,0,0,0,2.14-.24,2.62,2.62,0,0,0-.7-3.55,1.76,1.76,0,0,0-2.14.56A2.55,2.55,0,0,0,110,80.63Z"/><path class="cls-2" d="M244.66,101.94a1.67,1.67,0,0,0-.08-2.21A2.67,2.67,0,0,0,241,100a1.79,1.79,0,0,0,.54,2.46A2.11,2.11,0,0,0,244.66,101.94Z"/><path class="cls-2" d="M216,81.84a1.75,1.75,0,0,0,2.51-.54,2,2,0,0,0,.07-2.64c-.81-.71-2.53-.37-3.33.67A1.93,1.93,0,0,0,216,81.84Z"/><path class="cls-2" d="M203.16,70.94a1.6,1.6,0,0,0,2.18-.23,2.32,2.32,0,0,0-.18-3.26,1.29,1.29,0,0,0-1.82.23A2.26,2.26,0,0,0,203.16,70.94Z"/><path class="cls-2" d="M42.66,4.59A2,2,0,0,0,45.47,4a2,2,0,0,0-.29-2.57,2.59,2.59,0,0,0-3.26.69A2.09,2.09,0,0,0,42.66,4.59Z"/><path class="cls-2" d="M60.46,35.63a2.07,2.07,0,0,0-2.91,0,1.8,1.8,0,0,0-.32,2.23c.43.76,3,.9,3.76.29C61.49,37.81,61.18,36.34,60.46,35.63Z"/><path class="cls-2" d="M104,22.09a1.56,1.56,0,0,0,2.17-.29,2.57,2.57,0,0,0-.49-3.3,1.72,1.72,0,0,0-2.2.32A2.43,2.43,0,0,0,104,22.09Z"/><path class="cls-2" d="M107,31.05a2,2,0,0,0-2.58-.28,1.78,1.78,0,0,0,0,2.54c1.07,1,2.69,1.14,3.25.26A2.1,2.1,0,0,0,107,31.05Z"/><path class="cls-2" d="M236.43,138.49a1.72,1.72,0,0,0,0-2.26c-.92-.93-3.18-.76-3.7.17a2.06,2.06,0,0,0,.84,2.5A1.82,1.82,0,0,0,236.43,138.49Z"/><path class="cls-2" d="M123.07,75.68a1.6,1.6,0,0,0-2,.82c-.65,1.24-.48,2.4.48,2.78a1.73,1.73,0,0,0,2.18-.39A2.45,2.45,0,0,0,123.07,75.68Z"/><path class="cls-2" d="M98.16,55.28a2.6,2.6,0,0,0-3.38.34,1.92,1.92,0,0,0,.43,2.58,2.07,2.07,0,0,0,3-.31A1.88,1.88,0,0,0,98.16,55.28Z"/><path class="cls-2" d="M217.25,184.62a1.11,1.11,0,0,0-1.41-.46,2.51,2.51,0,0,0-1,3.73,1.52,1.52,0,0,0,2.15.1A2.71,2.71,0,0,0,217.25,184.62Z"/><path class="cls-2" d="M112.59,89.22a1.75,1.75,0,0,0-.35-.2,1.65,1.65,0,0,0-2.18.42,1.71,1.71,0,0,0,.42,2.49c1.15.9,2.76.91,3.29,0S113.73,90,112.59,89.22Z"/><path class="cls-2" d="M176.81,141.72a4,4,0,0,0-1.18-.27,1.44,1.44,0,0,0-1.35.77,1.47,1.47,0,0,0,0,1.55,9.79,9.79,0,0,0,.65.83,2.3,2.3,0,0,0,2.43.5,1.53,1.53,0,0,0,1-1.63A2,2,0,0,0,176.81,141.72Z"/><path class="cls-2" d="M134.64,66a1.63,1.63,0,0,0-.34-2.21,2.21,2.21,0,0,0-3,0,2.11,2.11,0,0,0,.51,2.9A2,2,0,0,0,134.64,66Z"/><path class="cls-2" d="M144.7,77a1.53,1.53,0,0,0,2.19-.19,2.48,2.48,0,0,0,.06-3.33c-.6-.55-1.71-.25-2.48.67A1.82,1.82,0,0,0,144.7,77Z"/><path class="cls-2" d="M210.91,125.76a1.38,1.38,0,0,0-1.78.46,2.34,2.34,0,0,0,0,3.27,1.51,1.51,0,0,0,2.14-.17C212.14,128.16,212,126.33,210.91,125.76Z"/><path class="cls-2" d="M221.78,140.18a1.88,1.88,0,0,0,2.82-.56,1.9,1.9,0,0,0-.06-2.59,3,3,0,0,0-3.38.65C220.61,138.27,220.91,139.51,221.78,140.18Z"/><path class="cls-2" d="M86.48,174.81a2.28,2.28,0,0,0-3.25.11,1.69,1.69,0,0,0,0,2.23,2.13,2.13,0,0,0,3.2.23A1.93,1.93,0,0,0,86.48,174.81Z"/><path class="cls-2" d="M42.44,122.25a2,2,0,0,0,2.88.25,1.89,1.89,0,0,0,.32-2.54,2.41,2.41,0,0,0-3.27.1A1.58,1.58,0,0,0,42.44,122.25Z"/><path class="cls-2" d="M47.88,143.08a2.45,2.45,0,0,0-3,.39,1.66,1.66,0,0,0,.27,2.2,2,2,0,0,0,2.9.05A2.26,2.26,0,0,0,47.88,143.08Z"/><path class="cls-2" d="M35,132.85a2.28,2.28,0,0,0-3,0,1.93,1.93,0,0,0,.38,2.59,1.83,1.83,0,0,0,2.85-.43A1.54,1.54,0,0,0,35,132.85Z"/><path class="cls-2" d="M19.08,124.77a2.07,2.07,0,0,0,2.91,0,1.73,1.73,0,0,0-.07-2.52,2.14,2.14,0,0,0-2.93-.08A2,2,0,0,0,19.08,124.77Z"/><path class="cls-2" d="M110,174.77a2,2,0,0,0-.07-2.58,2.54,2.54,0,0,0-3.28.39,1.85,1.85,0,0,0,.48,2.49A2,2,0,0,0,110,174.77Z"/><path class="cls-2" d="M177.08,23.69a1.93,1.93,0,0,0-2.59.33,1.72,1.72,0,0,0,.55,2.49c1.18.73,2.58.74,3,0A2.3,2.3,0,0,0,177.08,23.69Z"/><path class="cls-2" d="M230.46,77.8a2.6,2.6,0,0,0-3.41,0,2,2,0,0,0,.57,2.58,1.77,1.77,0,0,0,2.57,0A2,2,0,0,0,230.46,77.8Z"/><path class="cls-2" d="M240.52,75c-1-.85-2.74-.86-3.4,0a2,2,0,0,0,.56,2.58,1.79,1.79,0,0,0,2.58.05A2,2,0,0,0,240.52,75Z"/><path class="cls-2" d="M186.63,25.42a1.73,1.73,0,0,0,2.52-.16,2.32,2.32,0,0,0-.16-3,1.91,1.91,0,0,0-2.56.2A2.17,2.17,0,0,0,186.63,25.42Z"/><path class="cls-2" d="M95.45,176.34a2,2,0,0,0,2.87-.5,1.67,1.67,0,0,0-.1-2.23,2.47,2.47,0,0,0-3.31.22A1.88,1.88,0,0,0,95.45,176.34Z"/><path class="cls-2" d="M64.86,108.6c.75.79,2.29.48,3.26-.72a1.61,1.61,0,0,0-.21-2.16,2.26,2.26,0,0,0-3.27.22A2.33,2.33,0,0,0,64.86,108.6Z"/><path class="cls-2" d="M42,84.52a2.57,2.57,0,0,0-3.26.74,1.84,1.84,0,0,0,.61,2.17c1.09.76,2.37.64,2.89-.26A2.26,2.26,0,0,0,42,84.52Z"/><path class="cls-2" d="M89.59,118a2,2,0,0,0,2.85-.66,1.79,1.79,0,0,0-.08-2.24,2.62,2.62,0,0,0-3.36.07A2,2,0,0,0,89.59,118Z"/><path class="cls-2" d="M156.73,167.43a2.79,2.79,0,0,0-3.34.35,1.82,1.82,0,0,0,.31,2.53,2.07,2.07,0,0,0,3.17-.34A1.79,1.79,0,0,0,156.73,167.43Z"/><path class="cls-2" d="M117.09,147.27a1.48,1.48,0,0,0-1.45,1.2,1.92,1.92,0,0,0,1.26,2.27,2.29,2.29,0,0,0,2.74-.34,2.75,2.75,0,0,0,.15-1.07A2.86,2.86,0,0,0,117.09,147.27Z"/><path class="cls-2" d="M200.28,47.49a2.19,2.19,0,0,0,3.21-.34,1.73,1.73,0,0,0-.11-2.5A2.91,2.91,0,0,0,200,45,1.84,1.84,0,0,0,200.28,47.49Z"/><path class="cls-2" d="M87.6,186.52a2,2,0,0,0-2.87.38,1.86,1.86,0,0,0,3,2.17A1.83,1.83,0,0,0,87.6,186.52Z"/><path class="cls-2" d="M129.17,134.28a1.24,1.24,0,0,0-1.82.18,2.35,2.35,0,0,0-.35,3,2,2,0,0,0,2.57.12A2.43,2.43,0,0,0,129.17,134.28Z"/><path class="cls-2" d="M36.83,64.19a2,2,0,0,0,2.85-.41,1.84,1.84,0,0,0-.17-2.52,2.48,2.48,0,0,0-3.26.44A2,2,0,0,0,36.83,64.19Z"/><path class="cls-2" d="M28.78,100.34a1.53,1.53,0,0,0,2.19.25,2,2,0,0,0,.2-3,2.2,2.2,0,0,0-2.66-.22C27.71,98,27.82,99.27,28.78,100.34Z"/><path class="cls-2" d="M141.12,18.05a2.44,2.44,0,0,0,0-3c-.62-.65-1.94-.27-2.77.79a1.76,1.76,0,1,0,2.74,2.2Z"/><path class="cls-2" d="M54.24,95.17a1.81,1.81,0,0,0-2.58.13,1.67,1.67,0,0,0,0,2.24c1,.88,2.76,1,3.37.14C55.53,97.06,55.14,95.89,54.24,95.17Z"/><path class="cls-2" d="M15.51,89.69a1.94,1.94,0,0,0,2.86,0,2.22,2.22,0,0,0,.18-2.94c-1-.88-1.72-.05-2.44.54a4.25,4.25,0,0,0-.8.89A1.18,1.18,0,0,0,15.51,89.69Z"/><path class="cls-2" d="M3.57,55.33a1.62,1.62,0,0,0-.19-2.21,2.2,2.2,0,0,0-2.95.17,2.06,2.06,0,0,0,.38,2.89A2,2,0,0,0,3.57,55.33Z"/><path class="cls-2" d="M118.17,29.39a1.83,1.83,0,0,0-2.41.92,1.52,1.52,0,0,0,1.09,2.22,8.56,8.56,0,0,0,2,.21c.24,0,.48-.23.72-.36a2.67,2.67,0,0,0,.17-.77A2.56,2.56,0,0,0,118.17,29.39Z"/><path class="cls-2" d="M199,126.82a1.13,1.13,0,0,0-.77-.16c-.86.09-1.38,1.27-1.21,2.67a1.47,1.47,0,0,0,1.61,1.45,3.63,3.63,0,0,0,.75-.29A2.8,2.8,0,0,0,199,126.82Z"/><path class="cls-2" d="M110.6,65.9c-.79-.61-2.24-.58-2.65,0a2.61,2.61,0,0,0,.77,3.3,1.6,1.6,0,0,0,2.19-.41A2,2,0,0,0,110.6,65.9Z"/><path class="cls-2" d="M81.61,128.09a1.85,1.85,0,0,0-2.82.36A1.81,1.81,0,0,0,79.3,131a1.77,1.77,0,0,0,2.51-.36A1.7,1.7,0,0,0,81.61,128.09Z"/><path class="cls-2" d="M185.86,131.74a1.63,1.63,0,0,0,1.93.15c.83-.52.89-1.74.2-3a3.94,3.94,0,0,0-.52-.64,1.5,1.5,0,0,0-2.14.48A2.48,2.48,0,0,0,185.86,131.74Z"/><path class="cls-2" d="M1.71,67.82a2.23,2.23,0,0,0,2.62-.39,1.78,1.78,0,0,0,0-2.54,2.26,2.26,0,0,0-3,0A2.16,2.16,0,0,0,1.71,67.82Z"/><path class="cls-2" d="M107.45,149.34c-1.12-.92-2.75-1-3.36-.13-.48.66-.17,1.72.71,2.5a1.75,1.75,0,0,0,2.8-.22A1.54,1.54,0,0,0,107.45,149.34Z"/><path class="cls-2" d="M71.15,143.38a2.41,2.41,0,0,0-.25-3c-.51-.54-1.37-.31-2.08.56-.87,1.07-1,2-.32,2.53A2.17,2.17,0,0,0,71.15,143.38Z"/><path class="cls-2" d="M75.59,69.56a1.87,1.87,0,1,0-2.17,3A1.79,1.79,0,0,0,76,72.08,1.68,1.68,0,0,0,75.59,69.56Z"/><path class="cls-2" d="M116.67,124.63a2.16,2.16,0,0,0-2.64-.36,2.68,2.68,0,0,0,.09,3.06,1.87,1.87,0,0,0,2.58.27A2.1,2.1,0,0,0,116.67,124.63Z"/><path class="cls-2" d="M60.08,153.61a1.72,1.72,0,0,0-2.54.18,1.57,1.57,0,0,0,.1,2.22,2.43,2.43,0,0,0,3.33.05C61.43,155.45,61,154.32,60.08,153.61Z"/><path class="cls-2" d="M36.25,144.18c-.62-.62-2.5-.28-3.24.71a1.51,1.51,0,0,0,.43,2.13,1.7,1.7,0,0,0,2.51.11A2.34,2.34,0,0,0,36.25,144.18Z"/><path class="cls-2" d="M24,53.53c.38.64,1,1,1.67.71a2.27,2.27,0,0,0,1.26-2.33,4.26,4.26,0,0,0-.16-.79A1.62,1.62,0,0,0,24,50.71,2.5,2.5,0,0,0,24,53.53Z"/><path class="cls-2" d="M4.61,102a2.38,2.38,0,0,0,.39.71c1,.64,1.81,0,2.67-.27a1.19,1.19,0,0,0,.55-2,1.77,1.77,0,0,0-2.41-.78A1.91,1.91,0,0,0,4.61,102Z"/><path class="cls-2" d="M14.82,51.64a1.65,1.65,0,0,0-2.2.32,2.12,2.12,0,0,0,.16,3.24,1.29,1.29,0,0,0,1.83-.27C15.64,53.82,15.72,52.47,14.82,51.64Z"/><path class="cls-2" d="M204.69,185.16a.79.79,0,0,0-1.1.18,3.43,3.43,0,0,0-.34,3.48,1.46,1.46,0,0,0,2.13.3A2.91,2.91,0,0,0,204.69,185.16Z"/><path class="cls-2" d="M42.85,96.59a2.26,2.26,0,0,0-3-.18,1.72,1.72,0,0,0,.36,2.51c1,.93,2.11,1,2.87.17A1.66,1.66,0,0,0,42.85,96.59Z"/><path class="cls-2" d="M17,75.45a1.77,1.77,0,0,0-2.52.13,2,2,0,0,0,.5,2.84,1.68,1.68,0,0,0,2.45-.49A1.72,1.72,0,0,0,17,75.45Z"/><path class="cls-2" d="M74.9,84.2A1.7,1.7,0,0,0,77,83.42a2.22,2.22,0,0,0-.38-2.92,1.47,1.47,0,0,0-1.11,0c-.35.15-.6.53-.91.82a11.61,11.61,0,0,0-.63,1A1.34,1.34,0,0,0,74.9,84.2Z"/><path class="cls-2" d="M62.57,85.06a2.12,2.12,0,0,0,2.64-.18,2.39,2.39,0,0,0-.29-3c-.52-.5-1.43-.23-2.09.63C62,83.56,61.9,84.54,62.57,85.06Z"/><path class="cls-2" d="M6.87,90.64A2.21,2.21,0,0,0,6.64,88c-.6-.55-1.58-.25-2.39.74C3.7,89.45,3.36,90.2,4,91A2.07,2.07,0,0,0,6.87,90.64Z"/><path class="cls-2" d="M63.69,70.94a1.64,1.64,0,0,0-2.21-.13,2.16,2.16,0,0,0,.32,3A1.53,1.53,0,0,0,64,73.45,1.64,1.64,0,0,0,63.69,70.94Z"/><path class="cls-2" d="M128.14,123.36a1.81,1.81,0,0,0-2.54.22,2,2,0,0,0,.6,2.86,2,2,0,0,0,2.53-.61A1.71,1.71,0,0,0,128.14,123.36Z"/><path class="cls-2" d="M122.2,64.93a1.77,1.77,0,0,0-2.49.21A2,2,0,0,0,120.3,68a1.87,1.87,0,0,0,2.47-.62A1.64,1.64,0,0,0,122.2,64.93Z"/><path class="cls-2" d="M82.38,138.84a.8.8,0,0,0-1,.16,9.35,9.35,0,0,0-1.3,1.57,1.23,1.23,0,0,0,0,1.53,1.63,1.63,0,0,0,1.83.6,1.66,1.66,0,0,0,1.2-1.51A2.19,2.19,0,0,0,82.38,138.84Z"/><path class="cls-2" d="M20.63,110.17a1.47,1.47,0,0,0-1.86.22,2,2,0,0,0-.13,3.17,1.29,1.29,0,0,0,1.85-.2C21.41,112.37,21.53,110.78,20.63,110.17Z"/><path class="cls-2" d="M48.66,155.18c-1-.88-2.26-1-2.86-.24a2.1,2.1,0,0,0,3.05,2.66A1.54,1.54,0,0,0,48.66,155.18Z"/><path class="cls-2" d="M35,159.05a1.25,1.25,0,0,0,1.81-.06,1.92,1.92,0,0,0,0-2.86c-.77-.66-2.12-.64-2.53,0A2.42,2.42,0,0,0,35,159.05Z"/><path class="cls-2" d="M30.88,123.71a1.94,1.94,0,0,0,2.85-.18,1.52,1.52,0,0,0,0-2.17,2.11,2.11,0,0,0-3.17-.22A2,2,0,0,0,30.88,123.71Z"/><path class="cls-2" d="M181.52,69.82a1.63,1.63,0,0,0-1.53-.07,2.23,2.23,0,0,0-.59,2.85,1.72,1.72,0,0,0,2,.86,1.4,1.4,0,0,0,.85-.73A2.7,2.7,0,0,0,181.52,69.82Z"/><path class="cls-2" d="M117.68,17.85a1.4,1.4,0,0,0-2.13-.31,2.75,2.75,0,0,0-.73,1.89,1.28,1.28,0,0,0,.78,1.33,2,2,0,0,0,2-.25A2.26,2.26,0,0,0,117.68,17.85Z"/><path class="cls-2" d="M244.2,125.72a1.64,1.64,0,0,0,2.19.13c.81-.82.63-2.2-.48-3.23a1.37,1.37,0,0,0-1.84-.21C243.22,123,243.32,124.69,244.2,125.72Z"/><path class="cls-2" d="M173.92,14.57a1.81,1.81,0,0,0,2.22-.12,2.12,2.12,0,0,0-1.3-3.16,1.54,1.54,0,0,0-1.1.36A2.18,2.18,0,0,0,173.92,14.57Z"/><path class="cls-2" d="M68,25.08a1.65,1.65,0,0,0,1.38.71,1.82,1.82,0,0,0,1.86-1.31,2,2,0,0,0-.33-2.26c-.29-.27-.66-.53-1.09-.28s-.88.6-1.14.77a9.76,9.76,0,0,0-.6.86C67.83,24.05,67.59,24.55,68,25.08Z"/><path class="cls-2" d="M69.52,11.11a1.8,1.8,0,0,0-2.55.12,2.13,2.13,0,0,0,.57,2.9,1.81,1.81,0,0,0,2.51-.56A1.65,1.65,0,0,0,69.52,11.11Z"/><path class="cls-2" d="M59,23.51c-.6-.61-1.27-.32-1.78.16-1,.95-1.27,2.23-.66,2.86a2.06,2.06,0,0,0,2.6-.07A2.25,2.25,0,0,0,59,23.51Z"/><path class="cls-2" d="M51.74,71.85a1.3,1.3,0,0,0-1.82,0A2.29,2.29,0,0,0,50.3,75a1.46,1.46,0,0,0,2.1-.37A1.92,1.92,0,0,0,51.74,71.85Z"/><path class="cls-2" d="M30.28,112.43a1.26,1.26,0,0,0,1.49.16,2.32,2.32,0,0,0,.29-3.56,1.29,1.29,0,0,0-1.85.1A2.32,2.32,0,0,0,30.28,112.43Z"/><path class="cls-2" d="M55.87,15.25A1.45,1.45,0,0,0,58,15a1.64,1.64,0,0,0-.21-2.48c-.67-.62-1.79-.74-2.2-.24A2.34,2.34,0,0,0,55.87,15.25Z"/><path class="cls-2" d="M67.61,132.14a1.66,1.66,0,0,0,2.46-.43,1.72,1.72,0,0,0-.64-2.43,1.43,1.43,0,0,0-2.11.31A1.88,1.88,0,0,0,67.61,132.14Z"/><path class="cls-2" d="M59.1,141.67a1.39,1.39,0,0,0-1.87.2,2,2,0,0,0-.26,2.62,2,2,0,0,0,2.59.17A2.44,2.44,0,0,0,59.1,141.67Z"/><path class="cls-2" d="M52.9,83a1.35,1.35,0,0,0-1.74.57c-.77,1-.65,2.32.3,2.82.73.38,1.54.57,2.16-.15A2.4,2.4,0,0,0,52.9,83Z"/><path class="cls-2" d="M57.8,130.42a1.41,1.41,0,0,0-2.14.07,2.21,2.21,0,0,0,.42,2.93,1.55,1.55,0,0,0,2.18-.15A1.94,1.94,0,0,0,57.8,130.42Z"/><path class="cls-2" d="M134.15,74.28a2.39,2.39,0,0,0-1.28,3.36,1.3,1.3,0,0,0,1.83.34,2.35,2.35,0,0,0,.22-3.55C134.66,74.37,134.38,74.22,134.15,74.28Z"/><path class="cls-2" d="M46.16,13.55c-.64-.62-1.8-.79-2.23-.31a2.49,2.49,0,0,0,.23,3.11c.86.7,1.52.6,2.07.1A2,2,0,0,0,46.16,13.55Z"/><path class="cls-2" d="M45.47,27.92a1.76,1.76,0,0,0,2.24-.24A2.4,2.4,0,0,0,47,24.44a1.38,1.38,0,0,0-1.78.58A2,2,0,0,0,45.47,27.92Z"/><path class="cls-2" d="M49.76,166.57a1.66,1.66,0,0,0-2.22,0,2.06,2.06,0,0,0,.2,2.89,1.74,1.74,0,0,0,2.49-.38A1.72,1.72,0,0,0,49.76,166.57Z"/><path class="cls-2" d="M23,134.17a1.59,1.59,0,0,0-2.47.07,1.7,1.7,0,0,0,.25,2.5,1.6,1.6,0,0,0,2.2-.09A1.63,1.63,0,0,0,23,134.17Z"/><path class="cls-2" d="M140.68,132.81c-.28,0-.58-.11-.78,0a2.64,2.64,0,0,0-1.22,3.1,1.29,1.29,0,0,0,1.62.83,1.41,1.41,0,0,0,1.18-1.42C141.56,134.37,141.62,133.42,140.68,132.81Z"/><path class="cls-2" d="M3.43,79.66a1.5,1.5,0,0,0,2.11-.47A1.82,1.82,0,0,0,5,76.7a1.22,1.22,0,0,0-1.8,0A2.09,2.09,0,0,0,3.43,79.66Z"/><path class="cls-2" d="M127.38,16.43c-.92,1-1,2.28-.18,2.86a1.42,1.42,0,0,0,1.86-.19,2.11,2.11,0,0,0,.07-2.91C128.51,15.61,127.85,15.9,127.38,16.43Z"/><path class="cls-2" d="M192.63,68.27a1.17,1.17,0,0,0-.77.19,2.21,2.21,0,0,0,.15,3.47c.27,0,.56.17.78.09a1.79,1.79,0,0,0,1.15-2C193.9,69.23,193.62,68.44,192.63,68.27Z"/><path class="cls-3" d="M148.49,181.17H100.63a15,15,0,0,1-14.9-14.9v-63.4A15,15,0,0,1,100.63,88h47.86a14.94,14.94,0,0,1,14.89,14.9v63.4A14.94,14.94,0,0,1,148.49,181.17Z"/><path class="cls-3" d="M148.49,182.17H100.63a15.93,15.93,0,0,1-15.9-15.9v-63.4A15.92,15.92,0,0,1,100.63,87h47.86a15.91,15.91,0,0,1,15.89,15.9v63.4A15.92,15.92,0,0,1,148.49,182.17ZM100.63,89a13.92,13.92,0,0,0-13.9,13.9v63.4a13.92,13.92,0,0,0,13.9,13.9h47.86a13.91,13.91,0,0,0,13.89-13.9v-63.4A13.91,13.91,0,0,0,148.49,89Z"/><path class="cls-2" d="M107.21,187.77a6.6,6.6,0,0,0,6.6-6.6H100.6A6.61,6.61,0,0,0,107.21,187.77Z"/><path class="cls-3" d="M107.21,188.77a7.61,7.61,0,0,1-7.61-7.6v-1h15.21v1A7.61,7.61,0,0,1,107.21,188.77Zm-5.52-6.6a5.61,5.61,0,0,0,11,0Z"/><path class="cls-2" d="M141.91,187.77a6.61,6.61,0,0,0,6.61-6.6H135.31A6.6,6.6,0,0,0,141.91,187.77Z"/><path class="cls-3" d="M141.91,188.77a7.61,7.61,0,0,1-7.6-7.6v-1h15.21v1A7.61,7.61,0,0,1,141.91,188.77Zm-5.51-6.6a5.61,5.61,0,0,0,11,0Z"/><line class="cls-4" x1="114.04" y1="87.97" x2="114.04" y2="58.63"/><rect class="cls-3" x="113.04" y="58.63" width="2" height="29.35"/><line class="cls-4" x1="135.07" y1="87.97" x2="135.07" y2="58.63"/><rect class="cls-3" x="134.07" y="58.63" width="2" height="29.35"/><rect class="cls-2" x="109.19" y="51.89" width="30.74" height="6.74" rx="2.08"/><path class="cls-3" d="M137.84,59.63H111.27a3.09,3.09,0,0,1-3.08-3.09V54a3.08,3.08,0,0,1,3.08-3.08h26.57A3.09,3.09,0,0,1,140.93,54v2.57A3.1,3.1,0,0,1,137.84,59.63Zm-26.57-6.74A1.08,1.08,0,0,0,110.19,54v2.57a1.09,1.09,0,0,0,1.08,1.09h26.57a1.09,1.09,0,0,0,1.09-1.09V54a1.08,1.08,0,0,0-1.09-1.08Z"/><path class="cls-2" d="M170.13,192H79a8.82,8.82,0,0,1-8.81-8.81V87.79A56.21,56.21,0,0,1,87,47.91a53.48,53.48,0,0,1,38.64-15.55,54.38,54.38,0,0,1,53.32,54.37V183.2A8.82,8.82,0,0,1,170.13,192ZM124.59,34.35a51.42,51.42,0,0,0-36.21,15,54.19,54.19,0,0,0-16.2,38.45V183.2A6.81,6.81,0,0,0,79,190h91.14a6.81,6.81,0,0,0,6.81-6.81V86.73a52.39,52.39,0,0,0-51.36-52.37Z"/><circle class="cls-2" cx="124.56" cy="27.13" r="6.22"/><path class="cls-2" d="M124.56,34.35a7.22,7.22,0,1,1,7.22-7.22A7.23,7.23,0,0,1,124.56,34.35Zm0-12.44a5.22,5.22,0,1,0,5.22,5.22A5.22,5.22,0,0,0,124.56,21.91Z"/><circle class="cls-2" cx="85.73" cy="206.88" r="7.79"/><path class="cls-2" d="M85.73,215.68a8.8,8.8,0,1,1,8.8-8.8A8.81,8.81,0,0,1,85.73,215.68Zm0-15.59a6.8,6.8,0,1,0,6.8,6.79A6.8,6.8,0,0,0,85.73,200.09Z"/><circle class="cls-2" cx="163.38" cy="206.88" r="7.79"/><path class="cls-2" d="M163.38,215.68a8.8,8.8,0,1,1,8.8-8.8A8.8,8.8,0,0,1,163.38,215.68Zm0-15.59a6.8,6.8,0,1,0,6.8,6.79A6.8,6.8,0,0,0,163.38,200.09Z"/><line class="cls-4" x1="85.73" y1="206.88" x2="85.73" y2="191.01"/><path class="cls-2" d="M85.73,207.88a1,1,0,0,1-1-1V191a1,1,0,0,1,2,0v15.87A1,1,0,0,1,85.73,207.88Z"/><line class="cls-4" x1="163.38" y1="206.88" x2="163.38" y2="191.01"/><path class="cls-2" d="M163.38,207.88a1,1,0,0,1-1-1V191a1,1,0,0,1,2,0v15.87A1,1,0,0,1,163.38,207.88Z"/><path class="cls-2" d="M87.82,110.89a1,1,0,0,1-.71-1.71l9.42-9.42a1,1,0,0,1,1.41,0,1,1,0,0,1,0,1.42l-9.41,9.41A1,1,0,0,1,87.82,110.89Z"/><path class="cls-2" d="M87.89,128.31a1,1,0,0,1-.71-.29,1,1,0,0,1,0-1.41l18.09-18.1a1,1,0,0,1,1.42,0,1,1,0,0,1,0,1.41L88.59,128A1,1,0,0,1,87.89,128.31Z"/><path class="cls-2" d="M87.82,145.87a1,1,0,0,1-.71-.29,1,1,0,0,1,0-1.42L114,117.26a1,1,0,0,1,1.41,1.41l-26.9,26.91A1,1,0,0,1,87.82,145.87Z"/><path class="cls-2" d="M87.66,163.52a1,1,0,0,1-.7-1.71L122.77,126a1,1,0,0,1,1.41,0,1,1,0,0,1,0,1.42L88.37,163.23A1,1,0,0,1,87.66,163.52Z"/><path class="cls-2" d="M92,176.63a1,1,0,0,1-.7-1.71l40.17-40.17a1,1,0,0,1,1.42,0,1,1,0,0,1,0,1.41L92.75,176.34A1,1,0,0,1,92,176.63Z"/><path class="cls-2" d="M106,180.19a1,1,0,0,1-.71-.3,1,1,0,0,1,0-1.41l35-35a1,1,0,0,1,1.41,0,1,1,0,0,1,0,1.42l-35,35A1,1,0,0,1,106,180.19Z"/><path class="cls-2" d="M123.58,180.13a1,1,0,0,1-.7-.3,1,1,0,0,1,0-1.41l26.49-26.5a1,1,0,0,1,1.42,1.42l-26.5,26.49A1,1,0,0,1,123.58,180.13Z"/><path class="cls-2" d="M141.12,180.08a1,1,0,0,1-.71-.29,1,1,0,0,1,0-1.41l17.71-17.71a1,1,0,0,1,1.42,0,1,1,0,0,1,0,1.41l-17.71,17.71A1,1,0,0,1,141.12,180.08Z"/></g></g></svg>