<?xml version="1.0" encoding="utf-8"?>
<!-- Generator: Adobe Illustrator 24.0.1, SVG Export Plug-In . SVG Version: 6.00 Build 0)  -->
<svg version="1.1" id="Layer_1" xmlns="http://www.w3.org/2000/svg" xmlns:xlink="http://www.w3.org/1999/xlink" x="0px" y="0px"
	 viewBox="0 0 230 230" style="enable-background:new 0 0 230 230;" xml:space="preserve">
<style type="text/css">
	.st0{fill:#FFFFFF;}
	.st1{fill:#0D507A;}
	.st2{fill:#0A557E;}
	.st3{fill:none;}
	.st4{fill:#231F20;}
	.st5{fill:#F69570;}
	.st6{fill:#F48980;}
	.st7{fill:#08507B;}
	.st8{fill:#F7F9FC;}
	.st9{clip-path:url(#SVGID_4_);}
	.st10{fill:#0E547D;}
	.st11{clip-path:url(#SVGID_6_);}
	.st12{fill:#81C9EF;}
	.st13{fill:#11537C;}
	.st14{fill:#FFFFFF;stroke:#0A557E;stroke-width:1.778;stroke-linecap:round;stroke-linejoin:round;stroke-miterlimit:10;}
	.st15{fill:none;stroke:#CAE2F8;stroke-width:1.778;stroke-linecap:round;stroke-linejoin:round;stroke-miterlimit:10;}
	.st16{fill:#D0C2EF;}
	.st17{fill:#874ACE;}
	.st18{fill:#C5C6E3;}
	.st19{fill:#4F388D;}
	.st20{fill:none;stroke:#0D507A;stroke-width:3.1011;stroke-linecap:round;stroke-linejoin:round;stroke-miterlimit:10;}
	.st21{fill:#E8318D;}
	.st22{fill:none;stroke:#E8318D;stroke-linecap:round;stroke-linejoin:round;stroke-miterlimit:10;}
</style>
<g>
	<g>
		<circle class="st3" cx="115" cy="115" r="92"/>
	</g>
	<g>
		<path class="st0" d="M144,66.3c0-14.4-11.7-26.1-26.1-26.1l0,0c-29.6-0.5-29.2,30.2-29.2,30.2l0,0c-0.1,1-0.2,2.1-0.2,3.1v91.9
			c0,14.4,11.7,26.1,26.1,26.1l0,0c1.1,0,2.2-0.1,3.3-0.2c26.5-2.4,26-32.9,26-32.9l0,0c0-0.1,0-0.2,0-0.2V66.3z"/>
		<path class="st2" d="M114.7,193.1c-15.3,0-27.7-12.4-27.7-27.7V73.5c0-1,0.1-2.1,0.2-3.2c0-1.2,0.1-14.8,9.2-23.9
			c5.3-5.3,12.5-7.9,21.6-7.8c15.2,0,27.6,12.4,27.6,27.7l0,92c0,0,0,0.1,0,0.1c0,0.3,0.1,32-27.5,34.4
			C116.9,193,115.8,193.1,114.7,193.1z M90.3,70.3c0,0.1,0,0.2,0,0.3c-0.1,1-0.2,2-0.2,2.9v91.9c0,13.5,11,24.6,24.6,24.6
			c1,0,2-0.1,3.1-0.2c10.4-0.9,17.6-6.4,21.7-16.3c2.9-7,3-13.9,3-14.9c0-0.1,0-0.1,0-0.2l0-0.1l0-92c0-13.5-11-24.6-24.6-24.6
			c-8.1-0.1-14.7,2.2-19.3,6.9C90.6,56.6,90.3,68.9,90.3,70.3z"/>
	</g>
	<g>
		<g>
			<g>
				<path class="st0" d="M203.1,160.3L203.1,160.3c0.6-11.7-2.1-23.4-8.2-33.3c-3-4.9-6.7-9.5-10.9-13.5l-43.1-42l-14.1,14.5
					L203.1,160.3z"/>
				<path class="st2" d="M203.1,161.8c-0.4,0-0.8-0.1-1.1-0.4L125.7,87c-0.3-0.3-0.5-0.7-0.5-1.1c0-0.4,0.2-0.8,0.4-1.1l14.1-14.5
					c0.6-0.6,1.6-0.6,2.2,0l43.1,42c4.2,4.1,8,8.8,11.1,13.8c6.2,9.9,9.1,21.8,8.4,34.2c0,0.6-0.4,1.2-1,1.4
					C203.4,161.8,203.3,161.8,203.1,161.8z M129,85.9l72.6,70.8c-0.1-10.5-2.8-20.4-8.1-28.9c-3-4.8-6.6-9.3-10.6-13.2l-42-40.9
					L129,85.9z"/>
			</g>
			<g>
				<path class="st2" d="M160.7,108.6c-0.4,0-0.8-0.1-1.1-0.4l-10.9-10.6c-0.6-0.6-0.6-1.6,0-2.2c0.6-0.6,1.6-0.6,2.2,0l10.9,10.6
					c0.6,0.6,0.6,1.6,0,2.2C161.5,108.5,161.1,108.6,160.7,108.6z"/>
			</g>
			<g>
				<path class="st0" d="M130.5,175.4l-14.3,14.3L54,127.4c0,0-11-15.8-6.3-20.6c4.8-4.8,20.6,6.3,20.6,6.3L130.5,175.4z"/>
				<path class="st2" d="M116.2,191.2c-0.4,0-0.8-0.2-1.1-0.5l-62.3-62.3c-0.1-0.1-0.1-0.1-0.2-0.2c-0.1-0.2-2.9-4.1-5.1-8.7
					c-3.2-6.7-3.5-11.4-1.1-13.8c2.5-2.5,7.1-2.1,13.8,1.1c4.6,2.2,8.6,4.9,8.7,5.1c0.1,0.1,0.1,0.1,0.2,0.2l62.3,62.3
					c0.6,0.6,0.6,1.6,0,2.2l-14.3,14.3C117,191.1,116.6,191.2,116.2,191.2z M55.2,126.4l61.1,61.1l12.1-12.1l-61.1-61.1
					c-6.1-4.3-15.9-9-18.5-6.4C46.2,110.6,50.9,120.3,55.2,126.4z"/>
			</g>
			<g>
				<path class="st2" d="M60.2,120.9c-0.4,0-0.8-0.2-1.1-0.5l-12.5-12.5c-0.6-0.6-0.6-1.6,0-2.2c0.6-0.6,1.6-0.6,2.2,0l12.5,12.5
					c0.6,0.6,0.6,1.6,0,2.2C61,120.7,60.6,120.9,60.2,120.9z"/>
			</g>
			<g>
				<path class="st0" d="M43.3,34.4l13.6,13.8c0.8,0.8,0.8,2.2,0,3l-7.2,7.1c-0.8,0.8-2.2,0.8-3,0L33,44.5c-0.6-0.6-1.6-0.4-1.9,0.4
					c-3.5,8.3-2,18.3,4.8,25.1c5.9,6,14.2,8,21.8,6.2c1.2-0.3,2.5,0.1,3.4,1l44.3,45.1l14.4-14.2L75.5,63c-0.9-0.9-1.3-2.2-0.9-3.4
					c2-7.6,0-15.9-5.8-21.9c-6.7-6.8-16.7-8.6-25-5.2C42.9,32.8,42.7,33.8,43.3,34.4z"/>
				<path class="st2" d="M105.4,123.8C105.4,123.8,105.4,123.8,105.4,123.8c-0.4,0-0.8-0.2-1.1-0.5L60,78.3
					c-0.5-0.5-1.2-0.7-1.9-0.6c-8.5,2-17.2-0.5-23.3-6.6c-7-7.1-9-17.6-5.1-26.8c0.4-0.8,1.1-1.4,2-1.6c0.9-0.2,1.8,0.1,2.4,0.8
					l13.6,13.8c0.1,0.1,0.3,0.2,0.4,0.2c0.1,0,0.2,0,0.4-0.2l7.2-7.1c0.2-0.2,0.2-0.6,0-0.8L42.2,35.5c0,0,0,0,0,0
					c-0.6-0.6-0.9-1.6-0.7-2.4c0.2-0.9,0.8-1.6,1.6-2c9.3-3.7,19.7-1.6,26.7,5.5c6.1,6.2,8.4,14.9,6.2,23.4c-0.2,0.7,0,1.4,0.5,1.9
					l44.3,45.1c0.6,0.6,0.6,1.6,0,2.2l-14.4,14.2C106.2,123.7,105.8,123.8,105.4,123.8z M58.5,74.5c1.4,0,2.7,0.6,3.7,1.6l43.2,44
					l12.2-12l-43.2-44c-1.3-1.3-1.8-3.2-1.3-4.9c1.9-7.4-0.1-15-5.4-20.4c-6-6.1-14.9-8-22.8-5.1L58,47.1c0.7,0.7,1.1,1.6,1,2.6
					c0,1-0.4,1.9-1.1,2.6l-7.2,7.1c-0.7,0.7-1.6,1-2.6,1c-1,0-1.9-0.4-2.6-1.1L32.4,46C29.2,53.9,31,62.8,37,68.9
					c5.3,5.4,12.9,7.6,20.3,5.8C57.7,74.6,58.1,74.5,58.5,74.5z"/>
			</g>
			<g>
				<path class="st2" d="M115,45.5L115,45.5c-14.6,0-26.5,11.8-26.5,26.5v93.1c0,14.6,11.8,26.5,26.5,26.5h0
					c14.6,0,26.5-11.8,26.5-26.5V72C141.5,57.4,129.6,45.5,115,45.5z"/>
				<path class="st2" d="M115,193.1c-15.4,0-28-12.6-28-28V72c0-15.4,12.6-28,28-28c15.4,0,28,12.6,28,28v93.1
					C143,180.5,130.4,193.1,115,193.1z M115,47.1c-13.7,0-24.9,11.2-24.9,24.9v93.1c0,13.7,11.2,24.9,24.9,24.9
					c13.7,0,24.9-11.2,24.9-24.9V72C139.9,58.2,128.7,47.1,115,47.1z"/>
			</g>
		</g>
		<g>
			<path class="st0" d="M115,170.1c-0.9,0-1.6-0.7-1.6-1.6v-19.2c0-0.9,0.7-1.6,1.6-1.6c0.9,0,1.6,0.7,1.6,1.6v19.2
				C116.5,169.4,115.8,170.1,115,170.1z"/>
		</g>
		<g>
			<path class="st0" d="M124.6,160.5h-19.2c-0.9,0-1.6-0.7-1.6-1.6c0-0.9,0.7-1.6,1.6-1.6h19.2c0.9,0,1.6,0.7,1.6,1.6
				C126.2,159.8,125.5,160.5,124.6,160.5z"/>
		</g>
	</g>
</g>
</svg>
