<?xml version="1.0" encoding="utf-8"?>
<!-- Generator: Adobe Illustrator 24.0.1, SVG Export Plug-In . SVG Version: 6.00 Build 0)  -->
<svg version="1.1" id="Layer_1" xmlns="http://www.w3.org/2000/svg" xmlns:xlink="http://www.w3.org/1999/xlink" x="0px" y="0px"
	 viewBox="0 0 230 230" style="enable-background:new 0 0 230 230;" xml:space="preserve">
<style type="text/css">
	.st0{fill:#FFFFFF;}
	.st1{fill:#0A557E;}
	.st2{fill:#0D507A;}
	.st3{fill:none;}
	.st4{fill:#231F20;}
	.st5{fill:#F69570;}
	.st6{fill:#F48980;}
	.st7{fill:#08507B;}
	.st8{fill:#F7F9FC;}
	.st9{clip-path:url(#SVGID_4_);}
	.st10{fill:#0E547D;}
	.st11{clip-path:url(#SVGID_6_);}
	.st12{fill:#81C9EF;}
	.st13{fill:#11537C;}
	.st14{fill:#FFFFFF;stroke:#0A557E;stroke-width:1.778;stroke-linecap:round;stroke-linejoin:round;stroke-miterlimit:10;}
	.st15{fill:none;stroke:#CAE2F8;stroke-width:1.778;stroke-linecap:round;stroke-linejoin:round;stroke-miterlimit:10;}
	.st16{fill:#D0C2EF;}
	.st17{fill:#874ACE;}
	.st18{fill:#C5C6E3;}
	.st19{fill:#4F388D;}
	.st20{fill:none;stroke:#0D507A;stroke-width:3.1011;stroke-linecap:round;stroke-linejoin:round;stroke-miterlimit:10;}
	.st21{fill:#E8318D;}
	.st22{fill:none;stroke:#E8318D;stroke-linecap:round;stroke-linejoin:round;stroke-miterlimit:10;}
	.st23{fill:#4F388E;}
	.st24{fill:#FAC67B;}
	.st25{fill:#C6C8E6;}
	.st26{clip-path:url(#SVGID_10_);}
	.st27{clip-path:url(#SVGID_12_);}
</style>
<g>
	<g>
		<defs>
			<rect id="SVGID_7_" x="40.1" y="26.6" width="149.7" height="174.7"/>
		</defs>
		<clipPath id="SVGID_2_">
			<use xlink:href="#SVGID_7_"  style="overflow:visible;"/>
		</clipPath>
	</g>
	<g>
		<g>
			<path class="st1" d="M120.1,53.3c-3.8-0.2-9.8,0.5-12.9,4.4c-0.9,1.1-1.6,1.9-2.8,2.3c-1.4,0.5-6.6-0.7-12.7,4.7
				C80.2,74.9,79.6,86.2,80.5,93c0.1,0.5,0.3,1.1,0.5,1.7c0.4,1.3,0.7,2.6,0.9,4c0,0.2,0.1,0.3,0.1,0.3c0-0.1-0.1-0.2-0.1-0.3
				c0.2,1.7,0.1,3.3-0.5,4.8c-0.4,1-1.1,2-1.4,3c-0.1,0.3-0.1,0.5-0.1,0.8v1.2c0,5,4,9,9,9h13.3c3.9,1.5,8.2,2.3,12.6,2.3
				s8.7-0.8,12.6-2.3h13.3c5,0,9-4,9-9v-1.4c0-0.2-0.1-0.4-0.1-0.6c-0.3-1.1-0.9-2-1.4-3c-1.1-2.8-0.5-6,0.4-8.8
				c0.7-2.5,1-4.2,1.1-6.7v-0.6c0-0.3,0-0.7,0-1C149.6,69.6,136.8,55.7,120.1,53.3z"/>
		</g>
		<g>
			<path class="st1" d="M114.7,121.1c-4.4,0-8.7-0.8-12.8-2.3H88.8c-5.7,0-10.3-4.6-10.3-10.3l0-1.3c0-0.3,0.1-0.6,0.2-1
				c0.2-0.8,0.6-1.5,0.9-2.1c0.2-0.4,0.4-0.7,0.5-1.1c0.5-1.1,0.6-2.5,0.4-4.1l0-0.1c-0.2-1.4-0.5-2.7-0.8-3.8
				c-0.2-0.6-0.3-1.2-0.5-1.8c-1.1-7.9,0.1-19.3,11.5-29.5c5.1-4.5,9.6-4.8,12-4.9c0.4,0,1,0,1.1-0.1c0.9-0.3,1.4-0.8,2.3-1.9
				c3.2-4,9.3-5.2,13.9-4.9l0.1,0c17.5,2.6,30.6,17.3,30.6,34.4c0,0.3,0,0.5,0,0.8l0,0.3l0,0.6c-0.2,2.8-0.5,4.6-1.2,7.1
				c-0.8,2.8-1.4,5.6-0.4,8c0.2,0.4,0.3,0.7,0.5,1.1c0.3,0.7,0.7,1.3,0.9,2.1c0.1,0.2,0.1,0.5,0.1,0.7l0,0.2v1.4
				c0,5.7-4.6,10.3-10.3,10.3h-13C123.4,120.4,119.1,121.1,114.7,121.1z M81.1,107.5v1.1c0,4.3,3.5,7.8,7.8,7.8h13.5l0.2,0.1
				c7.8,2.9,16.5,2.9,24.3,0l0.2-0.1h13.5c4.3,0,7.8-3.5,7.8-7.8v-1.3c0-0.1,0-0.2-0.1-0.3c-0.1-0.5-0.4-1.1-0.7-1.6
				c-0.2-0.4-0.4-0.8-0.6-1.3c-1.3-3.1-0.6-6.5,0.3-9.7c0.6-2.3,0.9-3.9,1.1-6.4l0-0.6l0-0.3c0-0.2,0-0.5,0-0.7
				c0-15.8-12.2-29.5-28.5-31.9c-3.8-0.2-9.2,0.7-11.8,4c-1,1.2-1.8,2.2-3.4,2.7c-0.5,0.2-1,0.2-1.8,0.2c-2.3,0.1-6,0.3-10.5,4.3
				c-10.6,9.5-11.7,20-10.7,27.2c0.1,0.4,0.2,1,0.4,1.6c0.3,1.1,0.7,2.6,0.9,4.1c0,0.1,0.1,0.2,0.1,0.3l-0.1,0c0.2,2,0,3.8-0.6,5.3
				c-0.2,0.4-0.4,0.9-0.6,1.3c-0.3,0.6-0.6,1.1-0.7,1.6C81.1,107.1,81.1,107.3,81.1,107.5z"/>
		</g>
	</g>
	<g>
		<g>
			<path class="st0" d="M136.1,99.5c0-3.1-0.8-6.9-3.7-7.9c-9.9-3.6-14.4-10.5-20.9-19c-2.5-3.3-4.4-2.1-5.6-1.4
				c-3.5,2-11.8,9.6-12.7,20.5V105c0,0,0,5.5,0,6.1c0,4.6,9.6,14.8,21.4,14.8c11.8,0,21.4-10.1,21.4-14.8c0-0.6,0-6.1,0-6.1V99.5z"
				/>
		</g>
	</g>
	<g>
		<g>
			<path class="st1" d="M98.1,87.7c-0.4,0-0.8-0.2-1-0.5c-0.4-0.6-0.3-1.3,0.3-1.7c1.6-1.1,3.5-1.8,5.5-1.9c1.5-0.1,3.1,0.2,4.4,0.8
				c0.6,0.3,0.9,1,0.6,1.7c-0.3,0.6-1,0.9-1.7,0.6c-0.9-0.4-2.1-0.6-3.2-0.6c-1.5,0.1-3,0.6-4.3,1.5C98.6,87.6,98.3,87.7,98.1,87.7z
				"/>
		</g>
	</g>
	<g>
		<g>
			<path class="st23" d="M103.2,97.5c-1.6,0-3-0.9-3.7-2.3c-0.3-0.6-0.1-1.4,0.6-1.7c0.6-0.3,1.4-0.1,1.7,0.6
				c0.3,0.6,0.8,0.9,1.5,0.9c0.7,0,1.2-0.4,1.5-1c0.3-0.6,1-0.9,1.6-0.7c0.6,0.3,0.9,1,0.7,1.6C106.4,96.5,104.9,97.5,103.2,97.5z"
				/>
		</g>
	</g>
	<g>
		<g>
			<path class="st23" d="M125.8,97.5c-1.6,0-3-0.9-3.7-2.3c-0.3-0.6-0.1-1.4,0.6-1.7c0.6-0.3,1.4-0.1,1.7,0.6
				c0.3,0.6,0.8,0.9,1.5,0.9c0.7,0,1.2-0.4,1.5-1c0.3-0.6,1-0.9,1.6-0.7c0.6,0.3,0.9,1,0.7,1.6C129,96.5,127.5,97.5,125.8,97.5z"/>
		</g>
	</g>
	<g>
		<g>
			<path class="st23" d="M113.9,105.1c-1.1,0-2.1-0.5-2.7-1.3c-0.7-0.8-1-1.9-0.7-3l1.3-6.4c0.1-0.7,0.8-1.1,1.5-1
				c0.7,0.1,1.1,0.8,1,1.5l-1.3,6.4c-0.1,0.4,0.1,0.7,0.2,0.9c0.1,0.1,0.4,0.4,0.8,0.4c0,0,0,0,0,0l2.1,0c0,0,0,0,0,0
				c0.7,0,1.2,0.6,1.2,1.2c0,0.7-0.5,1.2-1.2,1.3L113.9,105.1C113.9,105.1,113.9,105.1,113.9,105.1z"/>
		</g>
	</g>
	<g>
		<g>
			<path class="st23" d="M114.7,115.7c-3.5,0-6.8-1.7-8.6-4.3c-0.4-0.6-0.2-1.3,0.3-1.7c0.6-0.4,1.3-0.2,1.7,0.3
				c1.3,2,3.9,3.2,6.6,3.2c2.7,0,5.2-1.2,6.6-3.2c0.4-0.6,1.2-0.7,1.7-0.3c0.6,0.4,0.7,1.2,0.3,1.7
				C121.5,114.1,118.3,115.7,114.7,115.7z"/>
		</g>
	</g>
	<g>
		<g>
			<rect x="104" y="117.4" class="st24" width="18.7" height="18.7"/>
		</g>
	</g>
	<g>
		<g>
			<path class="st0" d="M163,111.8V89.2c0-1.3-1-2.3-2.3-2.4c-8.1-0.2-35.2-0.2-45,8.4c-0.6,0.5-1.4,0.5-2,0
				c-9.8-8.7-36.9-8.7-45-8.4c-1.3,0-2.3,1.1-2.3,2.4v22.6l48.6,13.5L163,111.8z"/>
		</g>
		<g>
			<path class="st1" d="M115,126.5c-0.1,0-0.2,0-0.3,0L66.1,113c-0.5-0.1-0.9-0.6-0.9-1.2V89.2c0-2,1.5-3.6,3.5-3.6
				c8.2-0.2,35.8-0.2,45.9,8.8c0.1,0.1,0.2,0.1,0.3,0c10.1-9,37.7-9,45.9-8.8c2,0,3.5,1.6,3.5,3.6v22.6c0,0.6-0.4,1-0.9,1.2
				l-48,13.5C115.2,126.5,115.1,126.5,115,126.5z M67.7,110.9L115,124l46.8-13.1V89.2c0-0.6-0.5-1.1-1.1-1.1
				c-8-0.2-34.7-0.2-44.1,8.1c-1,0.9-2.6,0.9-3.6,0c-9.4-8.3-36.2-8.3-44.1-8.1c-0.6,0-1.1,0.5-1.1,1.1V110.9z M163,111.8L163,111.8
				L163,111.8z"/>
		</g>
	</g>
	<g>
		<g>
			<path class="st1" d="M109.3,174.4c-13.5-7.8-38.8-8.9-46.6-9c-1.3,0-2.3-1.1-2.3-2.4V93.8c0-1.3,1-2.3,2.3-2.4
				c8.3-0.2,36.7-0.2,46.5,8.7c0.5,0.4,1,0.7,1.7,0.7h8.3c0.6,0,1.2-0.3,1.7-0.7c9.7-9,38.1-9,46.5-8.8c1.3,0,2.3,1.1,2.3,2.4V163
				c0,1.3-1,2.4-2.3,2.4c-7.8,0.2-33.1,1.3-46.6,9c-0.4,0.2-0.7,0.3-1.2,0.3h-9C110.1,174.7,109.7,174.6,109.3,174.4z"/>
		</g>
		<g>
			<path class="st1" d="M119.4,175.9h-9c-0.6,0-1.2-0.2-1.8-0.5c-13.3-7.6-38.6-8.7-46-8.8c-2,0-3.5-1.6-3.5-3.6V93.8
				c0-2,1.5-3.6,3.5-3.6c8.6-0.2,37.3-0.2,47.3,9.1c0.2,0.2,0.5,0.4,0.8,0.4h8.3c0.4,0,0.6-0.2,0.8-0.4c10-9.3,38.8-9.3,47.3-9.1
				c2,0,3.5,1.6,3.5,3.6V163c0,2-1.6,3.6-3.5,3.6c-7.4,0.1-32.7,1.2-46,8.8C120.7,175.8,120.1,175.9,119.4,175.9z M67.1,92.6
				c-1.8,0-3.3,0-4.4,0.1c-0.6,0-1.1,0.5-1.1,1.1V163c0,0.6,0.5,1.1,1.1,1.1c7.6,0.2,33.4,1.3,47.2,9.2l0,0c0.2,0.1,0.4,0.1,0.5,0.1
				h9c0.2,0,0.4,0,0.5-0.1c13.8-7.9,39.6-9,47.2-9.2c0.6,0,1.1-0.5,1.1-1.1V93.7c0-0.6-0.5-1.1-1.1-1.1c-8.3-0.2-36.2-0.2-45.6,8.5
				c-0.7,0.7-1.6,1-2.5,1h-8.3c-0.9,0-1.8-0.4-2.5-1C100.3,93.6,78.3,92.6,67.1,92.6z"/>
		</g>
	</g>
	<g>
		<g>
			<path class="st0" d="M106.5,163c-0.1,0-0.3,0-0.4-0.1c-14.7-5.5-36.7-6.4-43.1-6.5c-0.7,0-1.2-0.6-1.2-1.3c0-0.7,0.6-1.2,1.3-1.2
				c8.3,0.2,29.3,1.1,44,6.7c0.6,0.2,1,1,0.7,1.6C107.5,162.7,107,163,106.5,163z"/>
		</g>
	</g>
	<g>
		<g>
			<path class="st0" d="M102.3,147.7c-0.1,0-0.2,0-0.4-0.1c-14-4.2-31.9-5-39-5.1c-0.7,0-1.2-0.6-1.2-1.3c0-0.7,0.6-1.2,1.3-1.2
				c7.1,0.1,25.3,0.9,39.7,5.2c0.7,0.2,1,0.9,0.8,1.6C103.4,147.4,102.9,147.7,102.3,147.7z"/>
		</g>
	</g>
	<g>
		<g>
			<path class="st0" d="M89.5,130.9c-0.1,0-0.1,0-0.2,0c-11.1-1.8-22.1-2.2-26.3-2.3c-0.7,0-1.2-0.6-1.2-1.3c0-0.7,0.6-1.2,1.3-1.2
				c4.3,0.1,15.4,0.5,26.6,2.3c0.7,0.1,1.1,0.8,1,1.4C90.6,130.4,90.1,130.9,89.5,130.9z"/>
		</g>
	</g>
	<g>
		<g>
			<path class="st0" d="M79.6,115.7c0,0-0.1,0-0.1,0c-7.2-0.7-13.4-0.9-16.4-1c-0.7,0-1.2-0.6-1.2-1.3c0-0.7,0.6-1.2,1.3-1.2
				c3.1,0.1,9.4,0.3,16.6,1c0.7,0.1,1.2,0.7,1.1,1.4C80.7,115.2,80.2,115.7,79.6,115.7z"/>
		</g>
	</g>
	<g>
		<g>
			<path class="st0" d="M79.6,102c0,0-0.1,0-0.1,0c-7.2-0.7-13.4-0.9-16.5-1c-0.7,0-1.2-0.6-1.2-1.3c0-0.7,0.6-1.2,1.3-1.2
				c3.1,0.1,9.4,0.3,16.7,1c0.7,0.1,1.2,0.7,1.1,1.4C80.8,101.5,80.3,102,79.6,102z"/>
		</g>
	</g>
	<g>
		<g>
			<path class="st0" d="M58.3,155.9l9.2,0c1.6,0,3.1-1.2,3.3-2.8c0.2-2-1.3-3.6-3.2-3.6c1.8,0,3.2-1.4,3.2-3.2
				c0-1.8-1.4-3.2-3.2-3.2c1.8,0,3.2-1.4,3.2-3.2c0-1.8-1.4-3.2-3.2-3.2c1.8,0,3.3-1.6,3.2-3.4c-0.1-1.7-1.6-3-3.3-3l-10,0
				c0,0-8,0.1-7.6,13.5C50.4,156.1,58.3,155.9,58.3,155.9z"/>
		</g>
		<g>
			<path class="st1" d="M67.5,157.1C67.5,157.1,67.5,157.1,67.5,157.1l-9.2,0c-0.4,0-3.1,0-5.6-2.4c-2.5-2.3-3.8-6-4-11.1
				c-0.2-5.5,1-9.6,3.5-12.2c2.4-2.5,5.2-2.6,5.4-2.6l10,0c2.4,0,4.4,1.8,4.6,4.2c0.1,1.2-0.3,2.4-1.2,3.3c-0.1,0.1-0.1,0.1-0.2,0.2
				c0,0,0,0,0.1,0.1c0.8,0.8,1.3,2,1.3,3.2c0,1.2-0.5,2.3-1.3,3.2c0,0,0,0-0.1,0.1c0,0,0,0,0.1,0.1c0.8,0.8,1.3,2,1.3,3.2
				c0,1.2-0.5,2.3-1.3,3.2c0,0,0,0-0.1,0.1c0.1,0.1,0.2,0.2,0.3,0.3c0.8,1,1.2,2.2,1.1,3.5C71.8,155.5,69.8,157.1,67.5,157.1z
				 M58.3,154.6C58.3,154.6,58.3,154.6,58.3,154.6l9.2,0c0,0,0,0,0,0c1,0,1.9-0.8,2.1-1.7c0.1-0.6-0.1-1.1-0.5-1.6
				c-0.4-0.4-0.9-0.7-1.5-0.7l0,0c-0.7,0-1.2-0.6-1.2-1.2s0.6-1.2,1.2-1.2h0l0,0c0,0,0,0,0,0c0.5,0,1-0.2,1.4-0.6
				c0.4-0.4,0.6-0.9,0.6-1.4c0-0.5-0.2-1-0.6-1.4c-0.4-0.4-0.9-0.6-1.4-0.6c-0.7,0-1.2-0.6-1.2-1.2c0-0.7,0.6-1.2,1.2-1.2h0
				c0,0,0,0,0,0c0.5,0,1-0.2,1.4-0.6c0.4-0.4,0.6-0.9,0.6-1.4c0-0.5-0.2-1-0.6-1.4c-0.4-0.4-0.9-0.6-1.4-0.6c-0.7,0-1.2-0.6-1.2-1.2
				c0-0.7,0.6-1.2,1.2-1.2h0l0,0c0,0,0,0,0,0c0.6,0,1.1-0.2,1.4-0.6c0.4-0.4,0.6-0.9,0.5-1.5c-0.1-1-1-1.8-2.1-1.8l-10,0
				c-0.1,0-1.9,0.1-3.6,1.9c-1.9,2-2.9,5.6-2.7,10.3c0.1,4.3,1.2,7.5,3.2,9.3C56.3,154.6,58.3,154.6,58.3,154.6
				C58.3,154.6,58.3,154.6,58.3,154.6z"/>
		</g>
	</g>
	<g>
		<g>
			<line class="st0" x1="67.6" y1="149.5" x2="63.3" y2="149.4"/>
		</g>
		<g>
			<path class="st1" d="M67.6,150.7C67.6,150.7,67.6,150.7,67.6,150.7l-4.3-0.1c-0.7,0-1.2-0.6-1.2-1.3c0-0.7,0.5-1.3,1.3-1.2
				l4.3,0.1c0.7,0,1.2,0.6,1.2,1.3C68.9,150.2,68.3,150.7,67.6,150.7z"/>
		</g>
	</g>
	<g>
		<g>
			<line class="st0" x1="67.6" y1="143" x2="63.3" y2="142.9"/>
		</g>
		<g>
			<path class="st1" d="M67.6,144.3C67.6,144.3,67.6,144.3,67.6,144.3l-4.3-0.1c-0.7,0-1.2-0.6-1.2-1.3c0-0.7,0.6-1.2,1.3-1.2
				l4.3,0.1c0.7,0,1.2,0.6,1.2,1.3C68.9,143.7,68.3,144.3,67.6,144.3z"/>
		</g>
	</g>
	<g>
		<g>
			<line class="st0" x1="67.6" y1="136.6" x2="63.3" y2="136.5"/>
		</g>
		<g>
			<path class="st1" d="M67.6,137.8C67.6,137.8,67.6,137.8,67.6,137.8l-4.4-0.1c-0.7,0-1.2-0.6-1.2-1.3c0-0.7,0.6-1.2,1.3-1.2
				l4.3,0.1c0.7,0,1.2,0.6,1.2,1.3C68.9,137.3,68.3,137.8,67.6,137.8z"/>
		</g>
	</g>
	<g>
		<g>
			<path class="st0" d="M171.6,155.9l-9.2,0c-1.6,0-3.1-1.2-3.3-2.8c-0.2-2,1.3-3.6,3.2-3.6c-1.8,0-3.2-1.4-3.2-3.2
				c0-1.8,1.4-3.2,3.2-3.2c-1.8,0-3.2-1.4-3.2-3.2c0-1.8,1.4-3.2,3.2-3.2c-1.8,0-3.3-1.6-3.2-3.4c0.1-1.7,1.6-3,3.3-3l10,0
				c0,0,8,0.1,7.6,13.5C179.5,156.1,171.6,155.9,171.6,155.9z"/>
		</g>
		<g>
			<path class="st1" d="M162.4,157.1c-2.3,0-4.3-1.7-4.5-3.9c-0.2-1.3,0.2-2.6,1.1-3.5c0.1-0.1,0.2-0.2,0.3-0.3c0,0,0,0-0.1-0.1
				c-0.8-0.8-1.3-2-1.3-3.2c0-1.2,0.5-2.3,1.3-3.2c0,0,0,0,0.1-0.1c0,0,0,0-0.1-0.1c-0.8-0.8-1.3-2-1.3-3.2c0-1.2,0.5-2.3,1.3-3.2
				c0,0,0,0,0.1-0.1c-0.1-0.1-0.1-0.1-0.2-0.2c-0.9-0.9-1.3-2.1-1.2-3.3c0.1-2.3,2.2-4.2,4.6-4.2l10,0c0.1,0,2.9,0.1,5.4,2.6
				c2.5,2.6,3.6,6.7,3.5,12.2c-0.2,5-1.5,8.7-4,11.1c-2.5,2.3-5.2,2.4-5.6,2.4L162.4,157.1C162.4,157.1,162.4,157.1,162.4,157.1z
				 M171.6,155.9L171.6,155.9L171.6,155.9z M162.3,150.7c-0.6,0-1.1,0.2-1.5,0.7c-0.4,0.4-0.5,1-0.5,1.6c0.1,1,1,1.7,2.1,1.7
				c0,0,0,0,0,0l9.2,0c0,0,0,0,0,0c0.3,0,6.7,0,7.1-11c0.2-4.7-0.8-8.3-2.7-10.3c-1.7-1.8-3.6-1.9-3.6-1.9l-9.9,0
				c-1.1,0-2,0.8-2.1,1.8c0,0.6,0.2,1.1,0.5,1.5c0.4,0.4,0.9,0.6,1.4,0.6c0,0,0,0,0,0l0,0l0,0h0c0.7,0,1.2,0.6,1.2,1.2
				s-0.6,1.2-1.2,1.2c-0.5,0-1,0.2-1.4,0.6c-0.4,0.4-0.6,0.9-0.6,1.4c0,0.5,0.2,1,0.6,1.4c0.4,0.4,0.9,0.6,1.4,0.6c0,0,0,0,0,0h0
				c0.7,0,1.2,0.6,1.2,1.2s-0.6,1.2-1.2,1.2c-0.5,0-1,0.2-1.4,0.6c-0.4,0.4-0.6,0.9-0.6,1.4c0,0.5,0.2,1,0.6,1.4
				c0.4,0.4,0.9,0.6,1.4,0.6c0,0,0,0,0,0l0,0h0c0.7,0,1.2,0.6,1.2,1.2S163,150.7,162.3,150.7L162.3,150.7z"/>
		</g>
	</g>
	<g>
		<g>
			<line class="st0" x1="162.3" y1="149.5" x2="166.6" y2="149.4"/>
		</g>
		<g>
			<path class="st1" d="M162.3,150.7c-0.7,0-1.2-0.5-1.2-1.2c0-0.7,0.5-1.3,1.2-1.3l4.3-0.1c0.7-0.1,1.3,0.5,1.3,1.2
				c0,0.7-0.5,1.3-1.2,1.3L162.3,150.7C162.3,150.7,162.3,150.7,162.3,150.7z"/>
		</g>
	</g>
	<g>
		<g>
			<line class="st0" x1="162.3" y1="143" x2="166.6" y2="142.9"/>
		</g>
		<g>
			<path class="st1" d="M162.3,144.3c-0.7,0-1.2-0.5-1.2-1.2c0-0.7,0.5-1.3,1.2-1.3l4.3-0.1c0,0,0,0,0,0c0.7,0,1.2,0.5,1.2,1.2
				c0,0.7-0.5,1.3-1.2,1.3L162.3,144.3C162.3,144.3,162.3,144.3,162.3,144.3z"/>
		</g>
	</g>
	<g>
		<g>
			<line class="st0" x1="162.3" y1="136.6" x2="166.6" y2="136.5"/>
		</g>
		<g>
			<path class="st1" d="M162.3,137.8c-0.7,0-1.2-0.5-1.2-1.2c0-0.7,0.5-1.3,1.2-1.3l4.3-0.1c0.7-0.1,1.3,0.5,1.3,1.2
				c0,0.7-0.5,1.3-1.2,1.3L162.3,137.8C162.3,137.8,162.3,137.8,162.3,137.8z"/>
		</g>
	</g>
	<g>
		<g>
			<path class="st0" d="M117.1,174.7h-4.2c-1.5,0-2.7-1.2-2.7-2.7v-68.4c0-1.5,1.2-2.7,2.7-2.7h4.2c1.5,0,2.7,1.2,2.7,2.7V172
				C119.8,173.5,118.6,174.7,117.1,174.7z"/>
		</g>
		<g>
			<path class="st1" d="M116.5,175.9h-3.1c-2.5,0-4.5-2-4.5-4.5v-67.3c0-2.5,2-4.5,4.5-4.5h3.1c2.5,0,4.5,2,4.5,4.5v67.3
				C121.1,173.9,119,175.9,116.5,175.9z M113.5,102.1c-1.1,0-2.1,0.9-2.1,2.1v67.3c0,1.1,0.9,2.1,2.1,2.1h3.1c1.1,0,2.1-0.9,2.1-2.1
				v-67.3c0-1.1-0.9-2.1-2.1-2.1H113.5z"/>
		</g>
	</g>
</g>
</svg>
