<?xml version="1.0" encoding="utf-8"?>
<!-- Generator: Adobe Illustrator 24.0.1, SVG Export Plug-In . SVG Version: 6.00 Build 0)  -->
<svg version="1.1" id="Layer_1" xmlns="http://www.w3.org/2000/svg" xmlns:xlink="http://www.w3.org/1999/xlink" x="0px" y="0px"
	 viewBox="0 0 230 230" style="enable-background:new 0 0 230 230;" xml:space="preserve">
<style type="text/css">
	.st0{fill:#FFFFFF;}
	.st1{fill:#0A557E;}
	.st2{fill:#0D507A;}
	.st3{fill:none;}
	.st4{fill:#231F20;}
	.st5{fill:#F69570;}
	.st6{fill:#F48980;}
	.st7{fill:#08507B;}
	.st8{fill:#F7F9FC;}
	.st9{clip-path:url(#SVGID_4_);}
	.st10{fill:#0E547D;}
	.st11{clip-path:url(#SVGID_6_);}
	.st12{fill:#81C9EF;}
	.st13{fill:#11537C;}
	.st14{fill:#FFFFFF;stroke:#0A557E;stroke-width:1.778;stroke-linecap:round;stroke-linejoin:round;stroke-miterlimit:10;}
	.st15{fill:none;stroke:#CAE2F8;stroke-width:1.778;stroke-linecap:round;stroke-linejoin:round;stroke-miterlimit:10;}
	.st16{fill:#D0C2EF;}
	.st17{fill:#874ACE;}
	.st18{fill:#C5C6E3;}
	.st19{fill:#4F388D;}
	.st20{fill:none;stroke:#0D507A;stroke-width:3.1011;stroke-linecap:round;stroke-linejoin:round;stroke-miterlimit:10;}
	.st21{fill:#E8318D;}
	.st22{fill:none;stroke:#E8318D;stroke-linecap:round;stroke-linejoin:round;stroke-miterlimit:10;}
	.st23{fill:#4F388E;}
	.st24{fill:#FAC67B;}
	.st25{fill:#C6C8E6;}
	.st26{clip-path:url(#SVGID_10_);}
	.st27{clip-path:url(#SVGID_12_);}
</style>
<g>
	<g>
		<g>
			<path class="st1" d="M178.8,16.1H137c-5.1,0-9.2,4.1-9.2,9.2v25.1c0,4.9,4,9,8.9,9.2v10.8l8.7-10.8h33.4c5.1,0,9.2-4.1,9.2-9.2
				V25.3C188,20.2,183.9,16.1,178.8,16.1z"/>
			<path class="st1" d="M136.7,71.9c-0.2,0-0.3,0-0.5-0.1c-0.6-0.2-1-0.8-1-1.5V61c-5.1-0.9-8.9-5.3-8.9-10.6V25.3
				c0-5.9,4.8-10.8,10.8-10.8h41.8c5.9,0,10.8,4.8,10.8,10.8v25.1c0,5.9-4.8,10.8-10.8,10.8h-32.7l-8.2,10.2
				C137.6,71.7,137.1,71.9,136.7,71.9z M137,17.6c-4.2,0-7.7,3.4-7.7,7.7v25.1c0,4.1,3.3,7.5,7.4,7.6c0.8,0,1.5,0.7,1.5,1.5V66
				l5.9-7.4c0.3-0.4,0.7-0.6,1.2-0.6h33.4c4.2,0,7.7-3.4,7.7-7.7V25.3c0-4.2-3.4-7.7-7.7-7.7H137z"/>
		</g>
		<g>
			<circle class="st0" cx="157.9" cy="37.9" r="3.2"/>
			<path class="st0" d="M157.9,42.6c-2.6,0-4.7-2.1-4.7-4.7s2.1-4.7,4.7-4.7c2.6,0,4.7,2.1,4.7,4.7S160.5,42.6,157.9,42.6z
				 M157.9,36.2c-0.9,0-1.6,0.7-1.6,1.6c0,0.9,0.7,1.6,1.6,1.6s1.6-0.7,1.6-1.6C159.5,37,158.8,36.2,157.9,36.2z"/>
		</g>
		<g>
			<circle class="st0" cx="170.4" cy="37.9" r="3.2"/>
			<path class="st0" d="M170.4,42.6c-2.6,0-4.7-2.1-4.7-4.7s2.1-4.7,4.7-4.7c2.6,0,4.7,2.1,4.7,4.7S173.1,42.6,170.4,42.6z
				 M170.4,36.2c-0.9,0-1.6,0.7-1.6,1.6c0,0.9,0.7,1.6,1.6,1.6s1.6-0.7,1.6-1.6C172.1,37,171.3,36.2,170.4,36.2z"/>
		</g>
		<g>
			<circle class="st0" cx="145.4" cy="37.9" r="3.2"/>
			<path class="st0" d="M145.4,42.6c-2.6,0-4.7-2.1-4.7-4.7s2.1-4.7,4.7-4.7c2.6,0,4.7,2.1,4.7,4.7S148,42.6,145.4,42.6z
				 M145.4,36.2c-0.9,0-1.6,0.7-1.6,1.6c0,0.9,0.7,1.6,1.6,1.6s1.6-0.7,1.6-1.6C147,37,146.3,36.2,145.4,36.2z"/>
		</g>
	</g>
	<g>
		<path class="st0" d="M40.8,1.6h55.7c6.8,0,12.3,5.5,12.3,12.3v33.4c0,6.6-5.3,12-11.8,12.2v14.4L85.4,59.5H40.8
			c-6.8,0-12.3-5.5-12.3-12.3V13.8C28.5,7.1,34.1,1.6,40.8,1.6z"/>
		<path class="st1" d="M97,75.5c-0.5,0-0.9-0.2-1.2-0.6L84.7,61.1H40.8c-7.6,0-13.8-6.2-13.8-13.8V13.8C27,6.2,33.2,0,40.8,0h55.7
			c7.6,0,13.8,6.2,13.8,13.8v33.4c0,7-5.1,12.7-11.8,13.7v13c0,0.7-0.4,1.2-1,1.5C97.3,75.4,97.1,75.5,97,75.5z M40.8,3.1
			c-5.9,0-10.7,4.8-10.7,10.7v33.4c0,5.9,4.8,10.7,10.7,10.7h44.6c0.5,0,0.9,0.2,1.2,0.6l8.8,11v-10c0-0.8,0.7-1.5,1.5-1.5
			c5.7-0.2,10.3-5,10.3-10.7V13.8c0-5.9-4.8-10.7-10.7-10.7H40.8z"/>
	</g>
	<g>
		<circle class="st1" cx="69.7" cy="26.4" r="4.2"/>
		<path class="st1" d="M69.7,32.2c-3.2,0-5.8-2.6-5.8-5.8s2.6-5.8,5.8-5.8c3.2,0,5.8,2.6,5.8,5.8S72.9,32.2,69.7,32.2z M69.7,23.7
			c-1.5,0-2.7,1.2-2.7,2.7c0,1.5,1.2,2.7,2.7,2.7c1.5,0,2.7-1.2,2.7-2.7C72.4,24.9,71.2,23.7,69.7,23.7z"/>
	</g>
	<g>
		<circle class="st1" cx="86.4" cy="26.4" r="4.2"/>
		<path class="st1" d="M86.4,32.2c-3.2,0-5.8-2.6-5.8-5.8s2.6-5.8,5.8-5.8s5.8,2.6,5.8,5.8S89.6,32.2,86.4,32.2z M86.4,23.7
			c-1.5,0-2.7,1.2-2.7,2.7c0,1.5,1.2,2.7,2.7,2.7s2.7-1.2,2.7-2.7C89.1,24.9,87.9,23.7,86.4,23.7z"/>
	</g>
	<g>
		<circle class="st1" cx="53" cy="26.4" r="4.2"/>
		<path class="st1" d="M53,32.2c-3.2,0-5.8-2.6-5.8-5.8s2.6-5.8,5.8-5.8s5.8,2.6,5.8,5.8S56.2,32.2,53,32.2z M53,23.7
			c-1.5,0-2.7,1.2-2.7,2.7c0,1.5,1.2,2.7,2.7,2.7s2.7-1.2,2.7-2.7C55.7,24.9,54.5,23.7,53,23.7z"/>
	</g>
	<g>
		<defs>
			<circle id="SVGID_9_" cx="115" cy="115" r="92"/>
		</defs>
		<clipPath id="SVGID_2_">
			<use xlink:href="#SVGID_9_"  style="overflow:visible;"/>
		</clipPath>
		<g style="clip-path:url(#SVGID_2_);">
			<g>
				<g>
					<path class="st0" d="M46.1,206.4c-0.9,0-1.6-0.7-1.6-1.6v-41.5c0-1.7-0.6-3.5-1.7-4.8c-4.4-5.6-6.8-12.3-6.8-19.5V118
						c0-17.3,14.1-31.4,31.4-31.4h2.5c17.3,0,31.3,14.1,31.3,31.4V139c0,11.8-6.5,22.5-17,27.9c-1.7,0.9-2.8,2.7-2.8,4.7v33.3
						c0,0.9-0.7,1.6-1.6,1.6H46.1z"/>
				</g>
				<g>
					<path class="st1" d="M69.9,88.2c16.5,0,29.8,13.3,29.8,29.8V139c0,11.5-6.6,21.5-16.2,26.5c-2.2,1.2-3.6,3.5-3.6,6v33.3H46.1
						v-41.5c0-2.1-0.7-4.2-2-5.8c-4-5.1-6.4-11.5-6.4-18.5V118c0-16.5,13.3-29.8,29.8-29.8H69.9 M69.9,85.1h-2.5
						c-18.1,0-32.9,14.8-32.9,32.9V139c0,7.5,2.5,14.6,7.1,20.4c0.9,1.1,1.3,2.5,1.3,3.9v41.5c0,1.7,1.4,3.1,3.1,3.1h33.9
						c1.7,0,3.1-1.4,3.1-3.1v-33.3c0-1.4,0.8-2.7,1.9-3.3c11-5.7,17.8-16.9,17.8-29.2V118C102.8,99.9,88,85.1,69.9,85.1L69.9,85.1z"
						/>
				</g>
			</g>
			<g>
				<path class="st0" d="M86.5,124.8l1.8,8.9c0.4,2-1.1,3.9-3.2,3.9l-2.9,0"/>
				<path class="st1" d="M85.1,139.1C85.1,139.1,85.1,139.1,85.1,139.1l-3,0c-0.9,0-1.5-0.7-1.5-1.6c0-0.9,0.7-1.5,1.6-1.5
					c0,0,0,0,0,0l2.9,0c0,0,0,0,0,0c0.5,0,1-0.2,1.3-0.6c0.3-0.4,0.5-0.9,0.4-1.4l-1.8-8.9c-0.2-0.8,0.4-1.7,1.2-1.8
					c0.8-0.2,1.7,0.4,1.8,1.2l1.8,8.9c0.3,1.4-0.1,2.9-1,4C87.8,138.4,86.5,139.1,85.1,139.1z"/>
			</g>
			<g>
				<path class="st0" d="M75.1,110.9c-1.6-0.7-3.5-1-5.3-0.9c-2.4,0.2-4.8,1-6.8,2.4"/>
				<path class="st1" d="M63,113.9c-0.5,0-1-0.2-1.3-0.7c-0.5-0.7-0.3-1.7,0.4-2.2c2.2-1.6,4.9-2.5,7.6-2.6c2.1-0.1,4.2,0.2,6,1.1
					c0.8,0.4,1.1,1.3,0.8,2.1c-0.4,0.8-1.3,1.1-2.1,0.8c-1.3-0.6-2.9-0.9-4.5-0.8c-2.1,0.1-4.3,0.9-6,2.1
					C63.6,113.8,63.3,113.9,63,113.9z"/>
			</g>
			<g>
				<path class="st0" d="M66.6,126c0.6-1.4,2-2.4,3.7-2.4c1.6,0,2.9,0.9,3.6,2.2"/>
				<path class="st1" d="M66.6,127.6c-0.2,0-0.4,0-0.6-0.1c-0.8-0.3-1.2-1.2-0.8-2c0.9-2.1,2.9-3.4,5.1-3.4c2.1,0,4,1.2,5,3.1
					c0.4,0.8,0.1,1.7-0.7,2.1c-0.8,0.4-1.7,0.1-2.1-0.7c-0.4-0.8-1.3-1.4-2.2-1.4c-1,0-1.9,0.6-2.3,1.5
					C67.7,127.2,67.2,127.6,66.6,127.6z"/>
			</g>
			<g>
				<path class="st0" d="M102.7,110.9c-1.6-0.7-3.5-1-5.3-0.9c-2.4,0.2-4.8,1-6.8,2.4"/>
				<path class="st1" d="M90.7,113.9c-0.5,0-1-0.2-1.3-0.7c-0.5-0.7-0.3-1.7,0.4-2.2c2.2-1.6,4.9-2.5,7.6-2.6c2.1-0.1,4.2,0.2,6,1.1
					c0.8,0.4,1.1,1.3,0.8,2.1c-0.4,0.8-1.3,1.1-2.1,0.8c-1.3-0.6-2.9-0.9-4.5-0.8c-2.1,0.1-4.3,0.9-6,2.1
					C91.3,113.8,91,113.9,90.7,113.9z"/>
			</g>
			<g>
				<path class="st0" d="M94.3,126c0.6-1.4,2-2.4,3.7-2.4c1.6,0,2.9,0.9,3.6,2.2"/>
				<path class="st1" d="M94.3,127.6c-0.2,0-0.4,0-0.6-0.1c-0.8-0.3-1.2-1.2-0.8-2c0.9-2.1,2.9-3.4,5.1-3.4c2.1,0,4,1.2,5,3.1
					c0.4,0.8,0.1,1.7-0.7,2.1c-0.8,0.4-1.7,0.1-2.1-0.7c-0.4-0.8-1.3-1.4-2.2-1.4c-1,0-1.9,0.6-2.3,1.5
					C95.4,127.2,94.9,127.6,94.3,127.6z"/>
			</g>
			<g>
				<path class="st0" d="M71.9,144.8c0.6,2.7,2.8,5.1,5.9,6.3c3.1,1.2,6.3,0.7,8.5-0.8"/>
				<path class="st1" d="M81.4,153.3c-1.4,0-2.8-0.3-4.1-0.8c-3.4-1.3-6-4.1-6.8-7.4c-0.2-0.8,0.3-1.7,1.2-1.9
					c0.8-0.2,1.7,0.3,1.9,1.2c0.5,2.3,2.4,4.3,4.9,5.2c2.5,0.9,5.2,0.7,7.1-0.6c0.7-0.5,1.7-0.3,2.2,0.4c0.5,0.7,0.3,1.7-0.4,2.2
					C85.5,152.7,83.5,153.3,81.4,153.3z"/>
			</g>
			<g>
				<g>
					<path class="st0" d="M147,206.4c-0.9,0-1.6-0.7-1.6-1.6v-33.3c0-2-1.1-3.8-2.8-4.7c-10.5-5.4-17-16.1-17-27.9V118
						c0-17.3,14.1-31.4,31.4-31.4h2.5c17.3,0,31.4,14.1,31.4,31.4V139c0,5.9-1.7,11.7-4.8,16.7c-2.4,3.8-3.6,7.9-3.6,12v37.1
						c0,0.9-0.7,1.6-1.6,1.6H147z"/>
				</g>
				<g>
					<path class="st1" d="M159.5,88.2c16.5,0,29.8,13.3,29.8,29.8V139c0,5.8-1.7,11.3-4.6,15.9c-2.4,3.9-3.9,8.3-3.9,12.9v37.1H147
						v-33.3c0-2.5-1.4-4.9-3.6-6c-9.6-5-16.2-15-16.2-26.5V118c0-16.5,13.3-29.8,29.8-29.8H159.5 M159.5,85.1H157
						c-18.1,0-32.9,14.8-32.9,32.9V139c0,12.4,6.8,23.6,17.8,29.2c1.2,0.6,1.9,1.9,1.9,3.3v33.3c0,1.7,1.4,3.1,3.1,3.1h33.9
						c1.7,0,3.1-1.4,3.1-3.1v-37.1c0-3.8,1.2-7.7,3.4-11.2c3.3-5.2,5.1-11.3,5.1-17.5V118C192.4,99.9,177.6,85.1,159.5,85.1
						L159.5,85.1z"/>
				</g>
			</g>
			<g>
				<path class="st0" d="M140.4,124.8l-1.8,8.9c-0.4,2,1.1,3.9,3.2,3.9l2.9,0"/>
				<path class="st1" d="M141.8,139.1c-1.4,0-2.8-0.6-3.7-1.7c-0.9-1.1-1.3-2.6-1-4l1.8-8.9c0.2-0.8,1-1.4,1.8-1.2
					c0.8,0.2,1.4,1,1.2,1.8l-1.8,8.9c-0.1,0.5,0,1,0.4,1.4c0.3,0.4,0.8,0.6,1.3,0.6l2.9,0c0,0,0,0,0,0c0.9,0,1.5,0.7,1.6,1.5
					c0,0.9-0.7,1.6-1.5,1.6L141.8,139.1C141.8,139.1,141.8,139.1,141.8,139.1z"/>
			</g>
			<g>
				<path class="st0" d="M151.8,110.9c1.6-0.7,3.5-1,5.3-0.9c2.4,0.2,4.8,1,6.8,2.4"/>
				<path class="st1" d="M163.9,113.9c-0.3,0-0.6-0.1-0.9-0.3c-1.8-1.2-3.9-2-6-2.1c-1.6-0.1-3.2,0.2-4.5,0.8
					c-0.8,0.4-1.7,0-2.1-0.8c-0.4-0.8,0-1.7,0.8-2.1c1.8-0.8,3.9-1.2,6-1.1c2.7,0.2,5.4,1.1,7.6,2.6c0.7,0.5,0.9,1.5,0.4,2.2
					C164.9,113.7,164.4,113.9,163.9,113.9z"/>
			</g>
			<g>
				<path class="st0" d="M160.3,126c-0.6-1.4-2-2.4-3.7-2.4c-1.6,0-2.9,0.9-3.6,2.2"/>
				<path class="st1" d="M160.3,127.6c-0.6,0-1.2-0.4-1.4-0.9c-0.4-0.9-1.3-1.5-2.3-1.5c-0.9,0-1.8,0.5-2.2,1.4
					c-0.4,0.8-1.3,1.1-2.1,0.7c-0.8-0.4-1.1-1.3-0.7-2.1c1-1.9,2.9-3.1,5-3.1c2.2,0,4.2,1.3,5.1,3.4c0.3,0.8,0,1.7-0.8,2
					C160.7,127.5,160.5,127.6,160.3,127.6z"/>
			</g>
			<g>
				<path class="st0" d="M124.1,110.9c1.6-0.7,3.5-1,5.3-0.9c2.4,0.2,4.8,1,6.8,2.4"/>
				<path class="st1" d="M136.2,113.9c-0.3,0-0.6-0.1-0.9-0.3c-1.8-1.2-3.9-2-6-2.1c-1.6-0.1-3.2,0.2-4.5,0.8
					c-0.8,0.4-1.7,0-2.1-0.8c-0.4-0.8,0-1.7,0.8-2.1c1.8-0.8,3.9-1.2,6-1.1c2.7,0.2,5.4,1.1,7.6,2.6c0.7,0.5,0.9,1.5,0.4,2.2
					C137.2,113.7,136.7,113.9,136.2,113.9z"/>
			</g>
			<g>
				<path class="st0" d="M132.6,126c-0.6-1.4-2-2.4-3.7-2.4c-1.6,0-2.9,0.9-3.6,2.2"/>
				<path class="st1" d="M132.6,127.6c-0.6,0-1.2-0.4-1.4-0.9c-0.4-0.9-1.3-1.5-2.3-1.5c-0.9,0-1.8,0.5-2.2,1.4
					c-0.4,0.8-1.3,1.1-2.1,0.7c-0.8-0.4-1.1-1.3-0.7-2.1c1-1.9,2.9-3.1,5-3.1c2.2,0,4.2,1.3,5.1,3.4c0.3,0.8,0,1.7-0.8,2
					C133,127.5,132.8,127.6,132.6,127.6z"/>
			</g>
			<g>
				<path class="st0" d="M154.9,144.8c-0.6,2.7-2.8,5.1-5.9,6.3c-3.1,1.2-6.3,0.7-8.5-0.8"/>
				<path class="st1" d="M145.5,153.3c-2.1,0-4.1-0.6-5.8-1.8c-0.7-0.5-0.9-1.5-0.4-2.2c0.5-0.7,1.5-0.9,2.2-0.4
					c1.9,1.3,4.6,1.6,7.1,0.6c2.5-0.9,4.4-2.9,4.9-5.2c0.2-0.8,1-1.3,1.9-1.2c0.8,0.2,1.3,1,1.2,1.9c-0.8,3.3-3.4,6.1-6.8,7.4
					C148.3,153.1,146.9,153.3,145.5,153.3z"/>
			</g>
			<g>
				<path class="st0" d="M180.3,123c3.9,0,7.1,3.2,7.1,7.1c0,3.9-3.2,7.1-7.1,7.1"/>
				<path class="st1" d="M180.3,138.7c-0.9,0-1.6-0.7-1.6-1.6c0-0.9,0.7-1.6,1.6-1.6c3.1,0,5.5-2.5,5.5-5.5c0-3.1-2.5-5.5-5.5-5.5
					c-0.9,0-1.6-0.7-1.6-1.6c0-0.9,0.7-1.6,1.6-1.6c4.8,0,8.6,3.9,8.6,8.6C188.9,134.8,185,138.7,180.3,138.7z"/>
			</g>
			<g>
				<path class="st1" d="M122.3,110c0.4-1.3,0.4-2.7,0.2-4.1c-0.6-4.5-0.8-8.6,0.6-11.5c2.3-4.9,6.3-8.9,11-9.8
					c2-0.4,4.2-0.2,6.1-0.9c2.4-0.9,4.4-2.9,6.7-4.3c3.5-2.1,8.2-3.9,11.9-2.5c0.5,0.2,1.1,0.3,1.6,0.4c3.9,1.6,7.1,3.3,9.2,4.5
					c2,1.1,4.1-0.4,6.3-0.9c8.6-2,18,6.3,21.6,12.2c6,8.1,8.4,13.7,7.1,17.2c-1.2,3.4-0.2,5.6,0.1,6.8c0.8,4.3,1.6,2.6,1.6,9.5
					c0,8.2-2.3,11.4-7.5,16.3c-3.4,3.1,2.9,5.4-0.6,10.7c-0.1,0.2-4.9,5.3-8.1,7.5c-10.4,5.7-6.5-2-6.4-3.2
					c0.3-3.6,4.5-8.1,4.6-11.9c0.1-3.5-3.9-6.3-3-9.4c0.9-2.9,2-6,1.6-9c-0.3-2-2.6-5.7-5.1-5.1c-2.6,0.5-2.1,5.8-3.4,6.2
					c-1.9,0.6-2.6-2.2-2.7-4.1c-0.7-18.8-7-27.3-7.8-28c-1-0.9-3.1-2.1-4.5-1.9c-3,0.4-6.7,0.2-9,2c-3.6,2.7-5.6,7.5-9.8,9.2
					c-2.1,0.8-4.3,0.7-6.5,1c-5.2,0.9-8.5,3.2-10.2,8.2c-0.7,2.1-0.7,4.8-0.7,7c0,5.4-0.1,11.8,0,16.9c-2.1-5.5-3.5-10.3-5.1-16
					C120.2,116.1,121.5,113,122.3,110z"/>
			</g>
		</g>
	</g>
	<g>
		<path class="st1" d="M115.9,140.4c-0.4-1.5-1.3-2.8-1.9-4.2c-0.9-2.1-1-4.4-0.7-6.7c-0.1,0.2-0.1,0.3-0.1,0.4
			c0-0.1,0.1-0.2,0.1-0.4c0.2-1.9,0.7-3.7,1.2-5.5c0.2-0.9,0.5-1.6,0.6-2.4c1.3-9.4,0.4-25.2-15.5-39.3c-6.3-5.6-11.5-6.5-14.9-6.6
			c-1.8-0.1-3.5-0.6-5-1.6c-3.2-2-9.3-5-16.5-4.3C40,73.1,18.1,92.4,18.1,115.8c0,0.5,0,0.9,0,1.4v0.9c0.2,3.5,0.6,5.9,1.6,9.3
			c1.2,4,2.1,8.4,0.5,12.3c-0.6,1.4-1.5,2.7-1.9,4.2c-0.1,0.3-0.1,0.5-0.2,0.8v2c0,6.9,9.7,12.6,16.6,12.6l7.8,0.4
			c4.7,0.2,8.8-3.6,8.6-8.3c0,0,0-0.1,0-0.1c0-0.9,0-8.5,0-8.5l0-7.6c0-4.6,3.3-10,7.5-12c11.1-5.3,8.1-15.5,16.5-26.6
			c3.2-4.2,6.1-5.8,7.8-5.3c9.9,4.8,16.7,15,16.7,26.8V139c0,6.2-1.9,12-5.2,16.8h9c6.9,0,12.6-5.6,12.6-12.6v-1.7
			C116.1,141.1,116,140.8,115.9,140.4z"/>
	</g>
	<g>
		<defs>
			<circle id="SVGID_11_" cx="115" cy="115" r="92"/>
		</defs>
		<clipPath id="SVGID_4_">
			<use xlink:href="#SVGID_11_"  style="overflow:visible;"/>
		</clipPath>
		<g class="st9">
			<path class="st1" d="M110.8,227.7H47.8v-40.3h44.8c10.1,0,18.3,8.2,18.3,18.3V227.7z"/>
		</g>
		<g class="st9">
			<g>
				<path class="st0" d="M120.7,226.1v-20.5c0-9.2,7.5-16.7,16.7-16.7h43.3v37.2H120.7z"/>
			</g>
			<g>
				<path class="st1" d="M179.1,190.5v34.1h-56.9v-19c0-8.4,6.8-15.2,15.2-15.2H179.1 M182.2,187.4h-44.8
					c-10.1,0-18.3,8.2-18.3,18.3v22.1h63.1V187.4L182.2,187.4z"/>
			</g>
		</g>
	</g>
</g>
</svg>
