<?xml version="1.0" encoding="utf-8"?>
<!-- Generator: Adobe Illustrator 24.0.1, SVG Export Plug-In . SVG Version: 6.00 Build 0)  -->
<svg version="1.1" id="Layer_1" xmlns="http://www.w3.org/2000/svg" xmlns:xlink="http://www.w3.org/1999/xlink" x="0px" y="0px"
	 viewBox="0 0 230 230" style="enable-background:new 0 0 230 230;" xml:space="preserve">
<style type="text/css">
	.st0{fill:#FFFFFF;}
	.st1{fill:#0A557E;}
	.st2{fill:#0D507A;}
	.st3{fill:none;}
	.st4{fill:#231F20;}
	.st5{fill:#F69570;}
	.st6{fill:#F48980;}
	.st7{fill:#08507B;}
	.st8{fill:#F7F9FC;}
	.st9{clip-path:url(#SVGID_4_);}
	.st10{fill:#0E547D;}
	.st11{clip-path:url(#SVGID_6_);}
	.st12{fill:#81C9EF;}
	.st13{fill:#11537C;}
	.st14{fill:#FFFFFF;stroke:#0A557E;stroke-width:1.778;stroke-linecap:round;stroke-linejoin:round;stroke-miterlimit:10;}
	.st15{fill:none;stroke:#CAE2F8;stroke-width:1.778;stroke-linecap:round;stroke-linejoin:round;stroke-miterlimit:10;}
	.st16{fill:#D0C2EF;}
	.st17{fill:#874ACE;}
	.st18{fill:#C5C6E3;}
	.st19{fill:#4F388D;}
	.st20{fill:none;stroke:#0D507A;stroke-width:3.1011;stroke-linecap:round;stroke-linejoin:round;stroke-miterlimit:10;}
	.st21{fill:#E8318D;}
	.st22{fill:none;stroke:#E8318D;stroke-linecap:round;stroke-linejoin:round;stroke-miterlimit:10;}
	.st23{fill:#4F388E;}
	.st24{fill:#FAC67B;}
	.st25{fill:#C6C8E6;}
	.st26{clip-path:url(#SVGID_10_);}
	.st27{clip-path:url(#SVGID_12_);}
</style>
<g>
	<g>
		<g>
			<path class="st1" d="M149.4,65.8H87.6c-7.6,0-15.3,7.4-15.3,16.3v85.5c0,3.9,3.1,7,7,7h61.8c11,0,15.3-6,15.3-16.3V72.8
				C156.4,68.9,153.3,65.8,149.4,65.8z"/>
			<path class="st1" d="M141.1,176.1H79.4c-4.7,0-8.6-3.9-8.6-8.6V82.1c0-9.3,8-17.8,16.8-17.8h61.8c4.7,0,8.6,3.9,8.6,8.6v85.5
				C158,170.1,152.3,176.1,141.1,176.1z M87.6,67.3c-6.5,0-13.7,6.3-13.7,14.7v85.5c0,3,2.5,5.5,5.5,5.5h61.8
				c9.5,0,13.7-4.5,13.7-14.7V72.8c0-3-2.5-5.5-5.5-5.5H87.6z"/>
		</g>
		<g>
			<path class="st0" d="M149.5,165.3h-62c-3.8,0-6.9-3.1-6.9-6.9V72.7c0-3.8,3.1-6.9,6.9-6.9h62c3.8,0,6.9,3.1,6.9,6.9v85.7
				C156.4,162.2,153.3,165.3,149.5,165.3z"/>
			<path class="st1" d="M149.5,166.9h-62c-4.7,0-8.5-3.8-8.5-8.5V72.7c0-4.7,3.8-8.5,8.5-8.5h62c4.7,0,8.5,3.8,8.5,8.5v85.7
				C158,163.1,154.2,166.9,149.5,166.9z M87.5,67.3c-3,0-5.4,2.4-5.4,5.4v85.7c0,3,2.4,5.4,5.4,5.4h62c3,0,5.4-2.4,5.4-5.4V72.7
				c0-3-2.4-5.4-5.4-5.4H87.5z"/>
		</g>
		<g>
			<g>
				<path class="st1" d="M95.4,75.3c-0.9,0-1.6-0.7-1.6-1.6s0.7-1.6,1.6-1.6c2.4,0,4.5-3.8,4.5-8.1c0-4.3-2.1-8.1-4.5-8.1
					c-2.4,0-4.5,3.8-4.5,8.1c0,0.9-0.7,1.6-1.6,1.6s-1.6-0.7-1.6-1.6c0-6.3,3.3-11.2,7.6-11.2c4.3,0,7.6,4.9,7.6,11.2
					C103,70.4,99.7,75.3,95.4,75.3z"/>
			</g>
			<g>
				<path class="st1" d="M111,75.3c-0.9,0-1.6-0.7-1.6-1.6s0.7-1.6,1.6-1.6c2.4,0,4.5-3.8,4.5-8.1c0-4.3-2.1-8.1-4.5-8.1
					c-2.4,0-4.5,3.8-4.5,8.1c0,0.9-0.7,1.6-1.6,1.6s-1.6-0.7-1.6-1.6c0-6.3,3.3-11.2,7.6-11.2c4.3,0,7.6,4.9,7.6,11.2
					C118.6,70.4,115.2,75.3,111,75.3z"/>
			</g>
			<g>
				<path class="st1" d="M126.5,75.3c-0.9,0-1.6-0.7-1.6-1.6s0.7-1.6,1.6-1.6c2.4,0,4.5-3.8,4.5-8.1c0-4.3-2.1-8.1-4.5-8.1
					c-2.4,0-4.5,3.8-4.5,8.1c0,0.9-0.7,1.6-1.6,1.6s-1.6-0.7-1.6-1.6c0-6.3,3.3-11.2,7.6-11.2c4.3,0,7.6,4.9,7.6,11.2
					C134.1,70.4,130.8,75.3,126.5,75.3z"/>
			</g>
			<g>
				<path class="st1" d="M142.1,75.3c-0.9,0-1.6-0.7-1.6-1.6s0.7-1.6,1.6-1.6c2.4,0,4.5-3.8,4.5-8.1c0-4.3-2.1-8.1-4.5-8.1
					c-2.4,0-4.5,3.8-4.5,8.1c0,0.9-0.7,1.6-1.6,1.6c-0.9,0-1.6-0.7-1.6-1.6c0-6.3,3.3-11.2,7.6-11.2c4.3,0,7.6,4.9,7.6,11.2
					C149.7,70.4,146.4,75.3,142.1,75.3z"/>
			</g>
		</g>
		<g>
			<g>
				<path class="st1" d="M143.9,91.6c-2.5,0-3.8-1.5-4.8-2.6c-0.9-1-1.4-1.5-2.5-1.5c-1.1,0-1.6,0.5-2.5,1.5c-1,1.1-2.3,2.6-4.8,2.6
					c-2.5,0-3.8-1.5-4.8-2.6c-0.9-1-1.4-1.5-2.5-1.5c-1.1,0-1.6,0.5-2.5,1.5c-1,1.1-2.3,2.6-4.8,2.6c-2.5,0-3.8-1.5-4.8-2.6
					c-0.9-1-1.4-1.5-2.5-1.5c-1.1,0-1.6,0.5-2.5,1.5c-1,1.1-2.3,2.6-4.8,2.6c-2.5,0-3.8-1.5-4.8-2.6c-0.9-1-1.4-1.5-2.5-1.5
					c-0.9,0-1.6-0.7-1.6-1.6s0.7-1.6,1.6-1.6c2.5,0,3.8,1.5,4.8,2.6c0.9,1,1.4,1.5,2.5,1.5c1.1,0,1.6-0.5,2.5-1.5
					c1-1.1,2.3-2.6,4.8-2.6c2.5,0,3.8,1.5,4.8,2.6c0.9,1,1.4,1.5,2.5,1.5c1.1,0,1.6-0.5,2.5-1.5c1-1.1,2.3-2.6,4.8-2.6
					c2.5,0,3.8,1.5,4.8,2.6c0.9,1,1.4,1.5,2.5,1.5c1.1,0,1.6-0.5,2.5-1.5c1-1.1,2.3-2.6,4.8-2.6c2.5,0,3.8,1.5,4.8,2.6
					c0.9,1,1.4,1.5,2.5,1.5c0.9,0,1.6,0.7,1.6,1.6S144.8,91.6,143.9,91.6z"/>
			</g>
			<g>
				<path class="st1" d="M143.9,113.1c-2.5,0-3.8-1.5-4.8-2.6c-0.9-1-1.4-1.5-2.5-1.5c-1.1,0-1.6,0.5-2.5,1.5
					c-1,1.1-2.3,2.6-4.8,2.6c-2.5,0-3.8-1.5-4.8-2.6c-0.9-1-1.4-1.5-2.5-1.5c-1.1,0-1.6,0.5-2.5,1.5c-1,1.1-2.3,2.6-4.8,2.6
					c-2.5,0-3.8-1.5-4.8-2.6c-0.9-1-1.4-1.5-2.5-1.5c-1.1,0-1.6,0.5-2.5,1.5c-1,1.1-2.3,2.6-4.8,2.6c-2.5,0-3.8-1.5-4.8-2.6
					c-0.9-1-1.4-1.5-2.5-1.5c-0.9,0-1.6-0.7-1.6-1.6s0.7-1.6,1.6-1.6c2.5,0,3.8,1.5,4.8,2.6c0.9,1,1.4,1.5,2.5,1.5
					c1.1,0,1.6-0.5,2.5-1.5c1-1.1,2.3-2.6,4.8-2.6c2.5,0,3.8,1.5,4.8,2.6c0.9,1,1.4,1.5,2.5,1.5c1.1,0,1.6-0.5,2.5-1.5
					c1-1.1,2.3-2.6,4.8-2.6c2.5,0,3.8,1.5,4.8,2.6c0.9,1,1.4,1.5,2.5,1.5c1.1,0,1.6-0.5,2.5-1.5c1-1.1,2.3-2.6,4.8-2.6
					c2.5,0,3.8,1.5,4.8,2.6c0.9,1,1.4,1.5,2.5,1.5c0.9,0,1.6,0.7,1.6,1.6S144.8,113.1,143.9,113.1z"/>
			</g>
			<g>
				<path class="st1" d="M143.9,133.9c-2.5,0-3.8-1.5-4.8-2.6c-0.9-1-1.4-1.5-2.5-1.5c-1.1,0-1.6,0.5-2.5,1.5
					c-1,1.1-2.3,2.6-4.8,2.6c-2.5,0-3.8-1.5-4.8-2.6c-0.9-1-1.4-1.5-2.5-1.5c-1.1,0-1.6,0.5-2.5,1.5c-1,1.1-2.3,2.6-4.8,2.6
					c-2.5,0-3.8-1.5-4.8-2.6c-0.9-1-1.4-1.5-2.5-1.5c-1.1,0-1.6,0.5-2.5,1.5c-1,1.1-2.3,2.6-4.8,2.6c-2.5,0-3.8-1.5-4.8-2.6
					c-0.9-1-1.4-1.5-2.5-1.5c-0.9,0-1.6-0.7-1.6-1.6c0-0.9,0.7-1.6,1.6-1.6c2.5,0,3.8,1.5,4.8,2.6c0.9,1,1.4,1.5,2.5,1.5
					c1.1,0,1.6-0.5,2.5-1.5c1-1.1,2.3-2.6,4.8-2.6c2.5,0,3.8,1.5,4.8,2.6c0.9,1,1.4,1.5,2.5,1.5c1.1,0,1.6-0.5,2.5-1.5
					c1-1.1,2.3-2.6,4.8-2.6c2.5,0,3.8,1.5,4.8,2.6c0.9,1,1.4,1.5,2.5,1.5c1.1,0,1.6-0.5,2.5-1.5c1-1.1,2.3-2.6,4.8-2.6
					c2.5,0,3.8,1.5,4.8,2.6c0.9,1,1.4,1.5,2.5,1.5c0.9,0,1.6,0.7,1.6,1.6S144.8,133.9,143.9,133.9z"/>
			</g>
			<g>
				<path class="st1" d="M143.9,155.4c-2.5,0-3.8-1.5-4.8-2.6c-0.9-1-1.4-1.5-2.5-1.5c-1.1,0-1.6,0.5-2.5,1.5
					c-1,1.1-2.3,2.6-4.8,2.6c-2.5,0-3.8-1.5-4.8-2.6c-0.9-1-1.4-1.5-2.5-1.5c-1.1,0-1.6,0.5-2.5,1.5c-1,1.1-2.3,2.6-4.8,2.6
					c-2.5,0-3.8-1.5-4.8-2.6c-0.9-1-1.4-1.5-2.5-1.5c-1.1,0-1.6,0.5-2.5,1.5c-1,1.1-2.3,2.6-4.8,2.6c-2.5,0-3.8-1.5-4.8-2.6
					c-0.9-1-1.4-1.5-2.5-1.5c-0.9,0-1.6-0.7-1.6-1.6c0-0.9,0.7-1.6,1.6-1.6c2.5,0,3.8,1.5,4.8,2.6c0.9,1,1.4,1.5,2.5,1.5
					c1.1,0,1.6-0.5,2.5-1.5c1-1.1,2.3-2.6,4.8-2.6c2.5,0,3.8,1.5,4.8,2.6c0.9,1,1.4,1.5,2.5,1.5c1.1,0,1.6-0.5,2.5-1.5
					c1-1.1,2.3-2.6,4.8-2.6c2.5,0,3.8,1.5,4.8,2.6c0.9,1,1.4,1.5,2.5,1.5c1.1,0,1.6-0.5,2.5-1.5c1-1.1,2.3-2.6,4.8-2.6
					c2.5,0,3.8,1.5,4.8,2.6c0.9,1,1.4,1.5,2.5,1.5c0.9,0,1.6,0.7,1.6,1.6S144.8,155.4,143.9,155.4z"/>
			</g>
		</g>
	</g>
	<g>
		<g>
			<polygon class="st0" points="142.5,179.4 184.1,105.1 195.8,111.7 154.3,186 140.2,197.5 			"/>
			<path class="st1" d="M140.2,199.1c-0.3,0-0.5-0.1-0.8-0.2c-0.6-0.3-0.9-0.9-0.8-1.6l2.4-18.1c0-0.2,0.1-0.4,0.2-0.6l41.5-74.4
				c0.2-0.4,0.5-0.6,0.9-0.7c0.4-0.1,0.8-0.1,1.2,0.1l11.8,6.6c0.7,0.4,1,1.4,0.6,2.1l-41.5,74.4c-0.1,0.2-0.2,0.3-0.4,0.4
				l-14.1,11.5C140.9,199,140.5,199.1,140.2,199.1z M144,179.9l-1.8,13.9l10.9-8.9l40.6-72.8l-9.1-5.1L144,179.9z"/>
		</g>
		<g>
			<line class="st0" x1="154.6" y1="185.4" x2="142.9" y2="178.9"/>
			<path class="st1" d="M154.6,187c-0.3,0-0.5-0.1-0.8-0.2l-11.8-6.6c-0.7-0.4-1-1.4-0.6-2.1c0.4-0.7,1.4-1,2.1-0.6l11.8,6.6
				c0.7,0.4,1,1.4,0.6,2.1C155.7,186.7,155.2,187,154.6,187z"/>
		</g>
		<g>
			<polygon class="st0" points="154.3,186 154.4,185.9 142.6,179.3 142.5,179.4 140.2,197.5 			"/>
			<path class="st1" d="M140.2,199.1c-0.3,0-0.5-0.1-0.8-0.2c-0.6-0.3-0.9-0.9-0.8-1.6l2.4-18.1c0-0.2,0.1-0.4,0.2-0.6l0.1-0.1
				c0.2-0.4,0.5-0.6,0.9-0.7c0.4-0.1,0.8-0.1,1.2,0.1l11.8,6.6c0.7,0.4,1,1.4,0.6,2.1l-0.1,0.1c-0.1,0.2-0.2,0.3-0.4,0.4l-14.1,11.5
				C140.9,199,140.5,199.1,140.2,199.1z M143.8,181.8l-1.6,12.1l9.5-7.7L143.8,181.8z M154.3,186L154.3,186L154.3,186z"/>
		</g>
		<g>
			<polygon class="st1" points="145.7,193 141.1,190.4 140.2,197.5 			"/>
			<path class="st1" d="M140.2,199.1c-0.3,0-0.5-0.1-0.8-0.2c-0.6-0.3-0.9-0.9-0.8-1.6l0.9-7.1c0.1-0.5,0.4-1,0.8-1.2
				c0.5-0.2,1-0.2,1.5,0l4.6,2.6c0.4,0.3,0.7,0.7,0.8,1.2c0,0.5-0.2,1-0.6,1.3l-5.6,4.5C140.9,199,140.5,199.1,140.2,199.1z
				 M142.3,192.9l-0.1,1l0.8-0.6L142.3,192.9z"/>
		</g>
	</g>
	<g>
		<path class="st1" d="M203.9,64.7l1.6-4.1c-3.8-8.6-14.1-14.9-14.1-14.9c-11.4-7-20.6-4.8-20.6-4.8c-2.4-5.9-8.8-5.9-8.8-5.9
			c-5.2-10.4-11.4-14.2-11.4-14.2c-11.1-8.1-22.3-7.1-22.3-7.1l-2.7,3.2l1.4,2.4c-1.2,1.5-4.3,8-4.3,8C117.9,38,128.3,46,128.3,46
			c14.5,10.2,22.6,2.6,24.7,1.3c2-1.3,5.2-4.4,6.8-6.5c1.6-2.1,3.8-2.7,5.4-1.7s2.9,3,1.7,5.4c-1.2,2.4-2.7,8.1-2.7,8.1
			s-4.7,13.8,11.4,22.4s23.3-6.8,24.3-9C201,63.8,203.9,64.7,203.9,64.7z M156.9,40.9c-12.4,15.6-26.3,4.9-26.3,4.9
			c-13.2-8.7-6-22.4,0-27.7c6.1-5.4,18.1,3.2,18.1,3.2C164.6,32.4,156.9,40.9,156.9,40.9z M175.6,73.4c0,0-15.8-7.5-7.5-25.7
			c0,0,4.1-10.7,21.1-1.5c0,0,13.1,6.8,11.1,14.7C198.2,68.5,189.3,81.2,175.6,73.4z"/>
		<path class="st1" d="M184.8,78.6c-3.1,0-6.3-0.9-9.7-2.7c-16.7-8.9-12-23.5-11.9-23.6c0-0.2,1.6-5.7,2.8-8.2
			c1.2-2.4-0.9-3.8-1.3-4.1c-1.2-0.7-2.9-0.2-4.1,1.4c-1.6,2.1-4.9,5.4-7.1,6.8c-0.2,0.1-0.4,0.2-0.6,0.4c-2.8,2-11.3,8-25.2-1.7
			c-0.1-0.1-11.1-8.6-6.2-19.9c0.3-0.6,2.6-5.6,4-7.7l-1.4-2.5l3.5-4.1l0.4,0c0.5,0,11.8-0.9,23,7.3c0.2,0.1,6.2,3.9,11.4,14.1
			c1.7,0.2,6.4,1,8.8,5.7c2.6-0.4,10.8-0.9,20.6,5.1c0.4,0.3,10.6,6.6,14.5,15.4l0.2,0.4l-2,5.4l-0.9-0.3c-0.1,0-2.1-0.6-2.7,0.8
			c-2.7,5.8-6.8,9.9-11.5,11.4C187.9,78.3,186.4,78.6,184.8,78.6z M177,43.5c-1.3,0-2.5,0.2-3.6,0.6c-3.3,1.2-4.4,3.9-4.4,4
			c-7.8,17.1,6.4,24.1,7,24.4l0.1,0c4.5,2.6,8.8,3,12.7,1.3c5.5-2.3,9.3-8.5,10.5-13.2c1.8-7-10.5-13.4-10.6-13.5
			C184.2,44.7,180.3,43.5,177,43.5z M200,54.3c1.2,2.1,1.9,4.4,1.2,6.8c-0.3,1-0.6,2.1-1.1,3.1c0.9-0.7,2.1-0.8,3.1-0.7l1.1-2.9
			C203.3,58.3,201.7,56.1,200,54.3z M165,53.4c-0.2,0.8-0.6,2.6-0.4,4.8C164.6,56.7,164.7,55.1,165,53.4z M163.6,37.6
			c0.8,0,1.5,0.2,2.2,0.6c2.1,1.3,3.5,3.8,2.1,6.8c-0.5,1-1,2.5-1.5,4c0.2-0.6,0.5-1.1,0.7-1.7c0-0.1,1.4-3.5,5.6-5.1
			c0.7-0.2,1.4-0.4,2.1-0.6c-2.3,0-3.8,0.3-3.8,0.3l-0.9,0.2l-0.3-0.8c-2.1-5.1-7.6-5.2-7.9-5.2l-0.6,0l-0.3-0.6c-0.5-1-1-2-1.6-2.9
			c0.1,0.6,0.3,1.1,0.3,1.7c0.5,4.2-1.7,7-2,7.3c-0.3,0.4-0.7,0.8-1,1.2c0.9-0.9,1.7-1.8,2.3-2.6C160.3,38.5,162,37.6,163.6,37.6z
			 M135.8,17.4c-1.7,0-3.2,0.4-4.4,1.5c-3.7,3.2-7.4,9.4-7,15.3c0.3,4.2,2.6,7.8,6.9,10.7c0.6,0.5,13.3,9.9,24.9-4.7l0,0
			c0.1-0.1,2-2.3,1.5-5.8c-0.5-4-3.8-8.2-9.5-12.2C148.1,22.2,141.3,17.4,135.8,17.4z M126.7,17l1.3,2.3c0.6-0.7,1.3-1.4,1.9-1.9
			c1.6-1.4,3.6-2,5.7-2c-3.4-0.7-6-0.7-7-0.7L126.7,17z"/>
	</g>
	<g>
		<path class="st1" d="M125.8,15.2c0,0,40.2,33.2,48.6,39.6c9.3,6.9,5.5,11.5,7.8,24.2c0,0,0.1,1.9,2.4,3.3c0,0,3,1.8,2.7-0.3
			c-1.9-12.8-3.2-22.4-10.1-27.6c-8.4-6.3-48.6-39.6-48.6-39.6"/>
		<path class="st1" d="M186.6,84.1c-0.9,0-1.9-0.5-2.5-0.9c-2.5-1.5-2.8-3.6-2.8-4.1c-0.7-3.9-0.8-7-0.9-9.8
			c-0.2-6-0.4-9.3-6.4-13.8c-8.4-6.3-48.3-39.2-48.7-39.6l1.3-1.6c0,0,0.6,0.5,1.5,1.2l1.2-1.5c0.4,0.3,40.3,33.3,48.6,39.5
			c7.2,5.4,8.6,15.4,10.5,28l0,0.2c0.2,1.1-0.4,1.7-0.7,1.9C187.3,84,186.9,84.1,186.6,84.1z M180.6,59.9c1.5,2.8,1.6,5.8,1.8,9.4
			c0.1,2.7,0.2,5.7,0.9,9.5l0,0.1c0,0,0.1,1.4,1.9,2.5c0.3,0.2,0.7,0.4,1.1,0.5C184.8,72.6,183.7,65.1,180.6,59.9z"/>
	</g>
	<g>
		<path class="st1" d="M203.4,64c0,0-47.9-20.7-57.3-25.4c-10.4-5.1-12.8,0.3-25.1,4.1c0,0-1.8,0.8-4-0.6c0,0-3-1.8-1-2.5
			c12.2-4.1,21.4-7.3,29.2-3.5c9.5,4.6,57.3,25.4,57.3,25.4"/>
		<path class="st1" d="M203,65c-0.5-0.2-48-20.8-57.4-25.4c-6.8-3.3-9.8-2-15.2,0.5c-2.5,1.1-5.3,2.4-9.1,3.6
			c-0.4,0.2-2.5,0.8-4.9-0.7c-0.9-0.5-2.3-1.6-2.2-2.9c0-0.4,0.3-1.1,1.4-1.5l0.2-0.1c12.1-4.1,21.7-7.3,29.7-3.4
			c9.3,4.6,56.8,25.2,57.3,25.4l-0.8,1.7c1.1,0.5,1.7,0.7,1.7,0.8L203,65z M116.5,40.5c0.2,0.2,0.6,0.5,0.9,0.7
			c1.8,1.1,3,0.5,3.1,0.5l0.1-0.1c3.7-1.1,6.5-2.4,8.9-3.5c3.3-1.5,6-2.7,9.2-2.7C132.7,35.1,125.5,37.5,116.5,40.5z"/>
	</g>
	<g>
		<g>
			<path class="st1" d="M58,161.1l-23.9,5c-4.9,1-9.7-2.1-10.7-7l-10.9-51.7c-1-4.9,2.1-9.7,7-10.7l23.9-5c4.9-1,9.7,2.1,10.7,7
				L65,150.4C66,155.3,62.9,160.1,58,161.1z"/>
			<path class="st1" d="M32.2,167.4c-1.9,0-3.8-0.6-5.5-1.6c-2.3-1.5-3.8-3.7-4.4-6.3l-10.9-51.7c-1.1-5.4,2.3-10.8,7.8-11.9l23.9-5
				c2.6-0.6,5.3-0.1,7.6,1.4c2.3,1.5,3.8,3.7,4.4,6.3L66,150.2c1.1,5.4-2.3,10.8-7.8,11.9l-23.9,5C33.6,167.4,32.9,167.4,32.2,167.4
				z M45.2,92.6c-0.6,0-1.1,0.1-1.7,0.2l-23.9,5c-4.3,0.9-7.1,5.2-6.2,9.5L24.4,159c0.4,2.1,1.7,3.9,3.5,5c1.8,1.2,3.9,1.6,6,1.1
				l23.9-5l0,0c2.1-0.4,3.9-1.7,5-3.5c1.2-1.8,1.6-3.9,1.1-6L53,99c-0.4-2.1-1.7-3.9-3.5-5C48.2,93,46.7,92.6,45.2,92.6z"/>
		</g>
		<g>
			<path class="st0" d="M51.5,143.9l-18.4,3.9c-2,0.4-4-0.9-4.4-2.9l-7.5-35.7c-0.4-2,0.9-4,2.9-4.4l18.4-3.9c2-0.4,4,0.9,4.4,2.9
				l7.5,35.7C54.8,141.5,53.5,143.5,51.5,143.9z"/>
		</g>
		<g>
			<circle class="st0" cx="43.6" cy="154.2" r="3.6"/>
			<path class="st0" d="M43.6,158.8c-2.1,0-4-1.5-4.5-3.6c-0.3-1.2,0-2.4,0.6-3.5c0.7-1,1.7-1.7,2.9-2c1.2-0.3,2.4,0,3.5,0.6
				c1,0.7,1.7,1.7,2,2.9s0,2.4-0.6,3.5c-0.7,1-1.7,1.7-2.9,2C44.2,158.8,43.9,158.8,43.6,158.8z M43.6,151.7c-0.2,0-0.4,0-0.5,0.1
				c-0.7,0.1-1.2,0.5-1.6,1.1s-0.5,1.2-0.4,1.9c0.3,1.4,1.6,2.2,3,1.9c0.7-0.1,1.2-0.5,1.6-1.1c0.4-0.6,0.5-1.2,0.4-1.9
				c-0.1-0.7-0.5-1.2-1.1-1.6C44.5,151.9,44,151.7,43.6,151.7z"/>
		</g>
	</g>
</g>
</svg>
