<?xml version="1.0" encoding="utf-8"?>
<!-- Generator: Adobe Illustrator 24.0.1, SVG Export Plug-In . SVG Version: 6.00 Build 0)  -->
<svg version="1.1" id="Layer_1" xmlns="http://www.w3.org/2000/svg" xmlns:xlink="http://www.w3.org/1999/xlink" x="0px" y="0px"
	 viewBox="0 0 230 230" style="enable-background:new 0 0 230 230;" xml:space="preserve">
<style type="text/css">
	.st0{fill:#FFFFFF;}
	.st1{fill:#0A557E;}
	.st2{fill:#0D507A;}
	.st3{fill:none;}
	.st4{fill:#231F20;}
	.st5{fill:#F69570;}
	.st6{fill:#F48980;}
	.st7{fill:#08507B;}
	.st8{fill:#F7F9FC;}
	.st9{clip-path:url(#SVGID_4_);}
	.st10{fill:#0E547D;}
	.st11{clip-path:url(#SVGID_6_);}
	.st12{fill:#81C9EF;}
	.st13{fill:#11537C;}
	.st14{fill:#FFFFFF;stroke:#0A557E;stroke-width:1.778;stroke-linecap:round;stroke-linejoin:round;stroke-miterlimit:10;}
	.st15{fill:none;stroke:#CAE2F8;stroke-width:1.778;stroke-linecap:round;stroke-linejoin:round;stroke-miterlimit:10;}
	.st16{fill:#D0C2EF;}
	.st17{fill:#874ACE;}
	.st18{fill:#C5C6E3;}
	.st19{fill:#4F388D;}
	.st20{fill:none;stroke:#0D507A;stroke-width:3.1011;stroke-linecap:round;stroke-linejoin:round;stroke-miterlimit:10;}
	.st21{fill:#E8318D;}
	.st22{fill:none;stroke:#E8318D;stroke-linecap:round;stroke-linejoin:round;stroke-miterlimit:10;}
	.st23{fill:#4F388E;}
	.st24{fill:#FAC67B;}
	.st25{fill:#C6C8E6;}
	.st26{clip-path:url(#SVGID_10_);}
	.st27{clip-path:url(#SVGID_12_);}
</style>
<g>
	<g>
		<g>
			<g>
				<path class="st0" d="M157,82.7l-40.1-18.8l-6.5,13.6l-11.6,24.4l-0.7,1.5c-1.4,2.8-7.5,5.7-9.1,3L77.2,94.5
					c-3.1-3.4-7.1-4-10.6-1.1c-2.9,2.4-2.5,6,0.5,9.4l14.7,14.7c2.3,2.3,4.2,5,5.5,8c2.9,6.7,4.4,13.9,4.4,21.2l0,11.5l0,11.1
					l44.4,0l0-34c0-5.7,1.3-11.3,3.7-16.4L157,82.7z"/>
			</g>
			<g>
				<path class="st1" d="M136.1,170.5L136.1,170.5l-44.4,0c-0.4,0-0.7-0.1-1-0.4c-0.3-0.3-0.4-0.6-0.4-1l0-22.6
					c0-7.1-1.4-14.1-4.3-20.7c-1.2-2.7-2.9-5.3-5.2-7.6l-14.7-14.7c-2.1-2.3-3.1-4.6-2.9-6.9c0.1-1.8,1-3.3,2.5-4.5
					c4-3.2,8.9-2.7,12.5,1.3L90,105.4c0.1,0.1,0.2,0.2,0.2,0.3c0.2,0.3,0.6,0.4,1.2,0.4c1.9-0.1,4.8-1.8,5.5-3.3l18.8-39.5
					c0.3-0.7,1.2-1,1.9-0.7l40.1,18.8c0.3,0.2,0.6,0.4,0.7,0.8c0.1,0.3,0.1,0.7-0.1,1.1l-17.2,36.1c-2.3,4.9-3.6,10.4-3.6,15.8l0,34
					C137.5,169.9,136.9,170.5,136.1,170.5z M93.1,167.8l41.6,0l0-32.6c0-5.8,1.3-11.7,3.8-17l16.6-34.9l-37.6-17.6l-18.2,38.2
					c-1.2,2.4-4.9,4.8-7.9,4.9c-1.6,0.1-2.9-0.5-3.6-1.6L76.2,95.5c-2.7-3-5.9-3.4-8.7-1C66.6,95.1,66.1,96,66,97
					c-0.1,1.4,0.6,3.1,2.1,4.8l14.7,14.6c2.5,2.5,4.5,5.4,5.8,8.4c3,6.9,4.5,14.2,4.5,21.7L93.1,167.8z"/>
			</g>
		</g>
		<g>
			<g>
				<path class="st25" d="M94.9,55.2l51.7,52.8c2,2,1.9,5.2-0.1,7.1l-21.9,21.1c-2,1.9-5.2,1.9-7.2-0.1L65.7,83.4
					c-2-2-1.9-5.2,0.1-7.1l21.9-21.1C89.7,53.2,92.9,53.2,94.9,55.2z"/>
			</g>
			<g>
				<path class="st23" d="M121,139.1C121,139.1,121,139.1,121,139.1c-1.8,0-3.4-0.7-4.6-1.9L64.7,84.3c-1.2-1.2-1.9-2.9-1.8-4.6
					c0-1.7,0.7-3.3,2-4.5l21.9-21.1c2.6-2.5,6.7-2.4,9.2,0.1l51.7,52.8c1.2,1.2,1.9,2.9,1.8,4.6c0,1.7-0.7,3.3-2,4.5l-21.9,21.1
					C124.3,138.4,122.7,139.1,121,139.1z M91.2,55.1c-0.9,0-1.9,0.3-2.6,1L66.8,77.2c-0.7,0.7-1.1,1.6-1.1,2.6c0,1,0.4,1.9,1,2.6
					l51.7,52.8c0.7,0.7,1.6,1.1,2.6,1.1c1,0,1.9-0.4,2.6-1l21.9-21.1c0.7-0.7,1.1-1.6,1.1-2.6c0-1-0.4-1.9-1-2.6L93.9,56.2
					C93.1,55.5,92.2,55.1,91.2,55.1z"/>
			</g>
		</g>
		<g>
			<g>
				<path class="st0" d="M93.5,53.7l54.2,55c1.3,1.3,1.3,3.5-0.1,4.8L123.4,137c-1.3,1.3-3.5,1.3-4.8-0.1l-54.2-55
					c-1.3-1.3-1.3-3.5,0.1-4.8l24.2-23.5C90,52.3,92.2,52.3,93.5,53.7z"/>
			</g>
			<g>
				<path class="st1" d="M121,139.3c-1.2,0-2.5-0.5-3.4-1.4l-54.2-55C62.5,82,62,80.8,62,79.5c0-1.3,0.5-2.5,1.4-3.3l24.2-23.5
					c1.9-1.8,4.9-1.8,6.8,0.1l54.2,55c0.9,0.9,1.4,2.1,1.4,3.4c0,1.3-0.5,2.5-1.4,3.3L124.4,138C123.5,138.9,122.2,139.3,121,139.3z
					 M91,54c-0.5,0-1,0.2-1.4,0.6L65.4,78.1c-0.4,0.4-0.6,0.9-0.6,1.4c0,0.5,0.2,1,0.6,1.4l54.2,55c0.8,0.8,2,0.8,2.8,0l24.2-23.5
					c0.8-0.8,0.8-2,0-2.8l-54.2-55C92.1,54.3,91.6,54,91,54C91,54,91,54,91,54z"/>
			</g>
		</g>
		<g>
			<g>
				<path class="st1" d="M64,81.4l5.8,5.9c4.4-4.3,4.5-11.3,0.2-15.6l-5.9,5.8C63,78.6,62.9,80.3,64,81.4z"/>
			</g>
		</g>
		<g>
			<g>
				<path class="st1" d="M93.1,53.3l5.8,5.9c-4.4,4.3-15.9,8.6-20.2,4.2l10.4-10.2C90.2,52.1,92,52.2,93.1,53.3z"/>
			</g>
		</g>
		<g>
			<g>
				<path class="st0" d="M102.9,51.2l47.5,60.8c1.2,1.5,0.9,3.6-0.6,4.7L123,137.4c-1.5,1.1-3.6,0.9-4.8-0.6L70.7,76
					c-1.2-1.5-0.9-3.6,0.6-4.7l26.8-20.6C99.6,49.5,101.8,49.8,102.9,51.2z"/>
			</g>
			<g>
				<path class="st1" d="M120.9,139.5c-0.2,0-0.4,0-0.6,0c-1.3-0.2-2.4-0.8-3.2-1.8L69.6,76.8c-0.8-1-1.1-2.3-1-3.5
					c0.2-1.3,0.8-2.4,1.8-3.2l26.8-20.6c2.1-1.6,5.1-1.2,6.7,0.8l47.5,60.8c1.6,2.1,1.2,5.1-0.9,6.7l-26.8,20.6
					C123,139.1,122,139.5,120.9,139.5z M100.2,51.3c-0.4,0-0.9,0.1-1.2,0.4L72.2,72.3c-0.4,0.3-0.7,0.8-0.8,1.3
					c-0.1,0.5,0.1,1.1,0.4,1.5l47.5,60.8c0.3,0.4,0.8,0.7,1.3,0.8c0.5,0.1,1.1-0.1,1.5-0.4l26.8-20.6c0.9-0.7,1-1.9,0.4-2.8
					l-47.5-60.8C101.4,51.6,100.8,51.3,100.2,51.3z"/>
			</g>
		</g>
		<g>
			<g>
				<path class="st1" d="M70.4,75.5l5.1,6.5c4.9-3.7,5.8-10.7,2-15.5l-6.6,5C69.7,72.5,69.5,74.2,70.4,75.5z"/>
			</g>
		</g>
		<g>
			<g>
				<path class="st1" d="M102.6,50.8l5.1,6.5c-4.9,3.7-11.9,2.9-15.6-2l6.6-5C99.8,49.3,101.6,49.6,102.6,50.8z"/>
			</g>
		</g>
		<g>
			<g>
				<path class="st0" d="M113.2,50.5l40.5,65.6c1,1.6,0.5,3.7-1.1,4.6l-28.9,17.6c-1.6,1-3.7,0.5-4.7-1.1L78.5,71.6
					c-1-1.6-0.5-3.7,1.1-4.6l28.9-17.6C110.1,48.4,112.2,48.9,113.2,50.5z"/>
			</g>
			<g>
				<path class="st1" d="M121.9,140.2c-1.6,0-3.2-0.8-4.1-2.3L77.3,72.3c-1.4-2.2-0.7-5.2,1.6-6.5l28.9-17.6
					c1.1-0.7,2.4-0.9,3.6-0.6c1.2,0.3,2.3,1.1,3,2.1l40.5,65.6c0.7,1.1,0.9,2.4,0.6,3.6c-0.3,1.2-1.1,2.3-2.2,2.9l-28.9,17.6
					C123.6,140,122.7,140.2,121.9,140.2z M110.3,50.3c-0.4,0-0.7,0.1-1,0.3L80.3,68.1c-0.5,0.3-0.8,0.7-0.9,1.2
					c-0.1,0.5,0,1.1,0.2,1.5l40.5,65.6c0.6,0.9,1.8,1.2,2.8,0.7l28.9-17.6c0.5-0.3,0.8-0.7,0.9-1.2c0.1-0.5,0-1.1-0.2-1.5L112,51.2
					c-0.3-0.5-0.7-0.8-1.2-0.9C110.6,50.3,110.4,50.3,110.3,50.3z"/>
			</g>
		</g>
		<g>
			<g>
				<path class="st1" d="M78.2,71.1l4.3,7c5.2-3.2,6.9-10,3.7-15.2l-7.1,4.3C77.8,68,77.4,69.7,78.2,71.1z"/>
			</g>
		</g>
		<g>
			<g>
				<path class="st1" d="M112.9,50l4.3,7c-5.2,3.2-12.1,1.5-15.3-3.7l7.1-4.3C110.3,48.3,112.1,48.7,112.9,50z"/>
			</g>
		</g>
		<g>
			<g>
				<path class="st1" d="M119.3,137.6l-4.3-7c5.2-3.2,12.1-1.5,15.3,3.7l-7.1,4.3C121.9,139.4,120.1,139,119.3,137.6z"/>
			</g>
		</g>
		<g>
			<g>
				<path class="st1" d="M154,116.6l-4.3-7c-5.2,3.2-6.9,10-3.7,15.2l7.1-4.3C154.4,119.7,154.8,117.9,154,116.6z"/>
			</g>
		</g>
		<g>
			<g>
				<ellipse class="st1" cx="116.1" cy="93.9" rx="15.3" ry="15.2"/>
			</g>
		</g>
		<g>
			<g>
				<ellipse class="st1" cx="101.7" cy="70.5" rx="5.8" ry="5.8"/>
			</g>
		</g>
		<g>
			<g>
				<ellipse class="st1" cx="130.5" cy="117.2" rx="5.8" ry="5.8"/>
			</g>
		</g>
		<g>
			<g>
				<path class="st0" d="M130.7,60.8L123,77c-1.3,2.8-4.6,3.9-7.4,2.6l0,0c-2.8-1.3-4-4.6-2.7-7.3l7.7-16.2c1.3-2.8,4.6-3.9,7.4-2.6
					l0,0C130.8,54.7,132,58,130.7,60.8z"/>
			</g>
			<g>
				<path class="st1" d="M118,81.5c-1,0-2-0.2-2.9-0.6c-3.5-1.6-5-5.7-3.3-9.2l7.7-16.2c0.8-1.7,2.2-2.9,3.9-3.6
					c1.7-0.6,3.6-0.5,5.3,0.2c1.7,0.8,3,2.2,3.6,3.9c0.6,1.7,0.5,3.6-0.2,5.3l0,0l-7.7,16.2C123.1,80.1,120.6,81.5,118,81.5z
					 M125.7,54.3c-0.5,0-1,0.1-1.4,0.2c-1,0.4-1.9,1.1-2.3,2.1l-7.7,16.2c-1,2.1-0.1,4.5,2,5.5c2.1,1,4.6,0.1,5.5-2l7.7-16.2
					c0.5-1,0.5-2.1,0.1-3.1c-0.4-1-1.1-1.9-2.1-2.3C126.9,54.4,126.3,54.3,125.7,54.3z"/>
			</g>
		</g>
		<g>
			<g>
				<path class="st0" d="M140.7,65.4L133,81.6c-1.3,2.8-4.6,3.9-7.4,2.6h0c-2.8-1.3-4-4.6-2.7-7.3l7.7-16.2c1.3-2.8,4.6-3.9,7.4-2.6
					l0,0C140.8,59.4,142,62.7,140.7,65.4z"/>
			</g>
			<g>
				<path class="st1" d="M128,86.2c-1,0-2-0.2-2.9-0.7c-1.7-0.8-3-2.2-3.6-3.9c-0.6-1.7-0.5-3.6,0.2-5.3l7.7-16.2
					c0.8-1.7,2.2-2.9,3.9-3.6c1.7-0.6,3.6-0.5,5.3,0.2c1.7,0.8,3,2.2,3.6,3.9c0.6,1.7,0.5,3.6-0.2,5.3l0,0l-7.7,16.2
					c-0.8,1.7-2.2,2.9-3.9,3.6C129.6,86.1,128.8,86.2,128,86.2z M135.7,59c-0.5,0-1,0.1-1.4,0.2c-1,0.4-1.9,1.1-2.3,2.1l-7.7,16.2
					c-0.5,1-0.5,2.1-0.1,3.1c0.4,1,1.1,1.9,2.1,2.3c1,0.5,2.1,0.5,3.2,0.1c1-0.4,1.9-1.1,2.3-2.1l7.7-16.2c0.5-1,0.5-2.1,0.1-3.2
					c-0.4-1-1.1-1.9-2.1-2.3C136.9,59.1,136.3,59,135.7,59z"/>
			</g>
		</g>
		<g>
			<g>
				<path class="st0" d="M150.8,70.1l-7.7,16.2c-1.3,2.8-4.6,3.9-7.4,2.6h0c-2.8-1.3-4-4.6-2.7-7.3l7.7-16.2
					c1.3-2.8,4.6-3.9,7.4-2.6l0,0C150.9,64.1,152.1,67.3,150.8,70.1z"/>
			</g>
			<g>
				<path class="st1" d="M138.1,90.9c-1,0-2-0.2-2.9-0.7c-3.5-1.6-5-5.7-3.3-9.2l7.7-16.2c0.8-1.7,2.2-2.9,3.9-3.6
					c1.7-0.6,3.6-0.5,5.3,0.2c3.5,1.6,5,5.7,3.3,9.2l0,0l-7.7,16.2c-0.8,1.7-2.2,2.9-3.9,3.6C139.7,90.7,138.9,90.9,138.1,90.9z
					 M145.8,63.6c-0.5,0-1,0.1-1.4,0.2c-1,0.4-1.9,1.1-2.3,2.1l-7.7,16.2c-1,2.1-0.1,4.5,2,5.5c1,0.5,2.1,0.5,3.2,0.1
					c1-0.4,1.9-1.1,2.3-2.1l7.7-16.2c0.5-1,0.5-2.1,0.1-3.1c-0.4-1-1.1-1.9-2.1-2.3C147,63.8,146.4,63.6,145.8,63.6z"/>
			</g>
		</g>
		<g>
			<g>
				<path class="st0" d="M160.8,74.8L153.1,91c-1.3,2.8-4.6,3.9-7.4,2.6l0,0c-2.8-1.3-4-4.6-2.7-7.3l7.7-16.2
					c1.3-2.8,4.6-3.9,7.4-2.6h0C160.9,68.7,162.1,72,160.8,74.8z"/>
			</g>
			<g>
				<path class="st1" d="M148.1,95.5c-1,0-2-0.2-2.9-0.6c-3.5-1.6-5-5.7-3.3-9.2l7.7-16.2c1.6-3.4,5.8-4.9,9.2-3.3
					c1.7,0.8,3,2.2,3.6,3.9c0.6,1.7,0.5,3.6-0.2,5.3l0,0l-7.7,16.2C153.2,94.1,150.7,95.5,148.1,95.5z M155.8,68.3
					c-1.6,0-3.1,0.9-3.8,2.4l-7.7,16.2c-1,2.1-0.1,4.5,2,5.5c2.1,1,4.6,0.1,5.5-2l7.7-16.2c0.5-1,0.5-2.1,0.1-3.2
					c-0.4-1-1.1-1.9-2.1-2.3C157,68.4,156.4,68.3,155.8,68.3z"/>
			</g>
		</g>
		<g>
			<g>
				<path class="st0" d="M124.4,90.6c-0.1,0.4-0.4,0.8-0.8,1l-13.5,8.1c-0.4,0.2-0.8,0.3-1.3,0.2c-0.5-0.1-0.8-0.4-1.1-0.8
					c-0.3-0.4-0.3-0.9-0.2-1.3c0.1-0.4,0.4-0.8,0.8-1l11.1-6.6l-1.8-0.9c-0.3-0.1-0.5-0.4-0.7-0.6c-0.2-0.4-0.3-0.8-0.2-1.2
					c0.1-0.4,0.4-0.8,0.7-1c0.2-0.1,0.5-0.2,0.8-0.2c0.3,0,0.6,0.1,0.8,0.2l4.2,2.2c0.3,0.2,0.6,0.5,0.8,0.9
					C124.4,89.8,124.5,90.2,124.4,90.6z"/>
			</g>
		</g>
		<g>
			<g>
				<path class="st1" d="M134.9,210.5l-42.1,0c-2.9,0-5.2-2.3-5.2-5.2l0-40.7c0-2.9,2.3-5.2,5.2-5.2l42.1,0c2.9,0,5.2,2.3,5.2,5.2
					l0,40.7C140.1,208.1,137.7,210.5,134.9,210.5z"/>
			</g>
			<g>
				<path class="st1" d="M133.1,211.8l-38.5,0c-2.2,0-4.3-0.9-5.9-2.4s-2.4-3.7-2.4-5.9l0-37.2c0-4.6,3.8-8.3,8.4-8.3l38.5,0
					c4.6,0,8.4,3.7,8.4,8.3l0,37.2C141.4,208.1,137.7,211.8,133.1,211.8z M94.6,160.8c-3.1,0-5.6,2.5-5.6,5.5l0,37.2
					c0,1.5,0.6,2.9,1.6,3.9c1.1,1,2.5,1.6,3.9,1.6l38.5,0c3.1,0,5.6-2.5,5.6-5.5l0-37.2c0-3-2.5-5.5-5.6-5.5L94.6,160.8z"/>
			</g>
		</g>
		<g>
			<g>
				<path class="st0" d="M114.3,167.8H90.7c-0.8,0-1.4-0.6-1.4-1.4s0.6-1.4,1.4-1.4h23.7c0.8,0,1.4,0.6,1.4,1.4
					S115.1,167.8,114.3,167.8z"/>
			</g>
		</g>
		<g>
			<g>
				<path class="st0" d="M114.3,183.2H90.7c-0.8,0-1.4-0.6-1.4-1.4s0.6-1.4,1.4-1.4h23.7c0.8,0,1.4,0.6,1.4,1.4
					S115.1,183.2,114.3,183.2z"/>
			</g>
		</g>
		<g>
			<g>
				<path class="st0" d="M114.3,198.5H90.7c-0.8,0-1.4-0.6-1.4-1.4s0.6-1.4,1.4-1.4h23.7c0.8,0,1.4,0.6,1.4,1.4
					S115.1,198.5,114.3,198.5z"/>
			</g>
		</g>
	</g>
</g>
</svg>
