<?xml version="1.0" encoding="utf-8"?>
<!-- Generator: Adobe Illustrator 24.0.1, SVG Export Plug-In . SVG Version: 6.00 Build 0)  -->
<svg version="1.1" id="Layer_1" xmlns="http://www.w3.org/2000/svg" xmlns:xlink="http://www.w3.org/1999/xlink" x="0px" y="0px"
	 viewBox="0 0 230 230" style="enable-background:new 0 0 230 230;" xml:space="preserve">
<style type="text/css">
	.st0{fill:#FFFFFF;}
	.st1{fill:#0A557E;}
	.st2{fill:#0D507A;}
	.st3{fill:none;}
	.st4{fill:#231F20;}
	.st5{fill:#F69570;}
	.st6{fill:#F48980;}
	.st7{fill:#08507B;}
	.st8{fill:#F7F9FC;}
	.st9{clip-path:url(#SVGID_4_);}
	.st10{fill:#0E547D;}
	.st11{clip-path:url(#SVGID_6_);}
	.st12{fill:#81C9EF;}
	.st13{fill:#11537C;}
	.st14{fill:#FFFFFF;stroke:#0A557E;stroke-width:1.778;stroke-linecap:round;stroke-linejoin:round;stroke-miterlimit:10;}
	.st15{fill:none;stroke:#CAE2F8;stroke-width:1.778;stroke-linecap:round;stroke-linejoin:round;stroke-miterlimit:10;}
	.st16{fill:#D0C2EF;}
	.st17{fill:#874ACE;}
	.st18{fill:#C5C6E3;}
	.st19{fill:#4F388D;}
	.st20{fill:none;stroke:#0D507A;stroke-width:3.1011;stroke-linecap:round;stroke-linejoin:round;stroke-miterlimit:10;}
	.st21{fill:#E8318D;}
	.st22{fill:none;stroke:#E8318D;stroke-linecap:round;stroke-linejoin:round;stroke-miterlimit:10;}
	.st23{fill:#4F388E;}
	.st24{fill:#FAC67B;}
	.st25{fill:#C6C8E6;}
	.st26{clip-path:url(#SVGID_10_);}
	.st27{clip-path:url(#SVGID_12_);}
</style>
<g>
	<g>
		<g>
			<g>
				<path class="st0" d="M159.3,117.8V67.5c0-2-1.4-3.7-3.3-4.2c-35.9-7.9-71-2.1-81.8,0c-2,0.4-3.4,2.1-3.4,4.2v50.3
					c0,35,36.8,50.3,43.3,52.7c0.6,0.2,1.3,0.2,2,0C122.5,168.1,159.3,152.8,159.3,117.8z"/>
			</g>
			<g>
				<path class="st1" d="M115,172c-0.5,0-1-0.1-1.5-0.3c-3.2-1.2-14.3-5.7-24.5-14.4C76,146.3,69.4,133,69.4,117.8V67.5
					c0-2.7,1.9-5,4.5-5.5c10.1-2,46-8.1,82.4,0c2.6,0.6,4.4,2.9,4.4,5.5v50.3c0,15.2-6.6,28.5-19.7,39.6
					c-10.2,8.7-21.3,13.2-24.5,14.4C116,172,115.5,172,115,172z M116.7,60.6c-19.9,0-36.1,2.8-42.3,4c-1.3,0.3-2.3,1.5-2.3,2.9v50.3
					c0,14.4,6.3,27,18.7,37.6c9.9,8.4,20.6,12.8,23.7,13.9c0.3,0.1,0.7,0.1,1,0c3.1-1.1,13.8-5.5,23.7-13.9
					c12.4-10.5,18.7-23.2,18.7-37.6V67.5c0-1.4-1-2.6-2.3-2.9C142.2,61.7,128.7,60.6,116.7,60.6z"/>
			</g>
		</g>
		<g>
			<g>
				<path class="st1" d="M71.1,80c-0.3,0-0.7-0.1-1-0.4c-0.5-0.5-0.5-1.4,0-1.9l6.8-6.8c0.5-0.5,1.4-0.5,1.9,0s0.5,1.4,0,1.9
					l-6.8,6.8C71.8,79.9,71.5,80,71.1,80z"/>
			</g>
		</g>
		<g>
			<g>
				<path class="st1" d="M71.2,101c-0.3,0-0.7-0.1-1-0.4c-0.5-0.5-0.5-1.4,0-1.9L77,92c0.5-0.5,1.4-0.5,1.9,0c0.5,0.5,0.5,1.4,0,1.9
					l-6.8,6.8C71.9,100.9,71.5,101,71.2,101z"/>
			</g>
		</g>
		<g>
			<g>
				<path class="st1" d="M71.2,122c-0.3,0-0.7-0.1-1-0.4c-0.5-0.5-0.5-1.4,0-1.9l6.3-6.3c0.5-0.5,1.4-0.5,1.9,0
					c0.5,0.5,0.5,1.4,0,1.9l-6.3,6.3C71.9,121.8,71.5,122,71.2,122z"/>
			</g>
		</g>
		<g>
			<g>
				<path class="st1" d="M75.3,138.5c-0.3,0-0.7-0.1-1-0.4c-0.5-0.5-0.5-1.4,0-1.9l7.3-7.3c0.5-0.5,1.4-0.5,1.9,0
					c0.5,0.5,0.5,1.4,0,1.9l-7.3,7.3C76,138.4,75.7,138.5,75.3,138.5z"/>
			</g>
		</g>
		<g>
			<g>
				<path class="st1" d="M83.7,151.8c-0.3,0-0.7-0.1-1-0.4c-0.5-0.5-0.5-1.4,0-1.9l8.3-8.3c0.5-0.5,1.4-0.5,1.9,0
					c0.5,0.5,0.5,1.4,0,1.9l-8.3,8.3C84.4,151.6,84.1,151.8,83.7,151.8z"/>
			</g>
		</g>
		<g>
			<g>
				<path class="st1" d="M95.2,161.4c-0.3,0-0.7-0.1-1-0.4c-0.5-0.5-0.5-1.4,0-1.9l7.8-7.8c0.5-0.5,1.4-0.5,1.9,0s0.5,1.4,0,1.9
					l-7.8,7.8C95.9,161.2,95.6,161.4,95.2,161.4z"/>
			</g>
		</g>
		<g>
			<g>
				<path class="st1" d="M108.9,168.9c-0.3,0-0.7-0.1-1-0.4c-0.5-0.5-0.5-1.4,0-1.9l8.3-8.3c0.5-0.5,1.4-0.5,1.9,0s0.5,1.4,0,1.9
					l-8.3,8.3C109.6,168.8,109.2,168.9,108.9,168.9z"/>
			</g>
		</g>
	</g>
	<g>
		<g>
			<g>
				<path class="st1" d="M114.9,144.5c-0.7,0-1.3-0.6-1.3-1.3v-38.9c0-0.7,0.6-1.3,1.3-1.3s1.3,0.6,1.3,1.3v38.9
					C116.3,143.9,115.7,144.5,114.9,144.5z"/>
			</g>
		</g>
		<g>
			<g>
				<path class="st1" d="M84.6,80.4c0.3-1.6,1.6-2.9,3.2-3.2c7.4-1.2,15.2,1.1,20.8,6.7s7.9,13.5,6.7,20.8c-0.3,1.6-1.6,2.9-3.2,3.2
					c-7.4,1.2-15.2-1.1-20.8-6.7S83.5,87.8,84.6,80.4z"/>
			</g>
			<g>
				<path class="st1" d="M108.4,109.6c-6.7,0-13.2-2.6-18-7.4c-5.7-5.7-8.4-14-7.1-22c0.4-2.2,2.1-4,4.3-4.3c8-1.3,16.3,1.4,22,7.1
					c5.7,5.7,8.4,14,7.1,22c-0.4,2.2-2.1,4-4.3,4.3C111.1,109.5,109.7,109.6,108.4,109.6z M91.6,78.3c-1.2,0-2.4,0.1-3.6,0.3
					c-1.1,0.2-1.9,1-2.1,2.1l0,0c-1.1,7.2,1.2,14.5,6.4,19.7s12.5,7.5,19.7,6.4c1.1-0.2,1.9-1,2.1-2.1c1.1-7.2-1.2-14.5-6.4-19.7
					C103.4,80.6,97.6,78.3,91.6,78.3z M84.6,80.4L84.6,80.4L84.6,80.4z"/>
			</g>
		</g>
		<g>
			<g>
				<path class="st1" d="M143.8,105.6c1.8,0.7,2.8,2.4,2.6,4.3c-0.7,6.3-4.2,12.3-10,15.8c-5.9,3.6-12.9,4-18.9,1.6
					c-1.6-0.6-2.6-2.2-2.4-3.9c0.6-6.4,4.1-12.5,10-16.1C131,103.8,137.9,103.4,143.8,105.6z"/>
			</g>
			<g>
				<path class="st1" d="M125.4,130.3c-2.8,0-5.6-0.5-8.4-1.6c-2.1-0.8-3.5-3-3.3-5.3c0.7-7.1,4.6-13.4,10.7-17.1
					c6-3.7,13.2-4.4,19.8-1.8h0c2.3,0.9,3.8,3.2,3.5,5.7c-0.8,7-4.6,13.2-10.6,16.9C133.5,129.1,129.5,130.3,125.4,130.3z
					 M136.2,105.6c-3.6,0-7.2,1-10.3,2.9c-5.4,3.3-8.8,8.8-9.4,15.1c-0.1,1.1,0.6,2.1,1.6,2.5c5.9,2.3,12.3,1.8,17.7-1.5
					c5.3-3.2,8.7-8.7,9.4-14.8c0.1-1.3-0.6-2.4-1.8-2.9h0C141,106,138.6,105.6,136.2,105.6z"/>
			</g>
		</g>
		<g>
			<g>
				<path class="st0" d="M112.5,104.7c-0.4,0-0.8-0.2-1.1-0.5c-6.5-8.8-21.5-19.6-21.6-19.7c-0.6-0.4-0.7-1.3-0.3-1.9
					c0.4-0.6,1.3-0.7,1.9-0.3c0.6,0.4,15.4,11.1,22.2,20.3c0.4,0.6,0.3,1.4-0.3,1.9C113,104.6,112.7,104.7,112.5,104.7z"/>
			</g>
		</g>
		<g>
			<g>
				<path class="st0" d="M118.3,124.1c-0.4,0-0.8-0.2-1-0.5c-0.5-0.6-0.4-1.4,0.2-1.9c6.6-5.6,18.3-11,21.7-12.5
					c0.6-0.3,0.9-0.4,0.9-0.4c0.7-0.3,1.5,0,1.8,0.7c0.3,0.7,0,1.5-0.7,1.8l-0.9,0.4c-3.4,1.5-14.8,6.8-21.1,12.1
					C118.9,124,118.6,124.1,118.3,124.1z"/>
			</g>
		</g>
	</g>
</g>
</svg>
