<svg xmlns="http://www.w3.org/2000/svg" width="24" height="28.493" viewBox="0 0 24 28.493"><defs><style>.a{fill:#1e3056;}</style></defs><path class="a" d="M40.267,26.2a15.491,15.491,0,0,1-1.532,2.754,13.993,13.993,0,0,1-1.973,2.385,3.828,3.828,0,0,1-2.536,1.117,6.357,6.357,0,0,1-2.343-.559,6.722,6.722,0,0,0-2.522-.558,6.95,6.95,0,0,0-2.593.558,6.978,6.978,0,0,1-2.241.589,3.6,3.6,0,0,1-2.593-1.147,14.694,14.694,0,0,1-2.064-2.469,17.078,17.078,0,0,1-2.183-4.335,15.874,15.874,0,0,1-.916-5.167,9.436,9.436,0,0,1,1.239-4.936,7.268,7.268,0,0,1,2.6-2.625,6.981,6.981,0,0,1,3.508-.99,8.261,8.261,0,0,1,2.714.632,8.723,8.723,0,0,0,2.152.633,12.879,12.879,0,0,0,2.387-.746,7.889,7.889,0,0,1,3.244-.576A6.888,6.888,0,0,1,40,13.6a6,6,0,0,0-3.183,5.453A6.015,6.015,0,0,0,38.8,23.588a6.491,6.491,0,0,0,1.973,1.294q-.237.689-.5,1.321Zm-5.5-21.634a6.078,6.078,0,0,1-1.558,3.987A5.309,5.309,0,0,1,28.8,10.732a4.436,4.436,0,0,1-.033-.54,6.245,6.245,0,0,1,1.653-4.029,6.365,6.365,0,0,1,2.014-1.512A6,6,0,0,1,34.739,4a5.175,5.175,0,0,1,.03.57Z" transform="translate(-16.77 -3.999)"/></svg>