<?xml version="1.0" encoding="utf-8"?>
<!-- Generator: Adobe Illustrator 24.0.1, SVG Export Plug-In . SVG Version: 6.00 Build 0)  -->
<svg version="1.1" id="Layer_1" xmlns="http://www.w3.org/2000/svg" xmlns:xlink="http://www.w3.org/1999/xlink" x="0px" y="0px"
	 viewBox="0 0 2112 770" style="enable-background:new 0 0 2112 770;" xml:space="preserve">
<style type="text/css">
	.st0{fill:#11537C;}
	.st1{fill:#FFFFFF;}
	.st2{fill:#D7EFFF;}
	.st3{fill:#FF9D6F;}
</style>
<g>
	<g>
		<g>
			<path class="st0" d="M1725.4,656.5c-26.2-35.6-55.4-85.9-89.9-144.1c-2.5-4.3,0.6-9.7,5.6-9.8c12.4-0.3,31.3-2.5,45.1-3.2
				c7.4-0.4,11.2-9,6.6-14.8c-38.3-47.2-87.8-97-112.7-138.4c-3.3-5.5,0.5-12.5,6.9-12.7c15.4-0.5,35.8-2.2,51.1-4.8
				c6.4-1.1,9.6-8.5,5.9-13.9c-52.7-77-81.2-134.9-106.4-204.6c-2.1-5.8-10.4-5.7-12.3,0.2c-20.6,63.9-54.1,125.1-100.9,202.3
				c-2.7,4.5,0.4,10.2,5.5,11c11.9,1.8,31.2,4.6,45.4,5.8c5.6,0.5,9.2,6.2,7.1,11.5c-20.6,52.5-54.6,100.4-98.5,138.8
				c-6,5.2-2.9,15.1,5,15.9c14.8,1.5,29.6,3,44.3,4.5c4.7,0.5,7.3,5.6,5,9.7c-33.7,59.6-64.6,101-96.4,154.8
				c-5.2,8.7-1.2,16.5,8.9,17.3c55.5,4.6,105.7,7.9,154.9,8.8c4.6,0.1,8.2,3.8,8.2,8.3v77.1h43V699c0-4.5,3.6-8.2,8.1-8.3
				c48.4-1.3,97.7-5.5,151.9-13.7C1726.5,675.4,1731.1,664.3,1725.4,656.5z"/>
		</g>
	</g>
	<g>
		<g>
			<g>
				<path class="st1" d="M927.9,678.2L927.9,678.2c-5.2,0-9.4-4.2-9.4-9.4v-19.1c0-3.3,2.7-6,6-6h6.9c3.3,0,6,2.7,6,6l0,19.1
					C937.3,674,933.1,678.2,927.9,678.2z"/>
			</g>
			<g>
				<path class="st0" d="M927.9,679.9c-6.1,0-11.1-5-11.1-11.1v-19.1c0-4.2,3.4-7.6,7.6-7.6h6.9c4.2,0,7.6,3.4,7.6,7.6v19.1
					C939,674.9,934,679.9,927.9,679.9z M924.5,645.4c-2.4,0-4.3,1.9-4.3,4.3v19.1c0,4.3,3.5,7.8,7.8,7.8c4.3,0,7.8-3.5,7.8-7.8
					v-19.1c0-2.4-1.9-4.3-4.3-4.3H924.5z"/>
			</g>
		</g>
		<g>
			<g>
				<path class="st1" d="M1116.9,456.9l8-2.2l15-4.1l19.4-5.3c1.8-0.5,3.6,0.6,4,2.3s-0.6,3.6-2.3,4l-10.5,2.9
					c0.6,0.8,1,1.8,1.3,2.8c1.4,5.1-1.6,10.5-6.8,11.9l-23,6.2L1116.9,456.9z"/>
			</g>
			<g>
				<path class="st0" d="M1122,477.2c-0.7,0-1.4-0.5-1.6-1.2l-5.1-18.6c-0.1-0.4-0.1-0.9,0.2-1.3c0.2-0.4,0.6-0.7,1-0.8l42.4-11.5
					c2.6-0.7,5.3,0.8,6.1,3.5c0.7,2.6-0.8,5.4-3.5,6.1l-8.5,2.3c0.2,0.4,0.3,0.9,0.5,1.4c0.8,2.9,0.4,6-1.1,8.6
					c-1.5,2.6-3.9,4.5-6.9,5.3l-23,6.2C1122.3,477.2,1122.1,477.2,1122,477.2z M1118.9,458.1l4.2,15.5l21.4-5.8
					c2.1-0.6,3.8-1.9,4.9-3.7c1.1-1.9,1.3-4,0.8-6.1c-0.2-0.8-0.6-1.6-1.1-2.4c-0.3-0.4-0.4-1-0.2-1.5c0.2-0.5,0.6-0.9,1.1-1
					l10.5-2.9c0.9-0.2,1.4-1.1,1.2-2c-0.2-0.9-1.1-1.4-2-1.2L1118.9,458.1z"/>
			</g>
		</g>
		<g>
			<g>
				<path class="st1" d="M942.9,658.2h-28.8V513c0-15.9,12.9-28.8,28.8-28.8h0V658.2z"/>
			</g>
			<g>
				<path class="st0" d="M942.9,659.8h-28.8c-0.9,0-1.6-0.7-1.6-1.6V513c0-16.8,13.6-30.4,30.4-30.4c0.9,0,1.6,0.7,1.6,1.6v173.9
					C944.5,659.1,943.8,659.8,942.9,659.8z M915.8,656.5h25.5V485.9c-14.2,0.9-25.5,12.7-25.5,27.1V656.5z"/>
			</g>
		</g>
		<g>
			<g>
				<path class="st1" d="M1011.3,442.2l-2.8-7.8c-0.9-2.5-1.3-5.2-1.3-7.8v-3.5c-0.4-13.5-11.3-14.9-21.2-14.9
					c-11.9,0-21.6,9.7-21.6,21.6V449c0,4.5,1.4,8.7,3.7,12.1v30.1h25.1v-21.9c6.2-2.2,11.3-7.4,13.3-13.6c0.7-2.1,1.1-4.4,1-6.7
					c0.2-2.6,0.6-3.8,1.4-3.9C1010.7,445,1011.6,443.7,1011.3,442.2z"/>
			</g>
			<g>
				<path class="st0" d="M993.3,492.8h-25.1c-0.9,0-1.6-0.7-1.6-1.6v-29.6c-2.4-3.8-3.7-8.1-3.7-12.6v-19.3
					c0-12.8,10.4-23.2,23.2-23.2c6.7,0,22.3,0,22.8,16.5l0,3.5c0,2.5,0.4,4.9,1.3,7.3l2.8,7.8c0,0.1,0,0.2,0.1,0.2
					c0.2,1.2,0,2.4-0.7,3.3c-0.6,0.8-1.5,1.3-2.6,1.5c-0.1,0.3-0.3,1-0.4,2.3c0.1,2.4-0.3,4.8-1,7.2c-2.1,6.3-7.1,11.6-13.3,14.2
					v20.7C994.9,492.1,994.2,492.8,993.3,492.8z M969.8,489.5h21.8v-20.2c0-0.7,0.4-1.3,1.1-1.6c5.7-2,10.4-6.9,12.3-12.6
					c0.7-2,1-4.1,0.9-6.1c0-0.1,0-0.1,0-0.2c0.1-1.7,0.3-5.2,2.9-5.4c0.4,0,0.7-0.1,0.8-0.3c0.1-0.1,0.1-0.3,0.1-0.5l-2.7-7.7
					c-1-2.7-1.4-5.5-1.4-8.4v-3.5c-0.3-11-8.1-13.3-19.5-13.3c-11,0-19.9,8.9-19.9,19.9V449c0,4,1.2,7.9,3.4,11.2
					c0.2,0.3,0.3,0.6,0.3,0.9V489.5z"/>
			</g>
		</g>
		<g>
			<g>
				<path class="st1" d="M1001.5,425.3c-1.2-0.6-2.6-0.8-3.9-0.7c-1.8,0.1-3.6,0.7-5.1,1.8"/>
			</g>
			<g>
				<path class="st0" d="M992.5,428.1c-0.5,0-1-0.2-1.4-0.7c-0.5-0.7-0.3-1.8,0.4-2.3c1.7-1.2,3.8-1.9,5.9-2.1
					c1.7-0.1,3.3,0.2,4.7,0.8c0.8,0.4,1.2,1.4,0.8,2.2c-0.4,0.8-1.4,1.2-2.2,0.8c-0.9-0.4-2-0.6-3.1-0.5c-1.5,0.1-3,0.6-4.2,1.5
					C993.2,428,992.9,428.1,992.5,428.1z"/>
			</g>
		</g>
		<g>
			<g>
				<path class="st1" d="M995.2,434.2c0.5-1.1,1.5-1.8,2.7-1.8c1.2,0,2.2,0.7,2.7,1.6"/>
			</g>
			<g>
				<path class="st0" d="M995.2,435.9c-0.2,0-0.4,0-0.6-0.1c-0.8-0.4-1.2-1.3-0.9-2.2c0.7-1.7,2.4-2.8,4.3-2.8c1.8,0,3.3,1,4.1,2.5
					c0.4,0.8,0.1,1.8-0.7,2.2c-0.8,0.4-1.8,0.1-2.2-0.7c-0.2-0.4-0.7-0.7-1.2-0.7c-0.5,0-1,0.3-1.2,0.8
					C996.4,435.5,995.8,435.9,995.2,435.9z"/>
			</g>
		</g>
		<g>
			<g>
				<path class="st0" d="M1006.2,457.3c-1.1,0-2.2-0.2-3.2-0.6c-2.7-1-4.7-3.2-5.4-5.8c-0.2-0.9,0.3-1.8,1.2-2
					c0.9-0.2,1.8,0.3,2,1.2c0.4,1.5,1.6,2.9,3.3,3.5c0.8,0.3,1.6,0.4,2.4,0.4c0.9,0,1.7,0.6,1.7,1.5c0.1,0.9-0.6,1.7-1.5,1.7
					C1006.5,457.3,1006.3,457.3,1006.2,457.3z"/>
			</g>
		</g>
		<g>
			<g>
				<path class="st0" d="M1007.5,446.8c-1.6,0-2.4-0.3-2.6-0.4c-0.8-0.3-1.3-1.3-0.9-2.1c0.3-0.8,1.3-1.3,2.1-1c0.1,0,1,0.3,2.7,0.1
					c0.9-0.1,1.7,0.5,1.8,1.5c0.1,0.9-0.5,1.7-1.4,1.8C1008.5,446.8,1008,446.8,1007.5,446.8z"/>
			</g>
		</g>
		<g>
			<g>
				<path class="st0" d="M996.9,417.2c-1.9-0.7-4.2-1.9-5.8-0.6c-1.7,1.4-0.8,4.1-1.1,6.3c-0.4,2.6-2.8,4.4-4.6,6.3
					c-1.9,1.9,1,6.9,1.8,9.4c2.9,9.2-2.6,7.8-4.7,12.5c-3.9,9-9.4,12-15.3,12.8c-7.2,1-9.8-5.5-12.3-6.9c-4.4-2.3-7-1.9-8.4-3.8
					c-3.3-4.3-0.2-7.7-1.5-11.1c-2.2-6.2-5.4-8.5-5.4-15.7c0-9.9,7.4-12,9.2-15c2.8-4.5,1.1-11.6,10.4-16.2
					c9.8-4.8,15.7-0.8,19.8-1.4c6.9-1,12.7-0.8,18.8,2.5c2.5,1.4,4.2,4.1,6.8,5.2c1.4,0.6,3,0.6,4.3,1.4c1.7,1.1,2.4,3.2,3,5.1
					c0.9,2.9,0.6,8.8,0.3,11.9c-0.3,3-2.1,6.1-4.9,7c2.2-0.7-1.2-12.4-3.1-13.2C1000.9,412.6,1001.4,418.7,996.9,417.2z"/>
			</g>
		</g>
		<g>
			<g>
				<path class="st1" d="M1135.3,481.1l-7.3-27.8l-101.2,27.3c-7.6,2.1-15.5,3.1-23.4,3.1h-8.6h-27h-10.2
					c-12.9,0-23.4,10.5-23.4,23.4v126.4h94V524c0-6.3,3-14.3,11-17L1135.3,481.1z"/>
			</g>
			<g>
				<path class="st0" d="M1028.2,635.1h-94c-0.9,0-1.6-0.7-1.6-1.6V507c0-13.8,11.2-25,25-25h45.9c7.8,0,15.5-1,23-3l101.2-27.3
					c0.4-0.1,0.9-0.1,1.3,0.2c0.4,0.2,0.7,0.6,0.8,1l7.3,27.8c0.2,0.9-0.3,1.8-1.2,2l-96.1,25.9c-7.3,2.5-9.9,9.9-9.9,15.4v109.5
					C1029.8,634.4,1029.1,635.1,1028.2,635.1z M935.8,631.8h90.7V524c0-6.7,3.2-15.5,12.1-18.6c0,0,0.1,0,0.1,0l94.6-25.5l-6.5-24.6
					l-99.6,26.9c-7.8,2.1-15.8,3.2-23.8,3.2h-45.9c-12,0-21.7,9.7-21.7,21.7V631.8z"/>
			</g>
		</g>
		<g>
			<g>
				<g>
					<path class="st1" d="M1029.3,558.6h-16.6v-16.1c0-3.7,3-6.6,6.6-6.6h3.3c3.7,0,6.6,3,6.6,6.6V558.6z"/>
				</g>
				<g>
					<path class="st0" d="M1029.3,560.2h-16.6c-0.9,0-1.6-0.7-1.6-1.6v-16.1c0-4.6,3.7-8.3,8.3-8.3h3.3c4.6,0,8.3,3.7,8.3,8.3v16.1
						C1030.9,559.5,1030.2,560.2,1029.3,560.2z M1014.3,556.9h13.3v-14.5c0-2.7-2.2-5-5-5h-3.3c-2.7,0-5,2.2-5,5V556.9z"/>
				</g>
			</g>
			<g>
				<g>
					<path class="st0" d="M1017.9,529.6h6.3c1.2,0,2.2,1,2.2,2.2v1.8c0,1.2-1,2.2-2.2,2.2h-6.3c-1.2,0-2.2-1-2.2-2.2v-1.8
						C1015.6,530.6,1016.6,529.6,1017.9,529.6z"/>
				</g>
			</g>
			<g>
				<g>
					<path class="st1" d="M925.8,558.6h-16.6v-16.1c0-3.7,3-6.6,6.6-6.6h3.3c3.7,0,6.6,3,6.6,6.6V558.6z"/>
				</g>
				<g>
					<path class="st0" d="M925.8,560.2h-16.6c-0.9,0-1.6-0.7-1.6-1.6v-16.1c0-4.6,3.7-8.3,8.3-8.3h3.3c4.6,0,8.3,3.7,8.3,8.3v16.1
						C927.4,559.5,926.7,560.2,925.8,560.2z M910.8,556.9h13.3v-14.5c0-2.7-2.2-5-5-5h-3.3c-2.7,0-5,2.2-5,5V556.9z"/>
				</g>
			</g>
			<g>
				<g>
					<path class="st0" d="M914.3,529.6h6.3c1.2,0,2.2,1,2.2,2.2v1.8c0,1.2-1,2.2-2.2,2.2h-6.3c-1.2,0-2.2-1-2.2-2.2v-1.8
						C912.1,530.6,913.1,529.6,914.3,529.6z"/>
				</g>
			</g>
			<g>
				<g>
					<path class="st1" d="M994.3,607.9h-26.1H942c-8.9,0-16.3-7.3-16.3-16.3V557v-34.6c0-8.9,7.3-16.3,16.3-16.3h26.1h26.1
						c8.9,0,16.3,7.3,16.3,16.3V557v34.6C1010.6,600.5,1003.2,607.9,994.3,607.9z"/>
				</g>
				<g>
					<path class="st0" d="M994.3,609.5H942c-9.9,0-17.9-8-17.9-17.9v-69.3c0-9.9,8-17.9,17.9-17.9h52.3c9.9,0,17.9,8,17.9,17.9v69.3
						C1012.2,601.5,1004.2,609.5,994.3,609.5z M942,507.7c-8.1,0-14.6,6.6-14.6,14.6v69.3c0,8.1,6.6,14.6,14.6,14.6h52.3
						c8.1,0,14.6-6.6,14.6-14.6v-69.3c0-8.1-6.6-14.6-14.6-14.6H942z"/>
				</g>
			</g>
			<g>
				<g>
					<path class="st0" d="M1010.6,558.5v30.9h11.3c5.2,0,9.5-4.3,9.5-9.5v-18.1c0-1.8-1.5-3.3-3.3-3.3H1010.6z"/>
				</g>
				<g>
					<path class="st0" d="M1021.9,591h-13v-34.2h19.2c2.7,0,4.9,2.2,4.9,4.9v18.1C1033.1,586,1028.1,591,1021.9,591z M1012.2,587.7
						h9.7c4.3,0,7.9-3.5,7.9-7.9v-18.1c0-0.9-0.7-1.6-1.6-1.6h-15.9V587.7z"/>
				</g>
			</g>
			<g>
				<g>
					<path class="st0" d="M925.7,558.5v30.9h-11.3c-5.2,0-9.5-4.3-9.5-9.5v-18.1c0-1.8,1.5-3.3,3.3-3.3H925.7z"/>
				</g>
				<g>
					<path class="st0" d="M927.4,591h-13c-6.1,0-11.2-5-11.2-11.2v-18.1c0-2.7,2.2-4.9,4.9-4.9h19.2V591z M908.1,560.1
						c-0.9,0-1.6,0.7-1.6,1.6v18.1c0,4.3,3.5,7.9,7.9,7.9h9.7v-27.6H908.1z"/>
				</g>
			</g>
			<g>
				<g>
					<path class="st0" d="M979.4,553.3H958c-3,0-5.5-2.5-5.5-5.5v-7.4c0-3,2.5-5.5,5.5-5.5h21.4c3,0,5.5,2.5,5.5,5.5v7.4
						C984.9,550.8,982.4,553.3,979.4,553.3z"/>
				</g>
				<g>
					<path class="st0" d="M979.4,554.9H958c-3.9,0-7.1-3.2-7.1-7.1v-7.4c0-3.9,3.2-7.1,7.1-7.1h21.4c3.9,0,7.1,3.2,7.1,7.1v7.4
						C986.5,551.7,983.3,554.9,979.4,554.9z M958,536.5c-2.1,0-3.8,1.7-3.8,3.8v7.4c0,2.1,1.7,3.8,3.8,3.8h21.4
						c2.1,0,3.8-1.7,3.8-3.8v-7.4c0-2.1-1.7-3.8-3.8-3.8H958z"/>
				</g>
			</g>
			<g>
				<g>
					<path class="st0" d="M986.7,593.1h-36c-4.4,0-7.9-3.6-7.9-7.9v-13.5c0-4.4,3.6-7.9,7.9-7.9h36c4.4,0,7.9,3.6,7.9,7.9v13.5
						C994.6,589.6,991,593.1,986.7,593.1z"/>
				</g>
				<g>
					<path class="st0" d="M986.7,594.8h-36c-5.3,0-9.6-4.3-9.6-9.6v-13.5c0-5.3,4.3-9.6,9.6-9.6h36c5.3,0,9.6,4.3,9.6,9.6v13.5
						C996.2,590.5,991.9,594.8,986.7,594.8z M950.7,565.4c-3.5,0-6.3,2.8-6.3,6.3v13.5c0,3.5,2.8,6.3,6.3,6.3h36
						c3.5,0,6.3-2.8,6.3-6.3v-13.5c0-3.5-2.8-6.3-6.3-6.3H950.7z"/>
				</g>
			</g>
			<g>
				<g>
					<path class="st1" d="M1016.5,484.2h-95.6v0c-5,0-9,6.9-9,15.4s4,15.4,9,15.4v0h95.6c5,0,9-6.9,9-15.4
						C1025.5,491.1,1021.4,484.2,1016.5,484.2z"/>
				</g>
				<g>
					<path class="st0" d="M920.9,516.7c-6,0-10.7-7.5-10.7-17.1c0-9.4,4.5-16.8,10.4-17.1c0.1,0,0.2,0,0.3,0h95.6
						c6,0,10.7,7.5,10.7,17.1c0,9.6-4.7,17.1-10.7,17.1h-95.3C921.1,516.7,921,516.7,920.9,516.7z M921.2,485.9c-0.1,0-0.2,0-0.3,0
						c-4,0-7.4,6.3-7.4,13.8c0,7.3,3.3,13.6,7.2,13.8c0.1,0,0.1,0,0.2,0h95.6c4,0,7.4-6.3,7.4-13.8s-3.4-13.8-7.4-13.8H921.2z"/>
				</g>
			</g>
			<g>
				<g>
					<path class="st0" d="M1024.7,507.6h-112c-0.9,0-1.6-0.7-1.6-1.6s0.7-1.6,1.6-1.6h112c0.9,0,1.6,0.7,1.6,1.6
						S1025.6,507.6,1024.7,507.6z"/>
				</g>
			</g>
			<g>
				<g>
					<path class="st0" d="M979.4,524.4h-21.5c-3,0-5.5-2.4-5.5-5.5l-7.6-34.6c0-3,2.4-5.5,5.5-5.5h36.8c3,0,5.5,2.4,5.5,5.5
						l-7.6,34.6C984.9,522,982.4,524.4,979.4,524.4z"/>
				</g>
				<g>
					<path class="st0" d="M979.4,526h-21.5c-3.9,0-7-3.1-7.1-6.9l-7.6-34.6v-0.2c0-3.9,3.2-7.1,7.1-7.1h36.8c3.9,0,7.1,3.2,7.1,7.1
						l0,0.4l-7.6,34.4C986.4,523,983.3,526,979.4,526z M946.5,484.2l7.6,34.6v0.2c0,2.1,1.7,3.8,3.8,3.8h21.5c2.1,0,3.8-1.7,3.8-3.8
						l0-0.4l7.6-34.4c-0.1-2-1.8-3.6-3.8-3.6h-36.8C948.2,480.5,946.6,482.1,946.5,484.2z"/>
				</g>
			</g>
			<g>
				<g>
					<circle class="st1" cx="968.7" cy="511.2" r="4.8"/>
				</g>
				<g>
					<path class="st1" d="M968.7,517.7c-3.6,0-6.5-2.9-6.5-6.5s2.9-6.5,6.5-6.5s6.5,2.9,6.5,6.5S972.2,517.7,968.7,517.7z
						 M968.7,508.1c-1.8,0-3.2,1.4-3.2,3.2c0,1.8,1.4,3.2,3.2,3.2s3.2-1.4,3.2-3.2C971.9,509.5,970.4,508.1,968.7,508.1z"/>
				</g>
			</g>
			<g>
				<g>
					<g>
						<path class="st1" d="M917.1,568.6H909c-0.9,0-1.6-0.7-1.6-1.6s0.7-1.6,1.6-1.6h8.1c0.9,0,1.6,0.7,1.6,1.6
							S918,568.6,917.1,568.6z"/>
					</g>
				</g>
				<g>
					<g>
						<path class="st1" d="M917.1,582.1h-8.3c-0.9,0-1.6-0.7-1.6-1.6s0.7-1.6,1.6-1.6h8.3c0.9,0,1.6,0.7,1.6,1.6
							S918,582.1,917.1,582.1z"/>
					</g>
				</g>
			</g>
			<g>
				<g>
					<g>
						<path class="st1" d="M1022.8,568.6h-8.1c-0.9,0-1.6-0.7-1.6-1.6s0.7-1.6,1.6-1.6h8.1c0.9,0,1.6,0.7,1.6,1.6
							S1023.7,568.6,1022.8,568.6z"/>
					</g>
				</g>
				<g>
					<g>
						<path class="st1" d="M1022.8,582.1h-8.3c-0.9,0-1.6-0.7-1.6-1.6s0.7-1.6,1.6-1.6h8.3c0.9,0,1.6,0.7,1.6,1.6
							S1023.7,582.1,1022.8,582.1z"/>
					</g>
				</g>
			</g>
		</g>
		<g>
			<g>
				<g>
					<path class="st1" d="M745.8,740.7c-5.3,0-9.6-4.3-9.6-9.6v-16.2c0-3.7,3-6.7,6.7-6.7h5.9c3.7,0,6.7,3,6.7,6.7V731
						C755.4,736.4,751.1,740.7,745.8,740.7z"/>
				</g>
			</g>
			<g>
				<g>
					<path class="st0" d="M748.7,709.8c2.8,0,5,2.3,5,5V731c0,4.4-3.6,8-8,8s-8-3.6-8-8v-16.2c0-2.8,2.3-5,5-5H748.7 M748.7,706.5
						h-5.9c-4.6,0-8.3,3.7-8.3,8.3V731c0,6.2,5.1,11.3,11.3,11.3S757,737.3,757,731v-16.2C757,710.3,753.3,706.5,748.7,706.5
						L748.7,706.5z"/>
				</g>
			</g>
		</g>
		<g>
			<g>
				<path class="st0" d="M758.4,722.2h-24.4v-157c0-13.5,10.9-24.4,24.4-24.4l0,0V722.2z"/>
			</g>
			<g>
				<path class="st0" d="M758.4,723.9h-24.4c-0.9,0-1.6-0.7-1.6-1.6v-157c0-14.3,11.7-26,26-26c0.9,0,1.6,0.7,1.6,1.6v181.4
					C760.1,723.1,759.3,723.9,758.4,723.9z M735.7,720.6h21.1v-178c-11.8,0.8-21.1,10.7-21.1,22.7V720.6z"/>
			</g>
		</g>
		<g>
			<g>
				<g>
					<path class="st1" d="M860.7,736.6c-4.8,0-8.8-3.4-9.5-8.2l-2.5-16c-0.6-3.6,1.9-7.1,5.6-7.6l5.8-0.9c0.3-0.1,0.7-0.1,1-0.1
						c3.3,0,6.1,2.4,6.6,5.7l2.5,16c0.8,5.2-2.8,10.2-8,11C861.7,736.5,861.2,736.6,860.7,736.6
						C860.7,736.6,860.7,736.6,860.7,736.6z"/>
				</g>
			</g>
			<g>
				<g>
					<path class="st0" d="M861.1,705.5c2.4,0,4.6,1.8,5,4.3l2.5,16c0.7,4.4-2.3,8.4-6.7,9.1l0,0c-0.4,0.1-0.8,0.1-1.2,0.1
						c-3.9,0-7.3-2.8-7.9-6.8l-2.5-16c-0.4-2.8,1.5-5.3,4.2-5.8l5.8-0.9C860.6,705.5,860.9,705.5,861.1,705.5 M861.1,702.2
						c-0.4,0-0.9,0-1.3,0.1l-5.8,0.9c-2.2,0.3-4.1,1.5-5.5,3.3c-1.3,1.8-1.9,4-1.5,6.2l2.5,16c0.9,5.5,5.5,9.5,11.1,9.5
						c0.6,0,1.2,0,1.7-0.1c6.1-1,10.4-6.7,9.4-12.9l-2.5-16C868.7,705.1,865.3,702.2,861.1,702.2L861.1,702.2z"/>
				</g>
			</g>
		</g>
		<g>
			<g>
				<path class="st0" d="M846.8,720.2l24.1-3.7l-24-155.2c-2.1-13.3-14.5-22.4-27.8-20.4h0L846.8,720.2z"/>
			</g>
			<g>
				<path class="st0" d="M846.8,721.8c-0.3,0-0.7-0.1-1-0.3c-0.4-0.3-0.6-0.6-0.7-1.1l-27.8-179.2c-0.1-0.4,0-0.9,0.3-1.2
					c0.3-0.4,0.6-0.6,1.1-0.7c6.9-1.1,13.7,0.6,19.3,4.7c5.6,4.1,9.3,10.1,10.3,17l24,155.2c0.1,0.4,0,0.9-0.3,1.2
					c-0.3,0.4-0.6,0.6-1.1,0.7l-24.1,3.7C847,721.8,846.9,721.8,846.8,721.8z M821,542.4l27.2,175.9l20.8-3.2l-23.8-153.5
					c-0.9-6-4.1-11.3-9-14.9C831.8,543.4,826.4,541.9,821,542.4z"/>
			</g>
		</g>
		<g>
			<g>
				<path class="st1" d="M811.8,776.3l-11.6-39.5c0,0-0.7-2.6-2.4-2.6c-2.1,0.1-2.2,2.7-2.2,2.7l-4.2,39.4h-41.5v-84.1h94l13.1,84.1
					H811.8z"/>
			</g>
			<g>
				<path class="st0" d="M857,777.9h-45.1c-0.7,0-1.4-0.5-1.6-1.2l-11.6-39.5c-0.2-0.7-0.6-1.3-0.8-1.4c-0.5,0-0.6,1.1-0.6,1.1
					l-4.2,39.5c-0.1,0.8-0.8,1.5-1.6,1.5h-41.5c-0.9,0-1.6-0.7-1.6-1.6v-84.1c0-0.9,0.7-1.6,1.6-1.6h94c0.8,0,1.5,0.6,1.6,1.4
					l13.1,84.1c0.1,0.5-0.1,1-0.4,1.3C857.9,777.7,857.4,777.9,857,777.9z M813,774.6h42l-12.5-80.8h-91v80.8h38.4l4-38
					c0.1-1.3,0.9-4,3.7-4.2c2.4-0.1,3.8,2.4,4.1,3.8L813,774.6z"/>
			</g>
		</g>
		<g>
			<g>
				<path class="st0" d="M762.7,541.1h20.7h27h10.4c14.5,0,23,10.8,23,25.8v123.8c0,0-16.8,9.2-47.8,9.2c-30.9,0-46.3-9.2-46.3-9.2
					V554l0,0C749.8,546.9,755.6,541.1,762.7,541.1z"/>
			</g>
			<g>
				<path class="st0" d="M796.1,701.6c-31,0-46.5-9-47.1-9.4c-0.5-0.3-0.8-0.8-0.8-1.4V554c0-8,6.5-14.5,14.5-14.5h58.1
					c14.8,0,24.7,11,24.7,27.5v123.8c0,0.6-0.3,1.2-0.9,1.4C844,692.6,827.1,701.6,796.1,701.6z M751.5,689.8
					c3.5,1.8,18.5,8.5,44.6,8.5c26.3,0,42.4-6.8,46.1-8.6V567c0-14.7-8.4-24.2-21.4-24.2h-58.1c-6.2,0-11.2,5-11.2,11.2V689.8z
					 M843.9,690.8L843.9,690.8L843.9,690.8z"/>
			</g>
		</g>
		<g>
			<g>
				<g>
					<path class="st1" d="M823.1,503.2l-2.8-7.8c-0.9-2.5-1.3-5.2-1.3-7.8v-3.5c-0.4-13.5-11.3-14.9-21.2-14.9
						c-11.9,0-21.6,9.7-21.6,21.6V510c0,4.5,1.4,8.7,3.7,12.1v30.1h25.1v-21.9c6.2-2.2,11.3-7.4,13.3-13.6c0.7-2.1,1.1-4.4,1-6.7
						c0.2-2.6,0.6-3.8,1.4-3.9C822.6,506,823.4,504.7,823.1,503.2z"/>
				</g>
				<g>
					<path class="st0" d="M805.1,553.8H780c-0.9,0-1.6-0.7-1.6-1.6v-29.6c-2.4-3.8-3.7-8.1-3.7-12.6v-19.3
						c0-12.8,10.4-23.2,23.2-23.2c6.7,0,22.3,0,22.8,16.5l0,3.5c0,2.5,0.4,4.9,1.3,7.3l2.8,7.8c0,0.1,0,0.2,0.1,0.2
						c0.2,1.2,0,2.4-0.7,3.3c-0.6,0.8-1.5,1.3-2.6,1.5c-0.1,0.3-0.3,1-0.4,2.3c0.1,2.4-0.3,4.8-1,7.2c-2.1,6.3-7.1,11.6-13.3,14.2
						v20.7C806.7,553.1,806,553.8,805.1,553.8z M781.6,550.5h21.8v-20.2c0-0.7,0.4-1.3,1.1-1.6c5.7-2,10.4-6.9,12.3-12.6
						c0.7-2,1-4.1,0.9-6.1c0-0.1,0-0.1,0-0.2c0.1-1.7,0.3-5.2,2.9-5.4c0.4,0,0.7-0.1,0.8-0.3c0.1-0.1,0.1-0.3,0.1-0.5l-2.7-7.7
						c-1-2.7-1.4-5.5-1.4-8.4v-3.5c-0.3-11-8.1-13.3-19.5-13.3c-11,0-19.9,8.9-19.9,19.9V510c0,4,1.2,7.9,3.4,11.2
						c0.2,0.3,0.3,0.6,0.3,0.9V550.5z"/>
				</g>
			</g>
			<g>
				<g>
					<path class="st1" d="M813.3,486.3c-1.2-0.6-2.6-0.8-3.9-0.7c-1.8,0.1-3.6,0.7-5.1,1.8"/>
				</g>
				<g>
					<path class="st0" d="M804.4,489.1c-0.5,0-1-0.2-1.4-0.7c-0.5-0.7-0.3-1.8,0.4-2.3c1.7-1.2,3.8-1.9,5.9-2.1
						c1.7-0.1,3.3,0.2,4.7,0.8c0.8,0.4,1.2,1.4,0.8,2.2c-0.4,0.8-1.4,1.2-2.2,0.8c-0.9-0.4-2-0.6-3.1-0.5c-1.5,0.1-3,0.6-4.2,1.5
						C805,489,804.7,489.1,804.4,489.1z"/>
				</g>
			</g>
			<g>
				<g>
					<path class="st1" d="M807,495.2c0.5-1.1,1.5-1.8,2.7-1.8c1.2,0,2.2,0.7,2.7,1.6"/>
				</g>
				<g>
					<path class="st0" d="M807,496.9c-0.2,0-0.4,0-0.6-0.1c-0.8-0.4-1.2-1.3-0.9-2.2c0.7-1.7,2.4-2.8,4.3-2.8c1.8,0,3.3,1,4.1,2.5
						c0.4,0.8,0.1,1.8-0.7,2.2c-0.8,0.4-1.8,0.1-2.2-0.7c-0.2-0.4-0.7-0.7-1.2-0.7c-0.5,0-1,0.3-1.2,0.8
						C808.3,496.5,807.7,496.9,807,496.9z"/>
				</g>
			</g>
			<g>
				<g>
					<path class="st0" d="M818,518.3c-1.1,0-2.2-0.2-3.2-0.6c-2.7-1-4.7-3.2-5.4-5.8c-0.2-0.9,0.3-1.8,1.2-2c0.9-0.2,1.8,0.3,2,1.2
						c0.4,1.5,1.6,2.9,3.3,3.5c0.8,0.3,1.6,0.4,2.4,0.4c0.9-0.1,1.7,0.6,1.7,1.5c0.1,0.9-0.6,1.7-1.5,1.7
						C818.4,518.3,818.2,518.3,818,518.3z"/>
				</g>
			</g>
			<g>
				<g>
					<path class="st0" d="M819.3,507.8c-1.6,0-2.4-0.3-2.6-0.4c-0.8-0.3-1.3-1.3-0.9-2.1c0.3-0.8,1.3-1.3,2.1-1c0.1,0,1,0.3,2.7,0.1
						c0.9-0.1,1.7,0.5,1.8,1.5c0.1,0.9-0.5,1.7-1.5,1.8C820.3,507.8,819.8,507.8,819.3,507.8z"/>
				</g>
			</g>
			<g>
				<g>
					<path class="st0" d="M819.3,491.4c0-8.4-1.9-15-8.6-18.7c-0.8-0.5-1.9-0.5-2.7-0.1c-1.1,0.6-2.5,1.8-3.9,3.6
						c-6.2,8.2-2.4,15.3-10.5,19.2c-3,1.5-5.6,5.3-5.6,8.6v5.9c0,0,0,5.7,0,6.3c0,0,0,0,0,0c0,3.5-2.8,6.4-6.4,6.2l-5.8-0.3
						c-5.2,0-20.7-3.1-20.7-8.2v-1.5c0-0.2,0.1-0.4,0.1-0.6c0.3-1.1,1-2.1,1.4-3.1c1.2-2.9,0.5-6.1-0.4-9.1c-0.7-2.5-1-4.4-1.2-6.9
						v-0.6c0-0.3,0-0.7,0-1c0-17.3,16.6-32.1,33.9-34.6c5.3-0.6,15.8-0.1,20.3,2.5c1.2,0.7,2.5,1.1,3.8,1.2
						c8.8,0.7,17.1,12,9.2,40.9L819.3,491.4z"/>
				</g>
			</g>
		</g>
		<g>
			<g>
				<g>
					<path class="st1" d="M806.3,662.4h-26.1h-26.1c-8.9,0-16.3-7.3-16.3-16.3v-34.6v-34.6c0-8.9,7.3-16.3,16.3-16.3h26.1h26.1
						c8.9,0,16.3,7.3,16.3,16.3v34.6v34.6C822.6,655.1,815.3,662.4,806.3,662.4z"/>
				</g>
				<g>
					<path class="st0" d="M806.3,664.1h-52.3c-9.9,0-17.9-8-17.9-17.9v-69.3c0-9.9,8-17.9,17.9-17.9h52.3c9.9,0,17.9,8,17.9,17.9
						v69.3C824.3,656.1,816.2,664.1,806.3,664.1z M754.1,562.3c-8.1,0-14.6,6.6-14.6,14.6v69.3c0,8.1,6.6,14.6,14.6,14.6h52.3
						c8.1,0,14.6-6.6,14.6-14.6v-69.3c0-8.1-6.6-14.6-14.6-14.6H754.1z"/>
				</g>
			</g>
			<g>
				<g>
					<path class="st0" d="M791.4,607.9H770c-3,0-5.5-2.5-5.5-5.5V595c0-3,2.5-5.5,5.5-5.5h21.4c3,0,5.5,2.5,5.5,5.5v7.4
						C796.9,605.4,794.5,607.9,791.4,607.9z"/>
				</g>
				<g>
					<path class="st0" d="M791.4,609.5H770c-3.9,0-7.1-3.2-7.1-7.1V595c0-3.9,3.2-7.1,7.1-7.1h21.4c3.9,0,7.1,3.2,7.1,7.1v7.4
						C798.6,606.3,795.4,609.5,791.4,609.5z M770,591.1c-2.1,0-3.8,1.7-3.8,3.8v7.4c0,2.1,1.7,3.8,3.8,3.8h21.4
						c2.1,0,3.8-1.7,3.8-3.8V595c0-2.1-1.7-3.8-3.8-3.8H770z"/>
				</g>
			</g>
			<g>
				<g>
					<path class="st0" d="M798.7,647.7h-36c-4.4,0-7.9-3.6-7.9-7.9v-13.5c0-4.4,3.6-7.9,7.9-7.9h36c4.4,0,7.9,3.6,7.9,7.9v13.5
						C806.6,644.1,803.1,647.7,798.7,647.7z"/>
				</g>
				<g>
					<path class="st0" d="M798.7,649.4h-36c-5.3,0-9.6-4.3-9.6-9.6v-13.5c0-5.3,4.3-9.6,9.6-9.6h36c5.3,0,9.6,4.3,9.6,9.6v13.5
						C808.3,645.1,804,649.4,798.7,649.4z M762.7,620c-3.5,0-6.3,2.8-6.3,6.3v13.5c0,3.5,2.8,6.3,6.3,6.3h36c3.5,0,6.3-2.8,6.3-6.3
						v-13.5c0-3.5-2.8-6.3-6.3-6.3H762.7z"/>
				</g>
			</g>
			<g>
				<g>
					<path class="st1" d="M828.5,538.8h-95.6v0c-5,0-9,6.9-9,15.4c0,8.5,4,15.4,9,15.4v0h95.6c5,0,9-6.9,9-15.4
						C837.5,545.7,833.5,538.8,828.5,538.8z"/>
				</g>
				<g>
					<path class="st0" d="M732.9,571.3c-6,0-10.7-7.5-10.7-17.1c0-9.4,4.5-16.8,10.4-17.1c0.1,0,0.2,0,0.3,0h95.6
						c6,0,10.7,7.5,10.7,17.1c0,9.6-4.7,17.1-10.7,17.1h-95.3C733.1,571.3,733,571.3,732.9,571.3z M733.2,540.4c-0.1,0-0.2,0-0.3,0
						c-4,0-7.4,6.3-7.4,13.8c0,7.3,3.3,13.6,7.2,13.8c0.1,0,0.1,0,0.2,0h95.6c4,0,7.4-6.3,7.4-13.8c0-7.5-3.4-13.8-7.4-13.8H733.2z"
						/>
				</g>
			</g>
			<g>
				<g>
					<path class="st0" d="M836.7,562.2h-112c-0.9,0-1.6-0.7-1.6-1.6s0.7-1.6,1.6-1.6h112c0.9,0,1.6,0.7,1.6,1.6
						S837.6,562.2,836.7,562.2z"/>
				</g>
			</g>
			<g>
				<g>
					<path class="st0" d="M791.5,579H770c-3,0-5.5-2.4-5.5-5.5l-7.6-34.6c0-3,2.4-5.5,5.5-5.5h36.8c3,0,5.5,2.4,5.5,5.5l-7.6,34.6
						C796.9,576.5,794.5,579,791.5,579z"/>
				</g>
				<g>
					<path class="st0" d="M791.5,580.6H770c-3.9,0-7-3.1-7.1-6.9l-7.6-34.6v-0.2c0-3.9,3.2-7.1,7.1-7.1h36.8c3.9,0,7.1,3.2,7.1,7.1
						l0,0.4l-7.6,34.4C798.5,577.5,795.3,580.6,791.5,580.6z M758.5,538.8l7.6,34.6v0.2c0,2.1,1.7,3.8,3.8,3.8h21.5
						c2.1,0,3.8-1.7,3.8-3.8l0-0.4l7.6-34.4c-0.1-2-1.8-3.6-3.8-3.6h-36.8C760.3,535.1,758.6,536.7,758.5,538.8z"/>
				</g>
			</g>
			<g>
				<g>
					<circle class="st1" cx="780.7" cy="565.8" r="4.8"/>
				</g>
				<g>
					<path class="st1" d="M780.7,572.3c-3.6,0-6.5-2.9-6.5-6.5c0-3.6,2.9-6.5,6.5-6.5s6.5,2.9,6.5,6.5
						C787.2,569.4,784.3,572.3,780.7,572.3z M780.7,562.7c-1.8,0-3.2,1.4-3.2,3.2c0,1.8,1.4,3.2,3.2,3.2s3.2-1.4,3.2-3.2
						C783.9,564.1,782.5,562.7,780.7,562.7z"/>
				</g>
			</g>
		</g>
		<g>
			<g>
				<path class="st0" d="M923,776.3h45.1l5.9-22.9c2.5-9.1,4.6-19.9,6.5-31.2l4.3-49.6h2.1l18.4,56.7c1.8,7,4.4,17.6,2.5,24.6
					l-6,22.4h44.9l6.9-27.1c1.8-7,1.8-14.4,0-21.4l-25.5-94.6l-94,0v39.4l0.3,49.1c0,9.4-1.2,18.7-3.7,27.8L923,776.3z"/>
			</g>
			<g>
				<path class="st0" d="M1046.7,777.9h-44.9c-0.5,0-1-0.2-1.3-0.6c-0.3-0.4-0.4-0.9-0.3-1.4l6-22.4c1.9-7.1-1.2-18.8-2.5-23.8
					l-17.4-53.9l-4,46.5c0,0,0,0.1,0,0.1c-2.1,12.5-4.3,23.1-6.6,31.3l-5.9,22.9c-0.2,0.7-0.8,1.2-1.6,1.2H923c-0.5,0-1-0.2-1.3-0.7
					c-0.3-0.4-0.4-0.9-0.3-1.4l7.7-26.7c2.4-8.9,3.6-18.1,3.6-27.3l-0.3-49.1v-39.4c0-0.4,0.2-0.9,0.5-1.2s0.7-0.5,1.2-0.5l0,0l94,0
					c0.7,0,1.4,0.5,1.6,1.2l25.5,94.6c1.9,7.3,1.9,15,0,22.2l-6.9,27.1C1048.1,777.4,1047.5,777.9,1046.7,777.9z M1004,774.6h41.5
					l6.6-25.8c1.8-6.7,1.8-13.8,0-20.6l-25.1-93.3l-91.1,0v37.7l0.3,49.1c0,9.5-1.3,19-3.8,28.2l-7.1,24.7h41.6l5.6-21.7
					c2.2-8.1,4.4-18.5,6.5-31l4.3-49.5c0.1-0.9,0.8-1.5,1.6-1.5h2.1c0.7,0,1.3,0.5,1.6,1.1l18.4,56.7c2.3,8.8,4.4,18.6,2.6,25.6
					L1004,774.6z"/>
			</g>
		</g>
	</g>
</g>
</svg>
